%TF.GenerationSoftware,KiCad,Pcbnew,9.0.7*%
%TF.CreationDate,2026-04-10T17:13:31-06:00*%
%TF.ProjectId,nixie_driver,6e697869-655f-4647-9269-7665722e6b69,rev?*%
%TF.SameCoordinates,Original*%
%TF.FileFunction,Copper,L2,Bot*%
%TF.FilePolarity,Positive*%
%FSLAX46Y46*%
G04 Gerber Fmt 4.6, Leading zero omitted, Abs format (unit mm)*
G04 Created by KiCad (PCBNEW 9.0.7) date 2026-04-10 17:13:31*
%MOMM*%
%LPD*%
G01*
G04 APERTURE LIST*
G04 Aperture macros list*
%AMRoundRect*
0 Rectangle with rounded corners*
0 $1 Rounding radius*
0 $2 $3 $4 $5 $6 $7 $8 $9 X,Y pos of 4 corners*
0 Add a 4 corners polygon primitive as box body*
4,1,4,$2,$3,$4,$5,$6,$7,$8,$9,$2,$3,0*
0 Add four circle primitives for the rounded corners*
1,1,$1+$1,$2,$3*
1,1,$1+$1,$4,$5*
1,1,$1+$1,$6,$7*
1,1,$1+$1,$8,$9*
0 Add four rect primitives between the rounded corners*
20,1,$1+$1,$2,$3,$4,$5,0*
20,1,$1+$1,$4,$5,$6,$7,0*
20,1,$1+$1,$6,$7,$8,$9,0*
20,1,$1+$1,$8,$9,$2,$3,0*%
G04 Aperture macros list end*
%TA.AperFunction,ComponentPad*%
%ADD10R,1.700000X1.700000*%
%TD*%
%TA.AperFunction,ComponentPad*%
%ADD11C,1.700000*%
%TD*%
%TA.AperFunction,ComponentPad*%
%ADD12O,2.641600X1.320800*%
%TD*%
%TA.AperFunction,ComponentPad*%
%ADD13C,2.800000*%
%TD*%
%TA.AperFunction,ComponentPad*%
%ADD14RoundRect,0.250001X-1.149999X1.149999X-1.149999X-1.149999X1.149999X-1.149999X1.149999X1.149999X0*%
%TD*%
%TA.AperFunction,ComponentPad*%
%ADD15C,2.400000*%
%TD*%
%TA.AperFunction,ComponentPad*%
%ADD16RoundRect,0.250000X0.550000X0.550000X-0.550000X0.550000X-0.550000X-0.550000X0.550000X-0.550000X0*%
%TD*%
%TA.AperFunction,ComponentPad*%
%ADD17C,1.600000*%
%TD*%
%TA.AperFunction,HeatsinkPad*%
%ADD18O,1.700000X1.350000*%
%TD*%
%TA.AperFunction,HeatsinkPad*%
%ADD19O,1.500000X1.100000*%
%TD*%
%TA.AperFunction,ViaPad*%
%ADD20C,7.620000*%
%TD*%
%TA.AperFunction,ViaPad*%
%ADD21C,0.600000*%
%TD*%
%TA.AperFunction,Conductor*%
%ADD22C,0.200000*%
%TD*%
%TA.AperFunction,Conductor*%
%ADD23C,0.762000*%
%TD*%
G04 APERTURE END LIST*
D10*
%TO.P,J25,1,Pin_1*%
%TO.N,unconnected-(J25-Pin_1-Pad1)*%
X182300000Y-76327000D03*
D11*
%TO.P,J25,2,Pin_2*%
%TO.N,unconnected-(J25-Pin_2-Pad2)*%
X182300000Y-78867000D03*
%TD*%
%TO.P,J24,5,Pin_5*%
%TO.N,/U4_5*%
X179705000Y-81407000D03*
%TO.P,J24,4,Pin_4*%
%TO.N,/U4_4*%
X179705000Y-78867000D03*
%TO.P,J24,3,Pin_3*%
%TO.N,/U4_3*%
X179705000Y-76327000D03*
%TO.P,J24,2,Pin_2*%
%TO.N,/U4_2*%
X179705000Y-73787000D03*
D10*
%TO.P,J24,1,Pin_1*%
%TO.N,/U4_1*%
X179705000Y-71247000D03*
%TD*%
%TO.P,J23,1,Pin_1*%
%TO.N,/U4_8*%
X176972000Y-71247000D03*
D11*
%TO.P,J23,2,Pin_2*%
%TO.N,/U4_9*%
X176972000Y-73787000D03*
%TO.P,J23,3,Pin_3*%
%TO.N,/U4_0*%
X176972000Y-76327000D03*
%TO.P,J23,4,Pin_4*%
%TO.N,/U4_7*%
X176972000Y-78867000D03*
%TO.P,J23,5,Pin_5*%
%TO.N,/U4_6*%
X176972000Y-81407000D03*
%TD*%
D10*
%TO.P,J22,1,Pin_1*%
%TO.N,unconnected-(J22-Pin_1-Pad1)*%
X174371000Y-76327000D03*
D11*
%TO.P,J22,2,Pin_2*%
%TO.N,Net-(J22-Pin_2)*%
X174371000Y-78867000D03*
%TD*%
%TO.P,J21,2,Pin_2*%
%TO.N,unconnected-(J21-Pin_2-Pad2)*%
X166800000Y-78837000D03*
D10*
%TO.P,J21,1,Pin_1*%
%TO.N,unconnected-(J21-Pin_1-Pad1)*%
X166800000Y-76297000D03*
%TD*%
%TO.P,J20,1,Pin_1*%
%TO.N,/U3_1*%
X164211000Y-71247000D03*
D11*
%TO.P,J20,2,Pin_2*%
%TO.N,/U3_2*%
X164211000Y-73787000D03*
%TO.P,J20,3,Pin_3*%
%TO.N,/U3_3*%
X164211000Y-76327000D03*
%TO.P,J20,4,Pin_4*%
%TO.N,/U3_4*%
X164211000Y-78867000D03*
%TO.P,J20,5,Pin_5*%
%TO.N,/U3_5*%
X164211000Y-81407000D03*
%TD*%
D10*
%TO.P,J19,1,Pin_1*%
%TO.N,/U3_8*%
X161472000Y-71247000D03*
D11*
%TO.P,J19,2,Pin_2*%
%TO.N,/U3_9*%
X161472000Y-73787000D03*
%TO.P,J19,3,Pin_3*%
%TO.N,/U3_0*%
X161472000Y-76327000D03*
%TO.P,J19,4,Pin_4*%
%TO.N,/U3_7*%
X161472000Y-78867000D03*
%TO.P,J19,5,Pin_5*%
%TO.N,/U3_6*%
X161472000Y-81407000D03*
%TD*%
D10*
%TO.P,J18,1,Pin_1*%
%TO.N,unconnected-(J18-Pin_1-Pad1)*%
X158872000Y-76297000D03*
D11*
%TO.P,J18,2,Pin_2*%
%TO.N,Net-(J18-Pin_2)*%
X158872000Y-78837000D03*
%TD*%
%TO.P,J17,2,Pin_2*%
%TO.N,unconnected-(J17-Pin_2-Pad2)*%
X150900000Y-78867000D03*
D10*
%TO.P,J17,1,Pin_1*%
%TO.N,unconnected-(J17-Pin_1-Pad1)*%
X150900000Y-76327000D03*
%TD*%
%TO.P,J14,1,Pin_1*%
%TO.N,unconnected-(J14-Pin_1-Pad1)*%
X143100000Y-76327000D03*
D11*
%TO.P,J14,2,Pin_2*%
%TO.N,Net-(J14-Pin_2)*%
X143100000Y-78867000D03*
%TD*%
D10*
%TO.P,J8,1,Pin_1*%
%TO.N,unconnected-(J8-Pin_1-Pad1)*%
X135200000Y-76327000D03*
D11*
%TO.P,J8,2,Pin_2*%
%TO.N,unconnected-(J8-Pin_2-Pad2)*%
X135200000Y-78867000D03*
%TD*%
%TO.P,J7,5,Pin_5*%
%TO.N,/U1_5*%
X132588000Y-81407000D03*
%TO.P,J7,4,Pin_4*%
%TO.N,/U1_4*%
X132588000Y-78867000D03*
%TO.P,J7,3,Pin_3*%
%TO.N,/U1_3*%
X132588000Y-76327000D03*
%TO.P,J7,2,Pin_2*%
%TO.N,/U1_2*%
X132588000Y-73787000D03*
D10*
%TO.P,J7,1,Pin_1*%
%TO.N,/U1_1*%
X132588000Y-71247000D03*
%TD*%
%TO.P,J5,1,Pin_1*%
%TO.N,/U1_8*%
X129922000Y-71247000D03*
D11*
%TO.P,J5,2,Pin_2*%
%TO.N,/U1_9*%
X129922000Y-73787000D03*
%TO.P,J5,3,Pin_3*%
%TO.N,/U1_0*%
X129922000Y-76327000D03*
%TO.P,J5,4,Pin_4*%
%TO.N,/U1_7*%
X129922000Y-78867000D03*
%TO.P,J5,5,Pin_5*%
%TO.N,/U1_6*%
X129922000Y-81407000D03*
%TD*%
%TO.P,J6,2,Pin_2*%
%TO.N,Net-(J6-Pin_2)*%
X127300000Y-78867000D03*
D10*
%TO.P,J6,1,Pin_1*%
%TO.N,unconnected-(J6-Pin_1-Pad1)*%
X127300000Y-76327000D03*
%TD*%
%TO.P,J15,1,Pin_1*%
%TO.N,/U2_8*%
X145717000Y-71247000D03*
D11*
%TO.P,J15,2,Pin_2*%
%TO.N,/U2_9*%
X145717000Y-73787000D03*
%TO.P,J15,3,Pin_3*%
%TO.N,/U2_0*%
X145717000Y-76327000D03*
%TO.P,J15,4,Pin_4*%
%TO.N,/U2_7*%
X145717000Y-78867000D03*
%TO.P,J15,5,Pin_5*%
%TO.N,/U2_6*%
X145717000Y-81407000D03*
%TD*%
D10*
%TO.P,J16,1,Pin_1*%
%TO.N,/U2_1*%
X148336000Y-71247000D03*
D11*
%TO.P,J16,2,Pin_2*%
%TO.N,/U2_2*%
X148336000Y-73787000D03*
%TO.P,J16,3,Pin_3*%
%TO.N,/U2_3*%
X148336000Y-76327000D03*
%TO.P,J16,4,Pin_4*%
%TO.N,/U2_4*%
X148336000Y-78867000D03*
%TO.P,J16,5,Pin_5*%
%TO.N,/U2_5*%
X148336000Y-81407000D03*
%TD*%
D12*
%TO.P,U2,16,0*%
%TO.N,/U2_0*%
X143510000Y-107315000D03*
%TO.P,U2,15,1*%
%TO.N,/U2_1*%
X143510000Y-104775000D03*
%TO.P,U2,14,5*%
%TO.N,/U2_5*%
X143510000Y-102235000D03*
%TO.P,U2,13,4*%
%TO.N,/U2_4*%
X143510000Y-99695000D03*
%TO.P,U2,12,GND*%
%TO.N,GND*%
X143510000Y-97155000D03*
%TO.P,U2,11,6*%
%TO.N,/U2_6*%
X143510000Y-94615000D03*
%TO.P,U2,10,7*%
%TO.N,/U2_7*%
X143510000Y-92075000D03*
%TO.P,U2,9,3*%
%TO.N,/U2_3*%
X143510000Y-89535000D03*
%TO.P,U2,8,2*%
%TO.N,/U2_2*%
X151130000Y-89535000D03*
%TO.P,U2,7,C*%
%TO.N,/U2_C*%
X151130000Y-92075000D03*
%TO.P,U2,6,B*%
%TO.N,/U2_B*%
X151130000Y-94615000D03*
%TO.P,U2,5,VCC*%
%TO.N,Net-(U2-VCC)*%
X151130000Y-97155000D03*
%TO.P,U2,4,D*%
%TO.N,/U2_D*%
X151130000Y-99695000D03*
%TO.P,U2,3,A*%
%TO.N,/U2_A*%
X151130000Y-102235000D03*
%TO.P,U2,2,9*%
%TO.N,/U2_9*%
X151130000Y-104775000D03*
%TO.P,U2,1,8*%
%TO.N,/U2_8*%
X151130000Y-107315000D03*
%TD*%
D11*
%TO.P,J3,2,Pin_2*%
%TO.N,unconnected-(J3-Pin_2-Pad2)*%
X114020600Y-51968400D03*
D10*
%TO.P,J3,1,Pin_1*%
%TO.N,170V*%
X114020600Y-49428400D03*
%TD*%
D13*
%TO.P,J4,2,Pin_2*%
%TO.N,170V*%
X113563500Y-63510800D03*
D14*
%TO.P,J4,1,Pin_1*%
%TO.N,GND*%
X113563500Y-58510800D03*
%TD*%
D12*
%TO.P,U4,1,8*%
%TO.N,/U4_8*%
X186055000Y-107315000D03*
%TO.P,U4,2,9*%
%TO.N,/U4_9*%
X186055000Y-104775000D03*
%TO.P,U4,3,A*%
%TO.N,/U4_A*%
X186055000Y-102235000D03*
%TO.P,U4,4,D*%
%TO.N,/U4_D*%
X186055000Y-99695000D03*
%TO.P,U4,5,VCC*%
%TO.N,Net-(U4-VCC)*%
X186055000Y-97155000D03*
%TO.P,U4,6,B*%
%TO.N,/U4_B*%
X186055000Y-94615000D03*
%TO.P,U4,7,C*%
%TO.N,/U4_C*%
X186055000Y-92075000D03*
%TO.P,U4,8,2*%
%TO.N,/U4_2*%
X186055000Y-89535000D03*
%TO.P,U4,9,3*%
%TO.N,/U4_3*%
X178435000Y-89535000D03*
%TO.P,U4,10,7*%
%TO.N,/U4_7*%
X178435000Y-92075000D03*
%TO.P,U4,11,6*%
%TO.N,/U4_6*%
X178435000Y-94615000D03*
%TO.P,U4,12,GND*%
%TO.N,GND*%
X178435000Y-97155000D03*
%TO.P,U4,13,4*%
%TO.N,/U4_4*%
X178435000Y-99695000D03*
%TO.P,U4,14,5*%
%TO.N,/U4_5*%
X178435000Y-102235000D03*
%TO.P,U4,15,1*%
%TO.N,/U4_1*%
X178435000Y-104775000D03*
%TO.P,U4,16,0*%
%TO.N,/U4_0*%
X178435000Y-107315000D03*
%TD*%
%TO.P,U3,1,8*%
%TO.N,/U3_8*%
X168910000Y-107315000D03*
%TO.P,U3,2,9*%
%TO.N,/U3_9*%
X168910000Y-104775000D03*
%TO.P,U3,3,A*%
%TO.N,/U3_A*%
X168910000Y-102235000D03*
%TO.P,U3,4,D*%
%TO.N,/U3_D*%
X168910000Y-99695000D03*
%TO.P,U3,5,VCC*%
%TO.N,Net-(U3-VCC)*%
X168910000Y-97155000D03*
%TO.P,U3,6,B*%
%TO.N,/U3_B*%
X168910000Y-94615000D03*
%TO.P,U3,7,C*%
%TO.N,/U3_C*%
X168910000Y-92075000D03*
%TO.P,U3,8,2*%
%TO.N,/U3_2*%
X168910000Y-89535000D03*
%TO.P,U3,9,3*%
%TO.N,/U3_3*%
X161290000Y-89535000D03*
%TO.P,U3,10,7*%
%TO.N,/U3_7*%
X161290000Y-92075000D03*
%TO.P,U3,11,6*%
%TO.N,/U3_6*%
X161290000Y-94615000D03*
%TO.P,U3,12,GND*%
%TO.N,GND*%
X161290000Y-97155000D03*
%TO.P,U3,13,4*%
%TO.N,/U3_4*%
X161290000Y-99695000D03*
%TO.P,U3,14,5*%
%TO.N,/U3_5*%
X161290000Y-102235000D03*
%TO.P,U3,15,1*%
%TO.N,/U3_1*%
X161290000Y-104775000D03*
%TO.P,U3,16,0*%
%TO.N,/U3_0*%
X161290000Y-107315000D03*
%TD*%
%TO.P,U1,1,8*%
%TO.N,/U1_8*%
X133807200Y-107315000D03*
%TO.P,U1,2,9*%
%TO.N,/U1_9*%
X133807200Y-104775000D03*
%TO.P,U1,3,A*%
%TO.N,/U1_A*%
X133807200Y-102235000D03*
%TO.P,U1,4,D*%
%TO.N,/U1_D*%
X133807200Y-99695000D03*
%TO.P,U1,5,VCC*%
%TO.N,Net-(U1-VCC)*%
X133807200Y-97155000D03*
%TO.P,U1,6,B*%
%TO.N,/U1_B*%
X133807200Y-94615000D03*
%TO.P,U1,7,C*%
%TO.N,/U1_C*%
X133807200Y-92075000D03*
%TO.P,U1,8,2*%
%TO.N,/U1_2*%
X133807200Y-89535000D03*
%TO.P,U1,9,3*%
%TO.N,/U1_3*%
X126187200Y-89535000D03*
%TO.P,U1,10,7*%
%TO.N,/U1_7*%
X126187200Y-92075000D03*
%TO.P,U1,11,6*%
%TO.N,/U1_6*%
X126187200Y-94615000D03*
%TO.P,U1,12,GND*%
%TO.N,GND*%
X126187200Y-97155000D03*
%TO.P,U1,13,4*%
%TO.N,/U1_4*%
X126187200Y-99695000D03*
%TO.P,U1,14,5*%
%TO.N,/U1_5*%
X126187200Y-102235000D03*
%TO.P,U1,15,1*%
%TO.N,/U1_1*%
X126187200Y-104775000D03*
%TO.P,U1,16,0*%
%TO.N,/U1_0*%
X126187200Y-107315000D03*
%TD*%
D15*
%TO.P,R4,1*%
%TO.N,170V*%
X172567600Y-47726600D03*
%TO.P,R4,2*%
%TO.N,Net-(J22-Pin_2)*%
X172567600Y-68046600D03*
%TD*%
%TO.P,R3,1*%
%TO.N,170V*%
X157073600Y-47879000D03*
%TO.P,R3,2*%
%TO.N,Net-(J18-Pin_2)*%
X157073600Y-68199000D03*
%TD*%
%TO.P,R2,1*%
%TO.N,170V*%
X141351000Y-47752000D03*
%TO.P,R2,2*%
%TO.N,Net-(J14-Pin_2)*%
X141351000Y-68072000D03*
%TD*%
%TO.P,R1,1*%
%TO.N,170V*%
X125552200Y-47752000D03*
%TO.P,R1,2*%
%TO.N,Net-(J6-Pin_2)*%
X125552200Y-68072000D03*
%TD*%
D10*
%TO.P,J2,1,Pin_1*%
%TO.N,/U1_A*%
X198755000Y-70485000D03*
D11*
%TO.P,J2,2,Pin_2*%
%TO.N,/U1_B*%
X198755000Y-73025000D03*
%TO.P,J2,3,Pin_3*%
%TO.N,/U1_C*%
X198755000Y-75565000D03*
%TO.P,J2,4,Pin_4*%
%TO.N,/U1_D*%
X198755000Y-78105000D03*
%TO.P,J2,5,Pin_5*%
%TO.N,/U2_A*%
X198755000Y-80645000D03*
%TO.P,J2,6,Pin_6*%
%TO.N,/U2_B*%
X198755000Y-83185000D03*
%TO.P,J2,7,Pin_7*%
%TO.N,/U2_C*%
X198755000Y-85725000D03*
%TO.P,J2,8,Pin_8*%
%TO.N,/U2_D*%
X198755000Y-88265000D03*
%TO.P,J2,9,Pin_9*%
%TO.N,/U3_A*%
X198755000Y-90805000D03*
%TO.P,J2,10,Pin_10*%
%TO.N,/U3_B*%
X198755000Y-93345000D03*
%TO.P,J2,11,Pin_11*%
%TO.N,/U3_C*%
X198755000Y-95885000D03*
%TO.P,J2,12,Pin_12*%
%TO.N,/U3_D*%
X198755000Y-98425000D03*
%TO.P,J2,13,Pin_13*%
%TO.N,/U4_A*%
X198755000Y-100965000D03*
%TO.P,J2,14,Pin_14*%
%TO.N,/U4_B*%
X198755000Y-103505000D03*
%TO.P,J2,15,Pin_15*%
%TO.N,/U4_C*%
X198755000Y-106045000D03*
%TO.P,J2,16,Pin_16*%
%TO.N,/U4_D*%
X198755000Y-108585000D03*
%TD*%
D16*
%TO.P,C7,1*%
%TO.N,170V*%
X117800000Y-71983600D03*
D17*
%TO.P,C7,2*%
X114300000Y-71983600D03*
%TD*%
D18*
%TO.P,J1,6,Shield*%
%TO.N,Net-(J1-Shield)*%
X112300000Y-83382000D03*
D19*
X115300000Y-83692000D03*
X115300000Y-88532000D03*
D18*
X112300000Y-88842000D03*
%TD*%
D20*
%TO.N,GND*%
X198120000Y-49530000D03*
X114300000Y-109220000D03*
D21*
X182118000Y-106680000D03*
X182880000Y-105664000D03*
X182880000Y-103251000D03*
X180848000Y-105410000D03*
X182118000Y-104292400D03*
X182626000Y-104902000D03*
X181102000Y-106299000D03*
X181991000Y-105664000D03*
X181737000Y-102870000D03*
X181229000Y-104394000D03*
X182626000Y-102489000D03*
X182118000Y-103505000D03*
X180594000Y-103632000D03*
X172237400Y-91236800D03*
X172212000Y-91821000D03*
X172923200Y-91287600D03*
X175768000Y-94996000D03*
X175768000Y-92710000D03*
X175768000Y-93980000D03*
X175768000Y-95885000D03*
X173863000Y-92837000D03*
X173609000Y-93599000D03*
X173609000Y-94488000D03*
X166370000Y-92583000D03*
X155575000Y-92075000D03*
X157988000Y-89281000D03*
X156337000Y-90932000D03*
X157099000Y-89789000D03*
X157734000Y-90932000D03*
X157099000Y-91821000D03*
X156337000Y-92583000D03*
X157607000Y-92583000D03*
X157353000Y-93726000D03*
X156337000Y-93726000D03*
X139446000Y-92075000D03*
X138049000Y-93472000D03*
X139065000Y-93853000D03*
X140462000Y-93599000D03*
X140208000Y-92456000D03*
X138684000Y-92710000D03*
X139573000Y-93091000D03*
X145415000Y-84328000D03*
X144399000Y-84582000D03*
X144526000Y-86106000D03*
X145161000Y-85344000D03*
X140208000Y-88646000D03*
X140081000Y-89662000D03*
X138938000Y-89281000D03*
X139319000Y-88265000D03*
X140335000Y-87376000D03*
X143256000Y-87503000D03*
X143256000Y-86868000D03*
X143256000Y-85979000D03*
X143256000Y-85217000D03*
X143256000Y-84582000D03*
X146304000Y-88265000D03*
X145923000Y-89154000D03*
X145669000Y-90043000D03*
X115443000Y-102743000D03*
X115570000Y-101600000D03*
X115570000Y-100584000D03*
X115570000Y-99187000D03*
%TO.N,/U2_6*%
X147955000Y-91694000D03*
%TO.N,GND*%
X146050000Y-95250000D03*
X146050000Y-93980000D03*
X147320000Y-93980000D03*
X147320000Y-92710000D03*
X166370000Y-93980000D03*
X166370000Y-95250000D03*
X166370000Y-91440000D03*
X166370000Y-90170000D03*
X166370000Y-88900000D03*
X170180000Y-81280000D03*
X171450000Y-81280000D03*
X171450000Y-80010000D03*
X171450000Y-82550000D03*
X171450000Y-83820000D03*
X170180000Y-83820000D03*
X170180000Y-82550000D03*
%TO.N,/5V*%
X154635200Y-94335600D03*
X140512800Y-95402400D03*
X120396000Y-109372400D03*
X173685200Y-106578400D03*
%TO.N,/U3_D*%
X172466000Y-92913200D03*
X172415200Y-96875600D03*
%TO.N,GND*%
X157480000Y-97180400D03*
X158191200Y-97180400D03*
X122555000Y-100330000D03*
X122555000Y-93980000D03*
X140335000Y-97155000D03*
X139700000Y-97155000D03*
X117475000Y-87630000D03*
X117475000Y-86995000D03*
%TO.N,/U4_4*%
X181610000Y-86995000D03*
%TO.N,/U4_6*%
X180340000Y-86995000D03*
%TO.N,/U3_6*%
X163830000Y-87630000D03*
%TO.N,/U2_4*%
X148590000Y-86360000D03*
%TO.N,/U2_6*%
X147320000Y-88900000D03*
%TO.N,/U1_4*%
X132080000Y-85725000D03*
%TO.N,/U1_6*%
X130175000Y-89535000D03*
%TD*%
D22*
%TO.N,/U2_0*%
X145717000Y-76327000D02*
X144566000Y-77478000D01*
X144566000Y-79028760D02*
X141585200Y-82009560D01*
X144566000Y-77478000D02*
X144566000Y-79028760D01*
X141585200Y-82009560D02*
X141487200Y-82009560D01*
%TO.N,/U3_3*%
X162623000Y-77915000D02*
X162826700Y-77711300D01*
D23*
%TO.N,Net-(J22-Pin_2)*%
X172567600Y-68046600D02*
X172567600Y-77063600D01*
D22*
%TO.N,/U2_2*%
X151130000Y-89535000D02*
X149852000Y-88257000D01*
X149852000Y-88257000D02*
X149852000Y-82355900D01*
X149852000Y-82355900D02*
X149631400Y-82135300D01*
X149631400Y-82135300D02*
X149631400Y-75082400D01*
X149631400Y-75082400D02*
X148336000Y-73787000D01*
%TO.N,/U3_1*%
X170531800Y-89933225D02*
X169660025Y-90805000D01*
X170531800Y-89136775D02*
X167695025Y-86300000D01*
X165900000Y-85600000D02*
X165900000Y-82000000D01*
X170531800Y-89933225D02*
X170531800Y-89136775D01*
X166600000Y-86300000D02*
X165900000Y-85600000D01*
X167695025Y-86300000D02*
X166600000Y-86300000D01*
X165900000Y-82000000D02*
X168200000Y-79700000D01*
X168200000Y-79700000D02*
X168200000Y-75236000D01*
X168200000Y-75236000D02*
X164211000Y-71247000D01*
%TO.N,/U2_6*%
X147955000Y-91694000D02*
X147955000Y-91440000D01*
X147955000Y-91440000D02*
X147320000Y-90805000D01*
X147320000Y-90805000D02*
X147320000Y-88900000D01*
%TO.N,/5V*%
X154381200Y-99568000D02*
X154381200Y-94589600D01*
X156260800Y-109372400D02*
X138430000Y-109372400D01*
X154381200Y-94589600D02*
X154635200Y-94335600D01*
X156260800Y-109372400D02*
X156260800Y-101447600D01*
X156260800Y-101447600D02*
X154381200Y-99568000D01*
X138430000Y-109372400D02*
X138430000Y-97485200D01*
X170891200Y-109372400D02*
X156260800Y-109372400D01*
X138430000Y-97485200D02*
X140512800Y-95402400D01*
X138430000Y-109372400D02*
X120396000Y-109372400D01*
X173685200Y-106578400D02*
X170891200Y-109372400D01*
%TO.N,/U3_D*%
X172415200Y-92964000D02*
X172466000Y-92913200D01*
X172415200Y-96875600D02*
X172415200Y-92964000D01*
D23*
%TO.N,170V*%
X114300000Y-71983600D02*
X114300000Y-64247300D01*
D22*
X114300000Y-64247300D02*
X113563500Y-63510800D01*
D23*
X114300000Y-64247300D02*
X113797200Y-63744500D01*
X117800000Y-71480800D02*
X117800000Y-60279900D01*
X117800000Y-60279900D02*
X117297200Y-59777100D01*
D22*
%TO.N,/U2_9*%
X145717000Y-73787000D02*
X144566000Y-72636000D01*
X144566000Y-72636000D02*
X144566000Y-70096000D01*
X153553800Y-104091700D02*
X154071000Y-104608900D01*
X144566000Y-70096000D02*
X144967000Y-69695000D01*
X144967000Y-69695000D02*
X149653100Y-69695000D01*
X149653100Y-69695000D02*
X149911600Y-69953500D01*
X149911600Y-69953500D02*
X149911600Y-71688400D01*
X149911600Y-71688400D02*
X153553800Y-75330600D01*
X150071375Y-108276400D02*
X149508200Y-107713225D01*
X153553800Y-75330600D02*
X153553800Y-104091700D01*
X154071000Y-104608900D02*
X154071000Y-106394025D01*
X154071000Y-106394025D02*
X152188625Y-108276400D01*
X152188625Y-108276400D02*
X150071375Y-108276400D01*
X149508200Y-107713225D02*
X149508200Y-106396800D01*
X149508200Y-106396800D02*
X151130000Y-104775000D01*
%TO.N,/U2_8*%
X151130000Y-107315000D02*
X153670000Y-104775000D01*
X153670000Y-104775000D02*
X153152800Y-104257800D01*
X153152800Y-104257800D02*
X153152800Y-75496700D01*
X153152800Y-75496700D02*
X149487000Y-71830900D01*
X149487000Y-71830900D02*
X149487000Y-70096000D01*
X146868000Y-70096000D02*
X145717000Y-71247000D01*
X149487000Y-70096000D02*
X146868000Y-70096000D01*
%TO.N,/U1_0*%
X123763400Y-104891200D02*
X123763400Y-84031360D01*
X123763400Y-84031360D02*
X128771000Y-79023760D01*
X128771000Y-79023760D02*
X128771000Y-77478000D01*
X128771000Y-77478000D02*
X129922000Y-76327000D01*
%TO.N,/U1_9*%
X128771000Y-72636000D02*
X128771000Y-70096000D01*
X128771000Y-70096000D02*
X129172000Y-69695000D01*
X129172000Y-69695000D02*
X133905100Y-69695000D01*
X133905100Y-69695000D02*
X137153000Y-72942900D01*
X137153000Y-72942900D02*
X137153000Y-105989225D01*
X137153000Y-105989225D02*
X134865825Y-108276400D01*
X134865825Y-108276400D02*
X132748575Y-108276400D01*
X132748575Y-108276400D02*
X132185400Y-107713225D01*
X132185400Y-107713225D02*
X132185400Y-106396800D01*
X132185400Y-106396800D02*
X133807200Y-104775000D01*
%TO.N,/U1_8*%
X133807200Y-107315000D02*
X136752000Y-104370200D01*
X136752000Y-73109000D02*
X133739000Y-70096000D01*
X136752000Y-104370200D02*
X136752000Y-73109000D01*
%TO.N,/U1_1*%
X126187200Y-104775000D02*
X127809000Y-103153200D01*
X127809000Y-103153200D02*
X127809000Y-100791000D01*
X127809000Y-100791000D02*
X133023600Y-95576400D01*
X133023600Y-95576400D02*
X134865825Y-95576400D01*
X134865825Y-95576400D02*
X136351000Y-94091225D01*
X136351000Y-94091225D02*
X136351000Y-75010000D01*
X136351000Y-75010000D02*
X132588000Y-71247000D01*
%TO.N,/U3_8*%
X168910000Y-107315000D02*
X171333800Y-104891200D01*
X166799650Y-85365450D02*
X166799650Y-82234550D01*
X169002000Y-73168900D02*
X165528100Y-69695000D01*
X171333800Y-104891200D02*
X171333800Y-88804575D01*
X171333800Y-88804575D02*
X167894675Y-85365450D01*
X167894675Y-85365450D02*
X166799650Y-85365450D01*
X161472000Y-70197000D02*
X161472000Y-71247000D01*
X166799650Y-82234550D02*
X169002000Y-80032200D01*
X169002000Y-80032200D02*
X169002000Y-73168900D01*
X161974000Y-69695000D02*
X161472000Y-70197000D01*
X165528100Y-69695000D02*
X161974000Y-69695000D01*
%TO.N,/U3_9*%
X165362000Y-70096000D02*
X168601000Y-73335000D01*
X168601000Y-73335000D02*
X168601000Y-79866100D01*
X166301000Y-85433900D02*
X166633550Y-85766450D01*
X166633550Y-85766450D02*
X167728575Y-85766450D01*
X170932800Y-88970675D02*
X170932800Y-102752200D01*
X168601000Y-79866100D02*
X166301000Y-82166100D01*
X166301000Y-82166100D02*
X166301000Y-85433900D01*
X167728575Y-85766450D02*
X170932800Y-88970675D01*
%TO.N,/U4_A*%
X186055000Y-102235000D02*
X184433200Y-103856800D01*
X184996375Y-108276400D02*
X191443600Y-108276400D01*
X184433200Y-103856800D02*
X184433200Y-107713225D01*
X191443600Y-108276400D02*
X198755000Y-100965000D01*
X184433200Y-107713225D02*
X184996375Y-108276400D01*
%TO.N,/U4_D*%
X192947600Y-108677400D02*
X193040000Y-108585000D01*
X193040000Y-108585000D02*
X198755000Y-108585000D01*
X186055000Y-99695000D02*
X184032200Y-101717800D01*
X184032200Y-101717800D02*
X184032200Y-107879325D01*
X184032200Y-107879325D02*
X184830275Y-108677400D01*
X184830275Y-108677400D02*
X192947600Y-108677400D01*
%TO.N,/U4_8*%
X186055000Y-107315000D02*
X188478800Y-104891200D01*
X176972000Y-70292000D02*
X176972000Y-71247000D01*
X188478800Y-104891200D02*
X188478800Y-77151700D01*
X188478800Y-77151700D02*
X181022100Y-69695000D01*
X181022100Y-69695000D02*
X177569000Y-69695000D01*
X177569000Y-69695000D02*
X176972000Y-70292000D01*
%TO.N,/U4_9*%
X186055000Y-104775000D02*
X188077800Y-102752200D01*
X188077800Y-102752200D02*
X188077800Y-77317800D01*
X188077800Y-77317800D02*
X180856000Y-70096000D01*
X180856000Y-70096000D02*
X178554000Y-70096000D01*
X178554000Y-70096000D02*
X178554000Y-72205000D01*
X178554000Y-72205000D02*
X176972000Y-73787000D01*
%TO.N,/U4_0*%
X178435000Y-107315000D02*
X174656880Y-103536880D01*
X174656880Y-80507880D02*
X175821000Y-79343760D01*
X175821000Y-77478000D02*
X176972000Y-76327000D01*
X174656880Y-103536880D02*
X174656880Y-80507880D01*
X175821000Y-79343760D02*
X175821000Y-77478000D01*
%TO.N,/U4_1*%
X178435000Y-104775000D02*
X184433200Y-98776800D01*
X187676800Y-95013225D02*
X187676800Y-79218800D01*
X184433200Y-98776800D02*
X184433200Y-96139575D01*
X186550450Y-96139575D02*
X187676800Y-95013225D01*
X184433200Y-96139575D02*
X186550450Y-96139575D01*
X187676800Y-79218800D02*
X179705000Y-71247000D01*
%TO.N,/U4_5*%
X178435000Y-102235000D02*
X176813200Y-100613200D01*
X176813200Y-100613200D02*
X176813200Y-96756775D01*
X176813200Y-96756775D02*
X177376375Y-96193600D01*
X181009000Y-85056100D02*
X179705000Y-83752100D01*
X177376375Y-96193600D02*
X179493625Y-96193600D01*
X181009000Y-94678225D02*
X181009000Y-85056100D01*
X179493625Y-96193600D02*
X181009000Y-94678225D01*
X179705000Y-83752100D02*
X179705000Y-81407000D01*
%TO.N,/U4_4*%
X184433200Y-89818200D02*
X181610000Y-86995000D01*
X184433200Y-93696800D02*
X184433200Y-89818200D01*
X178435000Y-99695000D02*
X184433200Y-93696800D01*
%TO.N,/U4_6*%
X180340000Y-92710000D02*
X180340000Y-86995000D01*
X178435000Y-94615000D02*
X180340000Y-92710000D01*
%TO.N,/U4_7*%
X178435000Y-92075000D02*
X175057880Y-88697880D01*
X175057880Y-88697880D02*
X175057880Y-80781120D01*
X175057880Y-80781120D02*
X176972000Y-78867000D01*
%TO.N,/U4_2*%
X186055000Y-89535000D02*
X180856000Y-84336000D01*
X180856000Y-84336000D02*
X180856000Y-74938000D01*
X180856000Y-74938000D02*
X179705000Y-73787000D01*
%TO.N,/U4_3*%
X178435000Y-89535000D02*
X178435000Y-77597000D01*
X178435000Y-77597000D02*
X179705000Y-76327000D01*
%TO.N,/U3_9*%
X168910000Y-104775000D02*
X170932800Y-102752200D01*
X165362000Y-70096000D02*
X163060000Y-70096000D01*
X163060000Y-70096000D02*
X163060000Y-72199000D01*
X163060000Y-72199000D02*
X161472000Y-73787000D01*
%TO.N,/U3_0*%
X161290000Y-107315000D02*
X159267200Y-105292200D01*
X160321000Y-77478000D02*
X161472000Y-76327000D01*
X159267200Y-105292200D02*
X159267200Y-80397560D01*
X159267200Y-80397560D02*
X160321000Y-79343760D01*
X160321000Y-79343760D02*
X160321000Y-77478000D01*
%TO.N,/U3_1*%
X161290000Y-104775000D02*
X167288200Y-98776800D01*
X167288200Y-98776800D02*
X167288200Y-91676775D01*
X167288200Y-91676775D02*
X168159975Y-90805000D01*
X168159975Y-90805000D02*
X169660025Y-90805000D01*
%TO.N,/U3_5*%
X161290000Y-102235000D02*
X164866000Y-98659000D01*
X164866000Y-98659000D02*
X164866000Y-82062000D01*
X164866000Y-82062000D02*
X164211000Y-81407000D01*
%TO.N,/U3_4*%
X161290000Y-99695000D02*
X164465000Y-96520000D01*
X164465000Y-96520000D02*
X164465000Y-83288760D01*
X164465000Y-83288760D02*
X163060000Y-81883760D01*
X163060000Y-80018000D02*
X164211000Y-78867000D01*
X163060000Y-81883760D02*
X163060000Y-80018000D01*
%TO.N,/U3_6*%
X163830000Y-92075000D02*
X163830000Y-87630000D01*
X161290000Y-94615000D02*
X163830000Y-92075000D01*
%TO.N,/U3_7*%
X161290000Y-92075000D02*
X159668200Y-90453200D01*
X159668200Y-90453200D02*
X159668200Y-80670800D01*
X159668200Y-80670800D02*
X161472000Y-78867000D01*
%TO.N,/U3_2*%
X168910000Y-89535000D02*
X165362000Y-85987000D01*
X165362000Y-85987000D02*
X165362000Y-74938000D01*
X165362000Y-74938000D02*
X164211000Y-73787000D01*
%TO.N,/U3_3*%
X161290000Y-89535000D02*
X162623000Y-88202000D01*
X162826700Y-77711300D02*
X164211000Y-76327000D01*
X162623000Y-88202000D02*
X162623000Y-77915000D01*
%TO.N,/U2_1*%
X143510000Y-104775000D02*
X150168600Y-98116400D01*
X150168600Y-98116400D02*
X152188625Y-98116400D01*
X152188625Y-98116400D02*
X152751800Y-97553225D01*
X152751800Y-97553225D02*
X152751800Y-75662800D01*
X152751800Y-75662800D02*
X148336000Y-71247000D01*
%TO.N,/U2_5*%
X143510000Y-102235000D02*
X149451000Y-96294000D01*
X149451000Y-96294000D02*
X149451000Y-82522000D01*
X149451000Y-82522000D02*
X148336000Y-81407000D01*
%TO.N,/U2_4*%
X148590000Y-94615000D02*
X148590000Y-86360000D01*
X143510000Y-99695000D02*
X148590000Y-94615000D01*
%TO.N,/U2_7*%
X143510000Y-92075000D02*
X141888200Y-90453200D01*
X141888200Y-90453200D02*
X141888200Y-82695800D01*
X141888200Y-82695800D02*
X145717000Y-78867000D01*
%TO.N,/U2_3*%
X143510000Y-89535000D02*
X146868000Y-86177000D01*
X146868000Y-86177000D02*
X146868000Y-77795000D01*
X146868000Y-77795000D02*
X148336000Y-76327000D01*
%TO.N,/U1_9*%
X129922000Y-73787000D02*
X128771000Y-72636000D01*
%TO.N,/U1_8*%
X133739000Y-70096000D02*
X131073000Y-70096000D01*
X131073000Y-70096000D02*
X129922000Y-71247000D01*
%TO.N,/U1_0*%
X126187200Y-107315000D02*
X123763400Y-104891200D01*
%TO.N,/U1_5*%
X126187200Y-102235000D02*
X124565400Y-100613200D01*
X126925400Y-96193600D02*
X131479000Y-91640000D01*
X124565400Y-100613200D02*
X124565400Y-96756775D01*
X124565400Y-96756775D02*
X125128575Y-96193600D01*
X125128575Y-96193600D02*
X126925400Y-96193600D01*
X131479000Y-91640000D02*
X131479000Y-84810300D01*
X131479000Y-84810300D02*
X132588000Y-83701300D01*
X132588000Y-83701300D02*
X132588000Y-81407000D01*
%TO.N,/U1_4*%
X132080000Y-93802200D02*
X132080000Y-85725000D01*
X126187200Y-99695000D02*
X132080000Y-93802200D01*
%TO.N,/U1_6*%
X130175000Y-90627200D02*
X130175000Y-89535000D01*
X126187200Y-94615000D02*
X130175000Y-90627200D01*
%TO.N,/U1_2*%
X133807200Y-89535000D02*
X133807200Y-75006200D01*
X133807200Y-75006200D02*
X132588000Y-73787000D01*
%TO.N,/U1_7*%
X126187200Y-92075000D02*
X124565400Y-90453200D01*
X124565400Y-90453200D02*
X124565400Y-84223600D01*
X124565400Y-84223600D02*
X129922000Y-78867000D01*
%TO.N,/U1_3*%
X126187200Y-89535000D02*
X131437000Y-84285200D01*
X131437000Y-84285200D02*
X131437000Y-77478000D01*
X131437000Y-77478000D02*
X132588000Y-76327000D01*
D23*
%TO.N,170V*%
X113563500Y-63510800D02*
X117297200Y-59777100D01*
D22*
X113797200Y-63744500D02*
X113563500Y-63510800D01*
D23*
X118719600Y-58354700D02*
X118719600Y-50139600D01*
X118719600Y-50139600D02*
X118008400Y-49428400D01*
D22*
X118008400Y-49428400D02*
X114020600Y-49428400D01*
D23*
X117297200Y-59777100D02*
X118719600Y-58354700D01*
X172567600Y-47726600D02*
X157226000Y-47726600D01*
D22*
X157226000Y-47726600D02*
X157073600Y-47879000D01*
D23*
X141351000Y-47752000D02*
X156946600Y-47752000D01*
D22*
X156946600Y-47752000D02*
X157073600Y-47879000D01*
D23*
X125552200Y-47752000D02*
X141351000Y-47752000D01*
X114020600Y-49428400D02*
X123875800Y-49428400D01*
X123875800Y-49428400D02*
X125552200Y-47752000D01*
%TO.N,Net-(J22-Pin_2)*%
X172567600Y-77063600D02*
X174371000Y-78867000D01*
%TO.N,Net-(J18-Pin_2)*%
X157073600Y-68199000D02*
X157073600Y-77038600D01*
X157073600Y-77038600D02*
X158872000Y-78837000D01*
%TO.N,Net-(J6-Pin_2)*%
X125552200Y-68072000D02*
X125552200Y-77165200D01*
X125552200Y-77165200D02*
X127254000Y-78867000D01*
%TO.N,Net-(J14-Pin_2)*%
X141351000Y-68072000D02*
X141351000Y-77216000D01*
X141351000Y-77216000D02*
X143002000Y-78867000D01*
D22*
%TO.N,/U2_0*%
X143510000Y-107315000D02*
X141487200Y-105292200D01*
X141487200Y-105292200D02*
X141487200Y-82009560D01*
%TD*%
%TA.AperFunction,Conductor*%
%TO.N,GND*%
G36*
X140808100Y-96179913D02*
G01*
X140863277Y-96222776D01*
X140886522Y-96288665D01*
X140886700Y-96295303D01*
X140886700Y-105205530D01*
X140886699Y-105205548D01*
X140886699Y-105371254D01*
X140886698Y-105371254D01*
X140920323Y-105496740D01*
X140927623Y-105523985D01*
X140929121Y-105526579D01*
X140929123Y-105526589D01*
X140929126Y-105526588D01*
X141006677Y-105660912D01*
X141006681Y-105660917D01*
X141125549Y-105779785D01*
X141125555Y-105779790D01*
X141864137Y-106518372D01*
X141897622Y-106579695D01*
X141892638Y-106649387D01*
X141876775Y-106678937D01*
X141856710Y-106706554D01*
X141773753Y-106869366D01*
X141717284Y-107043158D01*
X141688700Y-107223629D01*
X141688700Y-107406370D01*
X141717284Y-107586841D01*
X141717285Y-107586845D01*
X141773752Y-107760631D01*
X141856709Y-107923444D01*
X141964115Y-108071276D01*
X142093324Y-108200485D01*
X142241156Y-108307891D01*
X142403969Y-108390848D01*
X142577755Y-108447315D01*
X142645435Y-108458034D01*
X142758230Y-108475900D01*
X142758235Y-108475900D01*
X144261770Y-108475900D01*
X144362031Y-108460019D01*
X144442245Y-108447315D01*
X144616031Y-108390848D01*
X144778844Y-108307891D01*
X144926676Y-108200485D01*
X145055885Y-108071276D01*
X145163291Y-107923444D01*
X145246248Y-107760631D01*
X145302715Y-107586845D01*
X145315419Y-107506631D01*
X145331300Y-107406370D01*
X145331300Y-107223629D01*
X145302715Y-107043158D01*
X145302715Y-107043155D01*
X145246248Y-106869369D01*
X145163291Y-106706556D01*
X145055885Y-106558724D01*
X144926676Y-106429515D01*
X144778844Y-106322109D01*
X144616031Y-106239152D01*
X144442245Y-106182685D01*
X144442243Y-106182684D01*
X144442241Y-106182684D01*
X144346202Y-106167473D01*
X144283067Y-106137544D01*
X144246136Y-106078232D01*
X144247134Y-106008370D01*
X144285744Y-105950137D01*
X144346202Y-105922527D01*
X144385654Y-105916278D01*
X144442245Y-105907315D01*
X144616031Y-105850848D01*
X144778844Y-105767891D01*
X144926676Y-105660485D01*
X145055885Y-105531276D01*
X145163291Y-105383444D01*
X145246248Y-105220631D01*
X145302715Y-105046845D01*
X145315419Y-104966631D01*
X145331300Y-104866370D01*
X145331300Y-104683629D01*
X145305666Y-104521787D01*
X145302715Y-104503155D01*
X145246248Y-104329369D01*
X145163291Y-104166556D01*
X145143223Y-104138934D01*
X145119745Y-104073130D01*
X145135571Y-104005076D01*
X145155858Y-103978375D01*
X149152539Y-99981694D01*
X149213860Y-99948211D01*
X149283552Y-99953195D01*
X149339485Y-99995067D01*
X149358149Y-100031058D01*
X149393753Y-100140635D01*
X149419077Y-100190335D01*
X149476709Y-100303444D01*
X149584115Y-100451276D01*
X149713324Y-100580485D01*
X149861156Y-100687891D01*
X150023969Y-100770848D01*
X150197755Y-100827315D01*
X150241812Y-100834293D01*
X150293797Y-100842527D01*
X150356932Y-100872456D01*
X150393863Y-100931768D01*
X150392865Y-101001631D01*
X150354255Y-101059863D01*
X150293797Y-101087473D01*
X150197758Y-101102684D01*
X150023966Y-101159153D01*
X149861155Y-101242109D01*
X149713321Y-101349517D01*
X149584117Y-101478721D01*
X149476709Y-101626555D01*
X149393753Y-101789366D01*
X149337284Y-101963158D01*
X149308700Y-102143629D01*
X149308700Y-102326370D01*
X149337284Y-102506841D01*
X149337285Y-102506845D01*
X149393752Y-102680631D01*
X149476709Y-102843444D01*
X149584115Y-102991276D01*
X149713324Y-103120485D01*
X149861156Y-103227891D01*
X150023969Y-103310848D01*
X150197755Y-103367315D01*
X150241812Y-103374293D01*
X150293797Y-103382527D01*
X150356932Y-103412456D01*
X150393863Y-103471768D01*
X150392865Y-103541631D01*
X150354255Y-103599863D01*
X150293797Y-103627473D01*
X150197758Y-103642684D01*
X150023966Y-103699153D01*
X149861155Y-103782109D01*
X149713321Y-103889517D01*
X149584117Y-104018721D01*
X149476709Y-104166555D01*
X149393753Y-104329366D01*
X149337284Y-104503158D01*
X149308700Y-104683629D01*
X149308700Y-104866370D01*
X149337284Y-105046841D01*
X149337285Y-105046845D01*
X149388851Y-105205548D01*
X149393753Y-105220633D01*
X149476711Y-105383448D01*
X149496772Y-105411059D01*
X149520253Y-105476865D01*
X149504428Y-105544919D01*
X149484136Y-105571626D01*
X149139486Y-105916278D01*
X149027681Y-106028082D01*
X149027675Y-106028090D01*
X148987384Y-106097878D01*
X148987384Y-106097880D01*
X148948623Y-106165014D01*
X148943888Y-106182685D01*
X148907699Y-106317743D01*
X148907699Y-106317745D01*
X148907699Y-106485846D01*
X148907700Y-106485859D01*
X148907700Y-107626555D01*
X148907699Y-107626573D01*
X148907699Y-107792279D01*
X148907698Y-107792279D01*
X148941062Y-107916795D01*
X148948623Y-107945010D01*
X148971423Y-107984500D01*
X148995050Y-108025423D01*
X149027679Y-108081939D01*
X149027681Y-108081942D01*
X149505958Y-108560219D01*
X149539443Y-108621542D01*
X149534459Y-108691234D01*
X149492587Y-108747167D01*
X149427123Y-108771584D01*
X149418277Y-108771900D01*
X139154500Y-108771900D01*
X139087461Y-108752215D01*
X139041706Y-108699411D01*
X139030500Y-108647900D01*
X139030500Y-97785297D01*
X139050185Y-97718258D01*
X139066819Y-97697616D01*
X139766300Y-96998135D01*
X140527462Y-96236972D01*
X140544058Y-96227910D01*
X140557666Y-96214780D01*
X140587162Y-96204373D01*
X140588783Y-96203489D01*
X140590949Y-96203038D01*
X140683943Y-96184540D01*
X140738509Y-96173686D01*
X140808100Y-96179913D01*
G37*
%TD.AperFunction*%
%TA.AperFunction,Conductor*%
G36*
X147613488Y-82561358D02*
G01*
X147615388Y-82561168D01*
X147648790Y-82572550D01*
X147817588Y-82658557D01*
X148019757Y-82724246D01*
X148229713Y-82757500D01*
X148229714Y-82757500D01*
X148442286Y-82757500D01*
X148442287Y-82757500D01*
X148652243Y-82724246D01*
X148688183Y-82712567D01*
X148758022Y-82710573D01*
X148817855Y-82746653D01*
X148848684Y-82809353D01*
X148850500Y-82830499D01*
X148850500Y-85444539D01*
X148830815Y-85511578D01*
X148778011Y-85557333D01*
X148708853Y-85567277D01*
X148702310Y-85566157D01*
X148668842Y-85559500D01*
X148511158Y-85559500D01*
X148511155Y-85559500D01*
X148356510Y-85590261D01*
X148356498Y-85590264D01*
X148210827Y-85650602D01*
X148210814Y-85650609D01*
X148079711Y-85738210D01*
X148079707Y-85738213D01*
X147968213Y-85849707D01*
X147968210Y-85849711D01*
X147880609Y-85980814D01*
X147880602Y-85980827D01*
X147820264Y-86126498D01*
X147820261Y-86126510D01*
X147789500Y-86281153D01*
X147789500Y-86438846D01*
X147820261Y-86593489D01*
X147820264Y-86593501D01*
X147880602Y-86739172D01*
X147880609Y-86739185D01*
X147948312Y-86840508D01*
X147961510Y-86860261D01*
X147968602Y-86870874D01*
X147989480Y-86937551D01*
X147989500Y-86939765D01*
X147989500Y-88152604D01*
X147969815Y-88219643D01*
X147917011Y-88265398D01*
X147847853Y-88275342D01*
X147796609Y-88255706D01*
X147699185Y-88190609D01*
X147699172Y-88190602D01*
X147553501Y-88130264D01*
X147553489Y-88130261D01*
X147398845Y-88099500D01*
X147398842Y-88099500D01*
X147241158Y-88099500D01*
X147241155Y-88099500D01*
X147086510Y-88130261D01*
X147086498Y-88130264D01*
X146940827Y-88190602D01*
X146940814Y-88190609D01*
X146809711Y-88278210D01*
X146809707Y-88278213D01*
X146698213Y-88389707D01*
X146698210Y-88389711D01*
X146610609Y-88520814D01*
X146610602Y-88520827D01*
X146550264Y-88666498D01*
X146550261Y-88666510D01*
X146519500Y-88821153D01*
X146519500Y-88978846D01*
X146550261Y-89133489D01*
X146550264Y-89133501D01*
X146610602Y-89279172D01*
X146610609Y-89279185D01*
X146698602Y-89410874D01*
X146719480Y-89477551D01*
X146719500Y-89479765D01*
X146719500Y-90718330D01*
X146719499Y-90718348D01*
X146719499Y-90884054D01*
X146719498Y-90884054D01*
X146756103Y-91020665D01*
X146760423Y-91036785D01*
X146783223Y-91076275D01*
X146809183Y-91121239D01*
X146839479Y-91173714D01*
X146839481Y-91173717D01*
X146958349Y-91292585D01*
X146958355Y-91292590D01*
X147128607Y-91462843D01*
X147162092Y-91524166D01*
X147162544Y-91574712D01*
X147154500Y-91615156D01*
X147154500Y-91772846D01*
X147185261Y-91927489D01*
X147185264Y-91927501D01*
X147245602Y-92073172D01*
X147245609Y-92073185D01*
X147333210Y-92204288D01*
X147333213Y-92204292D01*
X147444707Y-92315786D01*
X147444711Y-92315789D01*
X147575814Y-92403390D01*
X147575827Y-92403397D01*
X147721498Y-92463735D01*
X147721503Y-92463737D01*
X147799366Y-92479225D01*
X147876146Y-92494498D01*
X147876149Y-92494498D01*
X147876158Y-92494500D01*
X147876166Y-92494500D01*
X147877646Y-92494646D01*
X147878381Y-92494942D01*
X147882132Y-92495689D01*
X147881990Y-92496400D01*
X147942435Y-92520803D01*
X147982798Y-92577835D01*
X147989500Y-92618050D01*
X147989500Y-94314902D01*
X147969815Y-94381941D01*
X147953181Y-94402583D01*
X145487065Y-96868698D01*
X145425742Y-96902183D01*
X145356050Y-96897199D01*
X145300117Y-96855327D01*
X145281453Y-96819336D01*
X145245783Y-96709556D01*
X145162862Y-96546817D01*
X145055500Y-96399048D01*
X145055500Y-96399047D01*
X144926352Y-96269899D01*
X144778582Y-96162537D01*
X144615843Y-96079616D01*
X144442129Y-96023173D01*
X144344603Y-96007726D01*
X144281469Y-95977796D01*
X144244538Y-95918485D01*
X144245536Y-95848622D01*
X144284146Y-95790390D01*
X144344604Y-95762780D01*
X144376399Y-95757743D01*
X144442245Y-95747315D01*
X144616031Y-95690848D01*
X144778844Y-95607891D01*
X144926676Y-95500485D01*
X145055885Y-95371276D01*
X145163291Y-95223444D01*
X145246248Y-95060631D01*
X145302715Y-94886845D01*
X145315419Y-94806631D01*
X145331300Y-94706370D01*
X145331300Y-94523629D01*
X145302715Y-94343158D01*
X145302715Y-94343155D01*
X145246248Y-94169369D01*
X145163291Y-94006556D01*
X145055885Y-93858724D01*
X144926676Y-93729515D01*
X144778844Y-93622109D01*
X144715400Y-93589783D01*
X144616033Y-93539153D01*
X144616032Y-93539152D01*
X144616031Y-93539152D01*
X144442245Y-93482685D01*
X144442243Y-93482684D01*
X144442241Y-93482684D01*
X144346202Y-93467473D01*
X144283067Y-93437544D01*
X144246136Y-93378232D01*
X144247134Y-93308370D01*
X144285744Y-93250137D01*
X144346202Y-93222527D01*
X144383501Y-93216619D01*
X144442245Y-93207315D01*
X144616031Y-93150848D01*
X144778844Y-93067891D01*
X144926676Y-92960485D01*
X145055885Y-92831276D01*
X145163291Y-92683444D01*
X145246248Y-92520631D01*
X145302715Y-92346845D01*
X145325293Y-92204292D01*
X145331300Y-92166370D01*
X145331300Y-91983629D01*
X145305666Y-91821787D01*
X145302715Y-91803155D01*
X145246248Y-91629369D01*
X145163291Y-91466556D01*
X145055885Y-91318724D01*
X144926676Y-91189515D01*
X144778844Y-91082109D01*
X144616031Y-90999152D01*
X144442245Y-90942685D01*
X144442243Y-90942684D01*
X144442241Y-90942684D01*
X144346202Y-90927473D01*
X144283067Y-90897544D01*
X144246136Y-90838232D01*
X144247134Y-90768370D01*
X144285744Y-90710137D01*
X144346202Y-90682527D01*
X144383501Y-90676619D01*
X144442245Y-90667315D01*
X144616031Y-90610848D01*
X144778844Y-90527891D01*
X144926676Y-90420485D01*
X145055885Y-90291276D01*
X145163291Y-90143444D01*
X145246248Y-89980631D01*
X145302715Y-89806845D01*
X145315419Y-89726631D01*
X145331300Y-89626370D01*
X145331300Y-89443629D01*
X145307479Y-89293235D01*
X145302715Y-89263155D01*
X145246248Y-89089369D01*
X145163291Y-88926556D01*
X145143223Y-88898934D01*
X145119745Y-88833130D01*
X145135571Y-88765076D01*
X145155858Y-88738375D01*
X147226506Y-86667728D01*
X147226511Y-86667724D01*
X147236714Y-86657520D01*
X147236716Y-86657520D01*
X147348520Y-86545716D01*
X147412791Y-86434394D01*
X147427577Y-86408785D01*
X147468500Y-86256057D01*
X147468500Y-86097943D01*
X147468500Y-82683037D01*
X147469275Y-82680396D01*
X147468614Y-82677726D01*
X147479061Y-82647070D01*
X147488185Y-82615998D01*
X147490264Y-82614196D01*
X147491152Y-82611591D01*
X147516521Y-82591444D01*
X147540989Y-82570243D01*
X147543711Y-82569851D01*
X147545867Y-82568140D01*
X147578087Y-82564908D01*
X147610147Y-82560299D01*
X147613488Y-82561358D01*
G37*
%TD.AperFunction*%
%TA.AperFunction,Conductor*%
G36*
X144272398Y-81248953D02*
G01*
X144285834Y-81249914D01*
X144303560Y-81263184D01*
X144323703Y-81272383D01*
X144330985Y-81283714D01*
X144341767Y-81291786D01*
X144349504Y-81312531D01*
X144361477Y-81331161D01*
X144364628Y-81353079D01*
X144366184Y-81357250D01*
X144366500Y-81366096D01*
X144366500Y-81513287D01*
X144399754Y-81723243D01*
X144464621Y-81922883D01*
X144465444Y-81925414D01*
X144561951Y-82114820D01*
X144686890Y-82286786D01*
X144837213Y-82437109D01*
X145009179Y-82562048D01*
X145009181Y-82562049D01*
X145009184Y-82562051D01*
X145198588Y-82658557D01*
X145400757Y-82724246D01*
X145610713Y-82757500D01*
X145610714Y-82757500D01*
X145823286Y-82757500D01*
X145823287Y-82757500D01*
X146033243Y-82724246D01*
X146105183Y-82700870D01*
X146175023Y-82698876D01*
X146234856Y-82734956D01*
X146265684Y-82797657D01*
X146267500Y-82818802D01*
X146267500Y-85876903D01*
X146247815Y-85943942D01*
X146231181Y-85964584D01*
X143857984Y-88337781D01*
X143796661Y-88371266D01*
X143770303Y-88374100D01*
X142758230Y-88374100D01*
X142632098Y-88394077D01*
X142562804Y-88385122D01*
X142509352Y-88340126D01*
X142488713Y-88273374D01*
X142488700Y-88271604D01*
X142488700Y-82995896D01*
X142508385Y-82928857D01*
X142525014Y-82908220D01*
X144154819Y-81278414D01*
X144174255Y-81267802D01*
X144190989Y-81253302D01*
X144204320Y-81251385D01*
X144216142Y-81244930D01*
X144238228Y-81246509D01*
X144260147Y-81243358D01*
X144272398Y-81248953D01*
G37*
%TD.AperFunction*%
%TA.AperFunction,Conductor*%
G36*
X175462583Y-89952264D02*
G01*
X175469061Y-89958296D01*
X176789137Y-91278372D01*
X176822622Y-91339695D01*
X176817638Y-91409387D01*
X176801775Y-91438937D01*
X176781710Y-91466554D01*
X176698753Y-91629366D01*
X176642284Y-91803158D01*
X176613700Y-91983629D01*
X176613700Y-92166370D01*
X176637366Y-92315789D01*
X176642285Y-92346845D01*
X176690261Y-92494500D01*
X176698753Y-92520633D01*
X176705578Y-92534027D01*
X176781709Y-92683444D01*
X176889115Y-92831276D01*
X177018324Y-92960485D01*
X177166156Y-93067891D01*
X177328969Y-93150848D01*
X177502755Y-93207315D01*
X177546812Y-93214293D01*
X177598797Y-93222527D01*
X177661932Y-93252456D01*
X177698863Y-93311768D01*
X177697865Y-93381631D01*
X177659255Y-93439863D01*
X177598797Y-93467473D01*
X177502758Y-93482684D01*
X177328966Y-93539153D01*
X177166155Y-93622109D01*
X177018321Y-93729517D01*
X176889117Y-93858721D01*
X176781709Y-94006555D01*
X176698753Y-94169366D01*
X176642284Y-94343158D01*
X176613700Y-94523629D01*
X176613700Y-94706370D01*
X176639757Y-94870884D01*
X176642285Y-94886845D01*
X176698752Y-95060631D01*
X176781709Y-95223444D01*
X176889115Y-95371276D01*
X177018324Y-95500485D01*
X177018327Y-95500487D01*
X177022171Y-95503280D01*
X177064837Y-95558609D01*
X177070816Y-95628223D01*
X177038211Y-95690018D01*
X177011290Y-95710983D01*
X177007662Y-95713077D01*
X177007657Y-95713081D01*
X176437417Y-96283321D01*
X176437414Y-96283323D01*
X176437415Y-96283324D01*
X176332677Y-96388062D01*
X176290608Y-96460930D01*
X176290608Y-96460931D01*
X176253623Y-96524989D01*
X176247844Y-96546556D01*
X176212699Y-96677718D01*
X176212699Y-96677720D01*
X176212699Y-96845821D01*
X176212700Y-96845834D01*
X176212700Y-100526530D01*
X176212699Y-100526548D01*
X176212699Y-100692254D01*
X176212698Y-100692254D01*
X176253623Y-100844986D01*
X176253624Y-100844987D01*
X176277270Y-100885943D01*
X176332680Y-100981916D01*
X176332682Y-100981918D01*
X176451549Y-101100785D01*
X176451555Y-101100790D01*
X176789136Y-101438372D01*
X176822621Y-101499695D01*
X176817637Y-101569387D01*
X176801776Y-101598935D01*
X176781709Y-101626555D01*
X176698753Y-101789366D01*
X176642284Y-101963158D01*
X176613700Y-102143629D01*
X176613700Y-102326370D01*
X176642284Y-102506841D01*
X176642285Y-102506845D01*
X176698752Y-102680631D01*
X176781709Y-102843444D01*
X176889115Y-102991276D01*
X177018324Y-103120485D01*
X177166156Y-103227891D01*
X177328969Y-103310848D01*
X177502755Y-103367315D01*
X177546812Y-103374293D01*
X177598797Y-103382527D01*
X177661932Y-103412456D01*
X177698863Y-103471768D01*
X177697865Y-103541631D01*
X177659255Y-103599863D01*
X177598797Y-103627473D01*
X177502758Y-103642684D01*
X177328966Y-103699153D01*
X177166155Y-103782109D01*
X177018321Y-103889517D01*
X176889117Y-104018721D01*
X176781709Y-104166555D01*
X176698753Y-104329364D01*
X176683239Y-104377113D01*
X176663151Y-104438939D01*
X176663150Y-104438941D01*
X176623712Y-104496616D01*
X176559353Y-104523814D01*
X176490507Y-104511899D01*
X176457538Y-104488303D01*
X175293699Y-103324463D01*
X175260214Y-103263140D01*
X175257380Y-103236782D01*
X175257380Y-90045977D01*
X175277065Y-89978938D01*
X175329869Y-89933183D01*
X175399027Y-89923239D01*
X175462583Y-89952264D01*
G37*
%TD.AperFunction*%
%TA.AperFunction,Conductor*%
G36*
X165671703Y-87146384D02*
G01*
X165678179Y-87152414D01*
X166474521Y-87948757D01*
X167264136Y-88738372D01*
X167297621Y-88799695D01*
X167292637Y-88869387D01*
X167276776Y-88898935D01*
X167256709Y-88926555D01*
X167173753Y-89089366D01*
X167117284Y-89263158D01*
X167088700Y-89443629D01*
X167088700Y-89626370D01*
X167117284Y-89806841D01*
X167117285Y-89806845D01*
X167173752Y-89980631D01*
X167256709Y-90143444D01*
X167364115Y-90291276D01*
X167493324Y-90420485D01*
X167493327Y-90420487D01*
X167497029Y-90423649D01*
X167496250Y-90424560D01*
X167535494Y-90475466D01*
X167541464Y-90545080D01*
X167508850Y-90606871D01*
X167507618Y-90608120D01*
X166919486Y-91196253D01*
X166807681Y-91308057D01*
X166807679Y-91308060D01*
X166782620Y-91351464D01*
X166759642Y-91391265D01*
X166757561Y-91394869D01*
X166757559Y-91394871D01*
X166728625Y-91444984D01*
X166728624Y-91444985D01*
X166722844Y-91466556D01*
X166687699Y-91597718D01*
X166687699Y-91597720D01*
X166687699Y-91765821D01*
X166687700Y-91765834D01*
X166687700Y-98476702D01*
X166668015Y-98543741D01*
X166651381Y-98564383D01*
X163267461Y-101948302D01*
X163206138Y-101981787D01*
X163136446Y-101976803D01*
X163080513Y-101934931D01*
X163061851Y-101898942D01*
X163026248Y-101789369D01*
X162943291Y-101626556D01*
X162923224Y-101598936D01*
X162899745Y-101533135D01*
X162915569Y-101465080D01*
X162935858Y-101438376D01*
X165346520Y-99027716D01*
X165425577Y-98890784D01*
X165466501Y-98738057D01*
X165466501Y-98579942D01*
X165466501Y-98572347D01*
X165466500Y-98572329D01*
X165466500Y-87240097D01*
X165486185Y-87173058D01*
X165538989Y-87127303D01*
X165608147Y-87117359D01*
X165671703Y-87146384D01*
G37*
%TD.AperFunction*%
%TA.AperFunction,Conductor*%
G36*
X201873039Y-45739685D02*
G01*
X201918794Y-45792489D01*
X201930000Y-45844000D01*
X201930000Y-112906000D01*
X201910315Y-112973039D01*
X201857511Y-113018794D01*
X201806000Y-113030000D01*
X110614000Y-113030000D01*
X110546961Y-113010315D01*
X110501206Y-112957511D01*
X110490000Y-112906000D01*
X110490000Y-109293553D01*
X119595500Y-109293553D01*
X119595500Y-109451246D01*
X119626261Y-109605889D01*
X119626264Y-109605901D01*
X119686602Y-109751572D01*
X119686609Y-109751585D01*
X119774210Y-109882688D01*
X119774213Y-109882692D01*
X119885707Y-109994186D01*
X119885711Y-109994189D01*
X120016814Y-110081790D01*
X120016827Y-110081797D01*
X120162498Y-110142135D01*
X120162503Y-110142137D01*
X120317153Y-110172899D01*
X120317156Y-110172900D01*
X120317158Y-110172900D01*
X120474844Y-110172900D01*
X120474845Y-110172899D01*
X120629497Y-110142137D01*
X120775179Y-110081794D01*
X120775185Y-110081790D01*
X120906875Y-109993798D01*
X120973553Y-109972920D01*
X120975766Y-109972900D01*
X138350943Y-109972900D01*
X138509057Y-109972900D01*
X156181743Y-109972900D01*
X170804531Y-109972900D01*
X170804547Y-109972901D01*
X170812143Y-109972901D01*
X170970254Y-109972901D01*
X170970257Y-109972901D01*
X171122985Y-109931977D01*
X171174480Y-109902246D01*
X171259916Y-109852920D01*
X171371720Y-109741116D01*
X171371720Y-109741114D01*
X171381924Y-109730911D01*
X171381927Y-109730906D01*
X173699864Y-107412971D01*
X173761185Y-107379488D01*
X173763352Y-107379037D01*
X173764041Y-107378900D01*
X173764042Y-107378900D01*
X173918697Y-107348137D01*
X174064379Y-107287794D01*
X174195489Y-107200189D01*
X174306989Y-107088689D01*
X174394594Y-106957579D01*
X174454937Y-106811897D01*
X174485700Y-106657242D01*
X174485700Y-106499558D01*
X174485700Y-106499555D01*
X174485699Y-106499553D01*
X174480986Y-106475860D01*
X174454937Y-106344903D01*
X174452971Y-106340156D01*
X174394597Y-106199227D01*
X174394590Y-106199214D01*
X174306989Y-106068111D01*
X174306986Y-106068107D01*
X174195492Y-105956613D01*
X174195488Y-105956610D01*
X174064385Y-105869009D01*
X174064372Y-105869002D01*
X173918701Y-105808664D01*
X173918689Y-105808661D01*
X173764045Y-105777900D01*
X173764042Y-105777900D01*
X173606358Y-105777900D01*
X173606355Y-105777900D01*
X173451710Y-105808661D01*
X173451698Y-105808664D01*
X173306027Y-105869002D01*
X173306014Y-105869009D01*
X173174911Y-105956610D01*
X173174907Y-105956613D01*
X173063413Y-106068107D01*
X173063410Y-106068111D01*
X172975809Y-106199214D01*
X172975802Y-106199227D01*
X172915464Y-106344898D01*
X172915461Y-106344908D01*
X172884562Y-106500248D01*
X172852177Y-106562159D01*
X172850626Y-106563737D01*
X170678784Y-108735581D01*
X170617461Y-108769066D01*
X170591103Y-108771900D01*
X156985300Y-108771900D01*
X156918261Y-108752215D01*
X156872506Y-108699411D01*
X156861300Y-108647900D01*
X156861300Y-101536659D01*
X156861301Y-101536646D01*
X156861301Y-101368545D01*
X156861301Y-101368543D01*
X156820377Y-101215815D01*
X156749885Y-101093720D01*
X156741320Y-101078884D01*
X156629516Y-100967080D01*
X156629513Y-100967078D01*
X155018019Y-99355584D01*
X154984534Y-99294261D01*
X154981700Y-99267903D01*
X154981700Y-95133108D01*
X155001385Y-95066069D01*
X155036806Y-95030008D01*
X155145489Y-94957389D01*
X155256989Y-94845889D01*
X155344594Y-94714779D01*
X155354519Y-94690819D01*
X155388122Y-94609692D01*
X155404937Y-94569097D01*
X155435700Y-94414442D01*
X155435700Y-94256758D01*
X155435700Y-94256755D01*
X155435699Y-94256753D01*
X155429422Y-94225199D01*
X155404937Y-94102103D01*
X155404935Y-94102098D01*
X155344597Y-93956427D01*
X155344590Y-93956414D01*
X155256989Y-93825311D01*
X155256986Y-93825307D01*
X155145492Y-93713813D01*
X155145488Y-93713810D01*
X155014385Y-93626209D01*
X155014372Y-93626202D01*
X154868701Y-93565864D01*
X154868689Y-93565861D01*
X154714045Y-93535100D01*
X154714042Y-93535100D01*
X154556358Y-93535100D01*
X154556355Y-93535100D01*
X154401710Y-93565861D01*
X154401698Y-93565864D01*
X154325752Y-93597322D01*
X154256282Y-93604791D01*
X154193803Y-93573515D01*
X154158152Y-93513426D01*
X154154300Y-93482761D01*
X154154300Y-75419660D01*
X154154301Y-75419647D01*
X154154301Y-75251544D01*
X154149780Y-75234671D01*
X154113377Y-75098816D01*
X154113373Y-75098809D01*
X154034324Y-74961890D01*
X154034318Y-74961882D01*
X150548419Y-71475983D01*
X150514934Y-71414660D01*
X150512100Y-71388302D01*
X150512100Y-69874441D01*
X150509361Y-69864218D01*
X150509361Y-69864219D01*
X150509360Y-69864215D01*
X150471177Y-69721715D01*
X150442239Y-69671595D01*
X150392120Y-69584784D01*
X150280316Y-69472980D01*
X150280315Y-69472979D01*
X150275985Y-69468649D01*
X150275974Y-69468639D01*
X150140690Y-69333355D01*
X150140688Y-69333352D01*
X150021817Y-69214481D01*
X150021816Y-69214480D01*
X149935004Y-69164360D01*
X149935004Y-69164359D01*
X149935000Y-69164358D01*
X149884885Y-69135423D01*
X149732157Y-69094499D01*
X149574043Y-69094499D01*
X149566447Y-69094499D01*
X149566431Y-69094500D01*
X145053670Y-69094500D01*
X145053654Y-69094499D01*
X145046058Y-69094499D01*
X144887943Y-69094499D01*
X144811579Y-69114961D01*
X144735214Y-69135423D01*
X144735209Y-69135426D01*
X144598290Y-69214475D01*
X144598282Y-69214481D01*
X144190217Y-69622546D01*
X144190214Y-69622548D01*
X144190215Y-69622549D01*
X144085477Y-69727287D01*
X144036870Y-69811479D01*
X144036870Y-69811480D01*
X144006423Y-69864214D01*
X143998531Y-69893667D01*
X143965499Y-70016943D01*
X143965499Y-70016945D01*
X143965499Y-70185046D01*
X143965500Y-70185059D01*
X143965500Y-72549330D01*
X143965499Y-72549348D01*
X143965499Y-72715054D01*
X143965498Y-72715054D01*
X144006423Y-72867787D01*
X144015843Y-72884101D01*
X144015842Y-72884101D01*
X144015844Y-72884103D01*
X144085475Y-73004709D01*
X144085481Y-73004717D01*
X144204349Y-73123585D01*
X144204355Y-73123590D01*
X144383241Y-73302476D01*
X144416726Y-73363799D01*
X144413492Y-73428473D01*
X144399753Y-73470757D01*
X144366500Y-73680713D01*
X144366500Y-73893286D01*
X144399753Y-74103239D01*
X144399753Y-74103241D01*
X144399754Y-74103243D01*
X144465425Y-74305358D01*
X144465444Y-74305414D01*
X144561951Y-74494820D01*
X144686890Y-74666786D01*
X144837213Y-74817109D01*
X145009182Y-74942050D01*
X145017946Y-74946516D01*
X145068742Y-74994491D01*
X145085536Y-75062312D01*
X145062998Y-75128447D01*
X145017946Y-75167484D01*
X145009182Y-75171949D01*
X144837213Y-75296890D01*
X144686894Y-75447209D01*
X144671864Y-75467897D01*
X144616533Y-75510562D01*
X144546920Y-75516541D01*
X144485125Y-75483935D01*
X144450768Y-75423096D01*
X144448256Y-75408263D01*
X144444091Y-75369516D01*
X144393797Y-75234671D01*
X144393793Y-75234664D01*
X144307547Y-75119455D01*
X144307544Y-75119452D01*
X144192335Y-75033206D01*
X144192328Y-75033202D01*
X144057482Y-74982908D01*
X144057483Y-74982908D01*
X143997883Y-74976501D01*
X143997881Y-74976500D01*
X143997873Y-74976500D01*
X143997865Y-74976500D01*
X142356500Y-74976500D01*
X142289461Y-74956815D01*
X142243706Y-74904011D01*
X142232500Y-74852500D01*
X142232500Y-69598225D01*
X142252185Y-69531186D01*
X142294507Y-69490834D01*
X142297774Y-69488948D01*
X142474624Y-69353247D01*
X142632247Y-69195624D01*
X142767948Y-69018774D01*
X142879405Y-68825726D01*
X142964710Y-68619781D01*
X143022404Y-68404463D01*
X143051500Y-68183457D01*
X143051500Y-68087549D01*
X155373100Y-68087549D01*
X155373100Y-68310450D01*
X155373101Y-68310466D01*
X155402194Y-68531452D01*
X155402195Y-68531457D01*
X155402196Y-68531463D01*
X155425861Y-68619781D01*
X155459890Y-68746780D01*
X155459893Y-68746790D01*
X155545193Y-68952722D01*
X155545195Y-68952726D01*
X155656652Y-69145774D01*
X155656657Y-69145780D01*
X155656658Y-69145782D01*
X155792351Y-69322622D01*
X155792357Y-69322629D01*
X155949970Y-69480242D01*
X155949977Y-69480248D01*
X156011580Y-69527517D01*
X156126826Y-69615948D01*
X156130093Y-69617834D01*
X156178312Y-69668397D01*
X156192100Y-69725225D01*
X156192100Y-76951779D01*
X156192100Y-77125421D01*
X156192100Y-77125423D01*
X156192099Y-77125423D01*
X156225974Y-77295718D01*
X156225977Y-77295728D01*
X156292422Y-77456143D01*
X156388895Y-77600526D01*
X156388896Y-77600527D01*
X157485181Y-78696810D01*
X157518666Y-78758133D01*
X157521500Y-78784491D01*
X157521500Y-78943287D01*
X157554754Y-79153243D01*
X157590908Y-79264514D01*
X157620444Y-79355414D01*
X157716951Y-79544820D01*
X157841890Y-79716786D01*
X157992213Y-79867109D01*
X158164179Y-79992048D01*
X158164181Y-79992049D01*
X158164184Y-79992051D01*
X158243625Y-80032528D01*
X158353583Y-80088555D01*
X158353585Y-80088555D01*
X158353588Y-80088557D01*
X158555757Y-80154246D01*
X158568379Y-80156245D01*
X158631513Y-80186170D01*
X158668447Y-80245480D01*
X158672928Y-80282465D01*
X158672492Y-80296882D01*
X158666699Y-80318503D01*
X158666699Y-80476617D01*
X158666700Y-80476620D01*
X158666700Y-80488480D01*
X158666700Y-105205530D01*
X158666699Y-105205548D01*
X158666699Y-105371254D01*
X158666698Y-105371254D01*
X158700323Y-105496740D01*
X158707623Y-105523985D01*
X158709121Y-105526579D01*
X158709123Y-105526589D01*
X158709126Y-105526588D01*
X158786677Y-105660912D01*
X158786681Y-105660917D01*
X158905549Y-105779785D01*
X158905555Y-105779790D01*
X159644137Y-106518372D01*
X159677622Y-106579695D01*
X159672638Y-106649387D01*
X159656775Y-106678937D01*
X159636710Y-106706554D01*
X159553753Y-106869366D01*
X159497284Y-107043158D01*
X159468700Y-107223629D01*
X159468700Y-107406370D01*
X159497284Y-107586841D01*
X159497285Y-107586845D01*
X159553752Y-107760631D01*
X159636709Y-107923444D01*
X159744115Y-108071276D01*
X159873324Y-108200485D01*
X160021156Y-108307891D01*
X160183969Y-108390848D01*
X160357755Y-108447315D01*
X160425435Y-108458034D01*
X160538230Y-108475900D01*
X160538235Y-108475900D01*
X162041770Y-108475900D01*
X162142031Y-108460019D01*
X162222245Y-108447315D01*
X162396031Y-108390848D01*
X162558844Y-108307891D01*
X162706676Y-108200485D01*
X162835885Y-108071276D01*
X162943291Y-107923444D01*
X163026248Y-107760631D01*
X163082715Y-107586845D01*
X163095419Y-107506631D01*
X163111300Y-107406370D01*
X163111300Y-107223629D01*
X163082715Y-107043158D01*
X163082715Y-107043155D01*
X163026248Y-106869369D01*
X162943291Y-106706556D01*
X162835885Y-106558724D01*
X162706676Y-106429515D01*
X162558844Y-106322109D01*
X162396031Y-106239152D01*
X162222245Y-106182685D01*
X162222243Y-106182684D01*
X162222241Y-106182684D01*
X162126202Y-106167473D01*
X162063067Y-106137544D01*
X162026136Y-106078232D01*
X162027134Y-106008370D01*
X162065744Y-105950137D01*
X162126202Y-105922527D01*
X162165654Y-105916278D01*
X162222245Y-105907315D01*
X162396031Y-105850848D01*
X162558844Y-105767891D01*
X162706676Y-105660485D01*
X162835885Y-105531276D01*
X162943291Y-105383444D01*
X163026248Y-105220631D01*
X163082715Y-105046845D01*
X163095419Y-104966631D01*
X163111300Y-104866370D01*
X163111300Y-104683629D01*
X163085666Y-104521787D01*
X163082715Y-104503155D01*
X163026248Y-104329369D01*
X162943291Y-104166556D01*
X162923224Y-104138936D01*
X162899745Y-104073135D01*
X162915569Y-104005080D01*
X162935858Y-103978376D01*
X166932540Y-99981694D01*
X166993861Y-99948211D01*
X167063553Y-99953195D01*
X167119486Y-99995067D01*
X167138148Y-100031056D01*
X167173752Y-100140631D01*
X167256709Y-100303444D01*
X167364115Y-100451276D01*
X167493324Y-100580485D01*
X167641156Y-100687891D01*
X167803969Y-100770848D01*
X167977755Y-100827315D01*
X168021812Y-100834293D01*
X168073797Y-100842527D01*
X168136932Y-100872456D01*
X168173863Y-100931768D01*
X168172865Y-101001631D01*
X168134255Y-101059863D01*
X168073797Y-101087473D01*
X167977758Y-101102684D01*
X167803966Y-101159153D01*
X167641155Y-101242109D01*
X167493321Y-101349517D01*
X167364117Y-101478721D01*
X167256709Y-101626555D01*
X167173753Y-101789366D01*
X167117284Y-101963158D01*
X167088700Y-102143629D01*
X167088700Y-102326370D01*
X167117284Y-102506841D01*
X167117285Y-102506845D01*
X167173752Y-102680631D01*
X167256709Y-102843444D01*
X167364115Y-102991276D01*
X167493324Y-103120485D01*
X167641156Y-103227891D01*
X167803969Y-103310848D01*
X167977755Y-103367315D01*
X168021812Y-103374293D01*
X168073797Y-103382527D01*
X168136932Y-103412456D01*
X168173863Y-103471768D01*
X168172865Y-103541631D01*
X168134255Y-103599863D01*
X168073797Y-103627473D01*
X167977758Y-103642684D01*
X167803966Y-103699153D01*
X167641155Y-103782109D01*
X167493321Y-103889517D01*
X167364117Y-104018721D01*
X167256709Y-104166555D01*
X167173753Y-104329366D01*
X167117284Y-104503158D01*
X167088700Y-104683629D01*
X167088700Y-104866370D01*
X167117284Y-105046841D01*
X167117285Y-105046845D01*
X167173752Y-105220631D01*
X167256709Y-105383444D01*
X167364115Y-105531276D01*
X167493324Y-105660485D01*
X167641156Y-105767891D01*
X167803969Y-105850848D01*
X167977755Y-105907315D01*
X168021812Y-105914293D01*
X168073797Y-105922527D01*
X168136932Y-105952456D01*
X168173863Y-106011768D01*
X168172865Y-106081631D01*
X168134255Y-106139863D01*
X168073797Y-106167473D01*
X167977758Y-106182684D01*
X167803966Y-106239153D01*
X167641155Y-106322109D01*
X167493321Y-106429517D01*
X167364117Y-106558721D01*
X167256709Y-106706555D01*
X167173753Y-106869366D01*
X167117284Y-107043158D01*
X167088700Y-107223629D01*
X167088700Y-107406370D01*
X167117284Y-107586841D01*
X167117285Y-107586845D01*
X167173752Y-107760631D01*
X167256709Y-107923444D01*
X167364115Y-108071276D01*
X167493324Y-108200485D01*
X167641156Y-108307891D01*
X167803969Y-108390848D01*
X167977755Y-108447315D01*
X168045435Y-108458034D01*
X168158230Y-108475900D01*
X168158235Y-108475900D01*
X169661770Y-108475900D01*
X169762031Y-108460019D01*
X169842245Y-108447315D01*
X170016031Y-108390848D01*
X170178844Y-108307891D01*
X170326676Y-108200485D01*
X170455885Y-108071276D01*
X170563291Y-107923444D01*
X170646248Y-107760631D01*
X170702715Y-107586845D01*
X170715419Y-107506631D01*
X170731300Y-107406370D01*
X170731300Y-107223629D01*
X170702715Y-107043158D01*
X170702715Y-107043155D01*
X170646248Y-106869369D01*
X170563291Y-106706556D01*
X170543223Y-106678934D01*
X170519745Y-106613130D01*
X170535571Y-106545076D01*
X170555858Y-106518375D01*
X171692306Y-105381928D01*
X171692311Y-105381924D01*
X171702514Y-105371720D01*
X171702516Y-105371720D01*
X171814320Y-105259916D01*
X171841324Y-105213143D01*
X171872939Y-105158385D01*
X171872942Y-105158376D01*
X171872948Y-105158368D01*
X171893377Y-105122985D01*
X171934301Y-104970257D01*
X171934301Y-104812143D01*
X171934301Y-104804548D01*
X171934300Y-104804530D01*
X171934300Y-97728438D01*
X171953985Y-97661399D01*
X172006789Y-97615644D01*
X172075947Y-97605700D01*
X172105747Y-97613875D01*
X172181703Y-97645337D01*
X172336353Y-97676099D01*
X172336356Y-97676100D01*
X172336358Y-97676100D01*
X172494044Y-97676100D01*
X172494045Y-97676099D01*
X172648697Y-97645337D01*
X172794379Y-97584994D01*
X172925489Y-97497389D01*
X173036989Y-97385889D01*
X173124594Y-97254779D01*
X173184937Y-97109097D01*
X173215700Y-96954442D01*
X173215700Y-96796758D01*
X173215700Y-96796755D01*
X173215699Y-96796753D01*
X173211630Y-96776295D01*
X173184937Y-96642103D01*
X173184935Y-96642098D01*
X173124597Y-96496427D01*
X173124590Y-96496414D01*
X173036598Y-96364725D01*
X173015720Y-96298047D01*
X173015700Y-96295834D01*
X173015700Y-93546940D01*
X173035385Y-93479901D01*
X173052020Y-93459258D01*
X173087786Y-93423492D01*
X173087789Y-93423489D01*
X173175394Y-93292379D01*
X173235737Y-93146697D01*
X173266500Y-92992042D01*
X173266500Y-92834358D01*
X173266500Y-92834355D01*
X173266499Y-92834353D01*
X173243411Y-92718285D01*
X173235737Y-92679703D01*
X173210200Y-92618050D01*
X173175397Y-92534027D01*
X173175390Y-92534014D01*
X173087789Y-92402911D01*
X173087786Y-92402907D01*
X172976292Y-92291413D01*
X172976288Y-92291410D01*
X172845185Y-92203809D01*
X172845172Y-92203802D01*
X172699501Y-92143464D01*
X172699489Y-92143461D01*
X172544845Y-92112700D01*
X172544842Y-92112700D01*
X172387158Y-92112700D01*
X172387155Y-92112700D01*
X172232510Y-92143461D01*
X172232498Y-92143464D01*
X172105752Y-92195964D01*
X172036283Y-92203433D01*
X171973804Y-92172158D01*
X171938152Y-92112068D01*
X171934300Y-92081403D01*
X171934300Y-88725520D01*
X171934299Y-88725516D01*
X171910171Y-88635465D01*
X171893377Y-88572790D01*
X171875663Y-88542109D01*
X171863372Y-88520820D01*
X171863372Y-88520819D01*
X171814324Y-88435865D01*
X171814321Y-88435861D01*
X171814320Y-88435859D01*
X171702516Y-88324055D01*
X171702515Y-88324054D01*
X171698185Y-88319724D01*
X171698174Y-88319714D01*
X168382265Y-85003805D01*
X168382263Y-85003802D01*
X168263392Y-84884931D01*
X168263391Y-84884930D01*
X168158032Y-84824101D01*
X168158030Y-84824100D01*
X168126460Y-84805873D01*
X168126459Y-84805872D01*
X168126458Y-84805872D01*
X168070556Y-84790893D01*
X167973732Y-84764949D01*
X167815618Y-84764949D01*
X167808022Y-84764949D01*
X167808006Y-84764950D01*
X167524150Y-84764950D01*
X167457111Y-84745265D01*
X167411356Y-84692461D01*
X167400150Y-84640950D01*
X167400150Y-82534646D01*
X167419835Y-82467607D01*
X167436464Y-82446970D01*
X169360506Y-80522927D01*
X169360511Y-80522924D01*
X169370714Y-80512720D01*
X169370716Y-80512720D01*
X169482520Y-80400916D01*
X169540495Y-80300500D01*
X169561577Y-80263985D01*
X169602500Y-80111258D01*
X169602500Y-79953143D01*
X169602500Y-73089843D01*
X169561577Y-72937116D01*
X169530969Y-72884101D01*
X169482524Y-72800190D01*
X169482521Y-72800186D01*
X169482520Y-72800184D01*
X169370716Y-72688380D01*
X169370715Y-72688379D01*
X169366385Y-72684049D01*
X169366374Y-72684039D01*
X166015690Y-69333355D01*
X166015688Y-69333352D01*
X165896817Y-69214481D01*
X165896816Y-69214480D01*
X165810004Y-69164360D01*
X165810004Y-69164359D01*
X165810000Y-69164358D01*
X165759885Y-69135423D01*
X165607157Y-69094499D01*
X165449043Y-69094499D01*
X165441447Y-69094499D01*
X165441431Y-69094500D01*
X162053057Y-69094500D01*
X161894942Y-69094500D01*
X161742215Y-69135423D01*
X161742214Y-69135423D01*
X161742212Y-69135424D01*
X161742209Y-69135425D01*
X161692096Y-69164359D01*
X161692095Y-69164360D01*
X161681930Y-69170229D01*
X161605285Y-69214479D01*
X161605282Y-69214481D01*
X160991481Y-69828282D01*
X160991475Y-69828290D01*
X160987887Y-69834505D01*
X160937318Y-69882718D01*
X160880503Y-69896500D01*
X160574130Y-69896500D01*
X160574123Y-69896501D01*
X160514516Y-69902908D01*
X160379671Y-69953202D01*
X160379664Y-69953206D01*
X160264455Y-70039452D01*
X160264452Y-70039455D01*
X160178206Y-70154664D01*
X160178202Y-70154671D01*
X160127908Y-70289517D01*
X160121501Y-70349116D01*
X160121500Y-70349135D01*
X160121500Y-72144870D01*
X160121501Y-72144876D01*
X160127908Y-72204483D01*
X160178202Y-72339328D01*
X160178206Y-72339335D01*
X160264452Y-72454544D01*
X160264455Y-72454547D01*
X160379664Y-72540793D01*
X160379671Y-72540797D01*
X160511082Y-72589810D01*
X160567016Y-72631681D01*
X160591433Y-72697145D01*
X160576582Y-72765418D01*
X160555431Y-72793673D01*
X160441889Y-72907215D01*
X160316951Y-73079179D01*
X160220444Y-73268585D01*
X160154753Y-73470760D01*
X160121500Y-73680713D01*
X160121500Y-73893286D01*
X160154753Y-74103239D01*
X160154753Y-74103241D01*
X160154754Y-74103243D01*
X160220425Y-74305358D01*
X160220444Y-74305414D01*
X160316951Y-74494820D01*
X160441890Y-74666786D01*
X160592213Y-74817109D01*
X160764182Y-74942050D01*
X160772946Y-74946516D01*
X160823742Y-74994491D01*
X160840536Y-75062312D01*
X160817998Y-75128447D01*
X160772946Y-75167484D01*
X160764182Y-75171949D01*
X160592213Y-75296890D01*
X160441894Y-75447209D01*
X160438724Y-75450921D01*
X160437011Y-75449457D01*
X160388970Y-75486383D01*
X160319348Y-75492252D01*
X160257604Y-75459549D01*
X160223343Y-75398657D01*
X160220874Y-75384013D01*
X160216091Y-75339516D01*
X160165797Y-75204671D01*
X160165793Y-75204664D01*
X160079547Y-75089455D01*
X160079544Y-75089452D01*
X159964335Y-75003206D01*
X159964328Y-75003202D01*
X159829482Y-74952908D01*
X159829483Y-74952908D01*
X159769883Y-74946501D01*
X159769881Y-74946500D01*
X159769873Y-74946500D01*
X159769865Y-74946500D01*
X158079100Y-74946500D01*
X158012061Y-74926815D01*
X157966306Y-74874011D01*
X157955100Y-74822500D01*
X157955100Y-69725225D01*
X157974785Y-69658186D01*
X158017107Y-69617834D01*
X158020374Y-69615948D01*
X158197224Y-69480247D01*
X158354847Y-69322624D01*
X158490548Y-69145774D01*
X158602005Y-68952726D01*
X158687310Y-68746781D01*
X158745004Y-68531463D01*
X158774100Y-68310457D01*
X158774100Y-68087543D01*
X158754037Y-67935149D01*
X170867100Y-67935149D01*
X170867100Y-68158050D01*
X170867101Y-68158066D01*
X170896194Y-68379052D01*
X170896195Y-68379057D01*
X170896196Y-68379063D01*
X170937032Y-68531465D01*
X170953890Y-68594380D01*
X170953893Y-68594390D01*
X171039193Y-68800322D01*
X171039195Y-68800326D01*
X171150652Y-68993374D01*
X171150657Y-68993380D01*
X171150658Y-68993382D01*
X171286351Y-69170222D01*
X171286357Y-69170229D01*
X171443970Y-69327842D01*
X171443977Y-69327848D01*
X171477078Y-69353247D01*
X171620826Y-69463548D01*
X171624093Y-69465434D01*
X171672312Y-69515997D01*
X171686100Y-69572825D01*
X171686100Y-76976779D01*
X171686100Y-77150421D01*
X171686100Y-77150423D01*
X171686099Y-77150423D01*
X171719974Y-77320718D01*
X171719977Y-77320728D01*
X171786422Y-77481143D01*
X171882895Y-77625526D01*
X171882896Y-77625527D01*
X172984181Y-78726810D01*
X173017666Y-78788133D01*
X173020500Y-78814491D01*
X173020500Y-78973287D01*
X173053754Y-79183243D01*
X173114335Y-79369692D01*
X173119444Y-79385414D01*
X173215951Y-79574820D01*
X173340890Y-79746786D01*
X173491213Y-79897109D01*
X173663179Y-80022048D01*
X173663181Y-80022049D01*
X173663184Y-80022051D01*
X173852588Y-80118557D01*
X174004622Y-80167956D01*
X174062298Y-80207394D01*
X174089496Y-80271752D01*
X174086079Y-80317980D01*
X174056379Y-80428823D01*
X174056379Y-80596926D01*
X174056380Y-80596939D01*
X174056380Y-103450210D01*
X174056379Y-103450228D01*
X174056379Y-103615934D01*
X174056378Y-103615934D01*
X174097303Y-103768665D01*
X174105065Y-103782109D01*
X174176357Y-103905592D01*
X174176361Y-103905597D01*
X174295229Y-104024465D01*
X174295235Y-104024470D01*
X176789136Y-106518372D01*
X176822621Y-106579695D01*
X176817637Y-106649387D01*
X176801776Y-106678935D01*
X176781709Y-106706555D01*
X176698753Y-106869366D01*
X176642284Y-107043158D01*
X176613700Y-107223629D01*
X176613700Y-107406370D01*
X176642284Y-107586841D01*
X176642285Y-107586845D01*
X176698752Y-107760631D01*
X176781709Y-107923444D01*
X176889115Y-108071276D01*
X177018324Y-108200485D01*
X177166156Y-108307891D01*
X177328969Y-108390848D01*
X177502755Y-108447315D01*
X177570435Y-108458034D01*
X177683230Y-108475900D01*
X177683235Y-108475900D01*
X179186770Y-108475900D01*
X179287031Y-108460019D01*
X179367245Y-108447315D01*
X179541031Y-108390848D01*
X179703844Y-108307891D01*
X179851676Y-108200485D01*
X179980885Y-108071276D01*
X180088291Y-107923444D01*
X180171248Y-107760631D01*
X180227715Y-107586845D01*
X180240419Y-107506631D01*
X180256300Y-107406370D01*
X180256300Y-107223629D01*
X180227715Y-107043158D01*
X180227715Y-107043155D01*
X180171248Y-106869369D01*
X180088291Y-106706556D01*
X179980885Y-106558724D01*
X179851676Y-106429515D01*
X179703844Y-106322109D01*
X179541031Y-106239152D01*
X179367245Y-106182685D01*
X179367243Y-106182684D01*
X179367241Y-106182684D01*
X179271202Y-106167473D01*
X179208067Y-106137544D01*
X179171136Y-106078232D01*
X179172134Y-106008370D01*
X179210744Y-105950137D01*
X179271202Y-105922527D01*
X179310654Y-105916278D01*
X179367245Y-105907315D01*
X179541031Y-105850848D01*
X179703844Y-105767891D01*
X179851676Y-105660485D01*
X179980885Y-105531276D01*
X180088291Y-105383444D01*
X180171248Y-105220631D01*
X180227715Y-105046845D01*
X180240419Y-104966631D01*
X180256300Y-104866370D01*
X180256300Y-104683629D01*
X180230666Y-104521787D01*
X180227715Y-104503155D01*
X180171248Y-104329369D01*
X180088291Y-104166556D01*
X180068224Y-104138936D01*
X180044745Y-104073135D01*
X180060569Y-104005080D01*
X180080858Y-103978376D01*
X184077540Y-99981694D01*
X184138861Y-99948211D01*
X184208553Y-99953195D01*
X184264486Y-99995067D01*
X184283148Y-100031056D01*
X184318752Y-100140631D01*
X184401709Y-100303444D01*
X184419743Y-100328266D01*
X184421775Y-100331063D01*
X184445253Y-100396869D01*
X184429426Y-100464923D01*
X184409136Y-100491627D01*
X183666604Y-101234159D01*
X183666597Y-101234166D01*
X183663486Y-101237278D01*
X183663484Y-101237280D01*
X183551680Y-101349084D01*
X183527191Y-101391501D01*
X183472623Y-101486015D01*
X183431699Y-101638743D01*
X183431699Y-101638745D01*
X183431699Y-101806846D01*
X183431700Y-101806859D01*
X183431700Y-107792655D01*
X183431699Y-107792673D01*
X183431699Y-107958379D01*
X183431698Y-107958379D01*
X183464807Y-108081941D01*
X183472623Y-108111110D01*
X183476494Y-108117814D01*
X183476496Y-108117824D01*
X183476499Y-108117823D01*
X183551677Y-108248037D01*
X183551681Y-108248042D01*
X183670549Y-108366910D01*
X183670555Y-108366915D01*
X184345414Y-109041774D01*
X184345424Y-109041785D01*
X184349754Y-109046115D01*
X184349755Y-109046116D01*
X184461559Y-109157920D01*
X184461561Y-109157921D01*
X184461565Y-109157924D01*
X184509329Y-109185500D01*
X184598491Y-109236977D01*
X184710294Y-109266934D01*
X184751217Y-109277900D01*
X184751218Y-109277900D01*
X192860931Y-109277900D01*
X192860947Y-109277901D01*
X192868543Y-109277901D01*
X193026654Y-109277901D01*
X193026657Y-109277901D01*
X193179385Y-109236977D01*
X193229504Y-109208039D01*
X193239783Y-109202104D01*
X193301768Y-109185500D01*
X197469281Y-109185500D01*
X197536320Y-109205185D01*
X197579765Y-109253205D01*
X197599947Y-109292814D01*
X197599948Y-109292815D01*
X197724890Y-109464786D01*
X197875213Y-109615109D01*
X198047179Y-109740048D01*
X198047181Y-109740049D01*
X198047184Y-109740051D01*
X198236588Y-109836557D01*
X198438757Y-109902246D01*
X198648713Y-109935500D01*
X198648714Y-109935500D01*
X198861286Y-109935500D01*
X198861287Y-109935500D01*
X199071243Y-109902246D01*
X199273412Y-109836557D01*
X199462816Y-109740051D01*
X199484789Y-109724086D01*
X199634786Y-109615109D01*
X199634788Y-109615106D01*
X199634792Y-109615104D01*
X199785104Y-109464792D01*
X199785106Y-109464788D01*
X199785109Y-109464786D01*
X199909512Y-109293558D01*
X199910051Y-109292816D01*
X200006557Y-109103412D01*
X200072246Y-108901243D01*
X200105500Y-108691287D01*
X200105500Y-108478713D01*
X200072246Y-108268757D01*
X200006557Y-108066588D01*
X199910051Y-107877184D01*
X199910049Y-107877181D01*
X199910048Y-107877179D01*
X199785109Y-107705213D01*
X199634786Y-107554890D01*
X199462820Y-107429951D01*
X199462115Y-107429591D01*
X199454054Y-107425485D01*
X199403259Y-107377512D01*
X199386463Y-107309692D01*
X199408999Y-107243556D01*
X199454054Y-107204515D01*
X199462816Y-107200051D01*
X199616094Y-107088689D01*
X199634786Y-107075109D01*
X199634788Y-107075106D01*
X199634792Y-107075104D01*
X199785104Y-106924792D01*
X199785106Y-106924788D01*
X199785109Y-106924786D01*
X199910048Y-106752820D01*
X199910047Y-106752820D01*
X199910051Y-106752816D01*
X200006557Y-106563412D01*
X200072246Y-106361243D01*
X200105500Y-106151287D01*
X200105500Y-105938713D01*
X200072246Y-105728757D01*
X200006557Y-105526588D01*
X199910051Y-105337184D01*
X199910049Y-105337181D01*
X199910048Y-105337179D01*
X199785109Y-105165213D01*
X199634786Y-105014890D01*
X199462820Y-104889951D01*
X199462115Y-104889591D01*
X199454054Y-104885485D01*
X199403259Y-104837512D01*
X199386463Y-104769692D01*
X199408999Y-104703556D01*
X199454054Y-104664515D01*
X199462816Y-104660051D01*
X199487021Y-104642465D01*
X199634786Y-104535109D01*
X199634788Y-104535106D01*
X199634792Y-104535104D01*
X199785104Y-104384792D01*
X199785106Y-104384788D01*
X199785109Y-104384786D01*
X199910048Y-104212820D01*
X199910047Y-104212820D01*
X199910051Y-104212816D01*
X200006557Y-104023412D01*
X200072246Y-103821243D01*
X200105500Y-103611287D01*
X200105500Y-103398713D01*
X200072246Y-103188757D01*
X200006557Y-102986588D01*
X199910051Y-102797184D01*
X199910049Y-102797181D01*
X199910048Y-102797179D01*
X199785109Y-102625213D01*
X199634786Y-102474890D01*
X199462820Y-102349951D01*
X199462115Y-102349591D01*
X199454054Y-102345485D01*
X199403259Y-102297512D01*
X199386463Y-102229692D01*
X199408999Y-102163556D01*
X199454054Y-102124515D01*
X199462816Y-102120051D01*
X199484789Y-102104086D01*
X199634786Y-101995109D01*
X199634788Y-101995106D01*
X199634792Y-101995104D01*
X199785104Y-101844792D01*
X199785106Y-101844788D01*
X199785109Y-101844786D01*
X199910048Y-101672820D01*
X199910047Y-101672820D01*
X199910051Y-101672816D01*
X200006557Y-101483412D01*
X200072246Y-101281243D01*
X200105500Y-101071287D01*
X200105500Y-100858713D01*
X200072246Y-100648757D01*
X200006557Y-100446588D01*
X199910051Y-100257184D01*
X199910049Y-100257181D01*
X199910048Y-100257179D01*
X199785109Y-100085213D01*
X199634786Y-99934890D01*
X199462820Y-99809951D01*
X199462115Y-99809591D01*
X199454054Y-99805485D01*
X199403259Y-99757512D01*
X199386463Y-99689692D01*
X199408999Y-99623556D01*
X199454054Y-99584515D01*
X199462816Y-99580051D01*
X199484789Y-99564086D01*
X199634786Y-99455109D01*
X199634788Y-99455106D01*
X199634792Y-99455104D01*
X199785104Y-99304792D01*
X199785106Y-99304788D01*
X199785109Y-99304786D01*
X199910048Y-99132820D01*
X199910047Y-99132820D01*
X199910051Y-99132816D01*
X200006557Y-98943412D01*
X200072246Y-98741243D01*
X200105500Y-98531287D01*
X200105500Y-98318713D01*
X200072246Y-98108757D01*
X200006557Y-97906588D01*
X199910051Y-97717184D01*
X199910049Y-97717181D01*
X199910048Y-97717179D01*
X199785109Y-97545213D01*
X199634786Y-97394890D01*
X199462820Y-97269951D01*
X199462115Y-97269591D01*
X199454054Y-97265485D01*
X199403259Y-97217512D01*
X199386463Y-97149692D01*
X199408999Y-97083556D01*
X199454054Y-97044515D01*
X199462816Y-97040051D01*
X199510358Y-97005510D01*
X199634786Y-96915109D01*
X199634788Y-96915106D01*
X199634792Y-96915104D01*
X199785104Y-96764792D01*
X199785106Y-96764788D01*
X199785109Y-96764786D01*
X199910048Y-96592820D01*
X199910047Y-96592820D01*
X199910051Y-96592816D01*
X200006557Y-96403412D01*
X200072246Y-96201243D01*
X200105500Y-95991287D01*
X200105500Y-95778713D01*
X200072246Y-95568757D01*
X200006557Y-95366588D01*
X199910051Y-95177184D01*
X199910049Y-95177181D01*
X199910048Y-95177179D01*
X199785109Y-95005213D01*
X199634786Y-94854890D01*
X199462820Y-94729951D01*
X199462115Y-94729591D01*
X199454054Y-94725485D01*
X199403259Y-94677512D01*
X199386463Y-94609692D01*
X199408999Y-94543556D01*
X199454054Y-94504515D01*
X199462816Y-94500051D01*
X199559936Y-94429490D01*
X199634786Y-94375109D01*
X199634788Y-94375106D01*
X199634792Y-94375104D01*
X199785104Y-94224792D01*
X199785106Y-94224788D01*
X199785109Y-94224786D01*
X199910048Y-94052820D01*
X199910047Y-94052820D01*
X199910051Y-94052816D01*
X200006557Y-93863412D01*
X200072246Y-93661243D01*
X200105500Y-93451287D01*
X200105500Y-93238713D01*
X200072246Y-93028757D01*
X200006557Y-92826588D01*
X199910051Y-92637184D01*
X199910049Y-92637181D01*
X199910048Y-92637179D01*
X199785109Y-92465213D01*
X199634786Y-92314890D01*
X199462820Y-92189951D01*
X199462115Y-92189591D01*
X199454054Y-92185485D01*
X199403259Y-92137512D01*
X199386463Y-92069692D01*
X199408999Y-92003556D01*
X199454054Y-91964515D01*
X199462816Y-91960051D01*
X199507634Y-91927489D01*
X199634786Y-91835109D01*
X199634788Y-91835106D01*
X199634792Y-91835104D01*
X199785104Y-91684792D01*
X199785106Y-91684788D01*
X199785109Y-91684786D01*
X199910048Y-91512820D01*
X199910047Y-91512820D01*
X199910051Y-91512816D01*
X200006557Y-91323412D01*
X200072246Y-91121243D01*
X200105500Y-90911287D01*
X200105500Y-90698713D01*
X200072246Y-90488757D01*
X200006557Y-90286588D01*
X199910051Y-90097184D01*
X199910049Y-90097181D01*
X199910048Y-90097179D01*
X199785109Y-89925213D01*
X199634786Y-89774890D01*
X199462820Y-89649951D01*
X199462115Y-89649591D01*
X199454054Y-89645485D01*
X199403259Y-89597512D01*
X199386463Y-89529692D01*
X199408999Y-89463556D01*
X199454054Y-89424515D01*
X199462816Y-89420051D01*
X199484789Y-89404086D01*
X199634786Y-89295109D01*
X199634788Y-89295106D01*
X199634792Y-89295104D01*
X199785104Y-89144792D01*
X199785106Y-89144788D01*
X199785109Y-89144786D01*
X199910048Y-88972820D01*
X199910047Y-88972820D01*
X199910051Y-88972816D01*
X200006557Y-88783412D01*
X200072246Y-88581243D01*
X200105500Y-88371287D01*
X200105500Y-88158713D01*
X200072246Y-87948757D01*
X200006557Y-87746588D01*
X199910051Y-87557184D01*
X199910049Y-87557181D01*
X199910048Y-87557179D01*
X199785109Y-87385213D01*
X199634786Y-87234890D01*
X199462820Y-87109951D01*
X199462115Y-87109591D01*
X199454054Y-87105485D01*
X199403259Y-87057512D01*
X199386463Y-86989692D01*
X199408999Y-86923556D01*
X199454054Y-86884515D01*
X199462816Y-86880051D01*
X199532394Y-86829500D01*
X199634786Y-86755109D01*
X199634788Y-86755106D01*
X199634792Y-86755104D01*
X199785104Y-86604792D01*
X199785106Y-86604788D01*
X199785109Y-86604786D01*
X199908902Y-86434397D01*
X199910051Y-86432816D01*
X200006557Y-86243412D01*
X200072246Y-86041243D01*
X200105500Y-85831287D01*
X200105500Y-85618713D01*
X200072246Y-85408757D01*
X200006557Y-85206588D01*
X199910051Y-85017184D01*
X199910049Y-85017181D01*
X199910048Y-85017179D01*
X199785109Y-84845213D01*
X199634786Y-84694890D01*
X199462820Y-84569951D01*
X199462115Y-84569591D01*
X199454054Y-84565485D01*
X199403259Y-84517512D01*
X199386463Y-84449692D01*
X199408999Y-84383556D01*
X199454054Y-84344515D01*
X199462816Y-84340051D01*
X199547372Y-84278618D01*
X199634786Y-84215109D01*
X199634788Y-84215106D01*
X199634792Y-84215104D01*
X199785104Y-84064792D01*
X199785106Y-84064788D01*
X199785109Y-84064786D01*
X199910048Y-83892820D01*
X199910047Y-83892820D01*
X199910051Y-83892816D01*
X200006557Y-83703412D01*
X200072246Y-83501243D01*
X200105500Y-83291287D01*
X200105500Y-83078713D01*
X200072246Y-82868757D01*
X200006557Y-82666588D01*
X199910051Y-82477184D01*
X199910049Y-82477181D01*
X199910048Y-82477179D01*
X199785109Y-82305213D01*
X199634786Y-82154890D01*
X199462820Y-82029951D01*
X199462115Y-82029591D01*
X199454054Y-82025485D01*
X199403259Y-81977512D01*
X199386463Y-81909692D01*
X199408999Y-81843556D01*
X199454054Y-81804515D01*
X199462816Y-81800051D01*
X199568534Y-81723243D01*
X199634786Y-81675109D01*
X199634788Y-81675106D01*
X199634792Y-81675104D01*
X199785104Y-81524792D01*
X199785106Y-81524788D01*
X199785109Y-81524786D01*
X199900403Y-81366096D01*
X199910051Y-81352816D01*
X200006557Y-81163412D01*
X200072246Y-80961243D01*
X200105500Y-80751287D01*
X200105500Y-80538713D01*
X200072246Y-80328757D01*
X200006557Y-80126588D01*
X199910051Y-79937184D01*
X199910049Y-79937181D01*
X199910048Y-79937179D01*
X199785109Y-79765213D01*
X199634786Y-79614890D01*
X199462820Y-79489951D01*
X199462115Y-79489591D01*
X199454054Y-79485485D01*
X199403259Y-79437512D01*
X199386463Y-79369692D01*
X199408999Y-79303556D01*
X199454054Y-79264515D01*
X199462816Y-79260051D01*
X199568534Y-79183243D01*
X199634786Y-79135109D01*
X199634788Y-79135106D01*
X199634792Y-79135104D01*
X199785104Y-78984792D01*
X199785106Y-78984788D01*
X199785109Y-78984786D01*
X199910048Y-78812820D01*
X199910047Y-78812820D01*
X199910051Y-78812816D01*
X200006557Y-78623412D01*
X200072246Y-78421243D01*
X200105500Y-78211287D01*
X200105500Y-77998713D01*
X200072246Y-77788757D01*
X200006557Y-77586588D01*
X199910051Y-77397184D01*
X199910049Y-77397181D01*
X199910048Y-77397179D01*
X199785109Y-77225213D01*
X199634786Y-77074890D01*
X199462820Y-76949951D01*
X199462115Y-76949591D01*
X199454054Y-76945485D01*
X199403259Y-76897512D01*
X199386463Y-76829692D01*
X199408999Y-76763556D01*
X199454054Y-76724515D01*
X199462816Y-76720051D01*
X199530082Y-76671180D01*
X199634786Y-76595109D01*
X199634788Y-76595106D01*
X199634792Y-76595104D01*
X199785104Y-76444792D01*
X199785106Y-76444788D01*
X199785109Y-76444786D01*
X199910048Y-76272820D01*
X199910047Y-76272820D01*
X199910051Y-76272816D01*
X200006557Y-76083412D01*
X200072246Y-75881243D01*
X200105500Y-75671287D01*
X200105500Y-75458713D01*
X200072246Y-75248757D01*
X200006557Y-75046588D01*
X199910051Y-74857184D01*
X199910049Y-74857181D01*
X199910048Y-74857179D01*
X199785109Y-74685213D01*
X199634786Y-74534890D01*
X199462820Y-74409951D01*
X199460033Y-74408531D01*
X199454054Y-74405485D01*
X199403259Y-74357512D01*
X199386463Y-74289692D01*
X199408999Y-74223556D01*
X199454054Y-74184515D01*
X199462816Y-74180051D01*
X199568534Y-74103243D01*
X199634786Y-74055109D01*
X199634788Y-74055106D01*
X199634792Y-74055104D01*
X199785104Y-73904792D01*
X199785106Y-73904788D01*
X199785109Y-73904786D01*
X199910048Y-73732820D01*
X199910047Y-73732820D01*
X199910051Y-73732816D01*
X200006557Y-73543412D01*
X200072246Y-73341243D01*
X200105500Y-73131287D01*
X200105500Y-72918713D01*
X200072246Y-72708757D01*
X200006557Y-72506588D01*
X199910051Y-72317184D01*
X199910049Y-72317181D01*
X199910048Y-72317179D01*
X199785109Y-72145213D01*
X199671569Y-72031673D01*
X199638084Y-71970350D01*
X199643068Y-71900658D01*
X199684940Y-71844725D01*
X199715915Y-71827810D01*
X199847331Y-71778796D01*
X199962546Y-71692546D01*
X200048796Y-71577331D01*
X200099091Y-71442483D01*
X200105500Y-71382873D01*
X200105499Y-69587128D01*
X200099091Y-69527517D01*
X200094794Y-69515997D01*
X200048797Y-69392671D01*
X200048793Y-69392664D01*
X199962547Y-69277455D01*
X199962544Y-69277452D01*
X199847335Y-69191206D01*
X199847328Y-69191202D01*
X199712482Y-69140908D01*
X199712483Y-69140908D01*
X199652883Y-69134501D01*
X199652881Y-69134500D01*
X199652873Y-69134500D01*
X199652864Y-69134500D01*
X197857129Y-69134500D01*
X197857123Y-69134501D01*
X197797516Y-69140908D01*
X197662671Y-69191202D01*
X197662664Y-69191206D01*
X197547455Y-69277452D01*
X197547452Y-69277455D01*
X197461206Y-69392664D01*
X197461202Y-69392671D01*
X197410908Y-69527517D01*
X197404752Y-69584784D01*
X197404501Y-69587123D01*
X197404500Y-69587135D01*
X197404500Y-71382870D01*
X197404501Y-71382876D01*
X197410908Y-71442483D01*
X197461202Y-71577328D01*
X197461206Y-71577335D01*
X197547452Y-71692544D01*
X197547455Y-71692547D01*
X197662664Y-71778793D01*
X197662671Y-71778797D01*
X197794082Y-71827810D01*
X197850016Y-71869681D01*
X197874433Y-71935145D01*
X197859582Y-72003418D01*
X197838431Y-72031673D01*
X197724889Y-72145215D01*
X197599951Y-72317179D01*
X197503444Y-72506585D01*
X197437753Y-72708760D01*
X197404500Y-72918713D01*
X197404500Y-73131286D01*
X197434613Y-73321416D01*
X197437754Y-73341243D01*
X197459801Y-73409097D01*
X197503444Y-73543414D01*
X197599951Y-73732820D01*
X197724890Y-73904786D01*
X197875213Y-74055109D01*
X198047182Y-74180050D01*
X198055946Y-74184516D01*
X198106742Y-74232491D01*
X198123536Y-74300312D01*
X198100998Y-74366447D01*
X198055946Y-74405484D01*
X198047182Y-74409949D01*
X197875213Y-74534890D01*
X197724890Y-74685213D01*
X197599951Y-74857179D01*
X197503444Y-75046585D01*
X197437753Y-75248760D01*
X197404500Y-75458713D01*
X197404500Y-75671286D01*
X197437753Y-75881239D01*
X197503444Y-76083414D01*
X197599951Y-76272820D01*
X197724890Y-76444786D01*
X197875213Y-76595109D01*
X198047182Y-76720050D01*
X198055946Y-76724516D01*
X198106742Y-76772491D01*
X198123536Y-76840312D01*
X198100998Y-76906447D01*
X198055946Y-76945484D01*
X198047182Y-76949949D01*
X197875213Y-77074890D01*
X197724890Y-77225213D01*
X197599951Y-77397179D01*
X197503444Y-77586585D01*
X197437753Y-77788760D01*
X197404500Y-77998713D01*
X197404500Y-78211286D01*
X197437753Y-78421239D01*
X197503444Y-78623414D01*
X197599951Y-78812820D01*
X197724890Y-78984786D01*
X197875213Y-79135109D01*
X198047182Y-79260050D01*
X198055946Y-79264516D01*
X198106742Y-79312491D01*
X198123536Y-79380312D01*
X198100998Y-79446447D01*
X198055946Y-79485484D01*
X198047182Y-79489949D01*
X197875213Y-79614890D01*
X197724890Y-79765213D01*
X197599951Y-79937179D01*
X197503444Y-80126585D01*
X197437753Y-80328760D01*
X197404500Y-80538713D01*
X197404500Y-80751286D01*
X197422227Y-80863214D01*
X197437754Y-80961243D01*
X197460047Y-81029855D01*
X197503444Y-81163414D01*
X197599951Y-81352820D01*
X197724890Y-81524786D01*
X197875213Y-81675109D01*
X198047182Y-81800050D01*
X198055946Y-81804516D01*
X198106742Y-81852491D01*
X198123536Y-81920312D01*
X198100998Y-81986447D01*
X198055946Y-82025484D01*
X198047182Y-82029949D01*
X197875213Y-82154890D01*
X197724890Y-82305213D01*
X197599951Y-82477179D01*
X197503444Y-82666585D01*
X197503443Y-82666587D01*
X197503443Y-82666588D01*
X197498478Y-82681868D01*
X197437753Y-82868760D01*
X197404500Y-83078713D01*
X197404500Y-83291286D01*
X197433520Y-83474514D01*
X197437754Y-83501243D01*
X197493575Y-83673043D01*
X197503444Y-83703414D01*
X197599951Y-83892820D01*
X197724890Y-84064786D01*
X197875213Y-84215109D01*
X198047182Y-84340050D01*
X198055946Y-84344516D01*
X198106742Y-84392491D01*
X198123536Y-84460312D01*
X198100998Y-84526447D01*
X198055946Y-84565484D01*
X198047182Y-84569949D01*
X197875213Y-84694890D01*
X197724890Y-84845213D01*
X197599951Y-85017179D01*
X197503444Y-85206585D01*
X197437753Y-85408760D01*
X197414222Y-85557333D01*
X197404500Y-85618713D01*
X197404500Y-85831287D01*
X197407418Y-85849711D01*
X197430001Y-85992296D01*
X197437754Y-86041243D01*
X197501595Y-86237726D01*
X197503444Y-86243414D01*
X197599951Y-86432820D01*
X197724890Y-86604786D01*
X197875213Y-86755109D01*
X198047182Y-86880050D01*
X198055946Y-86884516D01*
X198106742Y-86932491D01*
X198123536Y-87000312D01*
X198100998Y-87066447D01*
X198055946Y-87105484D01*
X198047182Y-87109949D01*
X197875213Y-87234890D01*
X197724890Y-87385213D01*
X197599951Y-87557179D01*
X197503444Y-87746585D01*
X197437753Y-87948760D01*
X197417591Y-88076058D01*
X197404500Y-88158713D01*
X197404500Y-88371287D01*
X197407418Y-88389711D01*
X197436086Y-88570716D01*
X197437754Y-88581243D01*
X197497546Y-88765264D01*
X197503444Y-88783414D01*
X197599951Y-88972820D01*
X197724890Y-89144786D01*
X197875213Y-89295109D01*
X198047182Y-89420050D01*
X198055946Y-89424516D01*
X198106742Y-89472491D01*
X198123536Y-89540312D01*
X198100998Y-89606447D01*
X198055946Y-89645484D01*
X198047182Y-89649949D01*
X197875213Y-89774890D01*
X197724890Y-89925213D01*
X197599951Y-90097179D01*
X197503444Y-90286585D01*
X197437753Y-90488760D01*
X197404500Y-90698713D01*
X197404500Y-90911286D01*
X197437229Y-91117932D01*
X197437754Y-91121243D01*
X197498454Y-91308059D01*
X197503444Y-91323414D01*
X197599951Y-91512820D01*
X197724890Y-91684786D01*
X197875213Y-91835109D01*
X198047182Y-91960050D01*
X198055946Y-91964516D01*
X198106742Y-92012491D01*
X198123536Y-92080312D01*
X198100998Y-92146447D01*
X198055946Y-92185484D01*
X198047182Y-92189949D01*
X197875213Y-92314890D01*
X197724890Y-92465213D01*
X197599951Y-92637179D01*
X197503444Y-92826585D01*
X197437753Y-93028760D01*
X197412309Y-93189409D01*
X197404500Y-93238713D01*
X197404500Y-93451287D01*
X197406473Y-93463741D01*
X197432204Y-93626206D01*
X197437754Y-93661243D01*
X197501983Y-93858920D01*
X197503444Y-93863414D01*
X197599951Y-94052820D01*
X197724890Y-94224786D01*
X197875213Y-94375109D01*
X198047182Y-94500050D01*
X198055946Y-94504516D01*
X198106742Y-94552491D01*
X198123536Y-94620312D01*
X198100998Y-94686447D01*
X198055946Y-94725484D01*
X198047182Y-94729949D01*
X197875213Y-94854890D01*
X197724890Y-95005213D01*
X197599951Y-95177179D01*
X197503444Y-95366585D01*
X197437753Y-95568760D01*
X197404500Y-95778713D01*
X197404500Y-95991286D01*
X197434375Y-96179913D01*
X197437754Y-96201243D01*
X197502023Y-96399043D01*
X197503444Y-96403414D01*
X197599951Y-96592820D01*
X197724890Y-96764786D01*
X197875213Y-96915109D01*
X198047182Y-97040050D01*
X198055946Y-97044516D01*
X198106742Y-97092491D01*
X198123536Y-97160312D01*
X198100998Y-97226447D01*
X198055946Y-97265484D01*
X198047182Y-97269949D01*
X197875213Y-97394890D01*
X197724890Y-97545213D01*
X197599951Y-97717179D01*
X197503444Y-97906585D01*
X197437753Y-98108760D01*
X197411891Y-98272050D01*
X197404500Y-98318713D01*
X197404500Y-98531287D01*
X197411003Y-98572347D01*
X197431555Y-98702109D01*
X197437754Y-98741243D01*
X197497485Y-98925076D01*
X197503444Y-98943414D01*
X197599951Y-99132820D01*
X197724890Y-99304786D01*
X197875213Y-99455109D01*
X198047182Y-99580050D01*
X198055946Y-99584516D01*
X198106742Y-99632491D01*
X198123536Y-99700312D01*
X198100998Y-99766447D01*
X198055946Y-99805484D01*
X198047182Y-99809949D01*
X197875213Y-99934890D01*
X197724890Y-100085213D01*
X197599951Y-100257179D01*
X197503444Y-100446585D01*
X197437753Y-100648760D01*
X197418226Y-100772051D01*
X197404500Y-100858713D01*
X197404500Y-101071287D01*
X197411891Y-101117949D01*
X197437754Y-101281244D01*
X197437754Y-101281247D01*
X197451491Y-101323523D01*
X197453486Y-101393364D01*
X197421241Y-101449522D01*
X191231184Y-107639581D01*
X191169861Y-107673066D01*
X191143503Y-107675900D01*
X187978795Y-107675900D01*
X187911756Y-107656215D01*
X187866001Y-107603411D01*
X187856057Y-107534253D01*
X187856322Y-107532501D01*
X187876300Y-107406369D01*
X187876300Y-107223629D01*
X187847715Y-107043158D01*
X187847715Y-107043155D01*
X187791248Y-106869369D01*
X187708291Y-106706556D01*
X187688223Y-106678934D01*
X187664745Y-106613130D01*
X187680571Y-106545076D01*
X187700858Y-106518375D01*
X188837306Y-105381928D01*
X188837311Y-105381924D01*
X188847514Y-105371720D01*
X188847516Y-105371720D01*
X188959320Y-105259916D01*
X188986324Y-105213143D01*
X189017939Y-105158385D01*
X189017942Y-105158376D01*
X189017948Y-105158368D01*
X189038377Y-105122985D01*
X189079301Y-104970257D01*
X189079301Y-104812143D01*
X189079301Y-104804548D01*
X189079300Y-104804530D01*
X189079300Y-77072644D01*
X189079299Y-77072638D01*
X189069165Y-77034816D01*
X189038377Y-76919915D01*
X188995362Y-76845412D01*
X188959320Y-76782984D01*
X188847516Y-76671180D01*
X188847515Y-76671179D01*
X188843185Y-76666849D01*
X188843174Y-76666839D01*
X181509690Y-69333355D01*
X181509688Y-69333352D01*
X181390817Y-69214481D01*
X181390816Y-69214480D01*
X181304004Y-69164360D01*
X181304004Y-69164359D01*
X181304000Y-69164358D01*
X181253885Y-69135423D01*
X181101157Y-69094499D01*
X180943043Y-69094499D01*
X180935447Y-69094499D01*
X180935431Y-69094500D01*
X177489940Y-69094500D01*
X177449019Y-69105464D01*
X177449019Y-69105465D01*
X177411751Y-69115451D01*
X177337214Y-69135423D01*
X177337209Y-69135426D01*
X177200290Y-69214475D01*
X177200282Y-69214481D01*
X176603286Y-69811478D01*
X176603284Y-69811480D01*
X176554579Y-69860183D01*
X176493256Y-69893667D01*
X176493251Y-69893666D01*
X176466900Y-69896500D01*
X176074129Y-69896500D01*
X176074123Y-69896501D01*
X176014516Y-69902908D01*
X175879671Y-69953202D01*
X175879664Y-69953206D01*
X175764455Y-70039452D01*
X175764452Y-70039455D01*
X175678206Y-70154664D01*
X175678202Y-70154671D01*
X175627908Y-70289517D01*
X175621501Y-70349116D01*
X175621500Y-70349135D01*
X175621500Y-72144870D01*
X175621501Y-72144876D01*
X175627908Y-72204483D01*
X175678202Y-72339328D01*
X175678206Y-72339335D01*
X175764452Y-72454544D01*
X175764455Y-72454547D01*
X175879664Y-72540793D01*
X175879671Y-72540797D01*
X176011082Y-72589810D01*
X176067016Y-72631681D01*
X176091433Y-72697145D01*
X176076582Y-72765418D01*
X176055431Y-72793673D01*
X175941889Y-72907215D01*
X175816951Y-73079179D01*
X175720444Y-73268585D01*
X175654753Y-73470760D01*
X175621500Y-73680713D01*
X175621500Y-73893286D01*
X175654753Y-74103239D01*
X175654753Y-74103241D01*
X175654754Y-74103243D01*
X175720425Y-74305358D01*
X175720444Y-74305414D01*
X175816951Y-74494820D01*
X175941890Y-74666786D01*
X176092213Y-74817109D01*
X176264182Y-74942050D01*
X176272946Y-74946516D01*
X176323742Y-74994491D01*
X176340536Y-75062312D01*
X176317998Y-75128447D01*
X176272946Y-75167484D01*
X176264182Y-75171949D01*
X176092213Y-75296890D01*
X175941894Y-75447209D01*
X175941890Y-75447214D01*
X175940800Y-75448715D01*
X175940238Y-75449147D01*
X175938724Y-75450921D01*
X175938351Y-75450602D01*
X175885469Y-75491379D01*
X175815855Y-75497356D01*
X175754061Y-75464749D01*
X175719706Y-75403909D01*
X175717194Y-75389080D01*
X175715091Y-75369516D01*
X175664797Y-75234671D01*
X175664793Y-75234664D01*
X175578547Y-75119455D01*
X175578544Y-75119452D01*
X175463335Y-75033206D01*
X175463328Y-75033202D01*
X175328482Y-74982908D01*
X175328483Y-74982908D01*
X175268883Y-74976501D01*
X175268881Y-74976500D01*
X175268873Y-74976500D01*
X175268865Y-74976500D01*
X173573100Y-74976500D01*
X173506061Y-74956815D01*
X173460306Y-74904011D01*
X173449100Y-74852500D01*
X173449100Y-69572825D01*
X173468785Y-69505786D01*
X173511107Y-69465434D01*
X173514374Y-69463548D01*
X173691224Y-69327847D01*
X173848847Y-69170224D01*
X173984548Y-68993374D01*
X174096005Y-68800326D01*
X174181310Y-68594381D01*
X174239004Y-68379063D01*
X174268100Y-68158057D01*
X174268100Y-67935143D01*
X174239004Y-67714137D01*
X174181310Y-67498819D01*
X174096005Y-67292874D01*
X173984548Y-67099826D01*
X173868337Y-66948376D01*
X173848848Y-66922977D01*
X173848842Y-66922970D01*
X173691229Y-66765357D01*
X173691222Y-66765351D01*
X173514382Y-66629658D01*
X173514380Y-66629657D01*
X173514374Y-66629652D01*
X173321326Y-66518195D01*
X173321322Y-66518193D01*
X173115390Y-66432893D01*
X173115383Y-66432891D01*
X173115381Y-66432890D01*
X172900063Y-66375196D01*
X172900057Y-66375195D01*
X172900052Y-66375194D01*
X172679066Y-66346101D01*
X172679063Y-66346100D01*
X172679057Y-66346100D01*
X172456143Y-66346100D01*
X172456137Y-66346100D01*
X172456133Y-66346101D01*
X172235147Y-66375194D01*
X172235140Y-66375195D01*
X172235137Y-66375196D01*
X172140339Y-66400597D01*
X172019819Y-66432890D01*
X172019809Y-66432893D01*
X171813877Y-66518193D01*
X171813873Y-66518195D01*
X171620826Y-66629652D01*
X171620817Y-66629658D01*
X171443977Y-66765351D01*
X171443970Y-66765357D01*
X171286357Y-66922970D01*
X171286351Y-66922977D01*
X171150658Y-67099817D01*
X171150652Y-67099826D01*
X171039195Y-67292873D01*
X171039193Y-67292877D01*
X170953893Y-67498809D01*
X170953890Y-67498819D01*
X170913058Y-67651209D01*
X170896197Y-67714134D01*
X170896194Y-67714147D01*
X170867101Y-67935133D01*
X170867100Y-67935149D01*
X158754037Y-67935149D01*
X158745004Y-67866537D01*
X158687310Y-67651219D01*
X158602005Y-67445274D01*
X158490548Y-67252226D01*
X158354847Y-67075376D01*
X158354842Y-67075370D01*
X158197229Y-66917757D01*
X158197222Y-66917751D01*
X158020382Y-66782058D01*
X158020380Y-66782057D01*
X158020374Y-66782052D01*
X157827326Y-66670595D01*
X157827322Y-66670593D01*
X157621390Y-66585293D01*
X157621383Y-66585291D01*
X157621381Y-66585290D01*
X157406063Y-66527596D01*
X157406057Y-66527595D01*
X157406052Y-66527594D01*
X157185066Y-66498501D01*
X157185063Y-66498500D01*
X157185057Y-66498500D01*
X156962143Y-66498500D01*
X156962137Y-66498500D01*
X156962133Y-66498501D01*
X156741147Y-66527594D01*
X156741140Y-66527595D01*
X156741137Y-66527596D01*
X156681428Y-66543595D01*
X156525819Y-66585290D01*
X156525809Y-66585293D01*
X156319877Y-66670593D01*
X156319873Y-66670595D01*
X156126826Y-66782052D01*
X156126817Y-66782058D01*
X155949977Y-66917751D01*
X155949970Y-66917757D01*
X155792357Y-67075370D01*
X155792351Y-67075377D01*
X155656658Y-67252217D01*
X155656652Y-67252226D01*
X155545195Y-67445273D01*
X155545193Y-67445277D01*
X155459893Y-67651209D01*
X155459890Y-67651219D01*
X155402197Y-67866534D01*
X155402194Y-67866547D01*
X155373101Y-68087533D01*
X155373100Y-68087549D01*
X143051500Y-68087549D01*
X143051500Y-67960543D01*
X143022404Y-67739537D01*
X142964710Y-67524219D01*
X142879405Y-67318274D01*
X142767948Y-67125226D01*
X142632247Y-66948376D01*
X142632242Y-66948370D01*
X142474629Y-66790757D01*
X142474622Y-66790751D01*
X142297782Y-66655058D01*
X142297780Y-66655057D01*
X142297774Y-66655052D01*
X142104726Y-66543595D01*
X142104722Y-66543593D01*
X141898790Y-66458293D01*
X141898783Y-66458291D01*
X141898781Y-66458290D01*
X141683463Y-66400596D01*
X141683457Y-66400595D01*
X141683452Y-66400594D01*
X141462466Y-66371501D01*
X141462463Y-66371500D01*
X141462457Y-66371500D01*
X141239543Y-66371500D01*
X141239537Y-66371500D01*
X141239533Y-66371501D01*
X141018547Y-66400594D01*
X141018540Y-66400595D01*
X141018537Y-66400596D01*
X140803219Y-66458290D01*
X140803209Y-66458293D01*
X140597277Y-66543593D01*
X140597273Y-66543595D01*
X140404226Y-66655052D01*
X140404217Y-66655058D01*
X140227377Y-66790751D01*
X140227370Y-66790757D01*
X140069757Y-66948370D01*
X140069751Y-66948377D01*
X139934058Y-67125217D01*
X139934052Y-67125226D01*
X139822595Y-67318273D01*
X139822593Y-67318277D01*
X139737293Y-67524209D01*
X139737290Y-67524219D01*
X139679597Y-67739534D01*
X139679594Y-67739547D01*
X139650501Y-67960533D01*
X139650500Y-67960549D01*
X139650500Y-68183450D01*
X139650501Y-68183466D01*
X139679594Y-68404452D01*
X139679595Y-68404457D01*
X139679596Y-68404463D01*
X139713626Y-68531465D01*
X139737290Y-68619780D01*
X139737293Y-68619790D01*
X139812072Y-68800322D01*
X139822595Y-68825726D01*
X139934052Y-69018774D01*
X139934057Y-69018780D01*
X139934058Y-69018782D01*
X140069751Y-69195622D01*
X140069757Y-69195629D01*
X140227370Y-69353242D01*
X140227377Y-69353248D01*
X140278752Y-69392669D01*
X140404226Y-69488948D01*
X140407493Y-69490834D01*
X140455712Y-69541397D01*
X140469500Y-69598225D01*
X140469500Y-77129179D01*
X140469500Y-77302821D01*
X140469500Y-77302823D01*
X140469499Y-77302823D01*
X140503374Y-77473118D01*
X140503377Y-77473128D01*
X140569822Y-77633543D01*
X140666295Y-77777926D01*
X140666296Y-77777927D01*
X141713181Y-78824810D01*
X141746666Y-78886133D01*
X141749500Y-78912491D01*
X141749500Y-78973287D01*
X141782754Y-79183243D01*
X141843335Y-79369692D01*
X141848444Y-79385414D01*
X141944951Y-79574820D01*
X142069890Y-79746786D01*
X142220213Y-79897109D01*
X142392182Y-80022050D01*
X142392184Y-80022051D01*
X142459579Y-80056390D01*
X142510375Y-80104364D01*
X142527171Y-80172184D01*
X142504634Y-80238320D01*
X142490966Y-80254556D01*
X141333722Y-81411801D01*
X141278137Y-81443894D01*
X141255418Y-81449982D01*
X141255412Y-81449984D01*
X141118487Y-81529037D01*
X141118482Y-81529041D01*
X141006681Y-81640842D01*
X141006675Y-81640850D01*
X140927626Y-81777769D01*
X140927623Y-81777776D01*
X140886700Y-81930503D01*
X140886700Y-94509496D01*
X140867015Y-94576535D01*
X140814211Y-94622290D01*
X140745053Y-94632234D01*
X140738509Y-94631113D01*
X140591645Y-94601900D01*
X140591642Y-94601900D01*
X140433958Y-94601900D01*
X140433955Y-94601900D01*
X140279310Y-94632661D01*
X140279298Y-94632664D01*
X140133627Y-94693002D01*
X140133614Y-94693009D01*
X140002511Y-94780610D01*
X140002507Y-94780613D01*
X139891013Y-94892107D01*
X139891010Y-94892111D01*
X139803409Y-95023214D01*
X139803402Y-95023227D01*
X139743064Y-95168898D01*
X139743061Y-95168908D01*
X139712161Y-95324250D01*
X139679776Y-95386161D01*
X139678225Y-95387739D01*
X137965181Y-97100783D01*
X137903858Y-97134268D01*
X137834166Y-97129284D01*
X137778233Y-97087412D01*
X137753816Y-97021948D01*
X137753500Y-97013102D01*
X137753500Y-72863844D01*
X137753499Y-72863838D01*
X137748553Y-72845380D01*
X137744652Y-72830819D01*
X137712577Y-72711115D01*
X137666870Y-72631949D01*
X137633520Y-72574184D01*
X137521716Y-72462380D01*
X137521715Y-72462379D01*
X137517385Y-72458049D01*
X137517374Y-72458039D01*
X134392690Y-69333355D01*
X134392688Y-69333352D01*
X134273817Y-69214481D01*
X134273816Y-69214480D01*
X134187004Y-69164360D01*
X134187004Y-69164359D01*
X134187000Y-69164358D01*
X134136885Y-69135423D01*
X133984157Y-69094499D01*
X133826043Y-69094499D01*
X133818447Y-69094499D01*
X133818431Y-69094500D01*
X129258670Y-69094500D01*
X129258654Y-69094499D01*
X129251058Y-69094499D01*
X129092943Y-69094499D01*
X129016579Y-69114961D01*
X128940214Y-69135423D01*
X128940209Y-69135426D01*
X128803290Y-69214475D01*
X128803282Y-69214481D01*
X128395217Y-69622546D01*
X128395214Y-69622548D01*
X128395215Y-69622549D01*
X128290477Y-69727287D01*
X128241870Y-69811479D01*
X128241870Y-69811480D01*
X128211423Y-69864214D01*
X128203531Y-69893667D01*
X128170499Y-70016943D01*
X128170499Y-70016945D01*
X128170499Y-70185046D01*
X128170500Y-70185059D01*
X128170500Y-72549330D01*
X128170499Y-72549348D01*
X128170499Y-72715054D01*
X128170498Y-72715054D01*
X128211423Y-72867787D01*
X128220843Y-72884101D01*
X128220842Y-72884101D01*
X128220844Y-72884103D01*
X128290475Y-73004709D01*
X128290481Y-73004717D01*
X128409349Y-73123585D01*
X128409355Y-73123590D01*
X128588241Y-73302476D01*
X128621726Y-73363799D01*
X128618492Y-73428473D01*
X128604753Y-73470757D01*
X128571500Y-73680713D01*
X128571500Y-73893286D01*
X128604753Y-74103239D01*
X128604753Y-74103241D01*
X128604754Y-74103243D01*
X128670425Y-74305358D01*
X128670444Y-74305414D01*
X128766951Y-74494820D01*
X128891890Y-74666786D01*
X129042213Y-74817109D01*
X129214182Y-74942050D01*
X129222946Y-74946516D01*
X129273742Y-74994491D01*
X129290536Y-75062312D01*
X129267998Y-75128447D01*
X129222946Y-75167484D01*
X129214182Y-75171949D01*
X129042213Y-75296890D01*
X128891892Y-75447211D01*
X128872507Y-75473893D01*
X128817177Y-75516558D01*
X128747563Y-75522536D01*
X128685769Y-75489929D01*
X128651412Y-75429090D01*
X128648901Y-75414266D01*
X128644091Y-75369517D01*
X128632901Y-75339516D01*
X128593797Y-75234671D01*
X128593793Y-75234664D01*
X128507547Y-75119455D01*
X128507544Y-75119452D01*
X128392335Y-75033206D01*
X128392328Y-75033202D01*
X128257482Y-74982908D01*
X128257483Y-74982908D01*
X128197883Y-74976501D01*
X128197881Y-74976500D01*
X128197873Y-74976500D01*
X128197865Y-74976500D01*
X126557700Y-74976500D01*
X126490661Y-74956815D01*
X126444906Y-74904011D01*
X126433700Y-74852500D01*
X126433700Y-69598225D01*
X126453385Y-69531186D01*
X126495707Y-69490834D01*
X126498974Y-69488948D01*
X126675824Y-69353247D01*
X126833447Y-69195624D01*
X126969148Y-69018774D01*
X127080605Y-68825726D01*
X127165910Y-68619781D01*
X127223604Y-68404463D01*
X127252700Y-68183457D01*
X127252700Y-67960543D01*
X127223604Y-67739537D01*
X127165910Y-67524219D01*
X127080605Y-67318274D01*
X126969148Y-67125226D01*
X126833447Y-66948376D01*
X126833442Y-66948370D01*
X126675829Y-66790757D01*
X126675822Y-66790751D01*
X126498982Y-66655058D01*
X126498980Y-66655057D01*
X126498974Y-66655052D01*
X126305926Y-66543595D01*
X126305922Y-66543593D01*
X126099990Y-66458293D01*
X126099983Y-66458291D01*
X126099981Y-66458290D01*
X125884663Y-66400596D01*
X125884657Y-66400595D01*
X125884652Y-66400594D01*
X125663666Y-66371501D01*
X125663663Y-66371500D01*
X125663657Y-66371500D01*
X125440743Y-66371500D01*
X125440737Y-66371500D01*
X125440733Y-66371501D01*
X125219747Y-66400594D01*
X125219740Y-66400595D01*
X125219737Y-66400596D01*
X125004419Y-66458290D01*
X125004409Y-66458293D01*
X124798477Y-66543593D01*
X124798473Y-66543595D01*
X124605426Y-66655052D01*
X124605417Y-66655058D01*
X124428577Y-66790751D01*
X124428570Y-66790757D01*
X124270957Y-66948370D01*
X124270951Y-66948377D01*
X124135258Y-67125217D01*
X124135252Y-67125226D01*
X124023795Y-67318273D01*
X124023793Y-67318277D01*
X123938493Y-67524209D01*
X123938490Y-67524219D01*
X123880797Y-67739534D01*
X123880794Y-67739547D01*
X123851701Y-67960533D01*
X123851700Y-67960549D01*
X123851700Y-68183450D01*
X123851701Y-68183466D01*
X123880794Y-68404452D01*
X123880795Y-68404457D01*
X123880796Y-68404463D01*
X123914826Y-68531465D01*
X123938490Y-68619780D01*
X123938493Y-68619790D01*
X124013272Y-68800322D01*
X124023795Y-68825726D01*
X124135252Y-69018774D01*
X124135257Y-69018780D01*
X124135258Y-69018782D01*
X124270951Y-69195622D01*
X124270957Y-69195629D01*
X124428570Y-69353242D01*
X124428577Y-69353248D01*
X124479952Y-69392669D01*
X124605426Y-69488948D01*
X124608693Y-69490834D01*
X124656912Y-69541397D01*
X124670700Y-69598225D01*
X124670700Y-77078379D01*
X124670700Y-77252021D01*
X124670700Y-77252023D01*
X124670699Y-77252023D01*
X124704574Y-77422318D01*
X124704577Y-77422328D01*
X124771022Y-77582743D01*
X124867495Y-77727126D01*
X124867496Y-77727127D01*
X125913181Y-78772810D01*
X125946666Y-78834133D01*
X125949500Y-78860491D01*
X125949500Y-78973287D01*
X125982754Y-79183243D01*
X126043335Y-79369692D01*
X126048444Y-79385414D01*
X126144951Y-79574820D01*
X126269890Y-79746786D01*
X126420213Y-79897109D01*
X126550888Y-79992048D01*
X126592184Y-80022051D01*
X126654457Y-80053781D01*
X126659580Y-80056391D01*
X126710376Y-80104366D01*
X126727171Y-80172187D01*
X126704634Y-80238322D01*
X126690966Y-80254557D01*
X123397737Y-83547786D01*
X123397730Y-83547793D01*
X123394686Y-83550838D01*
X123394684Y-83550840D01*
X123282880Y-83662644D01*
X123259343Y-83703412D01*
X123253365Y-83713765D01*
X123253364Y-83713767D01*
X123203824Y-83799573D01*
X123203823Y-83799575D01*
X123162899Y-83952303D01*
X123162899Y-83952305D01*
X123162899Y-84120406D01*
X123162900Y-84120419D01*
X123162900Y-104804530D01*
X123162899Y-104804548D01*
X123162899Y-104970254D01*
X123162898Y-104970254D01*
X123203823Y-105122985D01*
X123224250Y-105158364D01*
X123224251Y-105158368D01*
X123282875Y-105259909D01*
X123282881Y-105259917D01*
X123401749Y-105378785D01*
X123401755Y-105378790D01*
X124541337Y-106518372D01*
X124574822Y-106579695D01*
X124569838Y-106649387D01*
X124553975Y-106678937D01*
X124533910Y-106706554D01*
X124450953Y-106869366D01*
X124394484Y-107043158D01*
X124365900Y-107223629D01*
X124365900Y-107406370D01*
X124394484Y-107586841D01*
X124394485Y-107586845D01*
X124450952Y-107760631D01*
X124533909Y-107923444D01*
X124641315Y-108071276D01*
X124770524Y-108200485D01*
X124918356Y-108307891D01*
X125081169Y-108390848D01*
X125254955Y-108447315D01*
X125322635Y-108458034D01*
X125435430Y-108475900D01*
X125435435Y-108475900D01*
X126938970Y-108475900D01*
X127039231Y-108460019D01*
X127119445Y-108447315D01*
X127293231Y-108390848D01*
X127456044Y-108307891D01*
X127603876Y-108200485D01*
X127733085Y-108071276D01*
X127840491Y-107923444D01*
X127923448Y-107760631D01*
X127979915Y-107586845D01*
X127992619Y-107506631D01*
X128008500Y-107406370D01*
X128008500Y-107223629D01*
X127979915Y-107043158D01*
X127979915Y-107043155D01*
X127923448Y-106869369D01*
X127840491Y-106706556D01*
X127733085Y-106558724D01*
X127603876Y-106429515D01*
X127456044Y-106322109D01*
X127293231Y-106239152D01*
X127119445Y-106182685D01*
X127119443Y-106182684D01*
X127119441Y-106182684D01*
X127023402Y-106167473D01*
X126960267Y-106137544D01*
X126923336Y-106078232D01*
X126924334Y-106008370D01*
X126962944Y-105950137D01*
X127023402Y-105922527D01*
X127062854Y-105916278D01*
X127119445Y-105907315D01*
X127293231Y-105850848D01*
X127456044Y-105767891D01*
X127603876Y-105660485D01*
X127733085Y-105531276D01*
X127840491Y-105383444D01*
X127923448Y-105220631D01*
X127979915Y-105046845D01*
X127992619Y-104966631D01*
X128008500Y-104866370D01*
X128008500Y-104683629D01*
X127982866Y-104521787D01*
X127979915Y-104503155D01*
X127923448Y-104329369D01*
X127840491Y-104166556D01*
X127820424Y-104138936D01*
X127796945Y-104073135D01*
X127812769Y-104005080D01*
X127833058Y-103978376D01*
X128289520Y-103521916D01*
X128368577Y-103384984D01*
X128409501Y-103232257D01*
X128409501Y-103074142D01*
X128409501Y-103066547D01*
X128409500Y-103066529D01*
X128409500Y-101091096D01*
X128429185Y-101024057D01*
X128445814Y-101003420D01*
X131875219Y-97574014D01*
X131936540Y-97540531D01*
X132006232Y-97545515D01*
X132062165Y-97587387D01*
X132073382Y-97605401D01*
X132153909Y-97763444D01*
X132261315Y-97911276D01*
X132390524Y-98040485D01*
X132538356Y-98147891D01*
X132701169Y-98230848D01*
X132874955Y-98287315D01*
X132919012Y-98294293D01*
X132970997Y-98302527D01*
X133034132Y-98332456D01*
X133071063Y-98391768D01*
X133070065Y-98461631D01*
X133031455Y-98519863D01*
X132970997Y-98547473D01*
X132874958Y-98562684D01*
X132701166Y-98619153D01*
X132538355Y-98702109D01*
X132390521Y-98809517D01*
X132261317Y-98938721D01*
X132153909Y-99086555D01*
X132070953Y-99249366D01*
X132014484Y-99423158D01*
X131985900Y-99603629D01*
X131985900Y-99786370D01*
X132012323Y-99953195D01*
X132014485Y-99966845D01*
X132070952Y-100140631D01*
X132153909Y-100303444D01*
X132261315Y-100451276D01*
X132390524Y-100580485D01*
X132538356Y-100687891D01*
X132701169Y-100770848D01*
X132874955Y-100827315D01*
X132919012Y-100834293D01*
X132970997Y-100842527D01*
X133034132Y-100872456D01*
X133071063Y-100931768D01*
X133070065Y-101001631D01*
X133031455Y-101059863D01*
X132970997Y-101087473D01*
X132874958Y-101102684D01*
X132701166Y-101159153D01*
X132538355Y-101242109D01*
X132390521Y-101349517D01*
X132261317Y-101478721D01*
X132153909Y-101626555D01*
X132070953Y-101789366D01*
X132014484Y-101963158D01*
X131985900Y-102143629D01*
X131985900Y-102326370D01*
X132014484Y-102506841D01*
X132014485Y-102506845D01*
X132070952Y-102680631D01*
X132153909Y-102843444D01*
X132261315Y-102991276D01*
X132390524Y-103120485D01*
X132538356Y-103227891D01*
X132701169Y-103310848D01*
X132874955Y-103367315D01*
X132919012Y-103374293D01*
X132970997Y-103382527D01*
X133034132Y-103412456D01*
X133071063Y-103471768D01*
X133070065Y-103541631D01*
X133031455Y-103599863D01*
X132970997Y-103627473D01*
X132874958Y-103642684D01*
X132701166Y-103699153D01*
X132538355Y-103782109D01*
X132390521Y-103889517D01*
X132261317Y-104018721D01*
X132153909Y-104166555D01*
X132070953Y-104329366D01*
X132014484Y-104503158D01*
X131985900Y-104683629D01*
X131985900Y-104866370D01*
X132014484Y-105046841D01*
X132014485Y-105046845D01*
X132066051Y-105205548D01*
X132070953Y-105220633D01*
X132153911Y-105383448D01*
X132173972Y-105411059D01*
X132197453Y-105476865D01*
X132181628Y-105544919D01*
X132161336Y-105571626D01*
X131816686Y-105916278D01*
X131704881Y-106028082D01*
X131704875Y-106028090D01*
X131664584Y-106097878D01*
X131664584Y-106097880D01*
X131625823Y-106165014D01*
X131621088Y-106182685D01*
X131584899Y-106317743D01*
X131584899Y-106317745D01*
X131584899Y-106485846D01*
X131584900Y-106485859D01*
X131584900Y-107626555D01*
X131584899Y-107626573D01*
X131584899Y-107792279D01*
X131584898Y-107792279D01*
X131618262Y-107916795D01*
X131625823Y-107945010D01*
X131648623Y-107984500D01*
X131672250Y-108025423D01*
X131704879Y-108081939D01*
X131704881Y-108081942D01*
X132183158Y-108560219D01*
X132216643Y-108621542D01*
X132211659Y-108691234D01*
X132169787Y-108747167D01*
X132104323Y-108771584D01*
X132095477Y-108771900D01*
X120975766Y-108771900D01*
X120908727Y-108752215D01*
X120906875Y-108751002D01*
X120775185Y-108663009D01*
X120775172Y-108663002D01*
X120629501Y-108602664D01*
X120629489Y-108602661D01*
X120474845Y-108571900D01*
X120474842Y-108571900D01*
X120317158Y-108571900D01*
X120317155Y-108571900D01*
X120162510Y-108602661D01*
X120162498Y-108602664D01*
X120016827Y-108663002D01*
X120016814Y-108663009D01*
X119885711Y-108750610D01*
X119885707Y-108750613D01*
X119774213Y-108862107D01*
X119774210Y-108862111D01*
X119686609Y-108993214D01*
X119686602Y-108993227D01*
X119626264Y-109138898D01*
X119626261Y-109138910D01*
X119595500Y-109293553D01*
X110490000Y-109293553D01*
X110490000Y-88749486D01*
X110949500Y-88749486D01*
X110949500Y-88934514D01*
X110955567Y-88972820D01*
X110978445Y-89117265D01*
X111035619Y-89293232D01*
X111035620Y-89293235D01*
X111100237Y-89420051D01*
X111119622Y-89458096D01*
X111228379Y-89607787D01*
X111359213Y-89738621D01*
X111508904Y-89847378D01*
X111589763Y-89888577D01*
X111673764Y-89931379D01*
X111673767Y-89931380D01*
X111738043Y-89952264D01*
X111849736Y-89988555D01*
X112032486Y-90017500D01*
X112032487Y-90017500D01*
X112567513Y-90017500D01*
X112567514Y-90017500D01*
X112750264Y-89988555D01*
X112926235Y-89931379D01*
X113091096Y-89847378D01*
X113240787Y-89738621D01*
X113371621Y-89607787D01*
X113480378Y-89458096D01*
X113564379Y-89293235D01*
X113621555Y-89117264D01*
X113650500Y-88934514D01*
X113650500Y-88749486D01*
X113621555Y-88566736D01*
X113576651Y-88428534D01*
X113576650Y-88428530D01*
X114049500Y-88428530D01*
X114049500Y-88635466D01*
X114088817Y-88833130D01*
X114089870Y-88838420D01*
X114169059Y-89029598D01*
X114217417Y-89101971D01*
X114284024Y-89201657D01*
X114430342Y-89347975D01*
X114430345Y-89347977D01*
X114602402Y-89462941D01*
X114793580Y-89542130D01*
X114996530Y-89582499D01*
X114996534Y-89582500D01*
X114996535Y-89582500D01*
X115603466Y-89582500D01*
X115603467Y-89582499D01*
X115806420Y-89542130D01*
X115997598Y-89462941D01*
X116169655Y-89347977D01*
X116315977Y-89201655D01*
X116430941Y-89029598D01*
X116510130Y-88838420D01*
X116550500Y-88635465D01*
X116550500Y-88428535D01*
X116510130Y-88225580D01*
X116430941Y-88034402D01*
X116315977Y-87862345D01*
X116315975Y-87862342D01*
X116169657Y-87716024D01*
X116083626Y-87658541D01*
X115997598Y-87601059D01*
X115806420Y-87521870D01*
X115806412Y-87521868D01*
X115603469Y-87481500D01*
X115603465Y-87481500D01*
X114996535Y-87481500D01*
X114996530Y-87481500D01*
X114793587Y-87521868D01*
X114793579Y-87521870D01*
X114602403Y-87601058D01*
X114430342Y-87716024D01*
X114284024Y-87862342D01*
X114169058Y-88034403D01*
X114089870Y-88225579D01*
X114089868Y-88225587D01*
X114049500Y-88428530D01*
X113576650Y-88428530D01*
X113564381Y-88390770D01*
X113564379Y-88390764D01*
X113480377Y-88225903D01*
X113371621Y-88076213D01*
X113240787Y-87945379D01*
X113091096Y-87836622D01*
X112926235Y-87752620D01*
X112926232Y-87752619D01*
X112750265Y-87695445D01*
X112658889Y-87680972D01*
X112567514Y-87666500D01*
X112032486Y-87666500D01*
X111971569Y-87676148D01*
X111849734Y-87695445D01*
X111673767Y-87752619D01*
X111673764Y-87752620D01*
X111508903Y-87836622D01*
X111473503Y-87862342D01*
X111359213Y-87945379D01*
X111359211Y-87945381D01*
X111359210Y-87945381D01*
X111228381Y-88076210D01*
X111228381Y-88076211D01*
X111228379Y-88076213D01*
X111211460Y-88099500D01*
X111119622Y-88225903D01*
X111035620Y-88390764D01*
X111035619Y-88390767D01*
X110978445Y-88566734D01*
X110953296Y-88725518D01*
X110949500Y-88749486D01*
X110490000Y-88749486D01*
X110490000Y-83289486D01*
X110949500Y-83289486D01*
X110949500Y-83474514D01*
X110959475Y-83537495D01*
X110978445Y-83657265D01*
X111035619Y-83833232D01*
X111035620Y-83833235D01*
X111086497Y-83933085D01*
X111119622Y-83998096D01*
X111228379Y-84147787D01*
X111359213Y-84278621D01*
X111508904Y-84387378D01*
X111589763Y-84428577D01*
X111673764Y-84471379D01*
X111673767Y-84471380D01*
X111761750Y-84499967D01*
X111849736Y-84528555D01*
X112032486Y-84557500D01*
X112032487Y-84557500D01*
X112567513Y-84557500D01*
X112567514Y-84557500D01*
X112750264Y-84528555D01*
X112926235Y-84471379D01*
X113091096Y-84387378D01*
X113240787Y-84278621D01*
X113371621Y-84147787D01*
X113480378Y-83998096D01*
X113564379Y-83833235D01*
X113621555Y-83657264D01*
X113632441Y-83588530D01*
X114049500Y-83588530D01*
X114049500Y-83795469D01*
X114089868Y-83998412D01*
X114089870Y-83998420D01*
X114165837Y-84181821D01*
X114169059Y-84189598D01*
X114196855Y-84231198D01*
X114284024Y-84361657D01*
X114430342Y-84507975D01*
X114430345Y-84507977D01*
X114602402Y-84622941D01*
X114793580Y-84702130D01*
X114996530Y-84742499D01*
X114996534Y-84742500D01*
X114996535Y-84742500D01*
X115603466Y-84742500D01*
X115603467Y-84742499D01*
X115806420Y-84702130D01*
X115997598Y-84622941D01*
X116169655Y-84507977D01*
X116315977Y-84361655D01*
X116430941Y-84189598D01*
X116510130Y-83998420D01*
X116550500Y-83795465D01*
X116550500Y-83588535D01*
X116510130Y-83385580D01*
X116430941Y-83194402D01*
X116315977Y-83022345D01*
X116315975Y-83022342D01*
X116169657Y-82876024D01*
X116004849Y-82765904D01*
X115997598Y-82761059D01*
X115806420Y-82681870D01*
X115806412Y-82681868D01*
X115603469Y-82641500D01*
X115603465Y-82641500D01*
X114996535Y-82641500D01*
X114996530Y-82641500D01*
X114793587Y-82681868D01*
X114793579Y-82681870D01*
X114602403Y-82761058D01*
X114430342Y-82876024D01*
X114284024Y-83022342D01*
X114169058Y-83194403D01*
X114089870Y-83385579D01*
X114089868Y-83385587D01*
X114049500Y-83588530D01*
X113632441Y-83588530D01*
X113650500Y-83474514D01*
X113650500Y-83289486D01*
X113621555Y-83106736D01*
X113564379Y-82930765D01*
X113564379Y-82930764D01*
X113496557Y-82797657D01*
X113480378Y-82765904D01*
X113371621Y-82616213D01*
X113240787Y-82485379D01*
X113091096Y-82376622D01*
X113056197Y-82358840D01*
X112926235Y-82292620D01*
X112926232Y-82292619D01*
X112750265Y-82235445D01*
X112635209Y-82217222D01*
X112567514Y-82206500D01*
X112032486Y-82206500D01*
X111971569Y-82216148D01*
X111849734Y-82235445D01*
X111673767Y-82292619D01*
X111673764Y-82292620D01*
X111508903Y-82376622D01*
X111428611Y-82434958D01*
X111359213Y-82485379D01*
X111359211Y-82485381D01*
X111359210Y-82485381D01*
X111228381Y-82616210D01*
X111228381Y-82616211D01*
X111228379Y-82616213D01*
X111207038Y-82645587D01*
X111119622Y-82765903D01*
X111035620Y-82930764D01*
X111035619Y-82930767D01*
X110978445Y-83106734D01*
X110949500Y-83289486D01*
X110490000Y-83289486D01*
X110490000Y-63386241D01*
X111663000Y-63386241D01*
X111663000Y-63635358D01*
X111663001Y-63635375D01*
X111695517Y-63882361D01*
X111759998Y-64123007D01*
X111855330Y-64353161D01*
X111855337Y-64353176D01*
X111979900Y-64568926D01*
X112131560Y-64766574D01*
X112131566Y-64766581D01*
X112307718Y-64942733D01*
X112307725Y-64942739D01*
X112505373Y-65094399D01*
X112721123Y-65218962D01*
X112721138Y-65218969D01*
X112840164Y-65268270D01*
X112951293Y-65314302D01*
X113191935Y-65378782D01*
X113310685Y-65394415D01*
X113374581Y-65422681D01*
X113413053Y-65481005D01*
X113418500Y-65517354D01*
X113418500Y-70974553D01*
X113398815Y-71041592D01*
X113382181Y-71062234D01*
X113308032Y-71136382D01*
X113308028Y-71136386D01*
X113187715Y-71301986D01*
X113094781Y-71484376D01*
X113031522Y-71679065D01*
X112999500Y-71881248D01*
X112999500Y-72085951D01*
X113031522Y-72288134D01*
X113094781Y-72482823D01*
X113187715Y-72665213D01*
X113308028Y-72830813D01*
X113452786Y-72975571D01*
X113595400Y-73079184D01*
X113618390Y-73095887D01*
X113734607Y-73155103D01*
X113800776Y-73188818D01*
X113800778Y-73188818D01*
X113800781Y-73188820D01*
X113867570Y-73210521D01*
X113995465Y-73252077D01*
X114060547Y-73262385D01*
X114197648Y-73284100D01*
X114197649Y-73284100D01*
X114402351Y-73284100D01*
X114402352Y-73284100D01*
X114604534Y-73252077D01*
X114799219Y-73188820D01*
X114981610Y-73095887D01*
X115107096Y-73004717D01*
X115147213Y-72975571D01*
X115147215Y-72975568D01*
X115147219Y-72975566D01*
X115291966Y-72830819D01*
X115291968Y-72830815D01*
X115291971Y-72830813D01*
X115376071Y-72715057D01*
X115412287Y-72665210D01*
X115505220Y-72482819D01*
X115568477Y-72288134D01*
X115600500Y-72085952D01*
X115600500Y-71881248D01*
X115584273Y-71778796D01*
X115568477Y-71679065D01*
X115505218Y-71484376D01*
X115453865Y-71383591D01*
X115412287Y-71301990D01*
X115396892Y-71280800D01*
X115291971Y-71136386D01*
X115217819Y-71062234D01*
X115184334Y-71000911D01*
X115181500Y-70974553D01*
X115181500Y-64542567D01*
X115198113Y-64480567D01*
X115271664Y-64353173D01*
X115367002Y-64123007D01*
X115431482Y-63882365D01*
X115464000Y-63635365D01*
X115464000Y-63386235D01*
X115431482Y-63139235D01*
X115397224Y-63011384D01*
X115398887Y-62941535D01*
X115429316Y-62891612D01*
X116706820Y-61614108D01*
X116768142Y-61580625D01*
X116837834Y-61585609D01*
X116893767Y-61627481D01*
X116918184Y-61692945D01*
X116918500Y-61701791D01*
X116918500Y-70687083D01*
X116898815Y-70754122D01*
X116859596Y-70792622D01*
X116781344Y-70840887D01*
X116657289Y-70964942D01*
X116565187Y-71114263D01*
X116565186Y-71114266D01*
X116510001Y-71280803D01*
X116510001Y-71280804D01*
X116510000Y-71280804D01*
X116499500Y-71383583D01*
X116499500Y-72583601D01*
X116499501Y-72583618D01*
X116510000Y-72686396D01*
X116510001Y-72686399D01*
X116565185Y-72852931D01*
X116565187Y-72852936D01*
X116571915Y-72863844D01*
X116657288Y-73002256D01*
X116781344Y-73126312D01*
X116930666Y-73218414D01*
X117097203Y-73273599D01*
X117199991Y-73284100D01*
X118400008Y-73284099D01*
X118502797Y-73273599D01*
X118669334Y-73218414D01*
X118818656Y-73126312D01*
X118942712Y-73002256D01*
X119034814Y-72852934D01*
X119089999Y-72686397D01*
X119100500Y-72583609D01*
X119100499Y-71383592D01*
X119100425Y-71382872D01*
X119089999Y-71280803D01*
X119089998Y-71280800D01*
X119044910Y-71144734D01*
X119034814Y-71114266D01*
X118942712Y-70964944D01*
X118818656Y-70840888D01*
X118818655Y-70840887D01*
X118740404Y-70792622D01*
X118693679Y-70740674D01*
X118681500Y-70687083D01*
X118681500Y-60193079D01*
X118681499Y-60193075D01*
X118647625Y-60022776D01*
X118583451Y-59867850D01*
X118582888Y-59866463D01*
X118576528Y-59850515D01*
X118576052Y-59845467D01*
X118575834Y-59844746D01*
X118575980Y-59844701D01*
X118574426Y-59828191D01*
X118567727Y-59806796D01*
X118571214Y-59794081D01*
X118569979Y-59780953D01*
X118580279Y-59761037D01*
X118586211Y-59739416D01*
X118601376Y-59720249D01*
X118602078Y-59718893D01*
X118602760Y-59718500D01*
X118604021Y-59716906D01*
X119404305Y-58916624D01*
X119500775Y-58772247D01*
X119505517Y-58760800D01*
X119567222Y-58611828D01*
X119567224Y-58611824D01*
X119578309Y-58556093D01*
X119601100Y-58441523D01*
X119601100Y-50433900D01*
X119620785Y-50366861D01*
X119673589Y-50321106D01*
X119725100Y-50309900D01*
X123962623Y-50309900D01*
X124077193Y-50287109D01*
X124132924Y-50276024D01*
X124213135Y-50242799D01*
X124293343Y-50209577D01*
X124293344Y-50209576D01*
X124293347Y-50209575D01*
X124437724Y-50113106D01*
X125096312Y-49454516D01*
X125157633Y-49421033D01*
X125216090Y-49422426D01*
X125219737Y-49423404D01*
X125440743Y-49452500D01*
X125440750Y-49452500D01*
X125663650Y-49452500D01*
X125663657Y-49452500D01*
X125884663Y-49423404D01*
X126099981Y-49365710D01*
X126305926Y-49280405D01*
X126498974Y-49168948D01*
X126675824Y-49033247D01*
X126833447Y-48875624D01*
X126969148Y-48698774D01*
X126970218Y-48696920D01*
X126971041Y-48695496D01*
X127021610Y-48647282D01*
X127078426Y-48633500D01*
X139824774Y-48633500D01*
X139891813Y-48653185D01*
X139932159Y-48695496D01*
X139934051Y-48698773D01*
X140069751Y-48875622D01*
X140069757Y-48875629D01*
X140227370Y-49033242D01*
X140227376Y-49033247D01*
X140404226Y-49168948D01*
X140597274Y-49280405D01*
X140803219Y-49365710D01*
X141018537Y-49423404D01*
X141239543Y-49452500D01*
X141239550Y-49452500D01*
X141462450Y-49452500D01*
X141462457Y-49452500D01*
X141683463Y-49423404D01*
X141898781Y-49365710D01*
X142104726Y-49280405D01*
X142297774Y-49168948D01*
X142474624Y-49033247D01*
X142632247Y-48875624D01*
X142767948Y-48698774D01*
X142769018Y-48696920D01*
X142769841Y-48695496D01*
X142820410Y-48647282D01*
X142877226Y-48633500D01*
X155474051Y-48633500D01*
X155541090Y-48653185D01*
X155581438Y-48695500D01*
X155656647Y-48825767D01*
X155656658Y-48825782D01*
X155792351Y-49002622D01*
X155792357Y-49002629D01*
X155949970Y-49160242D01*
X155949976Y-49160247D01*
X156126826Y-49295948D01*
X156319874Y-49407405D01*
X156525819Y-49492710D01*
X156741137Y-49550404D01*
X156962143Y-49579500D01*
X156962150Y-49579500D01*
X157185050Y-49579500D01*
X157185057Y-49579500D01*
X157406063Y-49550404D01*
X157621381Y-49492710D01*
X157827326Y-49407405D01*
X158020374Y-49295948D01*
X158197224Y-49160247D01*
X158354847Y-49002624D01*
X158490548Y-48825774D01*
X158580427Y-48670100D01*
X158630994Y-48621884D01*
X158687814Y-48608100D01*
X171041374Y-48608100D01*
X171108413Y-48627785D01*
X171148759Y-48670096D01*
X171150651Y-48673373D01*
X171286351Y-48850222D01*
X171286357Y-48850229D01*
X171443970Y-49007842D01*
X171443977Y-49007848D01*
X171477078Y-49033247D01*
X171620826Y-49143548D01*
X171813874Y-49255005D01*
X172019819Y-49340310D01*
X172235137Y-49398004D01*
X172456143Y-49427100D01*
X172456150Y-49427100D01*
X172679050Y-49427100D01*
X172679057Y-49427100D01*
X172900063Y-49398004D01*
X173115381Y-49340310D01*
X173321326Y-49255005D01*
X173514374Y-49143548D01*
X173691224Y-49007847D01*
X173848847Y-48850224D01*
X173984548Y-48673374D01*
X174096005Y-48480326D01*
X174181310Y-48274381D01*
X174239004Y-48059063D01*
X174268100Y-47838057D01*
X174268100Y-47615143D01*
X174239004Y-47394137D01*
X174181310Y-47178819D01*
X174096005Y-46972874D01*
X173984548Y-46779826D01*
X173868337Y-46628376D01*
X173848848Y-46602977D01*
X173848842Y-46602970D01*
X173691229Y-46445357D01*
X173691222Y-46445351D01*
X173514382Y-46309658D01*
X173514380Y-46309657D01*
X173514374Y-46309652D01*
X173321326Y-46198195D01*
X173321322Y-46198193D01*
X173115390Y-46112893D01*
X173115383Y-46112891D01*
X173115381Y-46112890D01*
X172900063Y-46055196D01*
X172900057Y-46055195D01*
X172900052Y-46055194D01*
X172679066Y-46026101D01*
X172679063Y-46026100D01*
X172679057Y-46026100D01*
X172456143Y-46026100D01*
X172456137Y-46026100D01*
X172456133Y-46026101D01*
X172235147Y-46055194D01*
X172235140Y-46055195D01*
X172235137Y-46055196D01*
X172140339Y-46080597D01*
X172019819Y-46112890D01*
X172019809Y-46112893D01*
X171813877Y-46198193D01*
X171813873Y-46198195D01*
X171620826Y-46309652D01*
X171620817Y-46309658D01*
X171443977Y-46445351D01*
X171443970Y-46445357D01*
X171286357Y-46602970D01*
X171286351Y-46602977D01*
X171150651Y-46779826D01*
X171148759Y-46783104D01*
X171098190Y-46831318D01*
X171041374Y-46845100D01*
X158484845Y-46845100D01*
X158417806Y-46825415D01*
X158386469Y-46796586D01*
X158354848Y-46755377D01*
X158354842Y-46755370D01*
X158197229Y-46597757D01*
X158197222Y-46597751D01*
X158020382Y-46462058D01*
X158020380Y-46462057D01*
X158020374Y-46462052D01*
X157827326Y-46350595D01*
X157827322Y-46350593D01*
X157621390Y-46265293D01*
X157621383Y-46265291D01*
X157621381Y-46265290D01*
X157406063Y-46207596D01*
X157406057Y-46207595D01*
X157406052Y-46207594D01*
X157185066Y-46178501D01*
X157185063Y-46178500D01*
X157185057Y-46178500D01*
X156962143Y-46178500D01*
X156962137Y-46178500D01*
X156962133Y-46178501D01*
X156741147Y-46207594D01*
X156741140Y-46207595D01*
X156741137Y-46207596D01*
X156681428Y-46223595D01*
X156525819Y-46265290D01*
X156525809Y-46265293D01*
X156319877Y-46350593D01*
X156319873Y-46350595D01*
X156126826Y-46462052D01*
X156126817Y-46462058D01*
X155949977Y-46597751D01*
X155949970Y-46597757D01*
X155792357Y-46755370D01*
X155792353Y-46755375D01*
X155741243Y-46821985D01*
X155684815Y-46863189D01*
X155642866Y-46870500D01*
X142877226Y-46870500D01*
X142810187Y-46850815D01*
X142769841Y-46808504D01*
X142767948Y-46805226D01*
X142632248Y-46628377D01*
X142632242Y-46628370D01*
X142474629Y-46470757D01*
X142474622Y-46470751D01*
X142297782Y-46335058D01*
X142297780Y-46335057D01*
X142297774Y-46335052D01*
X142104726Y-46223595D01*
X142104722Y-46223593D01*
X141898790Y-46138293D01*
X141898783Y-46138291D01*
X141898781Y-46138290D01*
X141683463Y-46080596D01*
X141683457Y-46080595D01*
X141683452Y-46080594D01*
X141462466Y-46051501D01*
X141462463Y-46051500D01*
X141462457Y-46051500D01*
X141239543Y-46051500D01*
X141239537Y-46051500D01*
X141239533Y-46051501D01*
X141018547Y-46080594D01*
X141018540Y-46080595D01*
X141018537Y-46080596D01*
X140803219Y-46138290D01*
X140803209Y-46138293D01*
X140597277Y-46223593D01*
X140597273Y-46223595D01*
X140404226Y-46335052D01*
X140404217Y-46335058D01*
X140227377Y-46470751D01*
X140227370Y-46470757D01*
X140069757Y-46628370D01*
X140069751Y-46628377D01*
X139934051Y-46805226D01*
X139932159Y-46808504D01*
X139881590Y-46856718D01*
X139824774Y-46870500D01*
X127078426Y-46870500D01*
X127011387Y-46850815D01*
X126971041Y-46808504D01*
X126969148Y-46805226D01*
X126833448Y-46628377D01*
X126833442Y-46628370D01*
X126675829Y-46470757D01*
X126675822Y-46470751D01*
X126498982Y-46335058D01*
X126498980Y-46335057D01*
X126498974Y-46335052D01*
X126305926Y-46223595D01*
X126305922Y-46223593D01*
X126099990Y-46138293D01*
X126099983Y-46138291D01*
X126099981Y-46138290D01*
X125884663Y-46080596D01*
X125884657Y-46080595D01*
X125884652Y-46080594D01*
X125663666Y-46051501D01*
X125663663Y-46051500D01*
X125663657Y-46051500D01*
X125440743Y-46051500D01*
X125440737Y-46051500D01*
X125440733Y-46051501D01*
X125219747Y-46080594D01*
X125219740Y-46080595D01*
X125219737Y-46080596D01*
X125004419Y-46138290D01*
X125004409Y-46138293D01*
X124798477Y-46223593D01*
X124798473Y-46223595D01*
X124605426Y-46335052D01*
X124605417Y-46335058D01*
X124428577Y-46470751D01*
X124428570Y-46470757D01*
X124270957Y-46628370D01*
X124270951Y-46628377D01*
X124135258Y-46805217D01*
X124135252Y-46805226D01*
X124023795Y-46998273D01*
X124023793Y-46998277D01*
X123938493Y-47204209D01*
X123938490Y-47204219D01*
X123880797Y-47419534D01*
X123880794Y-47419547D01*
X123851701Y-47640533D01*
X123851700Y-47640549D01*
X123851700Y-47863450D01*
X123851701Y-47863466D01*
X123880795Y-48084459D01*
X123880799Y-48084478D01*
X123881773Y-48088112D01*
X123880111Y-48157962D01*
X123849680Y-48207888D01*
X123546987Y-48510582D01*
X123485666Y-48544066D01*
X123459308Y-48546900D01*
X115479126Y-48546900D01*
X115412087Y-48527215D01*
X115366332Y-48474411D01*
X115362944Y-48466233D01*
X115314397Y-48336071D01*
X115314393Y-48336064D01*
X115228147Y-48220855D01*
X115228144Y-48220852D01*
X115112935Y-48134606D01*
X115112928Y-48134602D01*
X114978082Y-48084308D01*
X114978083Y-48084308D01*
X114918483Y-48077901D01*
X114918481Y-48077900D01*
X114918473Y-48077900D01*
X114918464Y-48077900D01*
X113122729Y-48077900D01*
X113122723Y-48077901D01*
X113063116Y-48084308D01*
X112928271Y-48134602D01*
X112928264Y-48134606D01*
X112813055Y-48220852D01*
X112813052Y-48220855D01*
X112726806Y-48336064D01*
X112726802Y-48336071D01*
X112676508Y-48470917D01*
X112670101Y-48530516D01*
X112670100Y-48530535D01*
X112670100Y-50326270D01*
X112670101Y-50326276D01*
X112676508Y-50385883D01*
X112726802Y-50520728D01*
X112726806Y-50520735D01*
X112813052Y-50635944D01*
X112813055Y-50635947D01*
X112928264Y-50722193D01*
X112928271Y-50722197D01*
X113059682Y-50771210D01*
X113115616Y-50813081D01*
X113140033Y-50878545D01*
X113125182Y-50946818D01*
X113104031Y-50975073D01*
X112990489Y-51088615D01*
X112865551Y-51260579D01*
X112769044Y-51449985D01*
X112703353Y-51652160D01*
X112670100Y-51862113D01*
X112670100Y-52074686D01*
X112703353Y-52284639D01*
X112769044Y-52486814D01*
X112865551Y-52676220D01*
X112990490Y-52848186D01*
X113140813Y-52998509D01*
X113312779Y-53123448D01*
X113312781Y-53123449D01*
X113312784Y-53123451D01*
X113502188Y-53219957D01*
X113704357Y-53285646D01*
X113914313Y-53318900D01*
X113914314Y-53318900D01*
X114126886Y-53318900D01*
X114126887Y-53318900D01*
X114336843Y-53285646D01*
X114539012Y-53219957D01*
X114728416Y-53123451D01*
X114750389Y-53107486D01*
X114900386Y-52998509D01*
X114900388Y-52998506D01*
X114900392Y-52998504D01*
X115050704Y-52848192D01*
X115050706Y-52848188D01*
X115050709Y-52848186D01*
X115175648Y-52676220D01*
X115175647Y-52676220D01*
X115175651Y-52676216D01*
X115272157Y-52486812D01*
X115337846Y-52284643D01*
X115371100Y-52074687D01*
X115371100Y-51862113D01*
X115337846Y-51652157D01*
X115272157Y-51449988D01*
X115175651Y-51260584D01*
X115175649Y-51260581D01*
X115175648Y-51260579D01*
X115050709Y-51088613D01*
X114937169Y-50975073D01*
X114903684Y-50913750D01*
X114908668Y-50844058D01*
X114950540Y-50788125D01*
X114981515Y-50771210D01*
X115112931Y-50722196D01*
X115228146Y-50635946D01*
X115314396Y-50520731D01*
X115362944Y-50390567D01*
X115404815Y-50334633D01*
X115470279Y-50310216D01*
X115479126Y-50309900D01*
X117591908Y-50309900D01*
X117621351Y-50318545D01*
X117651334Y-50325068D01*
X117656349Y-50328822D01*
X117658947Y-50329585D01*
X117679584Y-50346214D01*
X117801782Y-50468411D01*
X117835266Y-50529732D01*
X117838100Y-50556091D01*
X117838100Y-57938207D01*
X117818415Y-58005246D01*
X117801781Y-58025888D01*
X116717834Y-59109835D01*
X114182688Y-61644980D01*
X114121365Y-61678465D01*
X114062915Y-61677074D01*
X113935065Y-61642818D01*
X113688075Y-61610301D01*
X113688070Y-61610300D01*
X113688065Y-61610300D01*
X113438935Y-61610300D01*
X113438929Y-61610300D01*
X113438924Y-61610301D01*
X113191938Y-61642817D01*
X112951292Y-61707298D01*
X112721138Y-61802630D01*
X112721123Y-61802637D01*
X112505373Y-61927200D01*
X112307725Y-62078860D01*
X112307718Y-62078866D01*
X112131566Y-62255018D01*
X112131560Y-62255025D01*
X111979900Y-62452673D01*
X111855337Y-62668423D01*
X111855330Y-62668438D01*
X111759998Y-62898592D01*
X111695517Y-63139238D01*
X111663001Y-63386224D01*
X111663000Y-63386241D01*
X110490000Y-63386241D01*
X110490000Y-57310814D01*
X111663500Y-57310814D01*
X111663500Y-58260800D01*
X112909379Y-58260800D01*
X112890401Y-58306618D01*
X112863500Y-58441856D01*
X112863500Y-58579744D01*
X112890401Y-58714982D01*
X112909379Y-58760800D01*
X111663500Y-58760800D01*
X111663500Y-59710785D01*
X111673993Y-59813489D01*
X111673994Y-59813496D01*
X111729141Y-59979918D01*
X111729143Y-59979923D01*
X111821184Y-60129144D01*
X111945155Y-60253115D01*
X112094376Y-60345156D01*
X112094381Y-60345158D01*
X112260803Y-60400305D01*
X112260810Y-60400306D01*
X112363514Y-60410799D01*
X112363527Y-60410800D01*
X113313500Y-60410800D01*
X113313500Y-59164920D01*
X113359318Y-59183899D01*
X113494556Y-59210800D01*
X113632444Y-59210800D01*
X113767682Y-59183899D01*
X113813500Y-59164920D01*
X113813500Y-60410800D01*
X114763473Y-60410800D01*
X114763485Y-60410799D01*
X114866189Y-60400306D01*
X114866196Y-60400305D01*
X115032618Y-60345158D01*
X115032623Y-60345156D01*
X115181844Y-60253115D01*
X115305815Y-60129144D01*
X115397856Y-59979923D01*
X115397858Y-59979918D01*
X115453005Y-59813496D01*
X115453006Y-59813489D01*
X115463499Y-59710785D01*
X115463500Y-59710772D01*
X115463500Y-58760800D01*
X114217621Y-58760800D01*
X114236599Y-58714982D01*
X114263500Y-58579744D01*
X114263500Y-58441856D01*
X114236599Y-58306618D01*
X114217621Y-58260800D01*
X115463500Y-58260800D01*
X115463500Y-57310827D01*
X115463499Y-57310814D01*
X115453006Y-57208110D01*
X115453005Y-57208103D01*
X115397858Y-57041681D01*
X115397856Y-57041676D01*
X115305815Y-56892455D01*
X115181844Y-56768484D01*
X115032623Y-56676443D01*
X115032618Y-56676441D01*
X114866196Y-56621294D01*
X114866189Y-56621293D01*
X114763485Y-56610800D01*
X113813500Y-56610800D01*
X113813500Y-57856679D01*
X113767682Y-57837701D01*
X113632444Y-57810800D01*
X113494556Y-57810800D01*
X113359318Y-57837701D01*
X113313500Y-57856679D01*
X113313500Y-56610800D01*
X112363514Y-56610800D01*
X112260810Y-56621293D01*
X112260803Y-56621294D01*
X112094381Y-56676441D01*
X112094376Y-56676443D01*
X111945155Y-56768484D01*
X111821184Y-56892455D01*
X111729143Y-57041676D01*
X111729141Y-57041681D01*
X111673994Y-57208103D01*
X111673993Y-57208110D01*
X111663500Y-57310814D01*
X110490000Y-57310814D01*
X110490000Y-45844000D01*
X110509685Y-45776961D01*
X110562489Y-45731206D01*
X110614000Y-45720000D01*
X201806000Y-45720000D01*
X201873039Y-45739685D01*
G37*
%TD.AperFunction*%
%TD*%
M02*
