%TF.GenerationSoftware,KiCad,Pcbnew,9.0.7*%
%TF.CreationDate,2026-04-10T17:13:31-06:00*%
%TF.ProjectId,nixie_driver,6e697869-655f-4647-9269-7665722e6b69,rev?*%
%TF.SameCoordinates,Original*%
%TF.FileFunction,Legend,Bot*%
%TF.FilePolarity,Positive*%
%FSLAX46Y46*%
G04 Gerber Fmt 4.6, Leading zero omitted, Abs format (unit mm)*
G04 Created by KiCad (PCBNEW 9.0.7) date 2026-04-10 17:13:31*
%MOMM*%
%LPD*%
G01*
G04 APERTURE LIST*
%ADD10C,0.000000*%
G04 APERTURE END LIST*
D10*
%TO.C,G\u002A\u002A\u002A*%
G36*
X190074103Y-57697499D02*
G01*
X190090994Y-57771413D01*
X190097318Y-57865417D01*
X190104862Y-57912659D01*
X190129981Y-57933921D01*
X190143585Y-57940474D01*
X190163674Y-57986039D01*
X190178819Y-58076885D01*
X190189126Y-58147231D01*
X190206396Y-58202595D01*
X190229552Y-58219849D01*
X190253372Y-58234401D01*
X190264110Y-58288353D01*
X190265988Y-58340469D01*
X190278351Y-58425077D01*
X190299614Y-58483795D01*
X190326657Y-58505778D01*
X190349247Y-58521524D01*
X190359419Y-58574282D01*
X190361297Y-58626398D01*
X190373661Y-58711006D01*
X190394924Y-58769724D01*
X190421966Y-58791707D01*
X190444557Y-58807453D01*
X190454729Y-58860210D01*
X190456607Y-58912326D01*
X190468971Y-58996935D01*
X190490233Y-59055653D01*
X190517276Y-59077635D01*
X190539866Y-59093382D01*
X190550038Y-59146139D01*
X190551916Y-59198255D01*
X190564280Y-59282863D01*
X190585543Y-59341581D01*
X190612585Y-59363564D01*
X190620899Y-59365218D01*
X190639473Y-59395628D01*
X190645348Y-59467809D01*
X190647311Y-59538088D01*
X190658980Y-59635251D01*
X190679724Y-59698434D01*
X190707895Y-59720975D01*
X190730485Y-59736721D01*
X190740657Y-59789479D01*
X190742536Y-59841595D01*
X190754899Y-59926203D01*
X190776162Y-59984921D01*
X190803204Y-60006904D01*
X190825795Y-60022650D01*
X190835967Y-60075407D01*
X190837845Y-60127523D01*
X190850209Y-60212132D01*
X190871472Y-60270850D01*
X190898514Y-60292832D01*
X190921104Y-60308579D01*
X190931277Y-60361336D01*
X190933155Y-60413452D01*
X190945518Y-60498060D01*
X190966781Y-60556778D01*
X190993824Y-60578761D01*
X191016414Y-60594508D01*
X191026586Y-60647265D01*
X191028464Y-60699381D01*
X191040828Y-60783989D01*
X191062091Y-60842707D01*
X191089133Y-60864690D01*
X191111724Y-60880436D01*
X191121896Y-60933194D01*
X191123774Y-60985309D01*
X191136138Y-61069918D01*
X191157400Y-61128636D01*
X191184443Y-61150619D01*
X191201248Y-61159841D01*
X191213500Y-61201755D01*
X191217205Y-61283900D01*
X191217539Y-61319932D01*
X191222656Y-61382817D01*
X191237094Y-61415302D01*
X191264860Y-61429643D01*
X191276287Y-61433344D01*
X191299163Y-61452894D01*
X191309864Y-61495191D01*
X191312515Y-61572608D01*
X191312775Y-61603969D01*
X191317729Y-61667910D01*
X191332153Y-61700987D01*
X191360170Y-61715572D01*
X191371597Y-61719273D01*
X191394473Y-61738822D01*
X191405174Y-61781119D01*
X191407824Y-61858536D01*
X191408085Y-61889897D01*
X191413039Y-61953839D01*
X191427462Y-61986916D01*
X191455479Y-62001501D01*
X191465693Y-62004725D01*
X191489308Y-62023864D01*
X191500381Y-62065544D01*
X191503134Y-62142234D01*
X191501105Y-62204879D01*
X191490799Y-62255255D01*
X191470172Y-62270506D01*
X191448682Y-62261575D01*
X191424748Y-62222851D01*
X191409969Y-62195625D01*
X191362400Y-62175196D01*
X191332513Y-62168382D01*
X191312515Y-62140535D01*
X191312448Y-62138926D01*
X191288390Y-62110432D01*
X191229119Y-62090228D01*
X191227025Y-62089828D01*
X191167786Y-62068869D01*
X191145723Y-62039263D01*
X191136806Y-62016422D01*
X191098068Y-61991481D01*
X191070377Y-61978062D01*
X191050414Y-61946057D01*
X191040373Y-61926283D01*
X191000528Y-61913095D01*
X190970134Y-61905775D01*
X190938334Y-61866027D01*
X190913236Y-61830494D01*
X190845255Y-61803807D01*
X190844447Y-61803654D01*
X190786385Y-61782981D01*
X190764485Y-61753335D01*
X190755568Y-61730494D01*
X190716830Y-61705553D01*
X190689138Y-61692133D01*
X190669175Y-61660128D01*
X190659135Y-61640354D01*
X190619290Y-61627166D01*
X190588824Y-61619770D01*
X190557528Y-61581752D01*
X190531355Y-61546820D01*
X190464449Y-61521104D01*
X190461715Y-61520576D01*
X190404968Y-61499977D01*
X190383247Y-61471209D01*
X190374223Y-61450974D01*
X190335592Y-61436547D01*
X190305783Y-61429296D01*
X190287937Y-61390987D01*
X190285518Y-61374015D01*
X190258966Y-61346957D01*
X190194962Y-61329718D01*
X190194768Y-61329686D01*
X190121614Y-61306627D01*
X190089969Y-61268056D01*
X190076455Y-61242045D01*
X190039980Y-61222101D01*
X190021252Y-61217420D01*
X190002008Y-61186360D01*
X189993163Y-61165517D01*
X189954354Y-61150619D01*
X189924545Y-61143367D01*
X189906699Y-61105058D01*
X189903777Y-61086658D01*
X189876274Y-61060458D01*
X189811389Y-61043395D01*
X189799384Y-61041177D01*
X189738396Y-61020733D01*
X189716080Y-60993646D01*
X189707065Y-60974013D01*
X189668425Y-60959999D01*
X189637619Y-60952168D01*
X189620770Y-60912345D01*
X189612188Y-60880405D01*
X189570885Y-60864690D01*
X189540471Y-60857373D01*
X189508537Y-60817035D01*
X189505270Y-60806947D01*
X189476623Y-60777670D01*
X189415458Y-60769380D01*
X189382104Y-60768087D01*
X189344554Y-60755008D01*
X189334841Y-60721725D01*
X189327009Y-60690919D01*
X189287187Y-60674071D01*
X189256380Y-60666239D01*
X189239532Y-60626416D01*
X189230949Y-60594477D01*
X189189646Y-60578761D01*
X189159233Y-60571444D01*
X189127299Y-60531106D01*
X189124032Y-60521019D01*
X189095385Y-60491741D01*
X189034220Y-60483452D01*
X189000865Y-60482158D01*
X188963316Y-60469079D01*
X188953603Y-60435797D01*
X188945771Y-60404991D01*
X188905948Y-60388142D01*
X188875142Y-60380310D01*
X188858293Y-60340487D01*
X188852897Y-60312981D01*
X188825339Y-60296829D01*
X188762984Y-60292832D01*
X188707971Y-60290134D01*
X188675667Y-60276355D01*
X188667674Y-60245178D01*
X188659842Y-60214371D01*
X188620020Y-60197523D01*
X188589213Y-60189691D01*
X188572365Y-60149868D01*
X188564533Y-60119062D01*
X188524710Y-60102213D01*
X188493904Y-60094381D01*
X188477055Y-60054559D01*
X188471659Y-60027052D01*
X188444101Y-60010900D01*
X188381746Y-60006904D01*
X188326733Y-60004206D01*
X188294429Y-59990426D01*
X188286436Y-59959249D01*
X188278604Y-59928443D01*
X188238781Y-59911594D01*
X188207975Y-59903762D01*
X188191127Y-59863939D01*
X188183295Y-59833133D01*
X188143472Y-59816285D01*
X188115658Y-59809616D01*
X188095817Y-59780825D01*
X188095703Y-59778531D01*
X188069639Y-59749711D01*
X188000507Y-59730125D01*
X187964582Y-59723106D01*
X187918394Y-59702863D01*
X187905198Y-59670275D01*
X187897684Y-59642758D01*
X187857543Y-59625665D01*
X187826737Y-59617834D01*
X187809888Y-59578011D01*
X187807162Y-59556497D01*
X187783971Y-59535687D01*
X187726492Y-59530356D01*
X187688844Y-59528798D01*
X187652425Y-59515546D01*
X187643096Y-59482701D01*
X187630239Y-59446215D01*
X187583528Y-59435046D01*
X187537921Y-59424761D01*
X187523960Y-59387392D01*
X187516128Y-59356585D01*
X187476305Y-59339737D01*
X187448485Y-59333173D01*
X187428650Y-59305075D01*
X187428614Y-59303902D01*
X187405298Y-59275305D01*
X187347447Y-59255180D01*
X187288378Y-59234570D01*
X187254368Y-59194532D01*
X187239451Y-59168558D01*
X187192607Y-59149118D01*
X187159173Y-59140919D01*
X187142721Y-59101463D01*
X187139995Y-59079949D01*
X187116804Y-59059139D01*
X187059325Y-59053808D01*
X187021677Y-59052250D01*
X186985258Y-59038998D01*
X186975930Y-59006153D01*
X186968838Y-58976645D01*
X186931054Y-58958498D01*
X186902849Y-58949780D01*
X186873716Y-58910844D01*
X186858937Y-58883618D01*
X186811368Y-58863189D01*
X186781558Y-58856502D01*
X186761483Y-58827448D01*
X186761332Y-58824193D01*
X186739768Y-58799457D01*
X186678087Y-58791707D01*
X186670492Y-58791771D01*
X186612776Y-58801013D01*
X186594691Y-58827448D01*
X186585358Y-58848806D01*
X186544806Y-58863189D01*
X186514392Y-58870506D01*
X186482458Y-58910844D01*
X186467049Y-58938373D01*
X186425120Y-58958498D01*
X186397333Y-58966030D01*
X186380245Y-59006153D01*
X186377519Y-59027667D01*
X186354327Y-59048477D01*
X186296849Y-59053808D01*
X186259200Y-59055366D01*
X186222782Y-59068618D01*
X186213453Y-59101463D01*
X186204871Y-59133402D01*
X186163567Y-59149118D01*
X186133154Y-59156434D01*
X186101220Y-59196772D01*
X186085810Y-59224302D01*
X186043882Y-59244427D01*
X186016095Y-59251958D01*
X185999006Y-59292082D01*
X185996280Y-59313595D01*
X185973089Y-59334406D01*
X185915611Y-59339737D01*
X185877962Y-59341294D01*
X185841543Y-59354547D01*
X185832215Y-59387392D01*
X185824383Y-59418198D01*
X185784560Y-59435046D01*
X185755165Y-59442080D01*
X185736905Y-59479656D01*
X185734183Y-59496906D01*
X185706712Y-59522917D01*
X185641596Y-59539506D01*
X185635479Y-59540526D01*
X185569217Y-59560819D01*
X185546286Y-59590206D01*
X185537324Y-59610902D01*
X185498631Y-59625665D01*
X185467825Y-59633497D01*
X185450976Y-59673320D01*
X185443145Y-59704127D01*
X185403322Y-59720975D01*
X185372515Y-59728807D01*
X185355667Y-59768630D01*
X185350271Y-59796136D01*
X185322712Y-59812288D01*
X185260357Y-59816285D01*
X185205345Y-59818983D01*
X185173040Y-59832762D01*
X185165048Y-59863939D01*
X185157216Y-59894746D01*
X185117393Y-59911594D01*
X185086587Y-59919426D01*
X185069738Y-59959249D01*
X185061156Y-59991188D01*
X185019853Y-60006904D01*
X184989439Y-60014220D01*
X184957505Y-60054559D01*
X184954238Y-60064646D01*
X184925591Y-60093924D01*
X184864426Y-60102213D01*
X184831072Y-60103507D01*
X184793522Y-60116585D01*
X184783809Y-60149868D01*
X184775978Y-60180674D01*
X184736155Y-60197523D01*
X184705348Y-60205355D01*
X184688500Y-60245178D01*
X184683104Y-60272684D01*
X184655545Y-60288836D01*
X184593190Y-60292832D01*
X184538178Y-60295530D01*
X184505873Y-60309310D01*
X184497881Y-60340487D01*
X184490049Y-60371293D01*
X184450226Y-60388142D01*
X184419420Y-60395974D01*
X184402571Y-60435797D01*
X184394739Y-60466603D01*
X184354916Y-60483452D01*
X184324110Y-60491283D01*
X184307262Y-60531106D01*
X184301865Y-60558613D01*
X184274307Y-60574765D01*
X184211952Y-60578761D01*
X184156940Y-60581459D01*
X184124635Y-60595238D01*
X184116642Y-60626416D01*
X184108811Y-60657222D01*
X184068988Y-60674071D01*
X184039425Y-60681191D01*
X184021333Y-60719074D01*
X184021088Y-60724675D01*
X184000234Y-60758898D01*
X183940238Y-60779290D01*
X183933384Y-60780691D01*
X183876404Y-60801759D01*
X183845676Y-60829597D01*
X183829505Y-60849454D01*
X183783807Y-60864690D01*
X183752136Y-60872635D01*
X183735404Y-60912345D01*
X183727572Y-60943151D01*
X183687749Y-60959999D01*
X183659929Y-60966563D01*
X183640095Y-60994661D01*
X183640059Y-60995835D01*
X183616743Y-61024431D01*
X183558892Y-61044556D01*
X183499822Y-61065167D01*
X183465813Y-61105204D01*
X183450896Y-61131178D01*
X183404051Y-61150619D01*
X183370617Y-61158817D01*
X183354166Y-61198273D01*
X183346334Y-61229080D01*
X183306511Y-61245928D01*
X183278711Y-61252184D01*
X183258856Y-61279017D01*
X183258614Y-61281748D01*
X183233494Y-61308193D01*
X183178086Y-61327259D01*
X183119927Y-61347381D01*
X183085007Y-61389480D01*
X183070222Y-61416351D01*
X183022813Y-61436547D01*
X182992886Y-61443182D01*
X182972928Y-61469509D01*
X182963996Y-61490999D01*
X182925273Y-61514933D01*
X182897601Y-61528779D01*
X182877618Y-61562715D01*
X182877615Y-61563070D01*
X182855248Y-61592655D01*
X182796848Y-61613188D01*
X182738689Y-61633309D01*
X182703769Y-61675408D01*
X182688984Y-61702280D01*
X182641575Y-61722476D01*
X182611688Y-61729290D01*
X182591689Y-61757137D01*
X182591654Y-61758311D01*
X182568338Y-61786908D01*
X182510487Y-61807032D01*
X182451417Y-61827643D01*
X182417408Y-61867681D01*
X182404153Y-61893170D01*
X182367560Y-61913095D01*
X182348832Y-61917775D01*
X182329588Y-61948836D01*
X182320255Y-61970195D01*
X182279703Y-61984577D01*
X182249237Y-61991974D01*
X182217941Y-62029992D01*
X182191767Y-62064923D01*
X182124862Y-62090640D01*
X182122128Y-62091168D01*
X182065381Y-62111766D01*
X182043659Y-62140535D01*
X182034635Y-62160770D01*
X181996005Y-62175196D01*
X181965198Y-62183028D01*
X181948350Y-62222851D01*
X181940518Y-62253657D01*
X181900695Y-62270506D01*
X181873189Y-62265110D01*
X181857036Y-62237551D01*
X181853040Y-62175196D01*
X181853193Y-62162040D01*
X181862234Y-62099905D01*
X181886002Y-62079887D01*
X181887915Y-62079828D01*
X181920129Y-62055032D01*
X181940607Y-61988128D01*
X181948024Y-61883311D01*
X181948037Y-61881211D01*
X181956641Y-61815603D01*
X181981312Y-61793958D01*
X181992411Y-61792041D01*
X182020774Y-61758697D01*
X182037587Y-61682499D01*
X182043334Y-61561641D01*
X182043770Y-61525033D01*
X182048868Y-61468212D01*
X182063247Y-61442548D01*
X182091314Y-61436547D01*
X182112421Y-61433919D01*
X182129592Y-61416577D01*
X182137230Y-61373431D01*
X182138969Y-61293583D01*
X182139845Y-61230261D01*
X182145626Y-61178750D01*
X182160008Y-61155835D01*
X182186624Y-61150619D01*
X182207731Y-61147990D01*
X182224901Y-61130649D01*
X182232540Y-61087503D01*
X182234278Y-61007654D01*
X182235155Y-60944333D01*
X182240935Y-60892821D01*
X182255317Y-60869906D01*
X182281933Y-60864690D01*
X182303040Y-60862062D01*
X182320211Y-60844720D01*
X182327849Y-60801574D01*
X182329588Y-60721725D01*
X182330464Y-60658404D01*
X182336245Y-60606892D01*
X182350627Y-60583978D01*
X182377243Y-60578761D01*
X182398350Y-60576133D01*
X182415521Y-60558791D01*
X182423159Y-60515645D01*
X182424898Y-60435797D01*
X182427742Y-60354735D01*
X182438109Y-60307108D01*
X182457660Y-60292832D01*
X182472653Y-60286304D01*
X182496992Y-60243325D01*
X182513883Y-60169411D01*
X182520207Y-60075407D01*
X182527738Y-60028173D01*
X182552970Y-60006904D01*
X182567962Y-60000375D01*
X182592301Y-59957397D01*
X182609193Y-59883483D01*
X182615517Y-59789479D01*
X182623048Y-59742244D01*
X182648279Y-59720975D01*
X182663272Y-59714447D01*
X182687611Y-59671468D01*
X182704503Y-59597554D01*
X182710826Y-59503550D01*
X182718357Y-59456315D01*
X182743589Y-59435046D01*
X182758581Y-59428518D01*
X182782921Y-59385539D01*
X182799812Y-59311625D01*
X182806136Y-59217621D01*
X182813667Y-59170387D01*
X182838899Y-59149118D01*
X182853891Y-59142589D01*
X182878230Y-59099610D01*
X182895122Y-59025697D01*
X182901445Y-58931693D01*
X182908976Y-58884458D01*
X182934208Y-58863189D01*
X182949200Y-58856661D01*
X182973540Y-58813682D01*
X182990431Y-58739768D01*
X182996755Y-58645764D01*
X183004300Y-58598522D01*
X183029418Y-58577260D01*
X183043022Y-58570707D01*
X183063111Y-58525142D01*
X183078256Y-58434296D01*
X183085040Y-58384829D01*
X183103046Y-58314879D01*
X183125911Y-58291331D01*
X183137413Y-58285942D01*
X183158002Y-58240108D01*
X183173566Y-58148367D01*
X183181227Y-58093312D01*
X183199082Y-58027069D01*
X183222265Y-58005403D01*
X183223982Y-58005305D01*
X183243555Y-57985373D01*
X183258964Y-57927442D01*
X183271537Y-57826697D01*
X183284207Y-57725952D01*
X183300109Y-57666860D01*
X183320041Y-57647992D01*
X183331377Y-57642963D01*
X183352253Y-57597535D01*
X183367974Y-57505028D01*
X183375841Y-57448730D01*
X183393646Y-57383365D01*
X183416812Y-57362063D01*
X183439338Y-57346240D01*
X183449475Y-57293559D01*
X183451354Y-57241444D01*
X183463717Y-57156835D01*
X183484980Y-57098117D01*
X183512022Y-57076135D01*
X183534613Y-57060388D01*
X183544785Y-57007631D01*
X183546663Y-56955515D01*
X183559027Y-56870907D01*
X183580290Y-56812189D01*
X183607332Y-56790206D01*
X183625909Y-56777795D01*
X183636823Y-56732558D01*
X183640095Y-56647241D01*
X183640095Y-56504277D01*
X183556699Y-56504277D01*
X183519050Y-56502719D01*
X183482632Y-56489467D01*
X183473303Y-56456622D01*
X183460446Y-56420136D01*
X183413734Y-56408968D01*
X183368127Y-56398682D01*
X183354166Y-56361313D01*
X183346334Y-56330506D01*
X183306511Y-56313658D01*
X183275705Y-56305826D01*
X183258856Y-56266003D01*
X183256130Y-56244490D01*
X183232939Y-56223679D01*
X183175460Y-56218348D01*
X183137812Y-56216791D01*
X183101393Y-56203538D01*
X183092065Y-56170694D01*
X183079207Y-56134208D01*
X183032496Y-56123039D01*
X182986889Y-56112753D01*
X182972928Y-56075384D01*
X182965096Y-56044578D01*
X182925273Y-56027729D01*
X182897453Y-56021166D01*
X182877618Y-55993068D01*
X182877551Y-55991458D01*
X182853494Y-55962965D01*
X182794222Y-55942761D01*
X182780120Y-55939861D01*
X182726771Y-55917969D01*
X182710826Y-55882113D01*
X182698522Y-55848802D01*
X182651258Y-55837110D01*
X182605651Y-55826824D01*
X182591689Y-55789455D01*
X182588963Y-55767942D01*
X182565772Y-55747131D01*
X182508293Y-55741801D01*
X182470645Y-55740243D01*
X182434226Y-55726990D01*
X182424898Y-55694146D01*
X182417066Y-55663339D01*
X182377243Y-55646491D01*
X182346437Y-55638659D01*
X182329588Y-55598836D01*
X182316731Y-55562350D01*
X182270020Y-55551181D01*
X182231210Y-55544111D01*
X182210451Y-55516520D01*
X182210384Y-55514910D01*
X182193228Y-55494591D01*
X184116968Y-55494591D01*
X184117031Y-55541564D01*
X184119652Y-55694343D01*
X184126536Y-55805291D01*
X184138324Y-55878936D01*
X184155661Y-55919803D01*
X184179189Y-55932420D01*
X184189945Y-55936102D01*
X184203020Y-55963247D01*
X184209931Y-56023089D01*
X184211952Y-56123039D01*
X184212127Y-56173297D01*
X184214520Y-56249084D01*
X184221633Y-56291349D01*
X184235863Y-56309678D01*
X184259607Y-56313658D01*
X184287113Y-56319054D01*
X184303265Y-56346613D01*
X184307262Y-56408968D01*
X184309960Y-56463980D01*
X184323739Y-56496285D01*
X184354916Y-56504277D01*
X184382423Y-56509673D01*
X184398575Y-56537232D01*
X184402571Y-56599587D01*
X184405269Y-56654599D01*
X184419048Y-56686904D01*
X184450226Y-56694896D01*
X184471739Y-56697622D01*
X184492550Y-56720814D01*
X184497881Y-56778292D01*
X184499438Y-56815941D01*
X184512691Y-56852359D01*
X184545536Y-56861688D01*
X184548959Y-56861729D01*
X184577125Y-56870220D01*
X184590072Y-56901905D01*
X184593190Y-56968911D01*
X184593172Y-56976614D01*
X184589398Y-57039988D01*
X184575316Y-57069119D01*
X184545536Y-57076135D01*
X184514729Y-57083966D01*
X184497881Y-57123789D01*
X184490049Y-57154596D01*
X184450226Y-57171444D01*
X184419420Y-57179276D01*
X184402571Y-57219099D01*
X184394739Y-57249905D01*
X184354916Y-57266754D01*
X184324110Y-57274586D01*
X184307262Y-57314408D01*
X184299430Y-57345215D01*
X184259607Y-57362063D01*
X184228801Y-57369895D01*
X184211952Y-57409718D01*
X184204120Y-57440524D01*
X184164297Y-57457373D01*
X184136572Y-57462998D01*
X184116968Y-57487157D01*
X184125633Y-57550086D01*
X184148707Y-57602991D01*
X184178990Y-57624165D01*
X184200511Y-57637304D01*
X184211952Y-57683733D01*
X184222238Y-57729340D01*
X184259607Y-57743301D01*
X184290413Y-57751133D01*
X184307262Y-57790956D01*
X184315093Y-57821763D01*
X184354916Y-57838611D01*
X184382712Y-57844803D01*
X184402571Y-57871374D01*
X184402654Y-57872939D01*
X184425623Y-57899630D01*
X184477032Y-57919028D01*
X184524357Y-57927952D01*
X184570513Y-57931520D01*
X184589500Y-57918741D01*
X184593190Y-57886266D01*
X184601022Y-57855460D01*
X184640845Y-57838611D01*
X184671651Y-57830779D01*
X184688500Y-57790956D01*
X184696332Y-57760150D01*
X184736155Y-57743301D01*
X184766961Y-57735470D01*
X184783809Y-57695647D01*
X184791641Y-57664840D01*
X184831464Y-57647992D01*
X184862270Y-57640160D01*
X184879119Y-57600337D01*
X184886951Y-57569531D01*
X184926774Y-57552682D01*
X184957580Y-57544850D01*
X184974429Y-57505028D01*
X184982260Y-57474221D01*
X185022083Y-57457373D01*
X185052890Y-57449541D01*
X185069738Y-57409718D01*
X185075134Y-57382212D01*
X185102693Y-57366059D01*
X185165048Y-57362063D01*
X185220060Y-57364761D01*
X185252365Y-57378541D01*
X185260357Y-57409718D01*
X185262986Y-57430825D01*
X185280327Y-57447996D01*
X185323473Y-57455634D01*
X185403322Y-57457373D01*
X185485366Y-57460290D01*
X185532283Y-57470710D01*
X185546286Y-57490335D01*
X185548929Y-57504653D01*
X185565458Y-57521904D01*
X185601980Y-57534526D01*
X185664024Y-57543183D01*
X185757119Y-57548543D01*
X185886793Y-57551270D01*
X186058575Y-57552032D01*
X186177460Y-57551713D01*
X186320703Y-57549723D01*
X186425505Y-57545324D01*
X186497393Y-57537852D01*
X186541896Y-57526640D01*
X186564543Y-57511023D01*
X186570864Y-57490335D01*
X186584288Y-57471062D01*
X186630219Y-57460515D01*
X186716059Y-57457373D01*
X186771204Y-57456671D01*
X186830050Y-57450962D01*
X186860299Y-57436496D01*
X186873716Y-57409718D01*
X186876940Y-57399505D01*
X186896079Y-57375889D01*
X186937759Y-57364816D01*
X187014450Y-57362063D01*
X187056236Y-57361633D01*
X187111876Y-57356511D01*
X187136908Y-57342180D01*
X187142721Y-57314408D01*
X187148117Y-57286902D01*
X187175676Y-57270750D01*
X187238031Y-57266754D01*
X187293043Y-57264056D01*
X187325348Y-57250276D01*
X187333340Y-57219099D01*
X187338736Y-57191593D01*
X187366295Y-57175440D01*
X187428650Y-57171444D01*
X187483662Y-57168746D01*
X187515967Y-57154967D01*
X187523960Y-57123789D01*
X187531791Y-57092983D01*
X187571614Y-57076135D01*
X187602421Y-57068303D01*
X187619269Y-57028480D01*
X187624665Y-57000973D01*
X187652224Y-56984821D01*
X187714579Y-56980825D01*
X187769591Y-56978127D01*
X187801896Y-56964348D01*
X187809888Y-56933170D01*
X187817720Y-56902364D01*
X187857543Y-56885515D01*
X187888349Y-56877683D01*
X187905198Y-56837861D01*
X187913030Y-56807054D01*
X187952853Y-56790206D01*
X187983659Y-56782374D01*
X188000507Y-56742551D01*
X188005903Y-56715045D01*
X188033462Y-56698893D01*
X188095817Y-56694896D01*
X188191127Y-56694896D01*
X188191127Y-56837861D01*
X188191127Y-56980825D01*
X188334091Y-56980825D01*
X188397412Y-56981701D01*
X188448924Y-56987482D01*
X188471839Y-57001864D01*
X188477055Y-57028480D01*
X188484887Y-57059286D01*
X188524710Y-57076135D01*
X188541429Y-57077532D01*
X188561353Y-57091998D01*
X188570296Y-57131451D01*
X188572365Y-57207185D01*
X188572873Y-57253161D01*
X188578133Y-57307954D01*
X188592480Y-57332548D01*
X188620020Y-57338236D01*
X188656505Y-57351093D01*
X188667674Y-57397804D01*
X188677960Y-57443412D01*
X188715329Y-57457373D01*
X188742835Y-57462769D01*
X188758988Y-57490327D01*
X188762984Y-57552682D01*
X188765682Y-57607695D01*
X188779461Y-57639999D01*
X188810639Y-57647992D01*
X188841445Y-57655824D01*
X188858293Y-57695647D01*
X188866125Y-57726453D01*
X188905948Y-57743301D01*
X188936755Y-57751133D01*
X188953603Y-57790956D01*
X188958999Y-57818462D01*
X188986558Y-57834615D01*
X189048913Y-57838611D01*
X189103925Y-57841309D01*
X189136230Y-57855088D01*
X189144222Y-57886266D01*
X189148498Y-57912076D01*
X189173915Y-57928710D01*
X189233575Y-57931157D01*
X189316466Y-57925709D01*
X189373188Y-57910351D01*
X189403959Y-57878962D01*
X189420109Y-57825100D01*
X189422393Y-57813829D01*
X189444238Y-57759604D01*
X189480457Y-57743301D01*
X189512766Y-57731612D01*
X189524637Y-57687279D01*
X189510442Y-57606294D01*
X189494849Y-57572776D01*
X189466158Y-57552682D01*
X189459043Y-57550246D01*
X189437171Y-57517072D01*
X189421001Y-57457373D01*
X189419981Y-57451256D01*
X189399688Y-57384994D01*
X189370301Y-57362063D01*
X189349605Y-57353102D01*
X189334841Y-57314408D01*
X189327009Y-57283602D01*
X189287187Y-57266754D01*
X189256380Y-57258922D01*
X189239532Y-57219099D01*
X189231700Y-57188293D01*
X189191877Y-57171444D01*
X189161071Y-57163612D01*
X189144222Y-57123789D01*
X189138826Y-57096283D01*
X189111268Y-57080131D01*
X189048913Y-57076135D01*
X188993900Y-57073436D01*
X188961596Y-57059657D01*
X188953603Y-57028480D01*
X188945771Y-56997673D01*
X188905948Y-56980825D01*
X188875142Y-56972993D01*
X188858293Y-56933170D01*
X188852897Y-56905664D01*
X188825339Y-56889512D01*
X188762984Y-56885515D01*
X188667674Y-56885515D01*
X188667674Y-56694896D01*
X188667674Y-56504277D01*
X188524710Y-56504277D01*
X188461388Y-56503401D01*
X188409877Y-56497620D01*
X188386962Y-56483238D01*
X188381746Y-56456622D01*
X188373914Y-56425816D01*
X188334091Y-56408968D01*
X188303285Y-56401136D01*
X188286436Y-56361313D01*
X188283808Y-56340206D01*
X188266466Y-56323035D01*
X188223320Y-56315397D01*
X188143472Y-56313658D01*
X188080150Y-56314534D01*
X188028639Y-56320315D01*
X188005724Y-56334697D01*
X188000507Y-56361313D01*
X187995111Y-56388819D01*
X187967553Y-56404971D01*
X187905198Y-56408968D01*
X187850185Y-56411666D01*
X187817881Y-56425445D01*
X187809888Y-56456622D01*
X187808491Y-56473341D01*
X187794025Y-56493266D01*
X187754572Y-56502209D01*
X187678838Y-56504277D01*
X187632861Y-56504785D01*
X187578069Y-56510046D01*
X187553475Y-56524392D01*
X187547787Y-56551932D01*
X187547746Y-56555355D01*
X187539255Y-56583521D01*
X187507570Y-56596469D01*
X187440564Y-56599587D01*
X187432861Y-56599605D01*
X187369487Y-56603379D01*
X187340356Y-56617461D01*
X187333340Y-56647241D01*
X187330712Y-56668349D01*
X187313370Y-56685519D01*
X187270225Y-56693157D01*
X187190376Y-56694896D01*
X187108332Y-56697814D01*
X187061415Y-56708233D01*
X187047412Y-56727858D01*
X187043413Y-56744995D01*
X187027026Y-56759626D01*
X186993197Y-56770731D01*
X186936890Y-56778781D01*
X186853072Y-56784248D01*
X186736707Y-56787606D01*
X186582762Y-56789326D01*
X186386202Y-56789880D01*
X185832215Y-56790206D01*
X185832215Y-56694896D01*
X185834913Y-56639884D01*
X185848692Y-56607579D01*
X185879869Y-56599587D01*
X185910676Y-56591755D01*
X185927524Y-56551932D01*
X185935356Y-56521126D01*
X185975179Y-56504277D01*
X186005985Y-56496445D01*
X186022834Y-56456622D01*
X186030666Y-56425816D01*
X186070489Y-56408968D01*
X186101295Y-56401136D01*
X186118143Y-56361313D01*
X186125975Y-56330506D01*
X186165798Y-56313658D01*
X186196604Y-56305826D01*
X186213453Y-56266003D01*
X186219684Y-56238205D01*
X186246415Y-56218348D01*
X186267905Y-56209417D01*
X186291839Y-56170694D01*
X186305661Y-56143021D01*
X186339494Y-56123039D01*
X186362262Y-56114121D01*
X186387149Y-56075384D01*
X186400971Y-56047711D01*
X186434803Y-56027729D01*
X186457572Y-56018812D01*
X186482458Y-55980074D01*
X186496783Y-55952423D01*
X186532892Y-55932420D01*
X186555007Y-55924321D01*
X186570864Y-55884765D01*
X186578696Y-55853959D01*
X186618519Y-55837110D01*
X186649325Y-55829278D01*
X186666173Y-55789455D01*
X186673294Y-55759893D01*
X186711176Y-55741801D01*
X186716470Y-55741583D01*
X186750884Y-55720898D01*
X186771332Y-55661030D01*
X186791453Y-55602871D01*
X186833552Y-55567951D01*
X186860657Y-55554398D01*
X186880620Y-55520450D01*
X186889538Y-55497682D01*
X186928275Y-55472795D01*
X186955947Y-55458973D01*
X186975930Y-55425140D01*
X186984847Y-55402372D01*
X187023584Y-55377486D01*
X187051257Y-55363664D01*
X187071239Y-55329831D01*
X187080157Y-55307063D01*
X187118894Y-55282176D01*
X187146566Y-55268354D01*
X187166549Y-55234521D01*
X187175466Y-55211753D01*
X187214203Y-55186867D01*
X187241876Y-55173044D01*
X187261858Y-55139212D01*
X187270776Y-55116444D01*
X187309513Y-55091557D01*
X187337186Y-55077735D01*
X187357168Y-55043902D01*
X187366085Y-55021134D01*
X187404823Y-54996247D01*
X187432474Y-54981923D01*
X187452477Y-54945814D01*
X187457476Y-54927040D01*
X187490449Y-54907842D01*
X187514810Y-54898939D01*
X187540883Y-54860187D01*
X187554302Y-54832495D01*
X187586307Y-54812532D01*
X187605535Y-54803524D01*
X187619269Y-54764877D01*
X187632126Y-54728392D01*
X187678838Y-54717223D01*
X187717693Y-54724218D01*
X187738406Y-54752964D01*
X187743379Y-54770591D01*
X187776378Y-54788705D01*
X187799768Y-54796603D01*
X187826236Y-54834157D01*
X187839753Y-54860406D01*
X187883573Y-54891494D01*
X187909119Y-54904301D01*
X187929025Y-54938573D01*
X187937943Y-54961341D01*
X187976680Y-54986228D01*
X188004353Y-55000050D01*
X188024335Y-55033883D01*
X188033252Y-55056651D01*
X188071990Y-55081538D01*
X188099661Y-55095395D01*
X188119644Y-55129388D01*
X188124008Y-55145503D01*
X188161599Y-55172936D01*
X188227188Y-55185139D01*
X188307936Y-55178748D01*
X188362524Y-55157922D01*
X188381746Y-55119310D01*
X188389264Y-55091725D01*
X188429400Y-55074634D01*
X188460207Y-55066802D01*
X188477055Y-55026979D01*
X188484887Y-54996173D01*
X188524710Y-54979324D01*
X188555516Y-54971492D01*
X188572365Y-54931669D01*
X188580197Y-54900863D01*
X188620020Y-54884014D01*
X188650826Y-54876183D01*
X188667674Y-54836360D01*
X188675506Y-54805553D01*
X188715329Y-54788705D01*
X188736843Y-54785979D01*
X188757653Y-54762787D01*
X188762984Y-54705309D01*
X188761426Y-54667660D01*
X188748174Y-54631242D01*
X188715329Y-54621913D01*
X188684523Y-54614081D01*
X188667674Y-54574258D01*
X188659842Y-54543452D01*
X188620020Y-54526604D01*
X188589213Y-54518772D01*
X188572365Y-54478949D01*
X188564533Y-54448142D01*
X188524710Y-54431294D01*
X188493904Y-54423462D01*
X188477055Y-54383639D01*
X188469223Y-54352833D01*
X188429400Y-54335984D01*
X188398594Y-54328153D01*
X188381746Y-54288330D01*
X188373914Y-54257523D01*
X188334091Y-54240675D01*
X188303285Y-54232843D01*
X188286436Y-54193020D01*
X188278604Y-54162214D01*
X188238781Y-54145365D01*
X188207975Y-54137533D01*
X188191127Y-54097710D01*
X188183295Y-54066904D01*
X188143472Y-54050056D01*
X188112665Y-54042224D01*
X188095817Y-54002401D01*
X188087985Y-53971595D01*
X188048162Y-53954746D01*
X188017356Y-53946914D01*
X188000507Y-53907091D01*
X187992675Y-53876285D01*
X187952853Y-53859437D01*
X187922046Y-53851605D01*
X187905198Y-53811782D01*
X187897366Y-53780976D01*
X187857543Y-53764127D01*
X187826737Y-53756295D01*
X187809888Y-53716472D01*
X187802056Y-53685666D01*
X187762233Y-53668817D01*
X187732725Y-53661725D01*
X187714579Y-53623940D01*
X187713160Y-53610795D01*
X187695929Y-53585672D01*
X187654522Y-53569602D01*
X187583151Y-53561736D01*
X187476033Y-53561228D01*
X187327384Y-53567230D01*
X187251030Y-53571888D01*
X187149145Y-53581855D01*
X187090216Y-53594294D01*
X187071239Y-53609701D01*
X187053050Y-53629673D01*
X186998353Y-53649088D01*
X186918991Y-53663016D01*
X186827008Y-53668555D01*
X186782180Y-53676707D01*
X186761808Y-53698602D01*
X186770201Y-53760701D01*
X186793989Y-53814335D01*
X186826061Y-53835609D01*
X186848829Y-53844527D01*
X186873716Y-53883264D01*
X186887538Y-53910937D01*
X186921371Y-53930919D01*
X186944139Y-53939836D01*
X186969026Y-53978574D01*
X186982848Y-54006246D01*
X187016680Y-54026228D01*
X187039448Y-54035146D01*
X187064335Y-54073883D01*
X187078157Y-54101556D01*
X187111990Y-54121538D01*
X187134758Y-54130456D01*
X187159645Y-54169193D01*
X187173467Y-54196865D01*
X187207299Y-54216847D01*
X187230068Y-54225765D01*
X187254954Y-54264502D01*
X187268120Y-54292207D01*
X187298972Y-54312157D01*
X187327806Y-54318752D01*
X187348139Y-54355631D01*
X187342169Y-54428847D01*
X187321287Y-54483589D01*
X187282707Y-54502776D01*
X187255123Y-54510294D01*
X187238031Y-54550431D01*
X187230199Y-54581237D01*
X187190376Y-54598086D01*
X187159570Y-54605918D01*
X187142721Y-54645741D01*
X187134889Y-54676547D01*
X187095066Y-54693395D01*
X187064260Y-54701227D01*
X187047412Y-54741050D01*
X187039580Y-54771856D01*
X186999757Y-54788705D01*
X186970194Y-54795825D01*
X186952102Y-54833708D01*
X186951884Y-54839002D01*
X186931199Y-54873416D01*
X186871332Y-54893863D01*
X186813173Y-54913985D01*
X186778253Y-54956084D01*
X186764700Y-54983189D01*
X186730752Y-55003151D01*
X186707984Y-55012069D01*
X186683097Y-55050806D01*
X186668772Y-55078458D01*
X186632663Y-55098461D01*
X186613935Y-55103141D01*
X186594691Y-55134202D01*
X186585846Y-55155045D01*
X186547036Y-55169943D01*
X186516230Y-55177775D01*
X186499382Y-55217598D01*
X186491550Y-55248404D01*
X186451727Y-55265253D01*
X186420921Y-55273085D01*
X186404072Y-55312907D01*
X186396240Y-55343714D01*
X186356417Y-55360562D01*
X186325611Y-55368394D01*
X186308763Y-55408217D01*
X186300931Y-55439023D01*
X186261108Y-55455872D01*
X186230301Y-55463704D01*
X186213453Y-55503527D01*
X186205621Y-55534333D01*
X186165798Y-55551181D01*
X186134992Y-55559013D01*
X186118143Y-55598836D01*
X186110312Y-55629642D01*
X186070489Y-55646491D01*
X186039682Y-55654323D01*
X186022834Y-55694146D01*
X186015002Y-55724952D01*
X185975179Y-55741801D01*
X185944373Y-55749632D01*
X185927524Y-55789455D01*
X185919692Y-55820262D01*
X185879869Y-55837110D01*
X185849063Y-55844942D01*
X185832215Y-55884765D01*
X185824383Y-55915571D01*
X185784560Y-55932420D01*
X185753754Y-55940252D01*
X185736905Y-55980074D01*
X185728323Y-56012014D01*
X185687020Y-56027729D01*
X185656558Y-56035123D01*
X185625248Y-56073181D01*
X185611731Y-56099431D01*
X185567910Y-56130519D01*
X185542385Y-56143792D01*
X185522459Y-56180377D01*
X185514360Y-56202491D01*
X185474804Y-56218348D01*
X185443998Y-56226180D01*
X185427149Y-56266003D01*
X185419317Y-56296809D01*
X185379494Y-56313658D01*
X185348688Y-56321490D01*
X185331839Y-56361313D01*
X185325206Y-56389103D01*
X185296098Y-56408968D01*
X185275256Y-56400123D01*
X185260357Y-56361313D01*
X185252525Y-56330506D01*
X185212702Y-56313658D01*
X185185196Y-56308262D01*
X185169044Y-56280703D01*
X185165048Y-56218348D01*
X185162350Y-56163336D01*
X185148570Y-56131031D01*
X185117393Y-56123039D01*
X185100169Y-56121448D01*
X185075972Y-56100586D01*
X185069413Y-56045600D01*
X185069395Y-56042656D01*
X185061200Y-55945995D01*
X185039811Y-55883275D01*
X185007391Y-55860938D01*
X184997436Y-55857991D01*
X184983713Y-55832419D01*
X184976386Y-55774350D01*
X184974103Y-55676275D01*
X184973920Y-55644301D01*
X184969525Y-55522850D01*
X184958484Y-55442488D01*
X184939701Y-55398054D01*
X184912081Y-55384390D01*
X184900956Y-55380525D01*
X184887959Y-55353284D01*
X184881113Y-55293535D01*
X184879119Y-55193771D01*
X184879294Y-55143512D01*
X184881687Y-55067726D01*
X184888800Y-55025460D01*
X184903030Y-55007131D01*
X184926774Y-55003151D01*
X184942699Y-55001849D01*
X184959870Y-54990393D01*
X184969420Y-54959248D01*
X184973542Y-54899096D01*
X184974429Y-54800619D01*
X184974735Y-54732934D01*
X184977431Y-54659961D01*
X184984759Y-54619374D01*
X184998912Y-54601855D01*
X185022083Y-54598086D01*
X185038802Y-54596688D01*
X185058727Y-54582222D01*
X185067670Y-54542769D01*
X185069738Y-54467035D01*
X185070246Y-54421059D01*
X185075507Y-54366266D01*
X185089853Y-54341673D01*
X185117393Y-54335984D01*
X185144899Y-54330588D01*
X185161051Y-54303030D01*
X185165048Y-54240675D01*
X185167746Y-54185662D01*
X185181525Y-54153358D01*
X185212702Y-54145365D01*
X185249188Y-54132508D01*
X185260357Y-54085797D01*
X185270643Y-54040189D01*
X185308012Y-54026228D01*
X185329525Y-54023502D01*
X185350336Y-54000311D01*
X185355667Y-53942832D01*
X185357225Y-53905184D01*
X185370477Y-53868765D01*
X185403322Y-53859437D01*
X185434128Y-53851605D01*
X185450976Y-53811782D01*
X185458808Y-53780976D01*
X185498631Y-53764127D01*
X185528139Y-53757035D01*
X185546286Y-53719251D01*
X185555005Y-53691047D01*
X185593941Y-53661913D01*
X185621613Y-53648091D01*
X185641596Y-53614259D01*
X185650513Y-53591491D01*
X185689250Y-53566604D01*
X185716923Y-53552782D01*
X185736905Y-53518949D01*
X185745823Y-53496181D01*
X185784560Y-53471294D01*
X185812232Y-53457472D01*
X185832215Y-53423640D01*
X185841132Y-53400871D01*
X185879869Y-53375985D01*
X185907521Y-53361660D01*
X185927524Y-53325551D01*
X185935623Y-53303436D01*
X185975179Y-53287579D01*
X186005985Y-53279747D01*
X186022834Y-53239924D01*
X186030666Y-53209118D01*
X186070489Y-53192270D01*
X186101295Y-53184438D01*
X186118143Y-53144615D01*
X186125975Y-53113809D01*
X186165798Y-53096960D01*
X186196604Y-53089128D01*
X186213453Y-53049305D01*
X186221285Y-53018499D01*
X186261108Y-53001650D01*
X186291914Y-52993819D01*
X186308763Y-52953996D01*
X186311489Y-52932482D01*
X186334680Y-52911672D01*
X186392158Y-52906341D01*
X186429807Y-52904783D01*
X186466225Y-52891531D01*
X186475554Y-52858686D01*
X186488411Y-52822200D01*
X186535123Y-52811031D01*
X186580730Y-52800746D01*
X186594691Y-52763377D01*
X186602523Y-52732570D01*
X186642346Y-52715722D01*
X186673152Y-52707890D01*
X186690001Y-52668067D01*
X186684605Y-52640561D01*
X186657046Y-52624408D01*
X186594691Y-52620412D01*
X186539679Y-52623110D01*
X186507374Y-52636889D01*
X186499382Y-52668067D01*
X186499341Y-52671490D01*
X186490850Y-52699656D01*
X186459164Y-52712604D01*
X186392158Y-52715722D01*
X186359874Y-52716456D01*
X186302787Y-52726237D01*
X186284935Y-52748684D01*
X186284919Y-52749660D01*
X186261436Y-52781818D01*
X186197740Y-52802888D01*
X186100273Y-52810706D01*
X186072294Y-52811802D01*
X186033117Y-52824805D01*
X186022834Y-52858686D01*
X186017438Y-52886192D01*
X185989879Y-52902345D01*
X185927524Y-52906341D01*
X185872512Y-52909039D01*
X185840207Y-52922818D01*
X185832215Y-52953996D01*
X185826819Y-52981502D01*
X185799260Y-52997654D01*
X185736905Y-53001650D01*
X185681893Y-53004348D01*
X185649588Y-53018128D01*
X185641596Y-53049305D01*
X185634504Y-53078813D01*
X185596720Y-53096960D01*
X185568515Y-53105679D01*
X185539382Y-53144615D01*
X185534044Y-53159458D01*
X185504012Y-53185153D01*
X185441293Y-53192270D01*
X185400271Y-53194041D01*
X185364710Y-53207417D01*
X185355667Y-53239924D01*
X185347835Y-53270731D01*
X185308012Y-53287579D01*
X185277206Y-53295411D01*
X185260357Y-53335234D01*
X185252525Y-53366040D01*
X185212702Y-53382889D01*
X185184948Y-53389342D01*
X185165048Y-53420861D01*
X185156145Y-53445221D01*
X185117393Y-53471294D01*
X185089701Y-53484714D01*
X185069738Y-53516718D01*
X185060730Y-53535946D01*
X185022083Y-53549680D01*
X184991277Y-53557512D01*
X184974429Y-53597335D01*
X184966597Y-53628142D01*
X184926774Y-53644990D01*
X184895968Y-53652822D01*
X184879119Y-53692645D01*
X184871287Y-53723451D01*
X184831464Y-53740300D01*
X184794978Y-53753157D01*
X184783809Y-53799868D01*
X184773524Y-53845475D01*
X184736155Y-53859437D01*
X184705348Y-53867268D01*
X184688500Y-53907091D01*
X184680668Y-53937898D01*
X184640845Y-53954746D01*
X184619332Y-53957472D01*
X184598521Y-53980664D01*
X184593190Y-54038142D01*
X184591633Y-54075791D01*
X184578380Y-54112209D01*
X184545536Y-54121538D01*
X184509050Y-54134395D01*
X184497881Y-54181106D01*
X184487595Y-54226714D01*
X184450226Y-54240675D01*
X184422720Y-54246071D01*
X184406567Y-54273629D01*
X184402571Y-54335984D01*
X184402419Y-54349141D01*
X184393378Y-54411276D01*
X184369609Y-54431294D01*
X184367697Y-54431353D01*
X184335482Y-54456148D01*
X184315004Y-54523053D01*
X184307587Y-54627870D01*
X184305307Y-54674139D01*
X184291629Y-54708550D01*
X184259607Y-54717223D01*
X184247042Y-54717924D01*
X184228096Y-54727494D01*
X184217529Y-54755947D01*
X184212947Y-54812867D01*
X184211952Y-54907842D01*
X184211284Y-54972181D01*
X184206573Y-55047341D01*
X184196241Y-55086932D01*
X184178990Y-55098461D01*
X184166427Y-55100514D01*
X184146341Y-55119157D01*
X184132266Y-55162050D01*
X184123288Y-55235029D01*
X184118493Y-55343930D01*
X184116968Y-55494591D01*
X182193228Y-55494591D01*
X182186327Y-55486417D01*
X182127055Y-55466213D01*
X182112953Y-55463313D01*
X182059604Y-55441422D01*
X182043659Y-55405565D01*
X182036900Y-55378982D01*
X181998784Y-55360562D01*
X181970579Y-55351843D01*
X181941446Y-55312907D01*
X181926667Y-55285682D01*
X181879098Y-55265253D01*
X181849211Y-55258438D01*
X181829213Y-55230591D01*
X181829146Y-55228982D01*
X181805088Y-55200488D01*
X181745817Y-55180285D01*
X181731714Y-55177384D01*
X181678365Y-55155493D01*
X181662421Y-55119637D01*
X181654881Y-55091719D01*
X181614766Y-55074634D01*
X181586959Y-55068269D01*
X181567112Y-55040987D01*
X181566574Y-55036658D01*
X181537849Y-55010275D01*
X181471802Y-54991238D01*
X181434342Y-54983512D01*
X181389254Y-54962748D01*
X181376492Y-54929575D01*
X181368907Y-54901076D01*
X181328838Y-54884014D01*
X181298031Y-54876183D01*
X181281183Y-54836360D01*
X181273351Y-54805553D01*
X181233528Y-54788705D01*
X181205721Y-54782340D01*
X181185873Y-54755058D01*
X181185336Y-54750729D01*
X181156611Y-54724346D01*
X181090564Y-54705309D01*
X181053103Y-54697583D01*
X181008016Y-54676819D01*
X180995254Y-54643646D01*
X180987669Y-54615147D01*
X180947599Y-54598086D01*
X180919809Y-54591452D01*
X180899945Y-54562345D01*
X180891100Y-54541502D01*
X180852290Y-54526604D01*
X180822481Y-54519352D01*
X180804635Y-54481043D01*
X180801713Y-54462642D01*
X180774210Y-54436443D01*
X180709325Y-54419380D01*
X180671865Y-54411655D01*
X180626777Y-54390890D01*
X180614016Y-54357717D01*
X180606431Y-54329219D01*
X180566361Y-54312157D01*
X180538561Y-54305901D01*
X180518706Y-54279068D01*
X180518464Y-54276337D01*
X180493344Y-54249892D01*
X180437936Y-54230826D01*
X180379777Y-54210704D01*
X180344857Y-54168606D01*
X180330072Y-54141734D01*
X180282663Y-54121538D01*
X180252852Y-54114851D01*
X180232778Y-54085797D01*
X180223933Y-54064954D01*
X180185123Y-54050056D01*
X180155560Y-54042935D01*
X180137468Y-54005053D01*
X180136995Y-53997354D01*
X180114975Y-53964434D01*
X180054072Y-53944405D01*
X180050230Y-53943656D01*
X179992532Y-53922833D01*
X179970676Y-53894098D01*
X179960869Y-53873332D01*
X179920791Y-53859437D01*
X179890377Y-53852120D01*
X179858443Y-53811782D01*
X179843034Y-53784252D01*
X179801105Y-53764127D01*
X179774598Y-53757348D01*
X179756230Y-53719124D01*
X179755757Y-53711425D01*
X179733737Y-53678505D01*
X179672834Y-53658476D01*
X179668992Y-53657727D01*
X179611294Y-53636904D01*
X179589438Y-53608169D01*
X179579630Y-53587403D01*
X179539552Y-53573508D01*
X179509087Y-53566111D01*
X179477791Y-53528093D01*
X179451617Y-53493162D01*
X179384712Y-53467445D01*
X179381978Y-53466917D01*
X179325231Y-53446319D01*
X179303509Y-53417550D01*
X179293702Y-53396784D01*
X179253624Y-53382889D01*
X179223210Y-53375572D01*
X179191276Y-53335234D01*
X179175867Y-53307704D01*
X179133938Y-53287579D01*
X179106151Y-53280048D01*
X179089063Y-53239924D01*
X179086337Y-53218411D01*
X179063145Y-53197600D01*
X179005667Y-53192270D01*
X178968018Y-53190712D01*
X178931600Y-53177459D01*
X178922271Y-53144615D01*
X178914439Y-53113809D01*
X178874616Y-53096960D01*
X178843810Y-53089128D01*
X178826961Y-53049305D01*
X178827013Y-53046319D01*
X178828371Y-53039665D01*
X178833441Y-53033707D01*
X178844663Y-53028406D01*
X178864478Y-53023724D01*
X178895329Y-53019623D01*
X178939655Y-53016065D01*
X178999899Y-53013010D01*
X179078502Y-53010420D01*
X179177906Y-53008257D01*
X179300550Y-53006483D01*
X179448878Y-53005059D01*
X179625330Y-53003946D01*
X179832347Y-53003106D01*
X180072371Y-53002501D01*
X180347843Y-53002092D01*
X180661205Y-53001841D01*
X181014897Y-53001710D01*
X181411362Y-53001659D01*
X181853040Y-53001650D01*
X184879119Y-53001650D01*
X184879119Y-52858686D01*
X184879995Y-52795365D01*
X184885776Y-52743853D01*
X184900158Y-52720938D01*
X184926774Y-52715722D01*
X184947881Y-52713093D01*
X184965051Y-52695752D01*
X184972690Y-52652606D01*
X184974429Y-52572757D01*
X184975305Y-52509436D01*
X184981085Y-52457924D01*
X184995467Y-52435009D01*
X185022083Y-52429793D01*
X185043191Y-52427165D01*
X185060361Y-52409823D01*
X185067999Y-52366677D01*
X185069738Y-52286829D01*
X185070614Y-52223507D01*
X185076395Y-52171996D01*
X185090777Y-52149081D01*
X185117393Y-52143864D01*
X185138500Y-52141236D01*
X185155671Y-52123894D01*
X185163309Y-52080748D01*
X185165048Y-52000900D01*
X185165924Y-51937578D01*
X185171704Y-51886067D01*
X185186086Y-51863152D01*
X185212702Y-51857936D01*
X185233810Y-51855307D01*
X185250980Y-51837966D01*
X185258618Y-51794820D01*
X185260357Y-51714971D01*
X185261233Y-51651650D01*
X185267014Y-51600138D01*
X185281396Y-51577223D01*
X185308012Y-51572007D01*
X185329119Y-51569379D01*
X185346290Y-51552037D01*
X185353928Y-51508891D01*
X185355667Y-51429043D01*
X185358585Y-51346998D01*
X185369004Y-51300081D01*
X185388629Y-51286078D01*
X185390541Y-51286019D01*
X185422756Y-51261224D01*
X185443234Y-51194319D01*
X185450651Y-51089502D01*
X185450663Y-51087403D01*
X185459267Y-51021794D01*
X185483938Y-51000150D01*
X185495038Y-50998232D01*
X185523400Y-50964888D01*
X185540214Y-50888690D01*
X185545961Y-50767832D01*
X185546397Y-50731224D01*
X185551495Y-50674403D01*
X185565873Y-50648739D01*
X185593941Y-50642739D01*
X185615048Y-50640110D01*
X185632218Y-50622769D01*
X185639857Y-50579623D01*
X185641596Y-50499774D01*
X185642472Y-50436453D01*
X185648252Y-50384941D01*
X185662634Y-50362026D01*
X185689250Y-50356810D01*
X185710358Y-50354182D01*
X185727528Y-50336840D01*
X185735166Y-50293694D01*
X185736905Y-50213846D01*
X185737781Y-50150524D01*
X185743562Y-50099012D01*
X185757944Y-50076098D01*
X185784560Y-50070881D01*
X185805667Y-50068253D01*
X185822838Y-50050911D01*
X185830476Y-50007765D01*
X185832215Y-49927917D01*
X185833091Y-49864595D01*
X185838871Y-49813084D01*
X185853253Y-49790169D01*
X185879869Y-49784953D01*
X185900977Y-49782324D01*
X185918147Y-49764983D01*
X185925785Y-49721837D01*
X185927524Y-49641988D01*
X185928400Y-49578667D01*
X185934181Y-49527155D01*
X185948563Y-49504240D01*
X185975179Y-49499024D01*
X185996286Y-49496396D01*
X186013457Y-49479054D01*
X186021095Y-49435908D01*
X186022834Y-49356059D01*
X186023710Y-49292738D01*
X186029490Y-49241226D01*
X186043872Y-49218312D01*
X186070489Y-49213095D01*
X186091596Y-49210467D01*
X186108766Y-49193125D01*
X186116405Y-49149979D01*
X186118143Y-49070131D01*
X186120987Y-48989069D01*
X186131354Y-48941442D01*
X186150906Y-48927166D01*
X186165898Y-48920638D01*
X186190238Y-48877659D01*
X186207129Y-48803745D01*
X186213453Y-48709741D01*
X186220984Y-48662507D01*
X186246216Y-48641238D01*
X186261208Y-48634709D01*
X186285547Y-48591730D01*
X186302439Y-48517817D01*
X186308763Y-48423813D01*
X186316293Y-48376578D01*
X186341525Y-48355309D01*
X186356517Y-48348781D01*
X186380857Y-48305802D01*
X186397748Y-48231888D01*
X186404072Y-48137884D01*
X186411603Y-48090649D01*
X186436835Y-48069380D01*
X186454026Y-48061547D01*
X186478061Y-48014643D01*
X186493761Y-47931465D01*
X186499382Y-47818993D01*
X186501829Y-47764956D01*
X186515749Y-47723256D01*
X186547036Y-47705065D01*
X186559888Y-47700770D01*
X186581895Y-47680706D01*
X186592160Y-47637641D01*
X186594691Y-47559322D01*
X186595758Y-47512345D01*
X186605111Y-47447168D01*
X186624475Y-47425715D01*
X186652464Y-47422734D01*
X186707871Y-47411023D01*
X186713046Y-47409672D01*
X186745167Y-47407290D01*
X186758810Y-47429898D01*
X186761808Y-47488787D01*
X186761855Y-47495705D01*
X186769943Y-47600159D01*
X186790984Y-47665532D01*
X186823830Y-47688142D01*
X186824605Y-47688154D01*
X186848891Y-47710830D01*
X186857118Y-47777495D01*
X186857159Y-47783626D01*
X186865267Y-47886630D01*
X186886369Y-47951511D01*
X186919140Y-47974071D01*
X186938413Y-47987495D01*
X186948960Y-48033426D01*
X186952102Y-48119266D01*
X186952804Y-48174410D01*
X186958513Y-48233257D01*
X186972978Y-48263506D01*
X186999757Y-48276923D01*
X187011184Y-48280624D01*
X187034060Y-48300173D01*
X187044761Y-48342470D01*
X187047412Y-48419887D01*
X187047672Y-48451248D01*
X187052626Y-48515190D01*
X187067050Y-48548266D01*
X187095066Y-48562852D01*
X187120145Y-48574621D01*
X187138020Y-48608934D01*
X187142721Y-48676779D01*
X187144678Y-48745599D01*
X187156395Y-48841817D01*
X187177173Y-48904666D01*
X187205268Y-48927166D01*
X187228886Y-48945626D01*
X187238356Y-49004605D01*
X187238374Y-49007549D01*
X187246569Y-49104210D01*
X187267958Y-49166930D01*
X187300378Y-49189268D01*
X187324340Y-49208338D01*
X187333340Y-49269685D01*
X187335249Y-49327696D01*
X187347357Y-49416592D01*
X187368427Y-49476844D01*
X187395887Y-49499024D01*
X187418478Y-49514770D01*
X187428650Y-49567528D01*
X187430528Y-49619643D01*
X187442892Y-49704252D01*
X187464155Y-49762970D01*
X187491197Y-49784953D01*
X187513787Y-49800699D01*
X187523960Y-49853456D01*
X187525838Y-49905572D01*
X187538201Y-49990180D01*
X187559464Y-50048898D01*
X187586506Y-50070881D01*
X187603312Y-50080104D01*
X187615564Y-50122017D01*
X187619269Y-50204163D01*
X187619603Y-50240194D01*
X187624720Y-50303079D01*
X187639158Y-50335565D01*
X187666924Y-50349906D01*
X187677137Y-50353130D01*
X187700753Y-50372269D01*
X187711826Y-50413949D01*
X187714579Y-50490640D01*
X187715009Y-50532426D01*
X187720131Y-50588066D01*
X187734462Y-50613098D01*
X187762233Y-50618911D01*
X187784050Y-50621804D01*
X187800774Y-50639679D01*
X187808202Y-50683504D01*
X187809888Y-50764106D01*
X187810590Y-50819251D01*
X187816299Y-50878097D01*
X187830765Y-50908346D01*
X187857543Y-50921763D01*
X187868970Y-50925464D01*
X187891846Y-50945014D01*
X187902547Y-50987311D01*
X187905198Y-51064728D01*
X187905458Y-51096089D01*
X187910412Y-51160030D01*
X187924836Y-51193107D01*
X187952853Y-51207692D01*
X187964280Y-51211393D01*
X187987156Y-51230942D01*
X187997857Y-51273239D01*
X188000507Y-51350656D01*
X188000768Y-51382017D01*
X188005722Y-51445959D01*
X188020145Y-51479036D01*
X188048162Y-51493621D01*
X188058375Y-51496845D01*
X188081991Y-51515984D01*
X188093064Y-51557664D01*
X188095817Y-51634354D01*
X188096247Y-51676141D01*
X188101369Y-51731781D01*
X188115700Y-51756813D01*
X188143472Y-51762626D01*
X188168039Y-51766783D01*
X188183025Y-51786956D01*
X188189641Y-51833687D01*
X188191127Y-51917504D01*
X188192406Y-51997348D01*
X188198613Y-52046054D01*
X188212991Y-52067555D01*
X188238781Y-52072382D01*
X188252730Y-52073277D01*
X188274410Y-52086272D01*
X188284284Y-52123840D01*
X188286761Y-52197476D01*
X188287377Y-52239442D01*
X188296471Y-52346396D01*
X188316779Y-52409245D01*
X188348784Y-52429793D01*
X188349558Y-52429805D01*
X188373844Y-52452481D01*
X188382071Y-52519146D01*
X188382112Y-52525277D01*
X188390220Y-52628281D01*
X188411322Y-52693162D01*
X188444093Y-52715722D01*
X188460146Y-52723558D01*
X188473125Y-52763590D01*
X188477055Y-52843794D01*
X188478211Y-52911909D01*
X188486388Y-52954924D01*
X188508514Y-52975441D01*
X188551516Y-52986758D01*
X188578800Y-52988441D01*
X188651821Y-52990257D01*
X188766879Y-52991991D01*
X188921012Y-52993630D01*
X189111255Y-52995158D01*
X189334646Y-52996560D01*
X189588222Y-52997823D01*
X189869018Y-52998932D01*
X190174072Y-52999872D01*
X190500420Y-53000628D01*
X190845098Y-53001186D01*
X191205144Y-53001532D01*
X191577595Y-53001650D01*
X191656598Y-53001651D01*
X192084505Y-53001664D01*
X192467658Y-53001729D01*
X192808529Y-53001884D01*
X193109590Y-53002170D01*
X193373313Y-53002628D01*
X193602170Y-53003295D01*
X193798633Y-53004214D01*
X193965173Y-53005422D01*
X194104263Y-53006962D01*
X194218374Y-53008871D01*
X194309979Y-53011191D01*
X194381549Y-53013961D01*
X194435557Y-53017220D01*
X194474474Y-53021010D01*
X194500772Y-53025370D01*
X194516923Y-53030339D01*
X194525398Y-53035958D01*
X194528671Y-53042267D01*
X194529213Y-53049305D01*
X194521381Y-53080112D01*
X194481558Y-53096960D01*
X194450752Y-53104792D01*
X194433903Y-53144615D01*
X194431177Y-53166128D01*
X194407986Y-53186939D01*
X194350507Y-53192270D01*
X194312859Y-53193827D01*
X194276440Y-53207080D01*
X194267112Y-53239924D01*
X194260020Y-53269432D01*
X194222236Y-53287579D01*
X194194031Y-53296298D01*
X194164898Y-53335234D01*
X194150119Y-53362460D01*
X194102550Y-53382889D01*
X194072663Y-53389703D01*
X194052665Y-53417550D01*
X194052598Y-53419160D01*
X194028540Y-53447653D01*
X193969269Y-53467857D01*
X193955167Y-53470757D01*
X193901818Y-53492649D01*
X193885873Y-53528505D01*
X193879113Y-53555088D01*
X193840997Y-53573508D01*
X193812793Y-53582227D01*
X193783660Y-53621163D01*
X193768881Y-53648389D01*
X193721312Y-53668817D01*
X193691425Y-53675632D01*
X193671427Y-53703479D01*
X193671391Y-53704653D01*
X193648075Y-53733249D01*
X193590224Y-53753374D01*
X193531154Y-53773985D01*
X193497145Y-53814022D01*
X193483890Y-53839512D01*
X193447297Y-53859437D01*
X193428611Y-53863822D01*
X193409325Y-53893083D01*
X193408788Y-53897412D01*
X193380063Y-53923796D01*
X193314016Y-53942832D01*
X193276556Y-53950558D01*
X193231468Y-53971323D01*
X193218706Y-54004495D01*
X193211121Y-54032994D01*
X193171051Y-54050056D01*
X193143261Y-54056689D01*
X193123397Y-54085797D01*
X193114552Y-54106639D01*
X193075742Y-54121538D01*
X193045933Y-54128790D01*
X193028087Y-54167098D01*
X193025668Y-54184070D01*
X192999117Y-54211128D01*
X192935112Y-54228367D01*
X192934918Y-54228400D01*
X192861764Y-54251458D01*
X192830119Y-54290030D01*
X192816605Y-54316040D01*
X192780130Y-54335984D01*
X192761403Y-54340665D01*
X192742158Y-54371725D01*
X192733313Y-54392568D01*
X192694504Y-54407467D01*
X192664695Y-54414718D01*
X192646849Y-54453027D01*
X192643927Y-54471428D01*
X192616424Y-54497627D01*
X192551539Y-54514690D01*
X192539534Y-54516908D01*
X192478546Y-54537352D01*
X192456230Y-54564439D01*
X192447215Y-54584072D01*
X192408575Y-54598086D01*
X192379012Y-54605206D01*
X192360920Y-54643089D01*
X192360447Y-54650788D01*
X192338427Y-54683707D01*
X192277524Y-54703737D01*
X192273682Y-54704486D01*
X192215985Y-54725309D01*
X192194128Y-54754043D01*
X192184321Y-54774810D01*
X192144243Y-54788705D01*
X192113829Y-54796022D01*
X192081895Y-54836360D01*
X192066486Y-54863889D01*
X192024558Y-54884014D01*
X191998050Y-54890793D01*
X191979682Y-54929017D01*
X191979209Y-54936716D01*
X191957189Y-54969636D01*
X191896286Y-54989666D01*
X191892444Y-54990414D01*
X191834746Y-55011237D01*
X191812890Y-55039972D01*
X191800739Y-55062555D01*
X191753322Y-55074634D01*
X191707714Y-55084919D01*
X191693753Y-55122288D01*
X191685921Y-55153095D01*
X191646098Y-55169943D01*
X191615292Y-55177775D01*
X191598444Y-55217598D01*
X191595260Y-55240429D01*
X191571227Y-55260220D01*
X191512817Y-55265253D01*
X191485935Y-55266063D01*
X191436373Y-55279038D01*
X191414728Y-55312907D01*
X191399319Y-55340437D01*
X191357391Y-55360562D01*
X191330883Y-55367341D01*
X191312515Y-55405565D01*
X191312042Y-55413264D01*
X191290022Y-55446184D01*
X191229119Y-55466213D01*
X191225277Y-55466962D01*
X191167579Y-55487785D01*
X191145723Y-55516520D01*
X191135916Y-55537286D01*
X191095838Y-55551181D01*
X191065424Y-55558498D01*
X191033490Y-55598836D01*
X191018081Y-55626366D01*
X190976152Y-55646491D01*
X190948365Y-55654022D01*
X190931277Y-55694146D01*
X190928551Y-55715659D01*
X190905359Y-55736470D01*
X190847881Y-55741801D01*
X190810232Y-55743358D01*
X190773814Y-55756611D01*
X190764485Y-55789455D01*
X190751628Y-55825941D01*
X190704916Y-55837110D01*
X190659309Y-55847396D01*
X190645348Y-55884765D01*
X190637516Y-55915571D01*
X190597693Y-55932420D01*
X190566887Y-55940252D01*
X190550038Y-55980074D01*
X190547312Y-56001588D01*
X190524121Y-56022399D01*
X190466642Y-56027729D01*
X190428994Y-56029287D01*
X190392575Y-56042539D01*
X190383247Y-56075384D01*
X190370389Y-56111870D01*
X190323678Y-56123039D01*
X190279586Y-56132334D01*
X190264110Y-56168042D01*
X190263637Y-56175741D01*
X190241617Y-56208660D01*
X190180714Y-56228690D01*
X190176871Y-56229439D01*
X190119174Y-56250262D01*
X190097318Y-56278997D01*
X190088294Y-56299231D01*
X190049663Y-56313658D01*
X190018857Y-56321490D01*
X190002008Y-56361313D01*
X189989151Y-56397799D01*
X189942440Y-56408968D01*
X189896833Y-56419253D01*
X189882871Y-56456622D01*
X189880145Y-56478136D01*
X189856954Y-56498946D01*
X189799475Y-56504277D01*
X189716080Y-56504277D01*
X189716080Y-56647241D01*
X189718924Y-56728304D01*
X189729291Y-56775930D01*
X189748842Y-56790206D01*
X189763834Y-56796734D01*
X189788174Y-56839713D01*
X189805065Y-56913627D01*
X189811389Y-57007631D01*
X189818920Y-57054865D01*
X189844152Y-57076135D01*
X189859144Y-57082663D01*
X189883483Y-57125642D01*
X189900375Y-57199556D01*
X189906699Y-57293559D01*
X189914230Y-57340794D01*
X189939461Y-57362063D01*
X189954454Y-57368592D01*
X189978793Y-57411570D01*
X189995685Y-57485484D01*
X190002008Y-57579488D01*
X190009539Y-57626723D01*
X190034771Y-57647992D01*
X190049763Y-57654520D01*
X190068315Y-57687279D01*
X190074103Y-57697499D01*
G37*
%TD*%
M02*
