%TF.GenerationSoftware,KiCad,Pcbnew,9.0.7*%
%TF.CreationDate,2026-04-10T17:13:31-06:00*%
%TF.ProjectId,nixie_driver,6e697869-655f-4647-9269-7665722e6b69,rev?*%
%TF.SameCoordinates,Original*%
%TF.FileFunction,Copper,L1,Top*%
%TF.FilePolarity,Positive*%
%FSLAX46Y46*%
G04 Gerber Fmt 4.6, Leading zero omitted, Abs format (unit mm)*
G04 Created by KiCad (PCBNEW 9.0.7) date 2026-04-10 17:13:31*
%MOMM*%
%LPD*%
G01*
G04 APERTURE LIST*
G04 Aperture macros list*
%AMRoundRect*
0 Rectangle with rounded corners*
0 $1 Rounding radius*
0 $2 $3 $4 $5 $6 $7 $8 $9 X,Y pos of 4 corners*
0 Add a 4 corners polygon primitive as box body*
4,1,4,$2,$3,$4,$5,$6,$7,$8,$9,$2,$3,0*
0 Add four circle primitives for the rounded corners*
1,1,$1+$1,$2,$3*
1,1,$1+$1,$4,$5*
1,1,$1+$1,$6,$7*
1,1,$1+$1,$8,$9*
0 Add four rect primitives between the rounded corners*
20,1,$1+$1,$2,$3,$4,$5,0*
20,1,$1+$1,$4,$5,$6,$7,0*
20,1,$1+$1,$6,$7,$8,$9,0*
20,1,$1+$1,$8,$9,$2,$3,0*%
G04 Aperture macros list end*
%TA.AperFunction,ComponentPad*%
%ADD10R,1.700000X1.700000*%
%TD*%
%TA.AperFunction,ComponentPad*%
%ADD11C,1.700000*%
%TD*%
%TA.AperFunction,ComponentPad*%
%ADD12O,2.641600X1.320800*%
%TD*%
%TA.AperFunction,ComponentPad*%
%ADD13C,2.800000*%
%TD*%
%TA.AperFunction,ComponentPad*%
%ADD14RoundRect,0.250001X-1.149999X1.149999X-1.149999X-1.149999X1.149999X-1.149999X1.149999X1.149999X0*%
%TD*%
%TA.AperFunction,ComponentPad*%
%ADD15C,2.400000*%
%TD*%
%TA.AperFunction,ComponentPad*%
%ADD16RoundRect,0.250000X0.550000X0.550000X-0.550000X0.550000X-0.550000X-0.550000X0.550000X-0.550000X0*%
%TD*%
%TA.AperFunction,ComponentPad*%
%ADD17C,1.600000*%
%TD*%
%TA.AperFunction,SMDPad,CuDef*%
%ADD18RoundRect,0.250000X-0.475000X0.337500X-0.475000X-0.337500X0.475000X-0.337500X0.475000X0.337500X0*%
%TD*%
%TA.AperFunction,SMDPad,CuDef*%
%ADD19R,1.650000X0.400000*%
%TD*%
%TA.AperFunction,SMDPad,CuDef*%
%ADD20R,0.700000X1.825000*%
%TD*%
%TA.AperFunction,SMDPad,CuDef*%
%ADD21R,1.500000X2.000000*%
%TD*%
%TA.AperFunction,SMDPad,CuDef*%
%ADD22R,2.000000X1.350000*%
%TD*%
%TA.AperFunction,HeatsinkPad*%
%ADD23O,1.700000X1.350000*%
%TD*%
%TA.AperFunction,HeatsinkPad*%
%ADD24O,1.500000X1.100000*%
%TD*%
%TA.AperFunction,SMDPad,CuDef*%
%ADD25R,2.500000X1.430000*%
%TD*%
%TA.AperFunction,ViaPad*%
%ADD26C,7.620000*%
%TD*%
%TA.AperFunction,ViaPad*%
%ADD27C,0.600000*%
%TD*%
%TA.AperFunction,Conductor*%
%ADD28C,0.200000*%
%TD*%
G04 APERTURE END LIST*
D10*
%TO.P,J25,1,Pin_1*%
%TO.N,unconnected-(J25-Pin_1-Pad1)*%
X182300000Y-76327000D03*
D11*
%TO.P,J25,2,Pin_2*%
%TO.N,unconnected-(J25-Pin_2-Pad2)*%
X182300000Y-78867000D03*
%TD*%
%TO.P,J24,5,Pin_5*%
%TO.N,/U4_5*%
X179705000Y-81407000D03*
%TO.P,J24,4,Pin_4*%
%TO.N,/U4_4*%
X179705000Y-78867000D03*
%TO.P,J24,3,Pin_3*%
%TO.N,/U4_3*%
X179705000Y-76327000D03*
%TO.P,J24,2,Pin_2*%
%TO.N,/U4_2*%
X179705000Y-73787000D03*
D10*
%TO.P,J24,1,Pin_1*%
%TO.N,/U4_1*%
X179705000Y-71247000D03*
%TD*%
%TO.P,J23,1,Pin_1*%
%TO.N,/U4_8*%
X176972000Y-71247000D03*
D11*
%TO.P,J23,2,Pin_2*%
%TO.N,/U4_9*%
X176972000Y-73787000D03*
%TO.P,J23,3,Pin_3*%
%TO.N,/U4_0*%
X176972000Y-76327000D03*
%TO.P,J23,4,Pin_4*%
%TO.N,/U4_7*%
X176972000Y-78867000D03*
%TO.P,J23,5,Pin_5*%
%TO.N,/U4_6*%
X176972000Y-81407000D03*
%TD*%
D10*
%TO.P,J22,1,Pin_1*%
%TO.N,unconnected-(J22-Pin_1-Pad1)*%
X174371000Y-76327000D03*
D11*
%TO.P,J22,2,Pin_2*%
%TO.N,Net-(J22-Pin_2)*%
X174371000Y-78867000D03*
%TD*%
%TO.P,J21,2,Pin_2*%
%TO.N,unconnected-(J21-Pin_2-Pad2)*%
X166800000Y-78837000D03*
D10*
%TO.P,J21,1,Pin_1*%
%TO.N,unconnected-(J21-Pin_1-Pad1)*%
X166800000Y-76297000D03*
%TD*%
%TO.P,J20,1,Pin_1*%
%TO.N,/U3_1*%
X164211000Y-71247000D03*
D11*
%TO.P,J20,2,Pin_2*%
%TO.N,/U3_2*%
X164211000Y-73787000D03*
%TO.P,J20,3,Pin_3*%
%TO.N,/U3_3*%
X164211000Y-76327000D03*
%TO.P,J20,4,Pin_4*%
%TO.N,/U3_4*%
X164211000Y-78867000D03*
%TO.P,J20,5,Pin_5*%
%TO.N,/U3_5*%
X164211000Y-81407000D03*
%TD*%
D10*
%TO.P,J19,1,Pin_1*%
%TO.N,/U3_8*%
X161472000Y-71247000D03*
D11*
%TO.P,J19,2,Pin_2*%
%TO.N,/U3_9*%
X161472000Y-73787000D03*
%TO.P,J19,3,Pin_3*%
%TO.N,/U3_0*%
X161472000Y-76327000D03*
%TO.P,J19,4,Pin_4*%
%TO.N,/U3_7*%
X161472000Y-78867000D03*
%TO.P,J19,5,Pin_5*%
%TO.N,/U3_6*%
X161472000Y-81407000D03*
%TD*%
D10*
%TO.P,J18,1,Pin_1*%
%TO.N,unconnected-(J18-Pin_1-Pad1)*%
X158872000Y-76297000D03*
D11*
%TO.P,J18,2,Pin_2*%
%TO.N,Net-(J18-Pin_2)*%
X158872000Y-78837000D03*
%TD*%
%TO.P,J17,2,Pin_2*%
%TO.N,unconnected-(J17-Pin_2-Pad2)*%
X150900000Y-78867000D03*
D10*
%TO.P,J17,1,Pin_1*%
%TO.N,unconnected-(J17-Pin_1-Pad1)*%
X150900000Y-76327000D03*
%TD*%
%TO.P,J14,1,Pin_1*%
%TO.N,unconnected-(J14-Pin_1-Pad1)*%
X143100000Y-76327000D03*
D11*
%TO.P,J14,2,Pin_2*%
%TO.N,Net-(J14-Pin_2)*%
X143100000Y-78867000D03*
%TD*%
D10*
%TO.P,J8,1,Pin_1*%
%TO.N,unconnected-(J8-Pin_1-Pad1)*%
X135200000Y-76327000D03*
D11*
%TO.P,J8,2,Pin_2*%
%TO.N,unconnected-(J8-Pin_2-Pad2)*%
X135200000Y-78867000D03*
%TD*%
%TO.P,J7,5,Pin_5*%
%TO.N,/U1_5*%
X132588000Y-81407000D03*
%TO.P,J7,4,Pin_4*%
%TO.N,/U1_4*%
X132588000Y-78867000D03*
%TO.P,J7,3,Pin_3*%
%TO.N,/U1_3*%
X132588000Y-76327000D03*
%TO.P,J7,2,Pin_2*%
%TO.N,/U1_2*%
X132588000Y-73787000D03*
D10*
%TO.P,J7,1,Pin_1*%
%TO.N,/U1_1*%
X132588000Y-71247000D03*
%TD*%
%TO.P,J5,1,Pin_1*%
%TO.N,/U1_8*%
X129922000Y-71247000D03*
D11*
%TO.P,J5,2,Pin_2*%
%TO.N,/U1_9*%
X129922000Y-73787000D03*
%TO.P,J5,3,Pin_3*%
%TO.N,/U1_0*%
X129922000Y-76327000D03*
%TO.P,J5,4,Pin_4*%
%TO.N,/U1_7*%
X129922000Y-78867000D03*
%TO.P,J5,5,Pin_5*%
%TO.N,/U1_6*%
X129922000Y-81407000D03*
%TD*%
%TO.P,J6,2,Pin_2*%
%TO.N,Net-(J6-Pin_2)*%
X127300000Y-78867000D03*
D10*
%TO.P,J6,1,Pin_1*%
%TO.N,unconnected-(J6-Pin_1-Pad1)*%
X127300000Y-76327000D03*
%TD*%
%TO.P,J15,1,Pin_1*%
%TO.N,/U2_8*%
X145717000Y-71247000D03*
D11*
%TO.P,J15,2,Pin_2*%
%TO.N,/U2_9*%
X145717000Y-73787000D03*
%TO.P,J15,3,Pin_3*%
%TO.N,/U2_0*%
X145717000Y-76327000D03*
%TO.P,J15,4,Pin_4*%
%TO.N,/U2_7*%
X145717000Y-78867000D03*
%TO.P,J15,5,Pin_5*%
%TO.N,/U2_6*%
X145717000Y-81407000D03*
%TD*%
D10*
%TO.P,J16,1,Pin_1*%
%TO.N,/U2_1*%
X148336000Y-71247000D03*
D11*
%TO.P,J16,2,Pin_2*%
%TO.N,/U2_2*%
X148336000Y-73787000D03*
%TO.P,J16,3,Pin_3*%
%TO.N,/U2_3*%
X148336000Y-76327000D03*
%TO.P,J16,4,Pin_4*%
%TO.N,/U2_4*%
X148336000Y-78867000D03*
%TO.P,J16,5,Pin_5*%
%TO.N,/U2_5*%
X148336000Y-81407000D03*
%TD*%
D12*
%TO.P,U2,16,0*%
%TO.N,/U2_0*%
X143510000Y-107315000D03*
%TO.P,U2,15,1*%
%TO.N,/U2_1*%
X143510000Y-104775000D03*
%TO.P,U2,14,5*%
%TO.N,/U2_5*%
X143510000Y-102235000D03*
%TO.P,U2,13,4*%
%TO.N,/U2_4*%
X143510000Y-99695000D03*
%TO.P,U2,12,GND*%
%TO.N,GND*%
X143510000Y-97155000D03*
%TO.P,U2,11,6*%
%TO.N,/U2_6*%
X143510000Y-94615000D03*
%TO.P,U2,10,7*%
%TO.N,/U2_7*%
X143510000Y-92075000D03*
%TO.P,U2,9,3*%
%TO.N,/U2_3*%
X143510000Y-89535000D03*
%TO.P,U2,8,2*%
%TO.N,/U2_2*%
X151130000Y-89535000D03*
%TO.P,U2,7,C*%
%TO.N,/U2_C*%
X151130000Y-92075000D03*
%TO.P,U2,6,B*%
%TO.N,/U2_B*%
X151130000Y-94615000D03*
%TO.P,U2,5,VCC*%
%TO.N,Net-(U2-VCC)*%
X151130000Y-97155000D03*
%TO.P,U2,4,D*%
%TO.N,/U2_D*%
X151130000Y-99695000D03*
%TO.P,U2,3,A*%
%TO.N,/U2_A*%
X151130000Y-102235000D03*
%TO.P,U2,2,9*%
%TO.N,/U2_9*%
X151130000Y-104775000D03*
%TO.P,U2,1,8*%
%TO.N,/U2_8*%
X151130000Y-107315000D03*
%TD*%
D11*
%TO.P,J3,2,Pin_2*%
%TO.N,unconnected-(J3-Pin_2-Pad2)*%
X114020600Y-51968400D03*
D10*
%TO.P,J3,1,Pin_1*%
%TO.N,170V*%
X114020600Y-49428400D03*
%TD*%
D13*
%TO.P,J4,2,Pin_2*%
%TO.N,170V*%
X113563500Y-63510800D03*
D14*
%TO.P,J4,1,Pin_1*%
%TO.N,GND*%
X113563500Y-58510800D03*
%TD*%
D12*
%TO.P,U4,1,8*%
%TO.N,/U4_8*%
X186055000Y-107315000D03*
%TO.P,U4,2,9*%
%TO.N,/U4_9*%
X186055000Y-104775000D03*
%TO.P,U4,3,A*%
%TO.N,/U4_A*%
X186055000Y-102235000D03*
%TO.P,U4,4,D*%
%TO.N,/U4_D*%
X186055000Y-99695000D03*
%TO.P,U4,5,VCC*%
%TO.N,Net-(U4-VCC)*%
X186055000Y-97155000D03*
%TO.P,U4,6,B*%
%TO.N,/U4_B*%
X186055000Y-94615000D03*
%TO.P,U4,7,C*%
%TO.N,/U4_C*%
X186055000Y-92075000D03*
%TO.P,U4,8,2*%
%TO.N,/U4_2*%
X186055000Y-89535000D03*
%TO.P,U4,9,3*%
%TO.N,/U4_3*%
X178435000Y-89535000D03*
%TO.P,U4,10,7*%
%TO.N,/U4_7*%
X178435000Y-92075000D03*
%TO.P,U4,11,6*%
%TO.N,/U4_6*%
X178435000Y-94615000D03*
%TO.P,U4,12,GND*%
%TO.N,GND*%
X178435000Y-97155000D03*
%TO.P,U4,13,4*%
%TO.N,/U4_4*%
X178435000Y-99695000D03*
%TO.P,U4,14,5*%
%TO.N,/U4_5*%
X178435000Y-102235000D03*
%TO.P,U4,15,1*%
%TO.N,/U4_1*%
X178435000Y-104775000D03*
%TO.P,U4,16,0*%
%TO.N,/U4_0*%
X178435000Y-107315000D03*
%TD*%
%TO.P,U3,1,8*%
%TO.N,/U3_8*%
X168910000Y-107315000D03*
%TO.P,U3,2,9*%
%TO.N,/U3_9*%
X168910000Y-104775000D03*
%TO.P,U3,3,A*%
%TO.N,/U3_A*%
X168910000Y-102235000D03*
%TO.P,U3,4,D*%
%TO.N,/U3_D*%
X168910000Y-99695000D03*
%TO.P,U3,5,VCC*%
%TO.N,Net-(U3-VCC)*%
X168910000Y-97155000D03*
%TO.P,U3,6,B*%
%TO.N,/U3_B*%
X168910000Y-94615000D03*
%TO.P,U3,7,C*%
%TO.N,/U3_C*%
X168910000Y-92075000D03*
%TO.P,U3,8,2*%
%TO.N,/U3_2*%
X168910000Y-89535000D03*
%TO.P,U3,9,3*%
%TO.N,/U3_3*%
X161290000Y-89535000D03*
%TO.P,U3,10,7*%
%TO.N,/U3_7*%
X161290000Y-92075000D03*
%TO.P,U3,11,6*%
%TO.N,/U3_6*%
X161290000Y-94615000D03*
%TO.P,U3,12,GND*%
%TO.N,GND*%
X161290000Y-97155000D03*
%TO.P,U3,13,4*%
%TO.N,/U3_4*%
X161290000Y-99695000D03*
%TO.P,U3,14,5*%
%TO.N,/U3_5*%
X161290000Y-102235000D03*
%TO.P,U3,15,1*%
%TO.N,/U3_1*%
X161290000Y-104775000D03*
%TO.P,U3,16,0*%
%TO.N,/U3_0*%
X161290000Y-107315000D03*
%TD*%
%TO.P,U1,1,8*%
%TO.N,/U1_8*%
X133807200Y-107315000D03*
%TO.P,U1,2,9*%
%TO.N,/U1_9*%
X133807200Y-104775000D03*
%TO.P,U1,3,A*%
%TO.N,/U1_A*%
X133807200Y-102235000D03*
%TO.P,U1,4,D*%
%TO.N,/U1_D*%
X133807200Y-99695000D03*
%TO.P,U1,5,VCC*%
%TO.N,Net-(U1-VCC)*%
X133807200Y-97155000D03*
%TO.P,U1,6,B*%
%TO.N,/U1_B*%
X133807200Y-94615000D03*
%TO.P,U1,7,C*%
%TO.N,/U1_C*%
X133807200Y-92075000D03*
%TO.P,U1,8,2*%
%TO.N,/U1_2*%
X133807200Y-89535000D03*
%TO.P,U1,9,3*%
%TO.N,/U1_3*%
X126187200Y-89535000D03*
%TO.P,U1,10,7*%
%TO.N,/U1_7*%
X126187200Y-92075000D03*
%TO.P,U1,11,6*%
%TO.N,/U1_6*%
X126187200Y-94615000D03*
%TO.P,U1,12,GND*%
%TO.N,GND*%
X126187200Y-97155000D03*
%TO.P,U1,13,4*%
%TO.N,/U1_4*%
X126187200Y-99695000D03*
%TO.P,U1,14,5*%
%TO.N,/U1_5*%
X126187200Y-102235000D03*
%TO.P,U1,15,1*%
%TO.N,/U1_1*%
X126187200Y-104775000D03*
%TO.P,U1,16,0*%
%TO.N,/U1_0*%
X126187200Y-107315000D03*
%TD*%
D15*
%TO.P,R4,1*%
%TO.N,170V*%
X172567600Y-47726600D03*
%TO.P,R4,2*%
%TO.N,Net-(J22-Pin_2)*%
X172567600Y-68046600D03*
%TD*%
%TO.P,R3,1*%
%TO.N,170V*%
X157073600Y-47879000D03*
%TO.P,R3,2*%
%TO.N,Net-(J18-Pin_2)*%
X157073600Y-68199000D03*
%TD*%
%TO.P,R2,1*%
%TO.N,170V*%
X141351000Y-47752000D03*
%TO.P,R2,2*%
%TO.N,Net-(J14-Pin_2)*%
X141351000Y-68072000D03*
%TD*%
%TO.P,R1,1*%
%TO.N,170V*%
X125552200Y-47752000D03*
%TO.P,R1,2*%
%TO.N,Net-(J6-Pin_2)*%
X125552200Y-68072000D03*
%TD*%
D10*
%TO.P,J2,1,Pin_1*%
%TO.N,/U1_A*%
X198755000Y-70485000D03*
D11*
%TO.P,J2,2,Pin_2*%
%TO.N,/U1_B*%
X198755000Y-73025000D03*
%TO.P,J2,3,Pin_3*%
%TO.N,/U1_C*%
X198755000Y-75565000D03*
%TO.P,J2,4,Pin_4*%
%TO.N,/U1_D*%
X198755000Y-78105000D03*
%TO.P,J2,5,Pin_5*%
%TO.N,/U2_A*%
X198755000Y-80645000D03*
%TO.P,J2,6,Pin_6*%
%TO.N,/U2_B*%
X198755000Y-83185000D03*
%TO.P,J2,7,Pin_7*%
%TO.N,/U2_C*%
X198755000Y-85725000D03*
%TO.P,J2,8,Pin_8*%
%TO.N,/U2_D*%
X198755000Y-88265000D03*
%TO.P,J2,9,Pin_9*%
%TO.N,/U3_A*%
X198755000Y-90805000D03*
%TO.P,J2,10,Pin_10*%
%TO.N,/U3_B*%
X198755000Y-93345000D03*
%TO.P,J2,11,Pin_11*%
%TO.N,/U3_C*%
X198755000Y-95885000D03*
%TO.P,J2,12,Pin_12*%
%TO.N,/U3_D*%
X198755000Y-98425000D03*
%TO.P,J2,13,Pin_13*%
%TO.N,/U4_A*%
X198755000Y-100965000D03*
%TO.P,J2,14,Pin_14*%
%TO.N,/U4_B*%
X198755000Y-103505000D03*
%TO.P,J2,15,Pin_15*%
%TO.N,/U4_C*%
X198755000Y-106045000D03*
%TO.P,J2,16,Pin_16*%
%TO.N,/U4_D*%
X198755000Y-108585000D03*
%TD*%
D16*
%TO.P,C7,1*%
%TO.N,170V*%
X117800000Y-71983600D03*
D17*
%TO.P,C7,2*%
X114300000Y-71983600D03*
%TD*%
D18*
%TO.P,C4,1*%
%TO.N,/5V*%
X173990000Y-96117500D03*
%TO.P,C4,2*%
%TO.N,Net-(U4-VCC)*%
X173990000Y-98192500D03*
%TD*%
%TO.P,C3,1*%
%TO.N,/5V*%
X155930600Y-96117500D03*
%TO.P,C3,2*%
%TO.N,Net-(U3-VCC)*%
X155930600Y-98192500D03*
%TD*%
%TO.P,C2,1*%
%TO.N,/5V*%
X138430000Y-96117500D03*
%TO.P,C2,2*%
%TO.N,Net-(U2-VCC)*%
X138430000Y-98192500D03*
%TD*%
%TO.P,C1,1*%
%TO.N,/5V*%
X121285000Y-96117500D03*
%TO.P,C1,2*%
%TO.N,Net-(U1-VCC)*%
X121285000Y-98192500D03*
%TD*%
D19*
%TO.P,J1,1,VBUS*%
%TO.N,/5V*%
X115180000Y-84812000D03*
%TO.P,J1,2,D-*%
%TO.N,Net-(J1-D-)*%
X115180000Y-85462000D03*
%TO.P,J1,3,D+*%
%TO.N,Net-(J1-D+)*%
X115180000Y-86112000D03*
%TO.P,J1,4,ID*%
%TO.N,Net-(J1-ID)*%
X115180000Y-86762000D03*
%TO.P,J1,5,GND*%
%TO.N,GND*%
X115180000Y-87412000D03*
D20*
%TO.P,J1,6,Shield*%
%TO.N,Net-(J1-Shield)*%
X113980000Y-83162000D03*
D21*
X115280000Y-83262000D03*
D22*
X113230000Y-83382000D03*
D23*
X112300000Y-83382000D03*
D24*
X115300000Y-83692000D03*
D25*
X112030000Y-85152000D03*
X112030000Y-87072000D03*
D24*
X115300000Y-88532000D03*
D23*
X112300000Y-88842000D03*
D22*
X113230000Y-88862000D03*
D21*
X115300000Y-89012000D03*
D20*
X113980000Y-89112000D03*
%TD*%
D26*
%TO.N,GND*%
X198120000Y-49530000D03*
X114300000Y-109220000D03*
D27*
X182118000Y-106680000D03*
X182880000Y-105664000D03*
X182880000Y-103251000D03*
X180848000Y-105410000D03*
X182118000Y-104292400D03*
X182626000Y-104902000D03*
X181102000Y-106299000D03*
X181991000Y-105664000D03*
X181737000Y-102870000D03*
X181229000Y-104394000D03*
X182626000Y-102489000D03*
X182118000Y-103505000D03*
X180594000Y-103632000D03*
X172237400Y-91236800D03*
X172212000Y-91821000D03*
X172923200Y-91287600D03*
X175768000Y-94996000D03*
X175768000Y-92710000D03*
X175768000Y-93980000D03*
X175768000Y-95885000D03*
X173863000Y-92837000D03*
X173609000Y-93599000D03*
X173609000Y-94488000D03*
X166370000Y-92583000D03*
X155575000Y-92075000D03*
X157988000Y-89281000D03*
X156337000Y-90932000D03*
X157099000Y-89789000D03*
X157734000Y-90932000D03*
X157099000Y-91821000D03*
X156337000Y-92583000D03*
X157607000Y-92583000D03*
X157353000Y-93726000D03*
X156337000Y-93726000D03*
X139446000Y-92075000D03*
X138049000Y-93472000D03*
X139065000Y-93853000D03*
X140462000Y-93599000D03*
X140208000Y-92456000D03*
X138684000Y-92710000D03*
X139573000Y-93091000D03*
X145415000Y-84328000D03*
X144399000Y-84582000D03*
X144526000Y-86106000D03*
X145161000Y-85344000D03*
X140208000Y-88646000D03*
X140081000Y-89662000D03*
X138938000Y-89281000D03*
X139319000Y-88265000D03*
X140335000Y-87376000D03*
X143256000Y-87503000D03*
X143256000Y-86868000D03*
X143256000Y-85979000D03*
X143256000Y-85217000D03*
X143256000Y-84582000D03*
X146304000Y-88265000D03*
X145923000Y-89154000D03*
X145669000Y-90043000D03*
X115443000Y-102743000D03*
X115570000Y-101600000D03*
X115570000Y-100584000D03*
X115570000Y-99187000D03*
%TO.N,/U2_6*%
X147955000Y-91694000D03*
%TO.N,GND*%
X146050000Y-95250000D03*
X146050000Y-93980000D03*
X147320000Y-93980000D03*
X147320000Y-92710000D03*
X166370000Y-93980000D03*
X166370000Y-95250000D03*
X166370000Y-91440000D03*
X166370000Y-90170000D03*
X166370000Y-88900000D03*
X170180000Y-81280000D03*
X171450000Y-81280000D03*
X171450000Y-80010000D03*
X171450000Y-82550000D03*
X171450000Y-83820000D03*
X170180000Y-83820000D03*
X170180000Y-82550000D03*
%TO.N,/5V*%
X154635200Y-94335600D03*
X140512800Y-95402400D03*
X120396000Y-109372400D03*
X173685200Y-106578400D03*
%TO.N,/U3_D*%
X172466000Y-92913200D03*
X172415200Y-96875600D03*
%TO.N,GND*%
X157480000Y-97180400D03*
X158191200Y-97180400D03*
X122555000Y-100330000D03*
X122555000Y-93980000D03*
X140335000Y-97155000D03*
X139700000Y-97155000D03*
X117475000Y-87630000D03*
X117475000Y-86995000D03*
%TO.N,/U4_4*%
X181610000Y-86995000D03*
%TO.N,/U4_6*%
X180340000Y-86995000D03*
%TO.N,/U3_6*%
X163830000Y-87630000D03*
%TO.N,/U2_4*%
X148590000Y-86360000D03*
%TO.N,/U2_6*%
X147320000Y-88900000D03*
%TO.N,/U1_4*%
X132080000Y-85725000D03*
%TO.N,/U1_6*%
X130175000Y-89535000D03*
%TD*%
D28*
%TO.N,/U2_B*%
X198755000Y-83185000D02*
X190627000Y-75057000D01*
X165686374Y-75057000D02*
X165567374Y-74938000D01*
X150071375Y-88573600D02*
X149508200Y-89136775D01*
X160321000Y-79343760D02*
X151091160Y-88573600D01*
X163771200Y-74938000D02*
X162623000Y-76086200D01*
X162623000Y-76086200D02*
X162623000Y-76803760D01*
X165567374Y-74938000D02*
X163771200Y-74938000D01*
X160321000Y-78390240D02*
X160321000Y-79343760D01*
X161710760Y-77716000D02*
X160995240Y-77716000D01*
X162623000Y-76803760D02*
X161710760Y-77716000D01*
X160995240Y-77716000D02*
X160321000Y-78390240D01*
X190627000Y-75057000D02*
X165686374Y-75057000D01*
X151091160Y-88573600D02*
X150071375Y-88573600D01*
X149508200Y-92993200D02*
X151130000Y-94615000D01*
X149508200Y-89136775D02*
X149508200Y-92993200D01*
%TO.N,/U2_C*%
X165362000Y-78503400D02*
X165362000Y-79672760D01*
X190716000Y-77686000D02*
X166179400Y-77686000D01*
X198755000Y-85725000D02*
X190716000Y-77686000D01*
X165362000Y-79672760D02*
X164778760Y-80256000D01*
X166179400Y-77686000D02*
X165362000Y-78503400D01*
X160321000Y-82884000D02*
X151130000Y-92075000D01*
X164778760Y-80256000D02*
X160995240Y-80256000D01*
X160995240Y-80256000D02*
X160321000Y-80930240D01*
X160321000Y-80930240D02*
X160321000Y-82884000D01*
%TO.N,Net-(U4-VCC)*%
X173990000Y-98192500D02*
X173990000Y-106033000D01*
X173990000Y-106033000D02*
X176530000Y-108573000D01*
X176530000Y-108573000D02*
X176530000Y-109335000D01*
X184433200Y-98776800D02*
X186055000Y-97155000D01*
X176530000Y-109335000D02*
X184658000Y-109335000D01*
X184658000Y-109335000D02*
X184433200Y-109110200D01*
X184433200Y-109110200D02*
X184433200Y-98776800D01*
%TO.N,/U2_6*%
X146431000Y-91694000D02*
X143510000Y-94615000D01*
X147955000Y-91694000D02*
X146431000Y-91694000D01*
%TO.N,/5V*%
X155930600Y-96117500D02*
X155930600Y-95631000D01*
X155930600Y-95631000D02*
X154635200Y-94335600D01*
X140512800Y-95402400D02*
X140411200Y-95402400D01*
X140411200Y-95402400D02*
X139696100Y-96117500D01*
X139696100Y-96117500D02*
X138430000Y-96117500D01*
X120396000Y-109372400D02*
X120259000Y-109235400D01*
X120259000Y-109235400D02*
X120259000Y-97143500D01*
X120259000Y-97143500D02*
X121285000Y-96117500D01*
X172964000Y-105857200D02*
X173685200Y-106578400D01*
X172964000Y-97143500D02*
X172964000Y-105857200D01*
X173990000Y-96117500D02*
X172964000Y-97143500D01*
%TO.N,Net-(U1-VCC)*%
X121285000Y-98192500D02*
X121285000Y-107569000D01*
X121285000Y-107569000D02*
X124002800Y-110286800D01*
X129794000Y-110286800D02*
X131318000Y-108762800D01*
X124002800Y-110286800D02*
X129794000Y-110286800D01*
X131318000Y-108762800D02*
X131318000Y-99644200D01*
X131318000Y-99644200D02*
X133807200Y-97155000D01*
%TO.N,Net-(U2-VCC)*%
X138430000Y-98192500D02*
X138430000Y-102332225D01*
X138430000Y-102332225D02*
X142451375Y-106353600D01*
X145131800Y-106916775D02*
X145131800Y-107289600D01*
X148285200Y-107442000D02*
X148285200Y-99999800D01*
X142451375Y-106353600D02*
X144568625Y-106353600D01*
X144568625Y-106353600D02*
X145131800Y-106916775D01*
X145284200Y-107442000D02*
X148285200Y-107442000D01*
X145131800Y-107289600D02*
X145284200Y-107442000D01*
X148285200Y-99999800D02*
X151130000Y-97155000D01*
%TO.N,/U3_D*%
X172466000Y-92913200D02*
X174265600Y-91113600D01*
X174265600Y-91113600D02*
X191443600Y-91113600D01*
X191443600Y-91113600D02*
X198755000Y-98425000D01*
X171986800Y-97304000D02*
X172415200Y-96875600D01*
X171301000Y-97304000D02*
X171986800Y-97304000D01*
%TO.N,/U3_A*%
X168910000Y-102235000D02*
X172364400Y-105689400D01*
X172364400Y-105689400D02*
X172364400Y-109270800D01*
X172829600Y-109736000D02*
X199231760Y-109736000D01*
X200307000Y-108660760D02*
X200307000Y-92357000D01*
X172364400Y-109270800D02*
X172829600Y-109736000D01*
X199231760Y-109736000D02*
X200307000Y-108660760D01*
X200307000Y-92357000D02*
X198755000Y-90805000D01*
%TO.N,Net-(U3-VCC)*%
X168910000Y-97155000D02*
X162911800Y-103153200D01*
X162911800Y-103153200D02*
X162911800Y-105173225D01*
X162911800Y-105173225D02*
X162217825Y-105867200D01*
X162217825Y-105867200D02*
X158699200Y-105867200D01*
X158699200Y-105867200D02*
X158699200Y-105664000D01*
X158699200Y-105664000D02*
X155930600Y-102895400D01*
X155930600Y-102895400D02*
X155930600Y-98192500D01*
%TO.N,GND*%
X117475000Y-86995000D02*
X117475000Y-87630000D01*
X115180000Y-87412000D02*
X117257000Y-87412000D01*
X117257000Y-87412000D02*
X117475000Y-87630000D01*
%TO.N,/5V*%
X121285000Y-96117500D02*
X121285000Y-84455000D01*
X121285000Y-84455000D02*
X116562000Y-84455000D01*
X116562000Y-84455000D02*
X116205000Y-84812000D01*
X116205000Y-84812000D02*
X115180000Y-84812000D01*
%TO.N,/U1_A*%
X198755000Y-70485000D02*
X201911000Y-73641000D01*
X201911000Y-109325160D02*
X199896160Y-111340000D01*
X201911000Y-73641000D02*
X201911000Y-109325160D01*
X199896160Y-111340000D02*
X142912200Y-111340000D01*
X142912200Y-111340000D02*
X133807200Y-102235000D01*
%TO.N,/U1_B*%
X198755000Y-73025000D02*
X189865000Y-64135000D01*
X189865000Y-64135000D02*
X166282000Y-64135000D01*
%TO.N,/U1_D*%
X198755000Y-78105000D02*
X201510000Y-80860000D01*
X201510000Y-80860000D02*
X201510000Y-109159060D01*
X201510000Y-109159060D02*
X199730060Y-110939000D01*
X199730060Y-110939000D02*
X145051200Y-110939000D01*
X145051200Y-110939000D02*
X133807200Y-99695000D01*
%TO.N,/U2_A*%
X198755000Y-80645000D02*
X201109000Y-82999000D01*
X159433000Y-110538000D02*
X151130000Y-102235000D01*
X201109000Y-82999000D02*
X201109000Y-108992960D01*
X201109000Y-108992960D02*
X199563960Y-110538000D01*
X199563960Y-110538000D02*
X159433000Y-110538000D01*
%TO.N,/U2_D*%
X198755000Y-88265000D02*
X200708000Y-90218000D01*
X200708000Y-108826860D02*
X199397860Y-110137000D01*
X200708000Y-90218000D02*
X200708000Y-108826860D01*
X161572000Y-110137000D02*
X151130000Y-99695000D01*
X199397860Y-110137000D02*
X161572000Y-110137000D01*
%TO.N,/U3_B*%
X198755000Y-93345000D02*
X193040000Y-87630000D01*
X193040000Y-87630000D02*
X168794975Y-87630000D01*
%TO.N,/U3_C*%
X198755000Y-95885000D02*
X193366400Y-90496400D01*
X193366400Y-90496400D02*
X170488600Y-90496400D01*
%TO.N,/U4_B*%
X186055000Y-94615000D02*
X186055000Y-94972760D01*
X186055000Y-94972760D02*
X198278240Y-107196000D01*
X198278240Y-107196000D02*
X199231760Y-107196000D01*
X199231760Y-107196000D02*
X199906000Y-106521760D01*
X199906000Y-106521760D02*
X199906000Y-104656000D01*
X199906000Y-104656000D02*
X198755000Y-103505000D01*
%TO.N,/U4_C*%
X186055000Y-92075000D02*
X197604000Y-103624000D01*
X197604000Y-104894000D02*
X198755000Y-106045000D01*
X197604000Y-103624000D02*
X197604000Y-104894000D01*
%TO.N,/U1_C*%
X195969000Y-72636000D02*
X195969000Y-72779000D01*
X195969000Y-72779000D02*
X198755000Y-75565000D01*
%TO.N,/U1_B*%
X166282000Y-64135000D02*
X152701000Y-77716000D01*
X132185400Y-92993200D02*
X133807200Y-94615000D01*
X152701000Y-77716000D02*
X147859240Y-77716000D01*
X132185400Y-91676775D02*
X132185400Y-92993200D01*
X147859240Y-77716000D02*
X146868000Y-78707240D01*
X146868000Y-78707240D02*
X146868000Y-79581760D01*
X146868000Y-79581760D02*
X146193760Y-80256000D01*
X146193760Y-80256000D02*
X145240240Y-80256000D01*
X133149575Y-90712600D02*
X132185400Y-91676775D01*
X145240240Y-80256000D02*
X134783640Y-90712600D01*
X134783640Y-90712600D02*
X133149575Y-90712600D01*
%TO.N,/U1_C*%
X160321000Y-75850240D02*
X160321000Y-77804000D01*
X159348760Y-77686000D02*
X158395240Y-77686000D01*
X153035000Y-84570025D02*
X146491425Y-91113600D01*
X195969000Y-72636000D02*
X163734240Y-72636000D01*
X163734240Y-72636000D02*
X163060000Y-73310240D01*
X163060000Y-73310240D02*
X163060000Y-74064760D01*
X159893880Y-78231120D02*
X159348760Y-77686000D01*
X163060000Y-74064760D02*
X161948760Y-75176000D01*
X158395240Y-77686000D02*
X153035000Y-83046240D01*
X161948760Y-75176000D02*
X160995240Y-75176000D01*
X160995240Y-75176000D02*
X160321000Y-75850240D01*
X160321000Y-77804000D02*
X159893880Y-78231120D01*
X134768600Y-91113600D02*
X133807200Y-92075000D01*
X153035000Y-83046240D02*
X153035000Y-84570025D01*
X146491425Y-91113600D02*
X134768600Y-91113600D01*
%TO.N,/U3_B*%
X167288200Y-92993200D02*
X168910000Y-94615000D01*
X168794975Y-87630000D02*
X167288200Y-89136775D01*
X167288200Y-89136775D02*
X167288200Y-92993200D01*
%TO.N,/U3_C*%
X170488600Y-90496400D02*
X168910000Y-92075000D01*
%TO.N,/U3_D*%
X171301000Y-97304000D02*
X168910000Y-99695000D01*
%TO.N,/U4_4*%
X181610000Y-86995000D02*
X181610000Y-80772000D01*
X181610000Y-80772000D02*
X179705000Y-78867000D01*
%TO.N,/U4_6*%
X180340000Y-86995000D02*
X180340000Y-84775000D01*
X180340000Y-84775000D02*
X176972000Y-81407000D01*
%TO.N,/U3_6*%
X163830000Y-87630000D02*
X163830000Y-83765000D01*
X163830000Y-83765000D02*
X161472000Y-81407000D01*
%TO.N,/U2_4*%
X148590000Y-86360000D02*
X149487000Y-85463000D01*
X149487000Y-85463000D02*
X149487000Y-80018000D01*
X149487000Y-80018000D02*
X148336000Y-78867000D01*
%TO.N,/U2_6*%
X147320000Y-88900000D02*
X147320000Y-83010000D01*
X147320000Y-83010000D02*
X145717000Y-81407000D01*
%TO.N,/U1_4*%
X132080000Y-85725000D02*
X133739000Y-84066000D01*
X133739000Y-84066000D02*
X133739000Y-80018000D01*
X133739000Y-80018000D02*
X132588000Y-78867000D01*
%TO.N,/U1_6*%
X130175000Y-89535000D02*
X129922000Y-89282000D01*
X129922000Y-89282000D02*
X129922000Y-81407000D01*
%TD*%
%TA.AperFunction,Conductor*%
%TO.N,GND*%
G36*
X120627539Y-85075185D02*
G01*
X120673294Y-85127989D01*
X120684500Y-85179500D01*
X120684500Y-94941414D01*
X120664815Y-95008453D01*
X120612011Y-95054208D01*
X120599505Y-95059120D01*
X120490666Y-95095186D01*
X120490663Y-95095187D01*
X120341342Y-95187289D01*
X120217289Y-95311342D01*
X120125187Y-95460663D01*
X120125185Y-95460668D01*
X120119770Y-95477009D01*
X120070001Y-95627203D01*
X120070001Y-95627204D01*
X120070000Y-95627204D01*
X120059500Y-95729983D01*
X120059500Y-96442402D01*
X120039815Y-96509441D01*
X120023181Y-96530083D01*
X119778481Y-96774782D01*
X119778477Y-96774787D01*
X119750369Y-96823475D01*
X119750366Y-96823480D01*
X119732208Y-96854930D01*
X119703301Y-96904999D01*
X119699423Y-96911715D01*
X119658499Y-97064443D01*
X119658499Y-97064445D01*
X119658499Y-97232546D01*
X119658500Y-97232559D01*
X119658500Y-109036411D01*
X119649061Y-109083863D01*
X119626263Y-109138901D01*
X119626260Y-109138911D01*
X119595500Y-109293553D01*
X119595500Y-109451246D01*
X119626261Y-109605889D01*
X119626264Y-109605901D01*
X119686602Y-109751572D01*
X119686609Y-109751585D01*
X119774210Y-109882688D01*
X119774213Y-109882692D01*
X119885707Y-109994186D01*
X119885711Y-109994189D01*
X120016814Y-110081790D01*
X120016827Y-110081797D01*
X120162498Y-110142135D01*
X120162503Y-110142137D01*
X120317153Y-110172899D01*
X120317156Y-110172900D01*
X120317158Y-110172900D01*
X120474844Y-110172900D01*
X120474845Y-110172899D01*
X120629497Y-110142137D01*
X120775179Y-110081794D01*
X120906289Y-109994189D01*
X121017789Y-109882689D01*
X121105394Y-109751579D01*
X121165737Y-109605897D01*
X121196500Y-109451242D01*
X121196500Y-109293558D01*
X121196500Y-109293555D01*
X121196499Y-109293553D01*
X121188537Y-109253524D01*
X121165737Y-109138903D01*
X121165735Y-109138898D01*
X121105397Y-108993227D01*
X121105390Y-108993214D01*
X121017789Y-108862111D01*
X121017786Y-108862107D01*
X120906289Y-108750610D01*
X120904834Y-108749416D01*
X120904276Y-108748597D01*
X120901982Y-108746303D01*
X120902417Y-108745867D01*
X120865500Y-108691670D01*
X120859500Y-108653564D01*
X120859500Y-108292097D01*
X120879185Y-108225058D01*
X120931989Y-108179303D01*
X121001147Y-108169359D01*
X121064703Y-108198384D01*
X121071180Y-108204415D01*
X123634084Y-110767320D01*
X123634086Y-110767321D01*
X123634090Y-110767324D01*
X123771009Y-110846373D01*
X123771016Y-110846377D01*
X123923743Y-110887301D01*
X123923745Y-110887301D01*
X124089454Y-110887301D01*
X124089470Y-110887300D01*
X129707331Y-110887300D01*
X129707347Y-110887301D01*
X129714943Y-110887301D01*
X129873054Y-110887301D01*
X129873057Y-110887301D01*
X130025785Y-110846377D01*
X130075904Y-110817439D01*
X130162716Y-110767320D01*
X130274520Y-110655516D01*
X130274520Y-110655514D01*
X130284728Y-110645307D01*
X130284730Y-110645304D01*
X131676506Y-109253528D01*
X131676511Y-109253524D01*
X131686714Y-109243320D01*
X131686716Y-109243320D01*
X131798520Y-109131516D01*
X131877577Y-108994584D01*
X131918500Y-108841857D01*
X131918500Y-107977925D01*
X131938185Y-107910886D01*
X131990989Y-107865131D01*
X132060147Y-107855187D01*
X132123703Y-107884212D01*
X132151222Y-107919378D01*
X132151364Y-107919292D01*
X132152118Y-107920524D01*
X132152985Y-107921631D01*
X132153909Y-107923444D01*
X132261315Y-108071276D01*
X132390524Y-108200485D01*
X132538356Y-108307891D01*
X132701169Y-108390848D01*
X132874955Y-108447315D01*
X132927625Y-108455657D01*
X133055430Y-108475900D01*
X133055435Y-108475900D01*
X134558970Y-108475900D01*
X134659231Y-108460019D01*
X134739445Y-108447315D01*
X134913231Y-108390848D01*
X135076044Y-108307891D01*
X135223876Y-108200485D01*
X135353085Y-108071276D01*
X135460491Y-107923444D01*
X135543448Y-107760631D01*
X135599915Y-107586845D01*
X135612717Y-107506014D01*
X135628500Y-107406370D01*
X135628500Y-107223629D01*
X135603187Y-107063814D01*
X135599915Y-107043155D01*
X135543448Y-106869369D01*
X135460491Y-106706556D01*
X135353085Y-106558724D01*
X135223876Y-106429515D01*
X135076044Y-106322109D01*
X134913231Y-106239152D01*
X134739445Y-106182685D01*
X134739443Y-106182684D01*
X134739441Y-106182684D01*
X134643402Y-106167473D01*
X134580267Y-106137544D01*
X134543336Y-106078232D01*
X134544334Y-106008370D01*
X134582944Y-105950137D01*
X134643402Y-105922527D01*
X134680701Y-105916619D01*
X134739445Y-105907315D01*
X134913231Y-105850848D01*
X135076044Y-105767891D01*
X135223876Y-105660485D01*
X135353085Y-105531276D01*
X135460491Y-105383444D01*
X135543448Y-105220631D01*
X135579050Y-105111057D01*
X135618488Y-105053384D01*
X135682847Y-105026186D01*
X135751693Y-105038101D01*
X135784662Y-105061697D01*
X142427339Y-111704374D01*
X142427349Y-111704385D01*
X142431679Y-111708715D01*
X142431680Y-111708716D01*
X142543484Y-111820520D01*
X142543486Y-111820521D01*
X142543490Y-111820524D01*
X142680409Y-111899573D01*
X142680416Y-111899577D01*
X142792219Y-111929534D01*
X142833142Y-111940500D01*
X142833143Y-111940500D01*
X199809491Y-111940500D01*
X199809507Y-111940501D01*
X199817103Y-111940501D01*
X199975214Y-111940501D01*
X199975217Y-111940501D01*
X200127945Y-111899577D01*
X200178064Y-111870639D01*
X200264876Y-111820520D01*
X200376680Y-111708716D01*
X200376680Y-111708714D01*
X200386888Y-111698507D01*
X200386890Y-111698504D01*
X201718319Y-110367075D01*
X201779642Y-110333590D01*
X201849334Y-110338574D01*
X201905267Y-110380446D01*
X201929684Y-110445910D01*
X201930000Y-110454756D01*
X201930000Y-112906000D01*
X201910315Y-112973039D01*
X201857511Y-113018794D01*
X201806000Y-113030000D01*
X110614000Y-113030000D01*
X110546961Y-113010315D01*
X110501206Y-112957511D01*
X110490000Y-112906000D01*
X110490000Y-88391609D01*
X110509685Y-88324570D01*
X110562489Y-88278815D01*
X110631647Y-88268871D01*
X110657335Y-88275428D01*
X110672517Y-88281091D01*
X110732127Y-88287500D01*
X110898502Y-88287499D01*
X110965541Y-88307183D01*
X111011296Y-88359987D01*
X111021240Y-88429145D01*
X111016433Y-88449816D01*
X110978445Y-88566732D01*
X110951294Y-88738158D01*
X110949500Y-88749486D01*
X110949500Y-88934514D01*
X110960915Y-89006585D01*
X110978445Y-89117265D01*
X111035619Y-89293232D01*
X111035620Y-89293235D01*
X111100237Y-89420051D01*
X111119622Y-89458096D01*
X111228379Y-89607787D01*
X111359213Y-89738621D01*
X111508904Y-89847378D01*
X111563600Y-89875247D01*
X111673764Y-89931379D01*
X111673767Y-89931380D01*
X111761750Y-89959967D01*
X111849736Y-89988555D01*
X112032486Y-90017500D01*
X112063705Y-90017500D01*
X112107039Y-90025319D01*
X112122508Y-90031088D01*
X112122511Y-90031088D01*
X112122517Y-90031091D01*
X112182127Y-90037500D01*
X113015468Y-90037499D01*
X113082507Y-90057183D01*
X113128262Y-90109987D01*
X113134598Y-90128470D01*
X113186202Y-90266828D01*
X113186206Y-90266835D01*
X113272452Y-90382044D01*
X113272455Y-90382047D01*
X113387664Y-90468293D01*
X113387671Y-90468297D01*
X113522517Y-90518591D01*
X113522516Y-90518591D01*
X113529444Y-90519335D01*
X113582127Y-90525000D01*
X114377872Y-90524999D01*
X114437483Y-90518591D01*
X114437487Y-90518589D01*
X114437490Y-90518589D01*
X114445038Y-90516806D01*
X114445248Y-90517695D01*
X114493761Y-90511600D01*
X114502127Y-90512500D01*
X116097872Y-90512499D01*
X116157483Y-90506091D01*
X116292331Y-90455796D01*
X116407546Y-90369546D01*
X116493796Y-90254331D01*
X116544091Y-90119483D01*
X116550500Y-90059873D01*
X116550499Y-88635468D01*
X116550500Y-88635465D01*
X116550500Y-88428535D01*
X116550499Y-88428531D01*
X116550499Y-87964128D01*
X116544091Y-87904517D01*
X116502604Y-87793286D01*
X116497870Y-87727098D01*
X116497769Y-87727088D01*
X116497829Y-87726525D01*
X116497620Y-87723598D01*
X116498112Y-87721428D01*
X116498599Y-87719367D01*
X116504999Y-87659844D01*
X116505000Y-87659827D01*
X116505000Y-87612000D01*
X116392107Y-87612000D01*
X116370861Y-87605761D01*
X116348774Y-87604182D01*
X116329337Y-87593568D01*
X116325068Y-87592315D01*
X116317797Y-87587267D01*
X116293960Y-87569423D01*
X116252088Y-87513490D01*
X116247104Y-87443798D01*
X116280588Y-87382475D01*
X116293948Y-87370898D01*
X116362546Y-87319546D01*
X116405858Y-87261687D01*
X116461791Y-87219818D01*
X116504972Y-87212027D01*
X116505000Y-87212000D01*
X116505000Y-87164172D01*
X116504999Y-87164160D01*
X116498380Y-87102604D01*
X116498380Y-87076090D01*
X116499090Y-87069485D01*
X116499091Y-87069483D01*
X116505500Y-87009873D01*
X116505499Y-86514128D01*
X116499091Y-86454517D01*
X116499089Y-86454513D01*
X116498632Y-86450255D01*
X116498632Y-86423745D01*
X116499089Y-86419486D01*
X116499091Y-86419483D01*
X116505500Y-86359873D01*
X116505499Y-85864128D01*
X116499091Y-85804517D01*
X116499089Y-85804513D01*
X116498632Y-85800255D01*
X116498632Y-85773745D01*
X116499089Y-85769486D01*
X116499091Y-85769483D01*
X116505500Y-85709873D01*
X116505499Y-85403495D01*
X116525183Y-85336457D01*
X116544373Y-85313332D01*
X116554927Y-85303367D01*
X116573716Y-85292520D01*
X116685520Y-85180716D01*
X116685521Y-85180713D01*
X116732483Y-85133751D01*
X116774418Y-85091818D01*
X116835741Y-85058333D01*
X116862098Y-85055500D01*
X120560500Y-85055500D01*
X120627539Y-85075185D01*
G37*
%TD.AperFunction*%
%TA.AperFunction,Conductor*%
G36*
X201873039Y-45739685D02*
G01*
X201918794Y-45792489D01*
X201930000Y-45844000D01*
X201930000Y-72511403D01*
X201910315Y-72578442D01*
X201857511Y-72624197D01*
X201788353Y-72634141D01*
X201724797Y-72605116D01*
X201718319Y-72599084D01*
X200141818Y-71022583D01*
X200108333Y-70961260D01*
X200105499Y-70934902D01*
X200105499Y-69587129D01*
X200105498Y-69587123D01*
X200105497Y-69587116D01*
X200099091Y-69527517D01*
X200084705Y-69488947D01*
X200048797Y-69392671D01*
X200048793Y-69392664D01*
X199962547Y-69277455D01*
X199962544Y-69277452D01*
X199847335Y-69191206D01*
X199847328Y-69191202D01*
X199712482Y-69140908D01*
X199712483Y-69140908D01*
X199652883Y-69134501D01*
X199652881Y-69134500D01*
X199652873Y-69134500D01*
X199652864Y-69134500D01*
X197857129Y-69134500D01*
X197857123Y-69134501D01*
X197797516Y-69140908D01*
X197662671Y-69191202D01*
X197662664Y-69191206D01*
X197547455Y-69277452D01*
X197547452Y-69277455D01*
X197461206Y-69392664D01*
X197461202Y-69392671D01*
X197410908Y-69527517D01*
X197405803Y-69575004D01*
X197404501Y-69587123D01*
X197404500Y-69587135D01*
X197404500Y-70525902D01*
X197384815Y-70592941D01*
X197332011Y-70638696D01*
X197262853Y-70648640D01*
X197199297Y-70619615D01*
X197192819Y-70613583D01*
X190352590Y-63773355D01*
X190352588Y-63773352D01*
X190233717Y-63654481D01*
X190233716Y-63654480D01*
X190146904Y-63604360D01*
X190146904Y-63604359D01*
X190146900Y-63604358D01*
X190096785Y-63575423D01*
X189944057Y-63534499D01*
X189785943Y-63534499D01*
X189778347Y-63534499D01*
X189778331Y-63534500D01*
X166202940Y-63534500D01*
X166162019Y-63545464D01*
X166162019Y-63545465D01*
X166124751Y-63555451D01*
X166050214Y-63575423D01*
X166050209Y-63575426D01*
X165913290Y-63654475D01*
X165913282Y-63654481D01*
X165801478Y-63766286D01*
X152488584Y-77079181D01*
X152461656Y-77093884D01*
X152435838Y-77110477D01*
X152429637Y-77111368D01*
X152427261Y-77112666D01*
X152400903Y-77115500D01*
X152374500Y-77115500D01*
X152307461Y-77095815D01*
X152261706Y-77043011D01*
X152250500Y-76991500D01*
X152250499Y-75429129D01*
X152250498Y-75429123D01*
X152250497Y-75429116D01*
X152244091Y-75369517D01*
X152199050Y-75248757D01*
X152193797Y-75234671D01*
X152193793Y-75234664D01*
X152107547Y-75119455D01*
X152107544Y-75119452D01*
X151992335Y-75033206D01*
X151992328Y-75033202D01*
X151857482Y-74982908D01*
X151857483Y-74982908D01*
X151797883Y-74976501D01*
X151797881Y-74976500D01*
X151797873Y-74976500D01*
X151797864Y-74976500D01*
X150002129Y-74976500D01*
X150002123Y-74976501D01*
X149942516Y-74982908D01*
X149807671Y-75033202D01*
X149807664Y-75033206D01*
X149692455Y-75119452D01*
X149692452Y-75119455D01*
X149606206Y-75234664D01*
X149606202Y-75234671D01*
X149553198Y-75376785D01*
X149552014Y-75376343D01*
X149521336Y-75430215D01*
X149459423Y-75462597D01*
X149389832Y-75456367D01*
X149347556Y-75428660D01*
X149215786Y-75296890D01*
X149043820Y-75171951D01*
X149043115Y-75171591D01*
X149035054Y-75167485D01*
X148984259Y-75119512D01*
X148967463Y-75051692D01*
X148989999Y-74985556D01*
X149035054Y-74946515D01*
X149043816Y-74942051D01*
X149155194Y-74861131D01*
X149215786Y-74817109D01*
X149215788Y-74817106D01*
X149215792Y-74817104D01*
X149366104Y-74666792D01*
X149366106Y-74666788D01*
X149366109Y-74666786D01*
X149491048Y-74494820D01*
X149491047Y-74494820D01*
X149491051Y-74494816D01*
X149587557Y-74305412D01*
X149653246Y-74103243D01*
X149686500Y-73893287D01*
X149686500Y-73680713D01*
X149653246Y-73470757D01*
X149587557Y-73268588D01*
X149491051Y-73079184D01*
X149491049Y-73079181D01*
X149491048Y-73079179D01*
X149366109Y-72907213D01*
X149252569Y-72793673D01*
X149219084Y-72732350D01*
X149224068Y-72662658D01*
X149265940Y-72606725D01*
X149296915Y-72589810D01*
X149428331Y-72540796D01*
X149543546Y-72454546D01*
X149629796Y-72339331D01*
X149680091Y-72204483D01*
X149686500Y-72144873D01*
X149686499Y-70349128D01*
X149680091Y-70289517D01*
X149629796Y-70154669D01*
X149629795Y-70154668D01*
X149629793Y-70154664D01*
X149543547Y-70039455D01*
X149543544Y-70039452D01*
X149428335Y-69953206D01*
X149428328Y-69953202D01*
X149293482Y-69902908D01*
X149293483Y-69902908D01*
X149233883Y-69896501D01*
X149233881Y-69896500D01*
X149233873Y-69896500D01*
X149233864Y-69896500D01*
X147438129Y-69896500D01*
X147438123Y-69896501D01*
X147378516Y-69902908D01*
X147243671Y-69953202D01*
X147243664Y-69953206D01*
X147128455Y-70039452D01*
X147125766Y-70043045D01*
X147069831Y-70084916D01*
X147000140Y-70089899D01*
X146938817Y-70056413D01*
X146927234Y-70043045D01*
X146924546Y-70039454D01*
X146924544Y-70039453D01*
X146924544Y-70039452D01*
X146809335Y-69953206D01*
X146809328Y-69953202D01*
X146674482Y-69902908D01*
X146674483Y-69902908D01*
X146614883Y-69896501D01*
X146614881Y-69896500D01*
X146614873Y-69896500D01*
X146614864Y-69896500D01*
X144819129Y-69896500D01*
X144819123Y-69896501D01*
X144759516Y-69902908D01*
X144624671Y-69953202D01*
X144624664Y-69953206D01*
X144509455Y-70039452D01*
X144509452Y-70039455D01*
X144423206Y-70154664D01*
X144423202Y-70154671D01*
X144372908Y-70289517D01*
X144366501Y-70349116D01*
X144366501Y-70349123D01*
X144366500Y-70349135D01*
X144366500Y-72144870D01*
X144366501Y-72144876D01*
X144372908Y-72204483D01*
X144423202Y-72339328D01*
X144423206Y-72339335D01*
X144509452Y-72454544D01*
X144509455Y-72454547D01*
X144624664Y-72540793D01*
X144624671Y-72540797D01*
X144756082Y-72589810D01*
X144812016Y-72631681D01*
X144836433Y-72697145D01*
X144821582Y-72765418D01*
X144800431Y-72793673D01*
X144686889Y-72907215D01*
X144561951Y-73079179D01*
X144465444Y-73268585D01*
X144399753Y-73470760D01*
X144366500Y-73680713D01*
X144366500Y-73893286D01*
X144399753Y-74103239D01*
X144399753Y-74103241D01*
X144399754Y-74103243D01*
X144460335Y-74289692D01*
X144465444Y-74305414D01*
X144561951Y-74494820D01*
X144686890Y-74666786D01*
X144837213Y-74817109D01*
X145009182Y-74942050D01*
X145017946Y-74946516D01*
X145068742Y-74994491D01*
X145085536Y-75062312D01*
X145062998Y-75128447D01*
X145017946Y-75167484D01*
X145009182Y-75171949D01*
X144837213Y-75296890D01*
X144686894Y-75447209D01*
X144671864Y-75467897D01*
X144616533Y-75510562D01*
X144546920Y-75516541D01*
X144485125Y-75483935D01*
X144450768Y-75423096D01*
X144448256Y-75408263D01*
X144444091Y-75369516D01*
X144393797Y-75234671D01*
X144393793Y-75234664D01*
X144307547Y-75119455D01*
X144307544Y-75119452D01*
X144192335Y-75033206D01*
X144192328Y-75033202D01*
X144057482Y-74982908D01*
X144057483Y-74982908D01*
X143997883Y-74976501D01*
X143997881Y-74976500D01*
X143997873Y-74976500D01*
X143997864Y-74976500D01*
X142202129Y-74976500D01*
X142202123Y-74976501D01*
X142142516Y-74982908D01*
X142007671Y-75033202D01*
X142007664Y-75033206D01*
X141892455Y-75119452D01*
X141892452Y-75119455D01*
X141806206Y-75234664D01*
X141806202Y-75234671D01*
X141755908Y-75369517D01*
X141750148Y-75423096D01*
X141749501Y-75429123D01*
X141749500Y-75429135D01*
X141749500Y-77224870D01*
X141749501Y-77224876D01*
X141755908Y-77284483D01*
X141806202Y-77419328D01*
X141806206Y-77419335D01*
X141892452Y-77534544D01*
X141892455Y-77534547D01*
X142007664Y-77620793D01*
X142007671Y-77620797D01*
X142139082Y-77669810D01*
X142195016Y-77711681D01*
X142219433Y-77777145D01*
X142204582Y-77845418D01*
X142183431Y-77873673D01*
X142069889Y-77987215D01*
X141944951Y-78159179D01*
X141848444Y-78348585D01*
X141848443Y-78348587D01*
X141848443Y-78348588D01*
X141845001Y-78359180D01*
X141782753Y-78550760D01*
X141749500Y-78760713D01*
X141749500Y-78973287D01*
X141782754Y-79183243D01*
X141848147Y-79384502D01*
X141848444Y-79385414D01*
X141944951Y-79574820D01*
X142069890Y-79746786D01*
X142220213Y-79897109D01*
X142392179Y-80022048D01*
X142392181Y-80022049D01*
X142392184Y-80022051D01*
X142581588Y-80118557D01*
X142783757Y-80184246D01*
X142993713Y-80217500D01*
X142993714Y-80217500D01*
X143206286Y-80217500D01*
X143206287Y-80217500D01*
X143416243Y-80184246D01*
X143618412Y-80118557D01*
X143807816Y-80022051D01*
X143893476Y-79959816D01*
X143979786Y-79897109D01*
X143979788Y-79897106D01*
X143979792Y-79897104D01*
X144130104Y-79746792D01*
X144130106Y-79746788D01*
X144130109Y-79746786D01*
X144255048Y-79574820D01*
X144255047Y-79574820D01*
X144255051Y-79574816D01*
X144298015Y-79490493D01*
X144345989Y-79439698D01*
X144413810Y-79422903D01*
X144479945Y-79445440D01*
X144518985Y-79490494D01*
X144561951Y-79574820D01*
X144686890Y-79746786D01*
X144705873Y-79765769D01*
X144739358Y-79827092D01*
X144734374Y-79896784D01*
X144705873Y-79941131D01*
X135668919Y-88978084D01*
X135607596Y-89011569D01*
X135537904Y-89006585D01*
X135481971Y-88964713D01*
X135470752Y-88946695D01*
X135465783Y-88936942D01*
X135460491Y-88926556D01*
X135353085Y-88778724D01*
X135223876Y-88649515D01*
X135076044Y-88542109D01*
X134913231Y-88459152D01*
X134739445Y-88402685D01*
X134739443Y-88402684D01*
X134739441Y-88402684D01*
X134558970Y-88374100D01*
X134558965Y-88374100D01*
X133055435Y-88374100D01*
X133055430Y-88374100D01*
X132874958Y-88402684D01*
X132701166Y-88459153D01*
X132538355Y-88542109D01*
X132390521Y-88649517D01*
X132261317Y-88778721D01*
X132153909Y-88926555D01*
X132070953Y-89089366D01*
X132014484Y-89263158D01*
X131985900Y-89443629D01*
X131985900Y-89626370D01*
X132012412Y-89793757D01*
X132014485Y-89806845D01*
X132070952Y-89980631D01*
X132153909Y-90143444D01*
X132261315Y-90291276D01*
X132390524Y-90420485D01*
X132390527Y-90420487D01*
X132394229Y-90423649D01*
X132393450Y-90424560D01*
X132432694Y-90475466D01*
X132438664Y-90545080D01*
X132406050Y-90606871D01*
X132404818Y-90608120D01*
X131816686Y-91196253D01*
X131704881Y-91308057D01*
X131704879Y-91308060D01*
X131694362Y-91326276D01*
X131667311Y-91373132D01*
X131654761Y-91394869D01*
X131654759Y-91394871D01*
X131625825Y-91444984D01*
X131625824Y-91444985D01*
X131609944Y-91504247D01*
X131584899Y-91597718D01*
X131584899Y-91597720D01*
X131584899Y-91765821D01*
X131584900Y-91765834D01*
X131584900Y-92906530D01*
X131584899Y-92906548D01*
X131584899Y-93072254D01*
X131584898Y-93072254D01*
X131584899Y-93072257D01*
X131625823Y-93224985D01*
X131625824Y-93224987D01*
X131625823Y-93224987D01*
X131632125Y-93235901D01*
X131632126Y-93235902D01*
X131704877Y-93361912D01*
X131704881Y-93361917D01*
X131823749Y-93480785D01*
X131823755Y-93480790D01*
X132161336Y-93818372D01*
X132194821Y-93879695D01*
X132189837Y-93949387D01*
X132173976Y-93978935D01*
X132153909Y-94006555D01*
X132070953Y-94169366D01*
X132014484Y-94343158D01*
X131985900Y-94523629D01*
X131985900Y-94706370D01*
X132011213Y-94866186D01*
X132014485Y-94886845D01*
X132070952Y-95060631D01*
X132153909Y-95223444D01*
X132261315Y-95371276D01*
X132390524Y-95500485D01*
X132538356Y-95607891D01*
X132701169Y-95690848D01*
X132874955Y-95747315D01*
X132919012Y-95754293D01*
X132970997Y-95762527D01*
X133034132Y-95792456D01*
X133071063Y-95851768D01*
X133070065Y-95921631D01*
X133031455Y-95979863D01*
X132970997Y-96007473D01*
X132874958Y-96022684D01*
X132701166Y-96079153D01*
X132538355Y-96162109D01*
X132390521Y-96269517D01*
X132261317Y-96398721D01*
X132153909Y-96546555D01*
X132070953Y-96709366D01*
X132014484Y-96883158D01*
X131985900Y-97063629D01*
X131985900Y-97246370D01*
X132011025Y-97405000D01*
X132014485Y-97426845D01*
X132070952Y-97600631D01*
X132153909Y-97763444D01*
X132171943Y-97788266D01*
X132173975Y-97791063D01*
X132197453Y-97856869D01*
X132181626Y-97924923D01*
X132161336Y-97951627D01*
X130952729Y-99160234D01*
X130952723Y-99160240D01*
X130949286Y-99163678D01*
X130949284Y-99163680D01*
X130837480Y-99275484D01*
X130808151Y-99326284D01*
X130802453Y-99336152D01*
X130802452Y-99336154D01*
X130791475Y-99355167D01*
X130758423Y-99412415D01*
X130717499Y-99565143D01*
X130717499Y-99565145D01*
X130717499Y-99733246D01*
X130717500Y-99733259D01*
X130717500Y-108462703D01*
X130697815Y-108529742D01*
X130681181Y-108550384D01*
X129581584Y-109649981D01*
X129520261Y-109683466D01*
X129493903Y-109686300D01*
X124302898Y-109686300D01*
X124235859Y-109666615D01*
X124215217Y-109649981D01*
X121921819Y-107356583D01*
X121888334Y-107295260D01*
X121885500Y-107268902D01*
X121885500Y-99368585D01*
X121905185Y-99301546D01*
X121957989Y-99255791D01*
X121970489Y-99250881D01*
X122079334Y-99214814D01*
X122228656Y-99122712D01*
X122352712Y-98998656D01*
X122444814Y-98849334D01*
X122499999Y-98682797D01*
X122510500Y-98580009D01*
X122510499Y-97804992D01*
X122499999Y-97702203D01*
X122444814Y-97535666D01*
X122352712Y-97386344D01*
X122228656Y-97262288D01*
X122225819Y-97260538D01*
X122224283Y-97258830D01*
X122222989Y-97257807D01*
X122223163Y-97257585D01*
X122179096Y-97208594D01*
X122167872Y-97139632D01*
X122195713Y-97075549D01*
X122225817Y-97049462D01*
X122228656Y-97047712D01*
X122352712Y-96923656D01*
X122444814Y-96774334D01*
X122499999Y-96607797D01*
X122510500Y-96505009D01*
X122510499Y-95729992D01*
X122506500Y-95690848D01*
X122499999Y-95627203D01*
X122499998Y-95627200D01*
X122466620Y-95526473D01*
X122444814Y-95460666D01*
X122352712Y-95311344D01*
X122228656Y-95187288D01*
X122095793Y-95105338D01*
X122079336Y-95095187D01*
X122079335Y-95095186D01*
X122079334Y-95095186D01*
X122018301Y-95074961D01*
X121970495Y-95059120D01*
X121913050Y-95019347D01*
X121886228Y-94954831D01*
X121885500Y-94941414D01*
X121885500Y-89443629D01*
X124365900Y-89443629D01*
X124365900Y-89626370D01*
X124392412Y-89793757D01*
X124394485Y-89806845D01*
X124450952Y-89980631D01*
X124533909Y-90143444D01*
X124641315Y-90291276D01*
X124770524Y-90420485D01*
X124918356Y-90527891D01*
X125081169Y-90610848D01*
X125254955Y-90667315D01*
X125299012Y-90674293D01*
X125350997Y-90682527D01*
X125414132Y-90712456D01*
X125451063Y-90771768D01*
X125450065Y-90841631D01*
X125411455Y-90899863D01*
X125350997Y-90927473D01*
X125254958Y-90942684D01*
X125081166Y-90999153D01*
X124918355Y-91082109D01*
X124770521Y-91189517D01*
X124641317Y-91318721D01*
X124533909Y-91466555D01*
X124450953Y-91629366D01*
X124394484Y-91803158D01*
X124365900Y-91983629D01*
X124365900Y-92166370D01*
X124394484Y-92346841D01*
X124394485Y-92346845D01*
X124442461Y-92494500D01*
X124450953Y-92520633D01*
X124457778Y-92534027D01*
X124533909Y-92683444D01*
X124641315Y-92831276D01*
X124770524Y-92960485D01*
X124918356Y-93067891D01*
X125081169Y-93150848D01*
X125254955Y-93207315D01*
X125299012Y-93214293D01*
X125350997Y-93222527D01*
X125414132Y-93252456D01*
X125451063Y-93311768D01*
X125450065Y-93381631D01*
X125411455Y-93439863D01*
X125350997Y-93467473D01*
X125254958Y-93482684D01*
X125081166Y-93539153D01*
X124918355Y-93622109D01*
X124770521Y-93729517D01*
X124641317Y-93858721D01*
X124533909Y-94006555D01*
X124450953Y-94169366D01*
X124394484Y-94343158D01*
X124365900Y-94523629D01*
X124365900Y-94706370D01*
X124391213Y-94866186D01*
X124394485Y-94886845D01*
X124450952Y-95060631D01*
X124533909Y-95223444D01*
X124641315Y-95371276D01*
X124770524Y-95500485D01*
X124918356Y-95607891D01*
X125081169Y-95690848D01*
X125254955Y-95747315D01*
X125304339Y-95755136D01*
X125352595Y-95762780D01*
X125415730Y-95792709D01*
X125452661Y-95852021D01*
X125451663Y-95921883D01*
X125413053Y-95980116D01*
X125352596Y-96007726D01*
X125255070Y-96023173D01*
X125081356Y-96079616D01*
X124918617Y-96162537D01*
X124770848Y-96269899D01*
X124770847Y-96269899D01*
X124641699Y-96399047D01*
X124641699Y-96399048D01*
X124534337Y-96546817D01*
X124451416Y-96709558D01*
X124394972Y-96883271D01*
X124391531Y-96904999D01*
X124391532Y-96905000D01*
X125862463Y-96905000D01*
X125861999Y-96905464D01*
X125808495Y-96998135D01*
X125780800Y-97101496D01*
X125780800Y-97208504D01*
X125808495Y-97311865D01*
X125861999Y-97404536D01*
X125862463Y-97405000D01*
X124391532Y-97405000D01*
X124394972Y-97426728D01*
X124451416Y-97600441D01*
X124534337Y-97763182D01*
X124641699Y-97910951D01*
X124641699Y-97910952D01*
X124770847Y-98040100D01*
X124918617Y-98147462D01*
X125081356Y-98230383D01*
X125255070Y-98286826D01*
X125352595Y-98302273D01*
X125415729Y-98332202D01*
X125452661Y-98391513D01*
X125451663Y-98461376D01*
X125413054Y-98519609D01*
X125352596Y-98547219D01*
X125254957Y-98562684D01*
X125081166Y-98619153D01*
X124918355Y-98702109D01*
X124770521Y-98809517D01*
X124641317Y-98938721D01*
X124533909Y-99086555D01*
X124450953Y-99249366D01*
X124394484Y-99423158D01*
X124365900Y-99603629D01*
X124365900Y-99786370D01*
X124391957Y-99950884D01*
X124394485Y-99966845D01*
X124450952Y-100140631D01*
X124533909Y-100303444D01*
X124641315Y-100451276D01*
X124770524Y-100580485D01*
X124918356Y-100687891D01*
X125081169Y-100770848D01*
X125254955Y-100827315D01*
X125299012Y-100834293D01*
X125350997Y-100842527D01*
X125414132Y-100872456D01*
X125451063Y-100931768D01*
X125450065Y-101001631D01*
X125411455Y-101059863D01*
X125350997Y-101087473D01*
X125254958Y-101102684D01*
X125081166Y-101159153D01*
X124918355Y-101242109D01*
X124770521Y-101349517D01*
X124641317Y-101478721D01*
X124533909Y-101626555D01*
X124450953Y-101789366D01*
X124394484Y-101963158D01*
X124365900Y-102143629D01*
X124365900Y-102326370D01*
X124391213Y-102486186D01*
X124394485Y-102506845D01*
X124445677Y-102664397D01*
X124450953Y-102680633D01*
X124499130Y-102775187D01*
X124533909Y-102843444D01*
X124641315Y-102991276D01*
X124770524Y-103120485D01*
X124918356Y-103227891D01*
X125081169Y-103310848D01*
X125254955Y-103367315D01*
X125299012Y-103374293D01*
X125350997Y-103382527D01*
X125414132Y-103412456D01*
X125451063Y-103471768D01*
X125450065Y-103541631D01*
X125411455Y-103599863D01*
X125350997Y-103627473D01*
X125254958Y-103642684D01*
X125081166Y-103699153D01*
X124918355Y-103782109D01*
X124770521Y-103889517D01*
X124641317Y-104018721D01*
X124533909Y-104166555D01*
X124450953Y-104329366D01*
X124394484Y-104503158D01*
X124365900Y-104683629D01*
X124365900Y-104866370D01*
X124394484Y-105046841D01*
X124394484Y-105046843D01*
X124394485Y-105046845D01*
X124450952Y-105220631D01*
X124533909Y-105383444D01*
X124641315Y-105531276D01*
X124770524Y-105660485D01*
X124918356Y-105767891D01*
X125081169Y-105850848D01*
X125254955Y-105907315D01*
X125299012Y-105914293D01*
X125350997Y-105922527D01*
X125414132Y-105952456D01*
X125451063Y-106011768D01*
X125450065Y-106081631D01*
X125411455Y-106139863D01*
X125350997Y-106167473D01*
X125254958Y-106182684D01*
X125081166Y-106239153D01*
X124918355Y-106322109D01*
X124770521Y-106429517D01*
X124641317Y-106558721D01*
X124533909Y-106706555D01*
X124450953Y-106869366D01*
X124394484Y-107043158D01*
X124365900Y-107223629D01*
X124365900Y-107406370D01*
X124394484Y-107586841D01*
X124394485Y-107586845D01*
X124450952Y-107760631D01*
X124533909Y-107923444D01*
X124641315Y-108071276D01*
X124770524Y-108200485D01*
X124918356Y-108307891D01*
X125081169Y-108390848D01*
X125254955Y-108447315D01*
X125307625Y-108455657D01*
X125435430Y-108475900D01*
X125435435Y-108475900D01*
X126938970Y-108475900D01*
X127039231Y-108460019D01*
X127119445Y-108447315D01*
X127293231Y-108390848D01*
X127456044Y-108307891D01*
X127603876Y-108200485D01*
X127733085Y-108071276D01*
X127840491Y-107923444D01*
X127923448Y-107760631D01*
X127979915Y-107586845D01*
X127992717Y-107506014D01*
X128008500Y-107406370D01*
X128008500Y-107223629D01*
X127983187Y-107063814D01*
X127979915Y-107043155D01*
X127923448Y-106869369D01*
X127840491Y-106706556D01*
X127733085Y-106558724D01*
X127603876Y-106429515D01*
X127456044Y-106322109D01*
X127293231Y-106239152D01*
X127119445Y-106182685D01*
X127119443Y-106182684D01*
X127119441Y-106182684D01*
X127023402Y-106167473D01*
X126960267Y-106137544D01*
X126923336Y-106078232D01*
X126924334Y-106008370D01*
X126962944Y-105950137D01*
X127023402Y-105922527D01*
X127060701Y-105916619D01*
X127119445Y-105907315D01*
X127293231Y-105850848D01*
X127456044Y-105767891D01*
X127603876Y-105660485D01*
X127733085Y-105531276D01*
X127840491Y-105383444D01*
X127923448Y-105220631D01*
X127979915Y-105046845D01*
X127992619Y-104966631D01*
X128008500Y-104866370D01*
X128008500Y-104683629D01*
X127985735Y-104539903D01*
X127979915Y-104503155D01*
X127923448Y-104329369D01*
X127840491Y-104166556D01*
X127733085Y-104018724D01*
X127603876Y-103889515D01*
X127456044Y-103782109D01*
X127293231Y-103699152D01*
X127119445Y-103642685D01*
X127119443Y-103642684D01*
X127119441Y-103642684D01*
X127023402Y-103627473D01*
X126960267Y-103597544D01*
X126923336Y-103538232D01*
X126924334Y-103468370D01*
X126962944Y-103410137D01*
X127023402Y-103382527D01*
X127060701Y-103376619D01*
X127119445Y-103367315D01*
X127293231Y-103310848D01*
X127456044Y-103227891D01*
X127603876Y-103120485D01*
X127733085Y-102991276D01*
X127840491Y-102843444D01*
X127923448Y-102680631D01*
X127979915Y-102506845D01*
X127995051Y-102411279D01*
X128008500Y-102326370D01*
X128008500Y-102143629D01*
X127982866Y-101981787D01*
X127979915Y-101963155D01*
X127923448Y-101789369D01*
X127840491Y-101626556D01*
X127733085Y-101478724D01*
X127603876Y-101349515D01*
X127456044Y-101242109D01*
X127293231Y-101159152D01*
X127119445Y-101102685D01*
X127119443Y-101102684D01*
X127119441Y-101102684D01*
X127023402Y-101087473D01*
X126960267Y-101057544D01*
X126923336Y-100998232D01*
X126924334Y-100928370D01*
X126962944Y-100870137D01*
X127023402Y-100842527D01*
X127060701Y-100836619D01*
X127119445Y-100827315D01*
X127293231Y-100770848D01*
X127456044Y-100687891D01*
X127603876Y-100580485D01*
X127733085Y-100451276D01*
X127840491Y-100303444D01*
X127923448Y-100140631D01*
X127979915Y-99966845D01*
X127992619Y-99886631D01*
X128008500Y-99786370D01*
X128008500Y-99603629D01*
X127979915Y-99423158D01*
X127979915Y-99423155D01*
X127923448Y-99249369D01*
X127840491Y-99086556D01*
X127733085Y-98938724D01*
X127603876Y-98809515D01*
X127456044Y-98702109D01*
X127293231Y-98619152D01*
X127119445Y-98562685D01*
X127119443Y-98562684D01*
X127021803Y-98547219D01*
X126958668Y-98517289D01*
X126921738Y-98457977D01*
X126922736Y-98388115D01*
X126961347Y-98329882D01*
X127021805Y-98302273D01*
X127119327Y-98286827D01*
X127119328Y-98286827D01*
X127293043Y-98230383D01*
X127455782Y-98147462D01*
X127603551Y-98040100D01*
X127603552Y-98040100D01*
X127732700Y-97910952D01*
X127732700Y-97910951D01*
X127840062Y-97763182D01*
X127922983Y-97600441D01*
X127979427Y-97426728D01*
X127982868Y-97405000D01*
X126511937Y-97405000D01*
X126512401Y-97404536D01*
X126565905Y-97311865D01*
X126593600Y-97208504D01*
X126593600Y-97101496D01*
X126565905Y-96998135D01*
X126512401Y-96905464D01*
X126511937Y-96905000D01*
X127982868Y-96905000D01*
X127982868Y-96904999D01*
X127979427Y-96883271D01*
X127922983Y-96709558D01*
X127840062Y-96546817D01*
X127732700Y-96399048D01*
X127732700Y-96399047D01*
X127603552Y-96269899D01*
X127455782Y-96162537D01*
X127293043Y-96079616D01*
X127119329Y-96023173D01*
X127021803Y-96007726D01*
X126958669Y-95977796D01*
X126921738Y-95918485D01*
X126922736Y-95848622D01*
X126961346Y-95790390D01*
X127021804Y-95762780D01*
X127053599Y-95757743D01*
X127119445Y-95747315D01*
X127293231Y-95690848D01*
X127456044Y-95607891D01*
X127603876Y-95500485D01*
X127733085Y-95371276D01*
X127840491Y-95223444D01*
X127923448Y-95060631D01*
X127979915Y-94886845D01*
X127992619Y-94806631D01*
X128008500Y-94706370D01*
X128008500Y-94523629D01*
X127979915Y-94343158D01*
X127979915Y-94343155D01*
X127923448Y-94169369D01*
X127840491Y-94006556D01*
X127733085Y-93858724D01*
X127603876Y-93729515D01*
X127456044Y-93622109D01*
X127293233Y-93539153D01*
X127293232Y-93539152D01*
X127293231Y-93539152D01*
X127119445Y-93482685D01*
X127119443Y-93482684D01*
X127119441Y-93482684D01*
X127023402Y-93467473D01*
X126960267Y-93437544D01*
X126923336Y-93378232D01*
X126924334Y-93308370D01*
X126962944Y-93250137D01*
X127023402Y-93222527D01*
X127060701Y-93216619D01*
X127119445Y-93207315D01*
X127293231Y-93150848D01*
X127456044Y-93067891D01*
X127603876Y-92960485D01*
X127733085Y-92831276D01*
X127840491Y-92683444D01*
X127923448Y-92520631D01*
X127979915Y-92346845D01*
X128002493Y-92204292D01*
X128008500Y-92166370D01*
X128008500Y-91983629D01*
X127979915Y-91803158D01*
X127979915Y-91803155D01*
X127923448Y-91629369D01*
X127840491Y-91466556D01*
X127733085Y-91318724D01*
X127603876Y-91189515D01*
X127456044Y-91082109D01*
X127293231Y-90999152D01*
X127119445Y-90942685D01*
X127119443Y-90942684D01*
X127119441Y-90942684D01*
X127023402Y-90927473D01*
X126960267Y-90897544D01*
X126923336Y-90838232D01*
X126924334Y-90768370D01*
X126962944Y-90710137D01*
X127023402Y-90682527D01*
X127060701Y-90676619D01*
X127119445Y-90667315D01*
X127293231Y-90610848D01*
X127456044Y-90527891D01*
X127603876Y-90420485D01*
X127733085Y-90291276D01*
X127840491Y-90143444D01*
X127923448Y-89980631D01*
X127979915Y-89806845D01*
X128001652Y-89669605D01*
X128008500Y-89626370D01*
X128008500Y-89443629D01*
X127984679Y-89293235D01*
X127979915Y-89263155D01*
X127923448Y-89089369D01*
X127840491Y-88926556D01*
X127733085Y-88778724D01*
X127603876Y-88649515D01*
X127456044Y-88542109D01*
X127293231Y-88459152D01*
X127119445Y-88402685D01*
X127119443Y-88402684D01*
X127119441Y-88402684D01*
X126938970Y-88374100D01*
X126938965Y-88374100D01*
X125435435Y-88374100D01*
X125435430Y-88374100D01*
X125254958Y-88402684D01*
X125081166Y-88459153D01*
X124918355Y-88542109D01*
X124770521Y-88649517D01*
X124641317Y-88778721D01*
X124533909Y-88926555D01*
X124450953Y-89089366D01*
X124394484Y-89263158D01*
X124365900Y-89443629D01*
X121885500Y-89443629D01*
X121885500Y-84375945D01*
X121885500Y-84375943D01*
X121844577Y-84223216D01*
X121844573Y-84223209D01*
X121765524Y-84086290D01*
X121765518Y-84086282D01*
X121653717Y-83974481D01*
X121653709Y-83974475D01*
X121516790Y-83895426D01*
X121516786Y-83895424D01*
X121516784Y-83895423D01*
X121364057Y-83854500D01*
X121364056Y-83854500D01*
X116674500Y-83854500D01*
X116607461Y-83834815D01*
X116561706Y-83782011D01*
X116550500Y-83730500D01*
X116550500Y-83588532D01*
X116532882Y-83499964D01*
X116530499Y-83475772D01*
X116530499Y-82214129D01*
X116530498Y-82214123D01*
X116529176Y-82201826D01*
X116524091Y-82154517D01*
X116509283Y-82114816D01*
X116473797Y-82019671D01*
X116473793Y-82019664D01*
X116387547Y-81904455D01*
X116387544Y-81904452D01*
X116272335Y-81818206D01*
X116272328Y-81818202D01*
X116137482Y-81767908D01*
X116137483Y-81767908D01*
X116077883Y-81761501D01*
X116077881Y-81761500D01*
X116077873Y-81761500D01*
X116077864Y-81761500D01*
X114478808Y-81761501D01*
X114478808Y-81760789D01*
X114445395Y-81755676D01*
X114445037Y-81757194D01*
X114437479Y-81755408D01*
X114377883Y-81749001D01*
X114377881Y-81749000D01*
X114377873Y-81749000D01*
X114377864Y-81749000D01*
X113582129Y-81749000D01*
X113582123Y-81749001D01*
X113522516Y-81755408D01*
X113387671Y-81805702D01*
X113387664Y-81805706D01*
X113272455Y-81891952D01*
X113272452Y-81891955D01*
X113186206Y-82007164D01*
X113186202Y-82007171D01*
X113141945Y-82125833D01*
X113100074Y-82181767D01*
X113034610Y-82206184D01*
X113025763Y-82206500D01*
X112567519Y-82206500D01*
X112567514Y-82206500D01*
X112032486Y-82206500D01*
X111984357Y-82214123D01*
X111849734Y-82235445D01*
X111673767Y-82292619D01*
X111673764Y-82292620D01*
X111508903Y-82376622D01*
X111425658Y-82437104D01*
X111359213Y-82485379D01*
X111359211Y-82485381D01*
X111359210Y-82485381D01*
X111228381Y-82616210D01*
X111228381Y-82616211D01*
X111228379Y-82616213D01*
X111197616Y-82658555D01*
X111119622Y-82765903D01*
X111035620Y-82930764D01*
X111035621Y-82930765D01*
X110978445Y-83106734D01*
X110952152Y-83272739D01*
X110949500Y-83289486D01*
X110949500Y-83474514D01*
X110958797Y-83533214D01*
X110978445Y-83657265D01*
X111016433Y-83774182D01*
X111018428Y-83844024D01*
X110982347Y-83903856D01*
X110919646Y-83934684D01*
X110898503Y-83936500D01*
X110732130Y-83936500D01*
X110732123Y-83936501D01*
X110672516Y-83942908D01*
X110657333Y-83948572D01*
X110587641Y-83953556D01*
X110526318Y-83920071D01*
X110492834Y-83858747D01*
X110490000Y-83832390D01*
X110490000Y-75429135D01*
X125949500Y-75429135D01*
X125949500Y-77224870D01*
X125949501Y-77224876D01*
X125955908Y-77284483D01*
X126006202Y-77419328D01*
X126006206Y-77419335D01*
X126092452Y-77534544D01*
X126092455Y-77534547D01*
X126207664Y-77620793D01*
X126207671Y-77620797D01*
X126339082Y-77669810D01*
X126395016Y-77711681D01*
X126419433Y-77777145D01*
X126404582Y-77845418D01*
X126383431Y-77873673D01*
X126269889Y-77987215D01*
X126144951Y-78159179D01*
X126048444Y-78348585D01*
X126048443Y-78348587D01*
X126048443Y-78348588D01*
X126045001Y-78359180D01*
X125982753Y-78550760D01*
X125949500Y-78760713D01*
X125949500Y-78973287D01*
X125982754Y-79183243D01*
X126048147Y-79384502D01*
X126048444Y-79385414D01*
X126144951Y-79574820D01*
X126269890Y-79746786D01*
X126420213Y-79897109D01*
X126592179Y-80022048D01*
X126592181Y-80022049D01*
X126592184Y-80022051D01*
X126781588Y-80118557D01*
X126983757Y-80184246D01*
X127193713Y-80217500D01*
X127193714Y-80217500D01*
X127406286Y-80217500D01*
X127406287Y-80217500D01*
X127616243Y-80184246D01*
X127818412Y-80118557D01*
X128007816Y-80022051D01*
X128093476Y-79959816D01*
X128179786Y-79897109D01*
X128179788Y-79897106D01*
X128179792Y-79897104D01*
X128330104Y-79746792D01*
X128330106Y-79746788D01*
X128330109Y-79746786D01*
X128455048Y-79574820D01*
X128455047Y-79574820D01*
X128455051Y-79574816D01*
X128500515Y-79485586D01*
X128548489Y-79434791D01*
X128616310Y-79417996D01*
X128682445Y-79440533D01*
X128721484Y-79485585D01*
X128751663Y-79544816D01*
X128766951Y-79574820D01*
X128891890Y-79746786D01*
X129042213Y-79897109D01*
X129214182Y-80022050D01*
X129222946Y-80026516D01*
X129273742Y-80074491D01*
X129290536Y-80142312D01*
X129267998Y-80208447D01*
X129222946Y-80247484D01*
X129214182Y-80251949D01*
X129042213Y-80376890D01*
X128891890Y-80527213D01*
X128766951Y-80699179D01*
X128670444Y-80888585D01*
X128604753Y-81090760D01*
X128589000Y-81190223D01*
X128571500Y-81300713D01*
X128571500Y-81513287D01*
X128604754Y-81723243D01*
X128663633Y-81904454D01*
X128670444Y-81925414D01*
X128766951Y-82114820D01*
X128891890Y-82286786D01*
X129042213Y-82437109D01*
X129214184Y-82562051D01*
X129214184Y-82562052D01*
X129253793Y-82582233D01*
X129304590Y-82630206D01*
X129321500Y-82692718D01*
X129321500Y-89195330D01*
X129321499Y-89195348D01*
X129321499Y-89361054D01*
X129321498Y-89361054D01*
X129362423Y-89513787D01*
X129365060Y-89520151D01*
X129374500Y-89567606D01*
X129374500Y-89613846D01*
X129405261Y-89768489D01*
X129405264Y-89768501D01*
X129465602Y-89914172D01*
X129465609Y-89914185D01*
X129553210Y-90045288D01*
X129553213Y-90045292D01*
X129664707Y-90156786D01*
X129664711Y-90156789D01*
X129795814Y-90244390D01*
X129795827Y-90244397D01*
X129941498Y-90304735D01*
X129941503Y-90304737D01*
X130096153Y-90335499D01*
X130096156Y-90335500D01*
X130096158Y-90335500D01*
X130253844Y-90335500D01*
X130253845Y-90335499D01*
X130408497Y-90304737D01*
X130554179Y-90244394D01*
X130685289Y-90156789D01*
X130796789Y-90045289D01*
X130884394Y-89914179D01*
X130944737Y-89768497D01*
X130975500Y-89613842D01*
X130975500Y-89456158D01*
X130975500Y-89456155D01*
X130975499Y-89456153D01*
X130956583Y-89361057D01*
X130944737Y-89301503D01*
X130942089Y-89295109D01*
X130884397Y-89155827D01*
X130884390Y-89155814D01*
X130796789Y-89024711D01*
X130796786Y-89024707D01*
X130685292Y-88913213D01*
X130685288Y-88913210D01*
X130577609Y-88841260D01*
X130532804Y-88787647D01*
X130522500Y-88738158D01*
X130522500Y-82692718D01*
X130542185Y-82625679D01*
X130590207Y-82582233D01*
X130629815Y-82562052D01*
X130629815Y-82562051D01*
X130629816Y-82562051D01*
X130735347Y-82485379D01*
X130801786Y-82437109D01*
X130801788Y-82437106D01*
X130801792Y-82437104D01*
X130952104Y-82286792D01*
X130952106Y-82286788D01*
X130952109Y-82286786D01*
X131077048Y-82114820D01*
X131077049Y-82114819D01*
X131077051Y-82114816D01*
X131144515Y-81982409D01*
X131192489Y-81931614D01*
X131260310Y-81914819D01*
X131326445Y-81937356D01*
X131365485Y-81982410D01*
X131432951Y-82114820D01*
X131557890Y-82286786D01*
X131708213Y-82437109D01*
X131880179Y-82562048D01*
X131880181Y-82562049D01*
X131880184Y-82562051D01*
X132069588Y-82658557D01*
X132271757Y-82724246D01*
X132481713Y-82757500D01*
X132481714Y-82757500D01*
X132694286Y-82757500D01*
X132694287Y-82757500D01*
X132904243Y-82724246D01*
X132976183Y-82700870D01*
X133046023Y-82698876D01*
X133105856Y-82734956D01*
X133136684Y-82797657D01*
X133138500Y-82818802D01*
X133138500Y-83765903D01*
X133118815Y-83832942D01*
X133102181Y-83853584D01*
X132065339Y-84890425D01*
X132004016Y-84923910D01*
X132001850Y-84924361D01*
X131846508Y-84955261D01*
X131846498Y-84955264D01*
X131700827Y-85015602D01*
X131700814Y-85015609D01*
X131569711Y-85103210D01*
X131569707Y-85103213D01*
X131458213Y-85214707D01*
X131458210Y-85214711D01*
X131370609Y-85345814D01*
X131370602Y-85345827D01*
X131310264Y-85491498D01*
X131310261Y-85491510D01*
X131279500Y-85646153D01*
X131279500Y-85803846D01*
X131310261Y-85958489D01*
X131310264Y-85958501D01*
X131370602Y-86104172D01*
X131370609Y-86104185D01*
X131458210Y-86235288D01*
X131458213Y-86235292D01*
X131569707Y-86346786D01*
X131569711Y-86346789D01*
X131700814Y-86434390D01*
X131700827Y-86434397D01*
X131770901Y-86463422D01*
X131846503Y-86494737D01*
X131943993Y-86514129D01*
X132001153Y-86525499D01*
X132001156Y-86525500D01*
X132001158Y-86525500D01*
X132158844Y-86525500D01*
X132158845Y-86525499D01*
X132313497Y-86494737D01*
X132426166Y-86448067D01*
X132459172Y-86434397D01*
X132459172Y-86434396D01*
X132459179Y-86434394D01*
X132590289Y-86346789D01*
X132701789Y-86235289D01*
X132789394Y-86104179D01*
X132849737Y-85958497D01*
X132874955Y-85831717D01*
X132880638Y-85803150D01*
X132913023Y-85741239D01*
X132914520Y-85739714D01*
X134097506Y-84556727D01*
X134097511Y-84556724D01*
X134107714Y-84546520D01*
X134107716Y-84546520D01*
X134219520Y-84434716D01*
X134283108Y-84324577D01*
X134298577Y-84297785D01*
X134339500Y-84145058D01*
X134339500Y-83986943D01*
X134339500Y-80146604D01*
X134359185Y-80079565D01*
X134411989Y-80033810D01*
X134481147Y-80023866D01*
X134519792Y-80036118D01*
X134681588Y-80118557D01*
X134883757Y-80184246D01*
X135093713Y-80217500D01*
X135093714Y-80217500D01*
X135306286Y-80217500D01*
X135306287Y-80217500D01*
X135516243Y-80184246D01*
X135718412Y-80118557D01*
X135907816Y-80022051D01*
X135993476Y-79959816D01*
X136079786Y-79897109D01*
X136079788Y-79897106D01*
X136079792Y-79897104D01*
X136230104Y-79746792D01*
X136230106Y-79746788D01*
X136230109Y-79746786D01*
X136355048Y-79574820D01*
X136355047Y-79574820D01*
X136355051Y-79574816D01*
X136451557Y-79385412D01*
X136517246Y-79183243D01*
X136550500Y-78973287D01*
X136550500Y-78760713D01*
X136517246Y-78550757D01*
X136451557Y-78348588D01*
X136355051Y-78159184D01*
X136355049Y-78159181D01*
X136355048Y-78159179D01*
X136230109Y-77987213D01*
X136116569Y-77873673D01*
X136083084Y-77812350D01*
X136088068Y-77742658D01*
X136129940Y-77686725D01*
X136160915Y-77669810D01*
X136292331Y-77620796D01*
X136407546Y-77534546D01*
X136493796Y-77419331D01*
X136544091Y-77284483D01*
X136550500Y-77224873D01*
X136550499Y-75429128D01*
X136544091Y-75369517D01*
X136499050Y-75248757D01*
X136493797Y-75234671D01*
X136493793Y-75234664D01*
X136407547Y-75119455D01*
X136407544Y-75119452D01*
X136292335Y-75033206D01*
X136292328Y-75033202D01*
X136157482Y-74982908D01*
X136157483Y-74982908D01*
X136097883Y-74976501D01*
X136097881Y-74976500D01*
X136097873Y-74976500D01*
X136097864Y-74976500D01*
X134302129Y-74976500D01*
X134302123Y-74976501D01*
X134242516Y-74982908D01*
X134107671Y-75033202D01*
X134107664Y-75033206D01*
X133992455Y-75119452D01*
X133992452Y-75119455D01*
X133906206Y-75234664D01*
X133906202Y-75234671D01*
X133855908Y-75369516D01*
X133852387Y-75402272D01*
X133825649Y-75466823D01*
X133768256Y-75506671D01*
X133698431Y-75509164D01*
X133638342Y-75473511D01*
X133628780Y-75461901D01*
X133618109Y-75447214D01*
X133618105Y-75447209D01*
X133467786Y-75296890D01*
X133295820Y-75171951D01*
X133295115Y-75171591D01*
X133287054Y-75167485D01*
X133236259Y-75119512D01*
X133219463Y-75051692D01*
X133241999Y-74985556D01*
X133287054Y-74946515D01*
X133295816Y-74942051D01*
X133407194Y-74861131D01*
X133467786Y-74817109D01*
X133467788Y-74817106D01*
X133467792Y-74817104D01*
X133618104Y-74666792D01*
X133618106Y-74666788D01*
X133618109Y-74666786D01*
X133743048Y-74494820D01*
X133743047Y-74494820D01*
X133743051Y-74494816D01*
X133839557Y-74305412D01*
X133905246Y-74103243D01*
X133938500Y-73893287D01*
X133938500Y-73680713D01*
X133905246Y-73470757D01*
X133839557Y-73268588D01*
X133743051Y-73079184D01*
X133743049Y-73079181D01*
X133743048Y-73079179D01*
X133618109Y-72907213D01*
X133504569Y-72793673D01*
X133471084Y-72732350D01*
X133476068Y-72662658D01*
X133517940Y-72606725D01*
X133548915Y-72589810D01*
X133680331Y-72540796D01*
X133795546Y-72454546D01*
X133881796Y-72339331D01*
X133932091Y-72204483D01*
X133938500Y-72144873D01*
X133938499Y-70349128D01*
X133932091Y-70289517D01*
X133881796Y-70154669D01*
X133881795Y-70154668D01*
X133881793Y-70154664D01*
X133795547Y-70039455D01*
X133795544Y-70039452D01*
X133680335Y-69953206D01*
X133680328Y-69953202D01*
X133545482Y-69902908D01*
X133545483Y-69902908D01*
X133485883Y-69896501D01*
X133485881Y-69896500D01*
X133485873Y-69896500D01*
X133485864Y-69896500D01*
X131690129Y-69896500D01*
X131690123Y-69896501D01*
X131630516Y-69902908D01*
X131495671Y-69953202D01*
X131495664Y-69953206D01*
X131380455Y-70039452D01*
X131354266Y-70074436D01*
X131298331Y-70116307D01*
X131228639Y-70121290D01*
X131167317Y-70087803D01*
X131155734Y-70074436D01*
X131143230Y-70057734D01*
X131129546Y-70039454D01*
X131129544Y-70039453D01*
X131129544Y-70039452D01*
X131014335Y-69953206D01*
X131014328Y-69953202D01*
X130879482Y-69902908D01*
X130879483Y-69902908D01*
X130819883Y-69896501D01*
X130819881Y-69896500D01*
X130819873Y-69896500D01*
X130819864Y-69896500D01*
X129024129Y-69896500D01*
X129024123Y-69896501D01*
X128964516Y-69902908D01*
X128829671Y-69953202D01*
X128829664Y-69953206D01*
X128714455Y-70039452D01*
X128714452Y-70039455D01*
X128628206Y-70154664D01*
X128628202Y-70154671D01*
X128577908Y-70289517D01*
X128571501Y-70349116D01*
X128571501Y-70349123D01*
X128571500Y-70349135D01*
X128571500Y-72144870D01*
X128571501Y-72144876D01*
X128577908Y-72204483D01*
X128628202Y-72339328D01*
X128628206Y-72339335D01*
X128714452Y-72454544D01*
X128714455Y-72454547D01*
X128829664Y-72540793D01*
X128829671Y-72540797D01*
X128961082Y-72589810D01*
X129017016Y-72631681D01*
X129041433Y-72697145D01*
X129026582Y-72765418D01*
X129005431Y-72793673D01*
X128891889Y-72907215D01*
X128766951Y-73079179D01*
X128670444Y-73268585D01*
X128604753Y-73470760D01*
X128571500Y-73680713D01*
X128571500Y-73893286D01*
X128604753Y-74103239D01*
X128604753Y-74103241D01*
X128604754Y-74103243D01*
X128665335Y-74289692D01*
X128670444Y-74305414D01*
X128766951Y-74494820D01*
X128891890Y-74666786D01*
X129042213Y-74817109D01*
X129214182Y-74942050D01*
X129222946Y-74946516D01*
X129273742Y-74994491D01*
X129290536Y-75062312D01*
X129267998Y-75128447D01*
X129222946Y-75167484D01*
X129214182Y-75171949D01*
X129042213Y-75296890D01*
X128891892Y-75447211D01*
X128872507Y-75473893D01*
X128817177Y-75516558D01*
X128747563Y-75522536D01*
X128685769Y-75489929D01*
X128651412Y-75429090D01*
X128648901Y-75414266D01*
X128644091Y-75369517D01*
X128599050Y-75248757D01*
X128593797Y-75234671D01*
X128593793Y-75234664D01*
X128507547Y-75119455D01*
X128507544Y-75119452D01*
X128392335Y-75033206D01*
X128392328Y-75033202D01*
X128257482Y-74982908D01*
X128257483Y-74982908D01*
X128197883Y-74976501D01*
X128197881Y-74976500D01*
X128197873Y-74976500D01*
X128197864Y-74976500D01*
X126402129Y-74976500D01*
X126402123Y-74976501D01*
X126342516Y-74982908D01*
X126207671Y-75033202D01*
X126207664Y-75033206D01*
X126092455Y-75119452D01*
X126092452Y-75119455D01*
X126006206Y-75234664D01*
X126006202Y-75234671D01*
X125955908Y-75369517D01*
X125950148Y-75423096D01*
X125949501Y-75429123D01*
X125949500Y-75429135D01*
X110490000Y-75429135D01*
X110490000Y-71881248D01*
X112999500Y-71881248D01*
X112999500Y-72085951D01*
X113031522Y-72288134D01*
X113094781Y-72482823D01*
X113187715Y-72665213D01*
X113308028Y-72830813D01*
X113452786Y-72975571D01*
X113595400Y-73079184D01*
X113618390Y-73095887D01*
X113731627Y-73153584D01*
X113800776Y-73188818D01*
X113800778Y-73188818D01*
X113800781Y-73188820D01*
X113867570Y-73210521D01*
X113995465Y-73252077D01*
X114060547Y-73262385D01*
X114197648Y-73284100D01*
X114197649Y-73284100D01*
X114402351Y-73284100D01*
X114402352Y-73284100D01*
X114604534Y-73252077D01*
X114799219Y-73188820D01*
X114981610Y-73095887D01*
X115110482Y-73002257D01*
X115147213Y-72975571D01*
X115147215Y-72975568D01*
X115147219Y-72975566D01*
X115291966Y-72830819D01*
X115291968Y-72830815D01*
X115291971Y-72830813D01*
X115363507Y-72732350D01*
X115412287Y-72665210D01*
X115505220Y-72482819D01*
X115568477Y-72288134D01*
X115600500Y-72085952D01*
X115600500Y-71881248D01*
X115568477Y-71679066D01*
X115505220Y-71484381D01*
X115505218Y-71484378D01*
X115505218Y-71484376D01*
X115480940Y-71436729D01*
X115453861Y-71383583D01*
X116499500Y-71383583D01*
X116499500Y-72583601D01*
X116499501Y-72583618D01*
X116510000Y-72686396D01*
X116510001Y-72686399D01*
X116565185Y-72852931D01*
X116565187Y-72852936D01*
X116576516Y-72871303D01*
X116657288Y-73002256D01*
X116781344Y-73126312D01*
X116930666Y-73218414D01*
X117097203Y-73273599D01*
X117199991Y-73284100D01*
X118400008Y-73284099D01*
X118502797Y-73273599D01*
X118669334Y-73218414D01*
X118818656Y-73126312D01*
X118942712Y-73002256D01*
X119034814Y-72852934D01*
X119089999Y-72686397D01*
X119100500Y-72583609D01*
X119100499Y-71383592D01*
X119089999Y-71280803D01*
X119034814Y-71114266D01*
X118942712Y-70964944D01*
X118818656Y-70840888D01*
X118669334Y-70748786D01*
X118502797Y-70693601D01*
X118502795Y-70693600D01*
X118400010Y-70683100D01*
X117199998Y-70683100D01*
X117199981Y-70683101D01*
X117097203Y-70693600D01*
X117097200Y-70693601D01*
X116930668Y-70748785D01*
X116930663Y-70748787D01*
X116781342Y-70840889D01*
X116657289Y-70964942D01*
X116565187Y-71114263D01*
X116565186Y-71114266D01*
X116510001Y-71280803D01*
X116510001Y-71280804D01*
X116510000Y-71280804D01*
X116499500Y-71383583D01*
X115453861Y-71383583D01*
X115412284Y-71301985D01*
X115291971Y-71136386D01*
X115147213Y-70991628D01*
X114981613Y-70871315D01*
X114981612Y-70871314D01*
X114981610Y-70871313D01*
X114891234Y-70825264D01*
X114799223Y-70778381D01*
X114604534Y-70715122D01*
X114429995Y-70687478D01*
X114402352Y-70683100D01*
X114197648Y-70683100D01*
X114173329Y-70686951D01*
X113995465Y-70715122D01*
X113800776Y-70778381D01*
X113618386Y-70871315D01*
X113452786Y-70991628D01*
X113308028Y-71136386D01*
X113187715Y-71301986D01*
X113094781Y-71484376D01*
X113031522Y-71679065D01*
X112999500Y-71881248D01*
X110490000Y-71881248D01*
X110490000Y-67960549D01*
X123851700Y-67960549D01*
X123851700Y-68183450D01*
X123851701Y-68183466D01*
X123880794Y-68404452D01*
X123880795Y-68404457D01*
X123880796Y-68404463D01*
X123914826Y-68531465D01*
X123938490Y-68619780D01*
X123938493Y-68619790D01*
X124013272Y-68800322D01*
X124023795Y-68825726D01*
X124135252Y-69018774D01*
X124135257Y-69018780D01*
X124135258Y-69018782D01*
X124270951Y-69195622D01*
X124270957Y-69195629D01*
X124428570Y-69353242D01*
X124428577Y-69353248D01*
X124554494Y-69449867D01*
X124605426Y-69488948D01*
X124798474Y-69600405D01*
X125004419Y-69685710D01*
X125219737Y-69743404D01*
X125440743Y-69772500D01*
X125440750Y-69772500D01*
X125663650Y-69772500D01*
X125663657Y-69772500D01*
X125884663Y-69743404D01*
X126099981Y-69685710D01*
X126305926Y-69600405D01*
X126498974Y-69488948D01*
X126675824Y-69353247D01*
X126833447Y-69195624D01*
X126969148Y-69018774D01*
X127080605Y-68825726D01*
X127165910Y-68619781D01*
X127223604Y-68404463D01*
X127252700Y-68183457D01*
X127252700Y-67960549D01*
X139650500Y-67960549D01*
X139650500Y-68183450D01*
X139650501Y-68183466D01*
X139679594Y-68404452D01*
X139679595Y-68404457D01*
X139679596Y-68404463D01*
X139713626Y-68531465D01*
X139737290Y-68619780D01*
X139737293Y-68619790D01*
X139812072Y-68800322D01*
X139822595Y-68825726D01*
X139934052Y-69018774D01*
X139934057Y-69018780D01*
X139934058Y-69018782D01*
X140069751Y-69195622D01*
X140069757Y-69195629D01*
X140227370Y-69353242D01*
X140227377Y-69353248D01*
X140353294Y-69449867D01*
X140404226Y-69488948D01*
X140597274Y-69600405D01*
X140803219Y-69685710D01*
X141018537Y-69743404D01*
X141239543Y-69772500D01*
X141239550Y-69772500D01*
X141462450Y-69772500D01*
X141462457Y-69772500D01*
X141683463Y-69743404D01*
X141898781Y-69685710D01*
X142104726Y-69600405D01*
X142297774Y-69488948D01*
X142474624Y-69353247D01*
X142632247Y-69195624D01*
X142767948Y-69018774D01*
X142879405Y-68825726D01*
X142964710Y-68619781D01*
X143022404Y-68404463D01*
X143051500Y-68183457D01*
X143051500Y-68087549D01*
X155373100Y-68087549D01*
X155373100Y-68310450D01*
X155373101Y-68310466D01*
X155402194Y-68531452D01*
X155402195Y-68531457D01*
X155402196Y-68531463D01*
X155425861Y-68619781D01*
X155459890Y-68746780D01*
X155459893Y-68746790D01*
X155545193Y-68952722D01*
X155545195Y-68952726D01*
X155656652Y-69145774D01*
X155656657Y-69145780D01*
X155656658Y-69145782D01*
X155792351Y-69322622D01*
X155792357Y-69322629D01*
X155949970Y-69480242D01*
X155949977Y-69480248D01*
X156011580Y-69527517D01*
X156126826Y-69615948D01*
X156319874Y-69727405D01*
X156525819Y-69812710D01*
X156741137Y-69870404D01*
X156962143Y-69899500D01*
X156962150Y-69899500D01*
X157185050Y-69899500D01*
X157185057Y-69899500D01*
X157406063Y-69870404D01*
X157621381Y-69812710D01*
X157827326Y-69727405D01*
X158020374Y-69615948D01*
X158197224Y-69480247D01*
X158354847Y-69322624D01*
X158490548Y-69145774D01*
X158602005Y-68952726D01*
X158687310Y-68746781D01*
X158745004Y-68531463D01*
X158774100Y-68310457D01*
X158774100Y-68087543D01*
X158745004Y-67866537D01*
X158687310Y-67651219D01*
X158602005Y-67445274D01*
X158490548Y-67252226D01*
X158354847Y-67075376D01*
X158354842Y-67075370D01*
X158197229Y-66917757D01*
X158197222Y-66917751D01*
X158020382Y-66782058D01*
X158020380Y-66782057D01*
X158020374Y-66782052D01*
X157827326Y-66670595D01*
X157827322Y-66670593D01*
X157621390Y-66585293D01*
X157621383Y-66585291D01*
X157621381Y-66585290D01*
X157406063Y-66527596D01*
X157406057Y-66527595D01*
X157406052Y-66527594D01*
X157185066Y-66498501D01*
X157185063Y-66498500D01*
X157185057Y-66498500D01*
X156962143Y-66498500D01*
X156962137Y-66498500D01*
X156962133Y-66498501D01*
X156741147Y-66527594D01*
X156741140Y-66527595D01*
X156741137Y-66527596D01*
X156681428Y-66543595D01*
X156525819Y-66585290D01*
X156525809Y-66585293D01*
X156319877Y-66670593D01*
X156319873Y-66670595D01*
X156126826Y-66782052D01*
X156126817Y-66782058D01*
X155949977Y-66917751D01*
X155949970Y-66917757D01*
X155792357Y-67075370D01*
X155792351Y-67075377D01*
X155656658Y-67252217D01*
X155656652Y-67252226D01*
X155545195Y-67445273D01*
X155545193Y-67445277D01*
X155459893Y-67651209D01*
X155459890Y-67651219D01*
X155402197Y-67866534D01*
X155402194Y-67866547D01*
X155373101Y-68087533D01*
X155373100Y-68087549D01*
X143051500Y-68087549D01*
X143051500Y-67960543D01*
X143022404Y-67739537D01*
X142964710Y-67524219D01*
X142879405Y-67318274D01*
X142767948Y-67125226D01*
X142632247Y-66948376D01*
X142632242Y-66948370D01*
X142474629Y-66790757D01*
X142474622Y-66790751D01*
X142297782Y-66655058D01*
X142297780Y-66655057D01*
X142297774Y-66655052D01*
X142104726Y-66543595D01*
X142104722Y-66543593D01*
X141898790Y-66458293D01*
X141898783Y-66458291D01*
X141898781Y-66458290D01*
X141683463Y-66400596D01*
X141683457Y-66400595D01*
X141683452Y-66400594D01*
X141462466Y-66371501D01*
X141462463Y-66371500D01*
X141462457Y-66371500D01*
X141239543Y-66371500D01*
X141239537Y-66371500D01*
X141239533Y-66371501D01*
X141018547Y-66400594D01*
X141018540Y-66400595D01*
X141018537Y-66400596D01*
X140803219Y-66458290D01*
X140803209Y-66458293D01*
X140597277Y-66543593D01*
X140597273Y-66543595D01*
X140404226Y-66655052D01*
X140404217Y-66655058D01*
X140227377Y-66790751D01*
X140227370Y-66790757D01*
X140069757Y-66948370D01*
X140069751Y-66948377D01*
X139934058Y-67125217D01*
X139934052Y-67125226D01*
X139822595Y-67318273D01*
X139822593Y-67318277D01*
X139737293Y-67524209D01*
X139737290Y-67524219D01*
X139679597Y-67739534D01*
X139679594Y-67739547D01*
X139650501Y-67960533D01*
X139650500Y-67960549D01*
X127252700Y-67960549D01*
X127252700Y-67960543D01*
X127223604Y-67739537D01*
X127165910Y-67524219D01*
X127080605Y-67318274D01*
X126969148Y-67125226D01*
X126833447Y-66948376D01*
X126833442Y-66948370D01*
X126675829Y-66790757D01*
X126675822Y-66790751D01*
X126498982Y-66655058D01*
X126498980Y-66655057D01*
X126498974Y-66655052D01*
X126305926Y-66543595D01*
X126305922Y-66543593D01*
X126099990Y-66458293D01*
X126099983Y-66458291D01*
X126099981Y-66458290D01*
X125884663Y-66400596D01*
X125884657Y-66400595D01*
X125884652Y-66400594D01*
X125663666Y-66371501D01*
X125663663Y-66371500D01*
X125663657Y-66371500D01*
X125440743Y-66371500D01*
X125440737Y-66371500D01*
X125440733Y-66371501D01*
X125219747Y-66400594D01*
X125219740Y-66400595D01*
X125219737Y-66400596D01*
X125004419Y-66458290D01*
X125004409Y-66458293D01*
X124798477Y-66543593D01*
X124798473Y-66543595D01*
X124605426Y-66655052D01*
X124605417Y-66655058D01*
X124428577Y-66790751D01*
X124428570Y-66790757D01*
X124270957Y-66948370D01*
X124270951Y-66948377D01*
X124135258Y-67125217D01*
X124135252Y-67125226D01*
X124023795Y-67318273D01*
X124023793Y-67318277D01*
X123938493Y-67524209D01*
X123938490Y-67524219D01*
X123880797Y-67739534D01*
X123880794Y-67739547D01*
X123851701Y-67960533D01*
X123851700Y-67960549D01*
X110490000Y-67960549D01*
X110490000Y-63386241D01*
X111663000Y-63386241D01*
X111663000Y-63635358D01*
X111663001Y-63635375D01*
X111695517Y-63882361D01*
X111759998Y-64123007D01*
X111855330Y-64353161D01*
X111855337Y-64353176D01*
X111979900Y-64568926D01*
X112131560Y-64766574D01*
X112131566Y-64766581D01*
X112307718Y-64942733D01*
X112307725Y-64942739D01*
X112505373Y-65094399D01*
X112721123Y-65218962D01*
X112721138Y-65218969D01*
X112820325Y-65260053D01*
X112951293Y-65314302D01*
X113191935Y-65378782D01*
X113438935Y-65411300D01*
X113438942Y-65411300D01*
X113688058Y-65411300D01*
X113688065Y-65411300D01*
X113935065Y-65378782D01*
X114175707Y-65314302D01*
X114405873Y-65218964D01*
X114621627Y-65094399D01*
X114819276Y-64942738D01*
X114995438Y-64766576D01*
X115147099Y-64568927D01*
X115271664Y-64353173D01*
X115367002Y-64123007D01*
X115431482Y-63882365D01*
X115464000Y-63635365D01*
X115464000Y-63386235D01*
X115431482Y-63139235D01*
X115367002Y-62898593D01*
X115271664Y-62668427D01*
X115147099Y-62452673D01*
X114995438Y-62255024D01*
X114995433Y-62255018D01*
X114819281Y-62078866D01*
X114819274Y-62078860D01*
X114621626Y-61927200D01*
X114405876Y-61802637D01*
X114405861Y-61802630D01*
X114175707Y-61707298D01*
X113935061Y-61642817D01*
X113688075Y-61610301D01*
X113688070Y-61610300D01*
X113688065Y-61610300D01*
X113438935Y-61610300D01*
X113438929Y-61610300D01*
X113438924Y-61610301D01*
X113191938Y-61642817D01*
X112951292Y-61707298D01*
X112721138Y-61802630D01*
X112721123Y-61802637D01*
X112505373Y-61927200D01*
X112307725Y-62078860D01*
X112307718Y-62078866D01*
X112131566Y-62255018D01*
X112131560Y-62255025D01*
X111979900Y-62452673D01*
X111855337Y-62668423D01*
X111855330Y-62668438D01*
X111759998Y-62898592D01*
X111695517Y-63139238D01*
X111663001Y-63386224D01*
X111663000Y-63386241D01*
X110490000Y-63386241D01*
X110490000Y-57310814D01*
X111663500Y-57310814D01*
X111663500Y-58260800D01*
X112909379Y-58260800D01*
X112890401Y-58306618D01*
X112863500Y-58441856D01*
X112863500Y-58579744D01*
X112890401Y-58714982D01*
X112909379Y-58760800D01*
X111663500Y-58760800D01*
X111663500Y-59710785D01*
X111673993Y-59813489D01*
X111673994Y-59813496D01*
X111729141Y-59979918D01*
X111729143Y-59979923D01*
X111821184Y-60129144D01*
X111945155Y-60253115D01*
X112094376Y-60345156D01*
X112094381Y-60345158D01*
X112260803Y-60400305D01*
X112260810Y-60400306D01*
X112363514Y-60410799D01*
X112363527Y-60410800D01*
X113313500Y-60410800D01*
X113313500Y-59164920D01*
X113359318Y-59183899D01*
X113494556Y-59210800D01*
X113632444Y-59210800D01*
X113767682Y-59183899D01*
X113813500Y-59164920D01*
X113813500Y-60410800D01*
X114763473Y-60410800D01*
X114763485Y-60410799D01*
X114866189Y-60400306D01*
X114866196Y-60400305D01*
X115032618Y-60345158D01*
X115032623Y-60345156D01*
X115181844Y-60253115D01*
X115305815Y-60129144D01*
X115397856Y-59979923D01*
X115397858Y-59979918D01*
X115453005Y-59813496D01*
X115453006Y-59813489D01*
X115463499Y-59710785D01*
X115463500Y-59710772D01*
X115463500Y-58760800D01*
X114217621Y-58760800D01*
X114236599Y-58714982D01*
X114263500Y-58579744D01*
X114263500Y-58441856D01*
X114236599Y-58306618D01*
X114217621Y-58260800D01*
X115463500Y-58260800D01*
X115463500Y-57310827D01*
X115463499Y-57310814D01*
X115453006Y-57208110D01*
X115453005Y-57208103D01*
X115397858Y-57041681D01*
X115397856Y-57041676D01*
X115305815Y-56892455D01*
X115181844Y-56768484D01*
X115032623Y-56676443D01*
X115032618Y-56676441D01*
X114866196Y-56621294D01*
X114866189Y-56621293D01*
X114763485Y-56610800D01*
X113813500Y-56610800D01*
X113813500Y-57856679D01*
X113767682Y-57837701D01*
X113632444Y-57810800D01*
X113494556Y-57810800D01*
X113359318Y-57837701D01*
X113313500Y-57856679D01*
X113313500Y-56610800D01*
X112363514Y-56610800D01*
X112260810Y-56621293D01*
X112260803Y-56621294D01*
X112094381Y-56676441D01*
X112094376Y-56676443D01*
X111945155Y-56768484D01*
X111821184Y-56892455D01*
X111729143Y-57041676D01*
X111729141Y-57041681D01*
X111673994Y-57208103D01*
X111673993Y-57208110D01*
X111663500Y-57310814D01*
X110490000Y-57310814D01*
X110490000Y-48530535D01*
X112670100Y-48530535D01*
X112670100Y-50326270D01*
X112670101Y-50326276D01*
X112676508Y-50385883D01*
X112726802Y-50520728D01*
X112726806Y-50520735D01*
X112813052Y-50635944D01*
X112813055Y-50635947D01*
X112928264Y-50722193D01*
X112928271Y-50722197D01*
X113059682Y-50771210D01*
X113115616Y-50813081D01*
X113140033Y-50878545D01*
X113125182Y-50946818D01*
X113104031Y-50975073D01*
X112990489Y-51088615D01*
X112865551Y-51260579D01*
X112769044Y-51449985D01*
X112703353Y-51652160D01*
X112670100Y-51862113D01*
X112670100Y-52074686D01*
X112703353Y-52284639D01*
X112769044Y-52486814D01*
X112865551Y-52676220D01*
X112990490Y-52848186D01*
X113140813Y-52998509D01*
X113312779Y-53123448D01*
X113312781Y-53123449D01*
X113312784Y-53123451D01*
X113502188Y-53219957D01*
X113704357Y-53285646D01*
X113914313Y-53318900D01*
X113914314Y-53318900D01*
X114126886Y-53318900D01*
X114126887Y-53318900D01*
X114336843Y-53285646D01*
X114539012Y-53219957D01*
X114728416Y-53123451D01*
X114750389Y-53107486D01*
X114900386Y-52998509D01*
X114900388Y-52998506D01*
X114900392Y-52998504D01*
X115050704Y-52848192D01*
X115050706Y-52848188D01*
X115050709Y-52848186D01*
X115175648Y-52676220D01*
X115175647Y-52676220D01*
X115175651Y-52676216D01*
X115272157Y-52486812D01*
X115337846Y-52284643D01*
X115371100Y-52074687D01*
X115371100Y-51862113D01*
X115337846Y-51652157D01*
X115272157Y-51449988D01*
X115175651Y-51260584D01*
X115175649Y-51260581D01*
X115175648Y-51260579D01*
X115050709Y-51088613D01*
X114937169Y-50975073D01*
X114903684Y-50913750D01*
X114908668Y-50844058D01*
X114950540Y-50788125D01*
X114981515Y-50771210D01*
X115112931Y-50722196D01*
X115228146Y-50635946D01*
X115314396Y-50520731D01*
X115364691Y-50385883D01*
X115371100Y-50326273D01*
X115371099Y-48530528D01*
X115364691Y-48470917D01*
X115348229Y-48426781D01*
X115314397Y-48336071D01*
X115314393Y-48336064D01*
X115228147Y-48220855D01*
X115228144Y-48220852D01*
X115112935Y-48134606D01*
X115112928Y-48134602D01*
X114978082Y-48084308D01*
X114978083Y-48084308D01*
X114918483Y-48077901D01*
X114918481Y-48077900D01*
X114918473Y-48077900D01*
X114918464Y-48077900D01*
X113122729Y-48077900D01*
X113122723Y-48077901D01*
X113063116Y-48084308D01*
X112928271Y-48134602D01*
X112928264Y-48134606D01*
X112813055Y-48220852D01*
X112813052Y-48220855D01*
X112726806Y-48336064D01*
X112726802Y-48336071D01*
X112676508Y-48470917D01*
X112672766Y-48505726D01*
X112670101Y-48530523D01*
X112670100Y-48530535D01*
X110490000Y-48530535D01*
X110490000Y-47640549D01*
X123851700Y-47640549D01*
X123851700Y-47863450D01*
X123851701Y-47863466D01*
X123880794Y-48084452D01*
X123880795Y-48084457D01*
X123880796Y-48084463D01*
X123914826Y-48211465D01*
X123938490Y-48299780D01*
X123938493Y-48299790D01*
X124013272Y-48480322D01*
X124023795Y-48505726D01*
X124135252Y-48698774D01*
X124135257Y-48698780D01*
X124135258Y-48698782D01*
X124270951Y-48875622D01*
X124270957Y-48875629D01*
X124428570Y-49033242D01*
X124428576Y-49033247D01*
X124605426Y-49168948D01*
X124798474Y-49280405D01*
X125004419Y-49365710D01*
X125219737Y-49423404D01*
X125440743Y-49452500D01*
X125440750Y-49452500D01*
X125663650Y-49452500D01*
X125663657Y-49452500D01*
X125884663Y-49423404D01*
X126099981Y-49365710D01*
X126305926Y-49280405D01*
X126498974Y-49168948D01*
X126675824Y-49033247D01*
X126833447Y-48875624D01*
X126969148Y-48698774D01*
X127080605Y-48505726D01*
X127165910Y-48299781D01*
X127223604Y-48084463D01*
X127252700Y-47863457D01*
X127252700Y-47640549D01*
X139650500Y-47640549D01*
X139650500Y-47863450D01*
X139650501Y-47863466D01*
X139679594Y-48084452D01*
X139679595Y-48084457D01*
X139679596Y-48084463D01*
X139713626Y-48211465D01*
X139737290Y-48299780D01*
X139737293Y-48299790D01*
X139812072Y-48480322D01*
X139822595Y-48505726D01*
X139934052Y-48698774D01*
X139934057Y-48698780D01*
X139934058Y-48698782D01*
X140069751Y-48875622D01*
X140069757Y-48875629D01*
X140227370Y-49033242D01*
X140227376Y-49033247D01*
X140404226Y-49168948D01*
X140597274Y-49280405D01*
X140803219Y-49365710D01*
X141018537Y-49423404D01*
X141239543Y-49452500D01*
X141239550Y-49452500D01*
X141462450Y-49452500D01*
X141462457Y-49452500D01*
X141683463Y-49423404D01*
X141898781Y-49365710D01*
X142104726Y-49280405D01*
X142297774Y-49168948D01*
X142474624Y-49033247D01*
X142632247Y-48875624D01*
X142767948Y-48698774D01*
X142879405Y-48505726D01*
X142964710Y-48299781D01*
X143022404Y-48084463D01*
X143051500Y-47863457D01*
X143051500Y-47767549D01*
X155373100Y-47767549D01*
X155373100Y-47990450D01*
X155373101Y-47990466D01*
X155402194Y-48211452D01*
X155402195Y-48211457D01*
X155402196Y-48211463D01*
X155459890Y-48426780D01*
X155459893Y-48426790D01*
X155502866Y-48530535D01*
X155545195Y-48632726D01*
X155656652Y-48825774D01*
X155656657Y-48825780D01*
X155656658Y-48825782D01*
X155792351Y-49002622D01*
X155792357Y-49002629D01*
X155949970Y-49160242D01*
X155949976Y-49160247D01*
X156126826Y-49295948D01*
X156319874Y-49407405D01*
X156525819Y-49492710D01*
X156741137Y-49550404D01*
X156962143Y-49579500D01*
X156962150Y-49579500D01*
X157185050Y-49579500D01*
X157185057Y-49579500D01*
X157406063Y-49550404D01*
X157621381Y-49492710D01*
X157827326Y-49407405D01*
X158020374Y-49295948D01*
X158197224Y-49160247D01*
X158354847Y-49002624D01*
X158490548Y-48825774D01*
X158602005Y-48632726D01*
X158687310Y-48426781D01*
X158745004Y-48211463D01*
X158774100Y-47990457D01*
X158774100Y-47767543D01*
X158754037Y-47615149D01*
X170867100Y-47615149D01*
X170867100Y-47838050D01*
X170867101Y-47838066D01*
X170896194Y-48059052D01*
X170896195Y-48059057D01*
X170896196Y-48059063D01*
X170937032Y-48211465D01*
X170953890Y-48274380D01*
X170953893Y-48274390D01*
X171039193Y-48480322D01*
X171039195Y-48480326D01*
X171150652Y-48673374D01*
X171150657Y-48673380D01*
X171150658Y-48673382D01*
X171286351Y-48850222D01*
X171286357Y-48850229D01*
X171443970Y-49007842D01*
X171443977Y-49007848D01*
X171477078Y-49033247D01*
X171620826Y-49143548D01*
X171813874Y-49255005D01*
X172019819Y-49340310D01*
X172235137Y-49398004D01*
X172456143Y-49427100D01*
X172456150Y-49427100D01*
X172679050Y-49427100D01*
X172679057Y-49427100D01*
X172900063Y-49398004D01*
X173115381Y-49340310D01*
X173321326Y-49255005D01*
X173514374Y-49143548D01*
X173691224Y-49007847D01*
X173848847Y-48850224D01*
X173984548Y-48673374D01*
X174096005Y-48480326D01*
X174181310Y-48274381D01*
X174239004Y-48059063D01*
X174268100Y-47838057D01*
X174268100Y-47615143D01*
X174239004Y-47394137D01*
X174181310Y-47178819D01*
X174096005Y-46972874D01*
X173984548Y-46779826D01*
X173868337Y-46628376D01*
X173848848Y-46602977D01*
X173848842Y-46602970D01*
X173691229Y-46445357D01*
X173691222Y-46445351D01*
X173514382Y-46309658D01*
X173514380Y-46309657D01*
X173514374Y-46309652D01*
X173321326Y-46198195D01*
X173321322Y-46198193D01*
X173115390Y-46112893D01*
X173115383Y-46112891D01*
X173115381Y-46112890D01*
X172900063Y-46055196D01*
X172900057Y-46055195D01*
X172900052Y-46055194D01*
X172679066Y-46026101D01*
X172679063Y-46026100D01*
X172679057Y-46026100D01*
X172456143Y-46026100D01*
X172456137Y-46026100D01*
X172456133Y-46026101D01*
X172235147Y-46055194D01*
X172235140Y-46055195D01*
X172235137Y-46055196D01*
X172140339Y-46080597D01*
X172019819Y-46112890D01*
X172019809Y-46112893D01*
X171813877Y-46198193D01*
X171813873Y-46198195D01*
X171620826Y-46309652D01*
X171620817Y-46309658D01*
X171443977Y-46445351D01*
X171443970Y-46445357D01*
X171286357Y-46602970D01*
X171286351Y-46602977D01*
X171150658Y-46779817D01*
X171150652Y-46779826D01*
X171039195Y-46972873D01*
X171039193Y-46972877D01*
X170953893Y-47178809D01*
X170953890Y-47178819D01*
X170913058Y-47331209D01*
X170896197Y-47394134D01*
X170896194Y-47394147D01*
X170867101Y-47615133D01*
X170867100Y-47615149D01*
X158754037Y-47615149D01*
X158745004Y-47546537D01*
X158687310Y-47331219D01*
X158602005Y-47125274D01*
X158490548Y-46932226D01*
X158354847Y-46755376D01*
X158354842Y-46755370D01*
X158197229Y-46597757D01*
X158197222Y-46597751D01*
X158020382Y-46462058D01*
X158020380Y-46462057D01*
X158020374Y-46462052D01*
X157827326Y-46350595D01*
X157827322Y-46350593D01*
X157621390Y-46265293D01*
X157621383Y-46265291D01*
X157621381Y-46265290D01*
X157406063Y-46207596D01*
X157406057Y-46207595D01*
X157406052Y-46207594D01*
X157185066Y-46178501D01*
X157185063Y-46178500D01*
X157185057Y-46178500D01*
X156962143Y-46178500D01*
X156962137Y-46178500D01*
X156962133Y-46178501D01*
X156741147Y-46207594D01*
X156741140Y-46207595D01*
X156741137Y-46207596D01*
X156681428Y-46223595D01*
X156525819Y-46265290D01*
X156525809Y-46265293D01*
X156319877Y-46350593D01*
X156319873Y-46350595D01*
X156126826Y-46462052D01*
X156126817Y-46462058D01*
X155949977Y-46597751D01*
X155949970Y-46597757D01*
X155792357Y-46755370D01*
X155792351Y-46755377D01*
X155656658Y-46932217D01*
X155656652Y-46932226D01*
X155545195Y-47125273D01*
X155545193Y-47125277D01*
X155459893Y-47331209D01*
X155459890Y-47331219D01*
X155402197Y-47546534D01*
X155402194Y-47546547D01*
X155373101Y-47767533D01*
X155373100Y-47767549D01*
X143051500Y-47767549D01*
X143051500Y-47640543D01*
X143022404Y-47419537D01*
X142964710Y-47204219D01*
X142879405Y-46998274D01*
X142767948Y-46805226D01*
X142632247Y-46628376D01*
X142632242Y-46628370D01*
X142474629Y-46470757D01*
X142474622Y-46470751D01*
X142297782Y-46335058D01*
X142297780Y-46335057D01*
X142297774Y-46335052D01*
X142104726Y-46223595D01*
X142104722Y-46223593D01*
X141898790Y-46138293D01*
X141898783Y-46138291D01*
X141898781Y-46138290D01*
X141683463Y-46080596D01*
X141683457Y-46080595D01*
X141683452Y-46080594D01*
X141462466Y-46051501D01*
X141462463Y-46051500D01*
X141462457Y-46051500D01*
X141239543Y-46051500D01*
X141239537Y-46051500D01*
X141239533Y-46051501D01*
X141018547Y-46080594D01*
X141018540Y-46080595D01*
X141018537Y-46080596D01*
X140803219Y-46138290D01*
X140803209Y-46138293D01*
X140597277Y-46223593D01*
X140597273Y-46223595D01*
X140404226Y-46335052D01*
X140404217Y-46335058D01*
X140227377Y-46470751D01*
X140227370Y-46470757D01*
X140069757Y-46628370D01*
X140069751Y-46628377D01*
X139934058Y-46805217D01*
X139934052Y-46805226D01*
X139822595Y-46998273D01*
X139822593Y-46998277D01*
X139737293Y-47204209D01*
X139737290Y-47204219D01*
X139679597Y-47419534D01*
X139679594Y-47419547D01*
X139650501Y-47640533D01*
X139650500Y-47640549D01*
X127252700Y-47640549D01*
X127252700Y-47640543D01*
X127223604Y-47419537D01*
X127165910Y-47204219D01*
X127080605Y-46998274D01*
X126969148Y-46805226D01*
X126833447Y-46628376D01*
X126833442Y-46628370D01*
X126675829Y-46470757D01*
X126675822Y-46470751D01*
X126498982Y-46335058D01*
X126498980Y-46335057D01*
X126498974Y-46335052D01*
X126305926Y-46223595D01*
X126305922Y-46223593D01*
X126099990Y-46138293D01*
X126099983Y-46138291D01*
X126099981Y-46138290D01*
X125884663Y-46080596D01*
X125884657Y-46080595D01*
X125884652Y-46080594D01*
X125663666Y-46051501D01*
X125663663Y-46051500D01*
X125663657Y-46051500D01*
X125440743Y-46051500D01*
X125440737Y-46051500D01*
X125440733Y-46051501D01*
X125219747Y-46080594D01*
X125219740Y-46080595D01*
X125219737Y-46080596D01*
X125004419Y-46138290D01*
X125004409Y-46138293D01*
X124798477Y-46223593D01*
X124798473Y-46223595D01*
X124605426Y-46335052D01*
X124605417Y-46335058D01*
X124428577Y-46470751D01*
X124428570Y-46470757D01*
X124270957Y-46628370D01*
X124270951Y-46628377D01*
X124135258Y-46805217D01*
X124135252Y-46805226D01*
X124023795Y-46998273D01*
X124023793Y-46998277D01*
X123938493Y-47204209D01*
X123938490Y-47204219D01*
X123880797Y-47419534D01*
X123880794Y-47419547D01*
X123851701Y-47640533D01*
X123851700Y-47640549D01*
X110490000Y-47640549D01*
X110490000Y-45844000D01*
X110509685Y-45776961D01*
X110562489Y-45731206D01*
X110614000Y-45720000D01*
X201806000Y-45720000D01*
X201873039Y-45739685D01*
G37*
%TD.AperFunction*%
%TA.AperFunction,Conductor*%
G36*
X184198244Y-91733785D02*
G01*
X184243999Y-91786589D01*
X184253943Y-91855747D01*
X184253678Y-91857499D01*
X184233700Y-91983630D01*
X184233700Y-92166370D01*
X184262284Y-92346841D01*
X184262285Y-92346845D01*
X184310261Y-92494500D01*
X184318753Y-92520633D01*
X184325578Y-92534027D01*
X184401709Y-92683444D01*
X184509115Y-92831276D01*
X184638324Y-92960485D01*
X184786156Y-93067891D01*
X184948969Y-93150848D01*
X185122755Y-93207315D01*
X185166812Y-93214293D01*
X185218797Y-93222527D01*
X185281932Y-93252456D01*
X185318863Y-93311768D01*
X185317865Y-93381631D01*
X185279255Y-93439863D01*
X185218797Y-93467473D01*
X185122758Y-93482684D01*
X184948966Y-93539153D01*
X184786155Y-93622109D01*
X184638321Y-93729517D01*
X184509117Y-93858721D01*
X184401709Y-94006555D01*
X184318753Y-94169366D01*
X184262284Y-94343158D01*
X184233700Y-94523629D01*
X184233700Y-94706370D01*
X184259013Y-94866186D01*
X184262285Y-94886845D01*
X184318752Y-95060631D01*
X184401709Y-95223444D01*
X184509115Y-95371276D01*
X184638324Y-95500485D01*
X184786156Y-95607891D01*
X184948969Y-95690848D01*
X185122755Y-95747315D01*
X185166812Y-95754293D01*
X185218797Y-95762527D01*
X185281932Y-95792456D01*
X185318863Y-95851768D01*
X185317865Y-95921631D01*
X185279255Y-95979863D01*
X185218797Y-96007473D01*
X185122758Y-96022684D01*
X184948966Y-96079153D01*
X184786155Y-96162109D01*
X184638321Y-96269517D01*
X184509117Y-96398721D01*
X184401709Y-96546555D01*
X184318753Y-96709366D01*
X184262284Y-96883158D01*
X184233700Y-97063629D01*
X184233700Y-97246370D01*
X184258825Y-97405000D01*
X184262285Y-97426845D01*
X184318690Y-97600441D01*
X184318753Y-97600633D01*
X184401711Y-97763448D01*
X184421772Y-97791059D01*
X184445253Y-97856865D01*
X184429428Y-97924919D01*
X184409136Y-97951626D01*
X184064486Y-98296278D01*
X183952681Y-98408082D01*
X183952680Y-98408084D01*
X183923875Y-98457977D01*
X183902561Y-98494894D01*
X183902559Y-98494896D01*
X183873625Y-98545009D01*
X183873624Y-98545010D01*
X183857744Y-98604272D01*
X183832699Y-98697743D01*
X183832699Y-98697745D01*
X183832699Y-98865846D01*
X183832700Y-98865859D01*
X183832700Y-108610500D01*
X183813015Y-108677539D01*
X183760211Y-108723294D01*
X183708700Y-108734500D01*
X177254500Y-108734500D01*
X177187461Y-108714815D01*
X177141706Y-108662011D01*
X177130500Y-108610500D01*
X177130500Y-108492073D01*
X177150185Y-108425034D01*
X177202989Y-108379279D01*
X177272147Y-108369335D01*
X177310795Y-108381588D01*
X177328969Y-108390848D01*
X177502755Y-108447315D01*
X177555425Y-108455657D01*
X177683230Y-108475900D01*
X177683235Y-108475900D01*
X179186770Y-108475900D01*
X179287031Y-108460019D01*
X179367245Y-108447315D01*
X179541031Y-108390848D01*
X179703844Y-108307891D01*
X179851676Y-108200485D01*
X179980885Y-108071276D01*
X180088291Y-107923444D01*
X180171248Y-107760631D01*
X180227715Y-107586845D01*
X180240517Y-107506014D01*
X180256300Y-107406370D01*
X180256300Y-107223629D01*
X180230987Y-107063814D01*
X180227715Y-107043155D01*
X180171248Y-106869369D01*
X180088291Y-106706556D01*
X179980885Y-106558724D01*
X179851676Y-106429515D01*
X179703844Y-106322109D01*
X179541031Y-106239152D01*
X179367245Y-106182685D01*
X179367243Y-106182684D01*
X179367241Y-106182684D01*
X179271202Y-106167473D01*
X179208067Y-106137544D01*
X179171136Y-106078232D01*
X179172134Y-106008370D01*
X179210744Y-105950137D01*
X179271202Y-105922527D01*
X179308501Y-105916619D01*
X179367245Y-105907315D01*
X179541031Y-105850848D01*
X179703844Y-105767891D01*
X179851676Y-105660485D01*
X179980885Y-105531276D01*
X180088291Y-105383444D01*
X180171248Y-105220631D01*
X180227715Y-105046845D01*
X180240419Y-104966631D01*
X180256300Y-104866370D01*
X180256300Y-104683629D01*
X180233535Y-104539903D01*
X180227715Y-104503155D01*
X180171248Y-104329369D01*
X180088291Y-104166556D01*
X179980885Y-104018724D01*
X179851676Y-103889515D01*
X179703844Y-103782109D01*
X179541031Y-103699152D01*
X179367245Y-103642685D01*
X179367243Y-103642684D01*
X179367241Y-103642684D01*
X179271202Y-103627473D01*
X179208067Y-103597544D01*
X179171136Y-103538232D01*
X179172134Y-103468370D01*
X179210744Y-103410137D01*
X179271202Y-103382527D01*
X179308501Y-103376619D01*
X179367245Y-103367315D01*
X179541031Y-103310848D01*
X179703844Y-103227891D01*
X179851676Y-103120485D01*
X179980885Y-102991276D01*
X180088291Y-102843444D01*
X180171248Y-102680631D01*
X180227715Y-102506845D01*
X180242851Y-102411279D01*
X180256300Y-102326370D01*
X180256300Y-102143629D01*
X180230666Y-101981787D01*
X180227715Y-101963155D01*
X180171248Y-101789369D01*
X180088291Y-101626556D01*
X179980885Y-101478724D01*
X179851676Y-101349515D01*
X179703844Y-101242109D01*
X179541031Y-101159152D01*
X179367245Y-101102685D01*
X179367243Y-101102684D01*
X179367241Y-101102684D01*
X179271202Y-101087473D01*
X179208067Y-101057544D01*
X179171136Y-100998232D01*
X179172134Y-100928370D01*
X179210744Y-100870137D01*
X179271202Y-100842527D01*
X179308501Y-100836619D01*
X179367245Y-100827315D01*
X179541031Y-100770848D01*
X179703844Y-100687891D01*
X179851676Y-100580485D01*
X179980885Y-100451276D01*
X180088291Y-100303444D01*
X180171248Y-100140631D01*
X180227715Y-99966845D01*
X180240419Y-99886631D01*
X180256300Y-99786370D01*
X180256300Y-99603629D01*
X180227715Y-99423158D01*
X180227715Y-99423155D01*
X180171248Y-99249369D01*
X180088291Y-99086556D01*
X179980885Y-98938724D01*
X179851676Y-98809515D01*
X179703844Y-98702109D01*
X179541031Y-98619152D01*
X179367245Y-98562685D01*
X179367243Y-98562684D01*
X179269603Y-98547219D01*
X179206468Y-98517289D01*
X179169538Y-98457977D01*
X179170536Y-98388115D01*
X179209147Y-98329882D01*
X179269605Y-98302273D01*
X179367127Y-98286827D01*
X179367128Y-98286827D01*
X179540843Y-98230383D01*
X179703582Y-98147462D01*
X179851351Y-98040100D01*
X179851352Y-98040100D01*
X179980500Y-97910952D01*
X179980500Y-97910951D01*
X180087862Y-97763182D01*
X180170783Y-97600441D01*
X180227227Y-97426728D01*
X180230668Y-97405000D01*
X178759737Y-97405000D01*
X178760201Y-97404536D01*
X178813705Y-97311865D01*
X178841400Y-97208504D01*
X178841400Y-97101496D01*
X178813705Y-96998135D01*
X178760201Y-96905464D01*
X178759737Y-96905000D01*
X180230668Y-96905000D01*
X180230668Y-96904999D01*
X180227227Y-96883271D01*
X180170783Y-96709558D01*
X180087862Y-96546817D01*
X179980500Y-96399048D01*
X179980500Y-96399047D01*
X179851352Y-96269899D01*
X179703582Y-96162537D01*
X179540843Y-96079616D01*
X179367129Y-96023173D01*
X179269603Y-96007726D01*
X179206469Y-95977796D01*
X179169538Y-95918485D01*
X179170536Y-95848622D01*
X179209146Y-95790390D01*
X179269604Y-95762780D01*
X179301399Y-95757743D01*
X179367245Y-95747315D01*
X179541031Y-95690848D01*
X179703844Y-95607891D01*
X179851676Y-95500485D01*
X179980885Y-95371276D01*
X180088291Y-95223444D01*
X180171248Y-95060631D01*
X180227715Y-94886845D01*
X180240419Y-94806631D01*
X180256300Y-94706370D01*
X180256300Y-94523629D01*
X180227715Y-94343158D01*
X180227715Y-94343155D01*
X180171248Y-94169369D01*
X180088291Y-94006556D01*
X179980885Y-93858724D01*
X179851676Y-93729515D01*
X179703844Y-93622109D01*
X179541033Y-93539153D01*
X179541032Y-93539152D01*
X179541031Y-93539152D01*
X179367245Y-93482685D01*
X179367243Y-93482684D01*
X179367241Y-93482684D01*
X179271202Y-93467473D01*
X179208067Y-93437544D01*
X179171136Y-93378232D01*
X179172134Y-93308370D01*
X179210744Y-93250137D01*
X179271202Y-93222527D01*
X179308501Y-93216619D01*
X179367245Y-93207315D01*
X179541031Y-93150848D01*
X179703844Y-93067891D01*
X179851676Y-92960485D01*
X179980885Y-92831276D01*
X180088291Y-92683444D01*
X180171248Y-92520631D01*
X180227715Y-92346845D01*
X180250293Y-92204292D01*
X180256300Y-92166370D01*
X180256300Y-91983630D01*
X180236322Y-91857499D01*
X180245276Y-91788205D01*
X180290272Y-91734753D01*
X180357024Y-91714113D01*
X180358795Y-91714100D01*
X184131205Y-91714100D01*
X184198244Y-91733785D01*
G37*
%TD.AperFunction*%
%TA.AperFunction,Conductor*%
G36*
X173200741Y-91116585D02*
G01*
X173246496Y-91169389D01*
X173256440Y-91238547D01*
X173227415Y-91302103D01*
X173221383Y-91308581D01*
X172451339Y-92078625D01*
X172390016Y-92112110D01*
X172387850Y-92112561D01*
X172232508Y-92143461D01*
X172232498Y-92143464D01*
X172086827Y-92203802D01*
X172086814Y-92203809D01*
X171955711Y-92291410D01*
X171955707Y-92291413D01*
X171844213Y-92402907D01*
X171844210Y-92402911D01*
X171756609Y-92534014D01*
X171756602Y-92534027D01*
X171696264Y-92679698D01*
X171696261Y-92679710D01*
X171665500Y-92834353D01*
X171665500Y-92992046D01*
X171696261Y-93146689D01*
X171696264Y-93146701D01*
X171756602Y-93292372D01*
X171756609Y-93292385D01*
X171844210Y-93423488D01*
X171844213Y-93423492D01*
X171955707Y-93534986D01*
X171955711Y-93534989D01*
X172086814Y-93622590D01*
X172086827Y-93622597D01*
X172232498Y-93682935D01*
X172232503Y-93682937D01*
X172387153Y-93713699D01*
X172387156Y-93713700D01*
X172387158Y-93713700D01*
X172544844Y-93713700D01*
X172544845Y-93713699D01*
X172699497Y-93682937D01*
X172836459Y-93626206D01*
X172845172Y-93622597D01*
X172845172Y-93622596D01*
X172845179Y-93622594D01*
X172976289Y-93534989D01*
X173087789Y-93423489D01*
X173175394Y-93292379D01*
X173235737Y-93146697D01*
X173259197Y-93028757D01*
X173266638Y-92991350D01*
X173299023Y-92929439D01*
X173300517Y-92927917D01*
X174478017Y-91750419D01*
X174539340Y-91716934D01*
X174565698Y-91714100D01*
X176511205Y-91714100D01*
X176578244Y-91733785D01*
X176623999Y-91786589D01*
X176633943Y-91855747D01*
X176633678Y-91857499D01*
X176613700Y-91983630D01*
X176613700Y-92166370D01*
X176642284Y-92346841D01*
X176642285Y-92346845D01*
X176690261Y-92494500D01*
X176698753Y-92520633D01*
X176705578Y-92534027D01*
X176781709Y-92683444D01*
X176889115Y-92831276D01*
X177018324Y-92960485D01*
X177166156Y-93067891D01*
X177328969Y-93150848D01*
X177502755Y-93207315D01*
X177546812Y-93214293D01*
X177598797Y-93222527D01*
X177661932Y-93252456D01*
X177698863Y-93311768D01*
X177697865Y-93381631D01*
X177659255Y-93439863D01*
X177598797Y-93467473D01*
X177502758Y-93482684D01*
X177328966Y-93539153D01*
X177166155Y-93622109D01*
X177018321Y-93729517D01*
X176889117Y-93858721D01*
X176781709Y-94006555D01*
X176698753Y-94169366D01*
X176642284Y-94343158D01*
X176613700Y-94523629D01*
X176613700Y-94706370D01*
X176639013Y-94866186D01*
X176642285Y-94886845D01*
X176698752Y-95060631D01*
X176781709Y-95223444D01*
X176889115Y-95371276D01*
X177018324Y-95500485D01*
X177166156Y-95607891D01*
X177328969Y-95690848D01*
X177502755Y-95747315D01*
X177552139Y-95755136D01*
X177600395Y-95762780D01*
X177663530Y-95792709D01*
X177700461Y-95852021D01*
X177699463Y-95921883D01*
X177660853Y-95980116D01*
X177600396Y-96007726D01*
X177502870Y-96023173D01*
X177329156Y-96079616D01*
X177166417Y-96162537D01*
X177018648Y-96269899D01*
X177018647Y-96269899D01*
X176889499Y-96399047D01*
X176889499Y-96399048D01*
X176782137Y-96546817D01*
X176699216Y-96709558D01*
X176642772Y-96883271D01*
X176639331Y-96904999D01*
X176639332Y-96905000D01*
X178110263Y-96905000D01*
X178109799Y-96905464D01*
X178056295Y-96998135D01*
X178028600Y-97101496D01*
X178028600Y-97208504D01*
X178056295Y-97311865D01*
X178109799Y-97404536D01*
X178110263Y-97405000D01*
X176639332Y-97405000D01*
X176642772Y-97426728D01*
X176699216Y-97600441D01*
X176782137Y-97763182D01*
X176889499Y-97910951D01*
X176889499Y-97910952D01*
X177018647Y-98040100D01*
X177166417Y-98147462D01*
X177329156Y-98230383D01*
X177502870Y-98286826D01*
X177600395Y-98302273D01*
X177663529Y-98332202D01*
X177700461Y-98391513D01*
X177699463Y-98461376D01*
X177660854Y-98519609D01*
X177600396Y-98547219D01*
X177502757Y-98562684D01*
X177328966Y-98619153D01*
X177166155Y-98702109D01*
X177018321Y-98809517D01*
X176889117Y-98938721D01*
X176781709Y-99086555D01*
X176698753Y-99249366D01*
X176642284Y-99423158D01*
X176613700Y-99603629D01*
X176613700Y-99786370D01*
X176639757Y-99950884D01*
X176642285Y-99966845D01*
X176698752Y-100140631D01*
X176781709Y-100303444D01*
X176889115Y-100451276D01*
X177018324Y-100580485D01*
X177166156Y-100687891D01*
X177328969Y-100770848D01*
X177502755Y-100827315D01*
X177546812Y-100834293D01*
X177598797Y-100842527D01*
X177661932Y-100872456D01*
X177698863Y-100931768D01*
X177697865Y-101001631D01*
X177659255Y-101059863D01*
X177598797Y-101087473D01*
X177502758Y-101102684D01*
X177328966Y-101159153D01*
X177166155Y-101242109D01*
X177018321Y-101349517D01*
X176889117Y-101478721D01*
X176781709Y-101626555D01*
X176698753Y-101789366D01*
X176642284Y-101963158D01*
X176613700Y-102143629D01*
X176613700Y-102326370D01*
X176639013Y-102486186D01*
X176642285Y-102506845D01*
X176693477Y-102664397D01*
X176698753Y-102680633D01*
X176746930Y-102775187D01*
X176781709Y-102843444D01*
X176889115Y-102991276D01*
X177018324Y-103120485D01*
X177166156Y-103227891D01*
X177328969Y-103310848D01*
X177502755Y-103367315D01*
X177546812Y-103374293D01*
X177598797Y-103382527D01*
X177661932Y-103412456D01*
X177698863Y-103471768D01*
X177697865Y-103541631D01*
X177659255Y-103599863D01*
X177598797Y-103627473D01*
X177502758Y-103642684D01*
X177328966Y-103699153D01*
X177166155Y-103782109D01*
X177018321Y-103889517D01*
X176889117Y-104018721D01*
X176781709Y-104166555D01*
X176698753Y-104329366D01*
X176642284Y-104503158D01*
X176613700Y-104683629D01*
X176613700Y-104866370D01*
X176642284Y-105046841D01*
X176642284Y-105046843D01*
X176642285Y-105046845D01*
X176698752Y-105220631D01*
X176781709Y-105383444D01*
X176889115Y-105531276D01*
X177018324Y-105660485D01*
X177166156Y-105767891D01*
X177328969Y-105850848D01*
X177502755Y-105907315D01*
X177546812Y-105914293D01*
X177598797Y-105922527D01*
X177661932Y-105952456D01*
X177698863Y-106011768D01*
X177697865Y-106081631D01*
X177659255Y-106139863D01*
X177598797Y-106167473D01*
X177502758Y-106182684D01*
X177328966Y-106239153D01*
X177166155Y-106322109D01*
X177018321Y-106429517D01*
X176889117Y-106558721D01*
X176781709Y-106706555D01*
X176698753Y-106869366D01*
X176642284Y-107043158D01*
X176613700Y-107223629D01*
X176613700Y-107406370D01*
X176629482Y-107506014D01*
X176620527Y-107575308D01*
X176575531Y-107628760D01*
X176508780Y-107649399D01*
X176441466Y-107630674D01*
X176419328Y-107613093D01*
X174626819Y-105820584D01*
X174593334Y-105759261D01*
X174590500Y-105732903D01*
X174590500Y-99368585D01*
X174610185Y-99301546D01*
X174662989Y-99255791D01*
X174675489Y-99250881D01*
X174784334Y-99214814D01*
X174933656Y-99122712D01*
X175057712Y-98998656D01*
X175149814Y-98849334D01*
X175204999Y-98682797D01*
X175215500Y-98580009D01*
X175215499Y-97804992D01*
X175204999Y-97702203D01*
X175149814Y-97535666D01*
X175057712Y-97386344D01*
X174933656Y-97262288D01*
X174930819Y-97260538D01*
X174929283Y-97258830D01*
X174927989Y-97257807D01*
X174928163Y-97257585D01*
X174884096Y-97208594D01*
X174872872Y-97139632D01*
X174900713Y-97075549D01*
X174930817Y-97049462D01*
X174933656Y-97047712D01*
X175057712Y-96923656D01*
X175149814Y-96774334D01*
X175204999Y-96607797D01*
X175215500Y-96505009D01*
X175215499Y-95729992D01*
X175211500Y-95690848D01*
X175204999Y-95627203D01*
X175204998Y-95627200D01*
X175171620Y-95526473D01*
X175149814Y-95460666D01*
X175057712Y-95311344D01*
X174933656Y-95187288D01*
X174800793Y-95105338D01*
X174784336Y-95095187D01*
X174784331Y-95095185D01*
X174782862Y-95094698D01*
X174617797Y-95040001D01*
X174617795Y-95040000D01*
X174515010Y-95029500D01*
X173464998Y-95029500D01*
X173464980Y-95029501D01*
X173362203Y-95040000D01*
X173362200Y-95040001D01*
X173195668Y-95095185D01*
X173195663Y-95095187D01*
X173046342Y-95187289D01*
X172922289Y-95311342D01*
X172830187Y-95460663D01*
X172830185Y-95460668D01*
X172824770Y-95477009D01*
X172775001Y-95627203D01*
X172775001Y-95627204D01*
X172775000Y-95627204D01*
X172764500Y-95729983D01*
X172764500Y-95977803D01*
X172744815Y-96044842D01*
X172692011Y-96090597D01*
X172622853Y-96100541D01*
X172616309Y-96099420D01*
X172494045Y-96075100D01*
X172494042Y-96075100D01*
X172336358Y-96075100D01*
X172336355Y-96075100D01*
X172181710Y-96105861D01*
X172181698Y-96105864D01*
X172036027Y-96166202D01*
X172036014Y-96166209D01*
X171904911Y-96253810D01*
X171904907Y-96253813D01*
X171793413Y-96365307D01*
X171793410Y-96365311D01*
X171705809Y-96496414D01*
X171705804Y-96496423D01*
X171651738Y-96626953D01*
X171639194Y-96642518D01*
X171630890Y-96660703D01*
X171617719Y-96669167D01*
X171607897Y-96681356D01*
X171588929Y-96687668D01*
X171572112Y-96698477D01*
X171544551Y-96702439D01*
X171541603Y-96703421D01*
X171537177Y-96703500D01*
X171387670Y-96703500D01*
X171387654Y-96703499D01*
X171380058Y-96703499D01*
X171221943Y-96703499D01*
X171145579Y-96723961D01*
X171069214Y-96744423D01*
X171069209Y-96744426D01*
X170932290Y-96823475D01*
X170932282Y-96823481D01*
X170887460Y-96868303D01*
X170826137Y-96901787D01*
X170756445Y-96896802D01*
X170700512Y-96854930D01*
X170681851Y-96818942D01*
X170646248Y-96709369D01*
X170563291Y-96546556D01*
X170455885Y-96398724D01*
X170326676Y-96269515D01*
X170178844Y-96162109D01*
X170080087Y-96111790D01*
X170016033Y-96079153D01*
X170016032Y-96079152D01*
X170016031Y-96079152D01*
X169842245Y-96022685D01*
X169842243Y-96022684D01*
X169842241Y-96022684D01*
X169746202Y-96007473D01*
X169683067Y-95977544D01*
X169646136Y-95918232D01*
X169647134Y-95848370D01*
X169685744Y-95790137D01*
X169746202Y-95762527D01*
X169783501Y-95756619D01*
X169842245Y-95747315D01*
X170016031Y-95690848D01*
X170178844Y-95607891D01*
X170326676Y-95500485D01*
X170455885Y-95371276D01*
X170563291Y-95223444D01*
X170646248Y-95060631D01*
X170702715Y-94886845D01*
X170715419Y-94806631D01*
X170731300Y-94706370D01*
X170731300Y-94523629D01*
X170702715Y-94343158D01*
X170702715Y-94343155D01*
X170646248Y-94169369D01*
X170563291Y-94006556D01*
X170455885Y-93858724D01*
X170326676Y-93729515D01*
X170178844Y-93622109D01*
X170016033Y-93539153D01*
X170016032Y-93539152D01*
X170016031Y-93539152D01*
X169842245Y-93482685D01*
X169842243Y-93482684D01*
X169842241Y-93482684D01*
X169746202Y-93467473D01*
X169683067Y-93437544D01*
X169646136Y-93378232D01*
X169647134Y-93308370D01*
X169685744Y-93250137D01*
X169746202Y-93222527D01*
X169783501Y-93216619D01*
X169842245Y-93207315D01*
X170016031Y-93150848D01*
X170178844Y-93067891D01*
X170326676Y-92960485D01*
X170455885Y-92831276D01*
X170563291Y-92683444D01*
X170646248Y-92520631D01*
X170702715Y-92346845D01*
X170725293Y-92204292D01*
X170731300Y-92166370D01*
X170731300Y-91983629D01*
X170702715Y-91803158D01*
X170702715Y-91803155D01*
X170646248Y-91629369D01*
X170563291Y-91466556D01*
X170558893Y-91460503D01*
X170543226Y-91438938D01*
X170531767Y-91406825D01*
X170519860Y-91374899D01*
X170520055Y-91373999D01*
X170519746Y-91373132D01*
X170527473Y-91339900D01*
X170534712Y-91306626D01*
X170535435Y-91305658D01*
X170535571Y-91305078D01*
X170555858Y-91278376D01*
X170701018Y-91133216D01*
X170762340Y-91099734D01*
X170788698Y-91096900D01*
X173133702Y-91096900D01*
X173200741Y-91116585D01*
G37*
%TD.AperFunction*%
%TA.AperFunction,Conductor*%
G36*
X148846971Y-92002533D02*
G01*
X148894583Y-92053669D01*
X148907700Y-92109176D01*
X148907700Y-92906530D01*
X148907699Y-92906548D01*
X148907699Y-93072254D01*
X148907698Y-93072254D01*
X148907699Y-93072257D01*
X148948623Y-93224985D01*
X148948624Y-93224987D01*
X148948623Y-93224987D01*
X148954925Y-93235901D01*
X148954926Y-93235902D01*
X149027677Y-93361912D01*
X149027681Y-93361917D01*
X149146549Y-93480785D01*
X149146555Y-93480790D01*
X149484136Y-93818372D01*
X149517621Y-93879695D01*
X149512637Y-93949387D01*
X149496776Y-93978935D01*
X149476709Y-94006555D01*
X149393753Y-94169366D01*
X149337284Y-94343158D01*
X149308700Y-94523629D01*
X149308700Y-94706370D01*
X149334013Y-94866186D01*
X149337285Y-94886845D01*
X149393752Y-95060631D01*
X149476709Y-95223444D01*
X149584115Y-95371276D01*
X149713324Y-95500485D01*
X149861156Y-95607891D01*
X150023969Y-95690848D01*
X150197755Y-95747315D01*
X150241812Y-95754293D01*
X150293797Y-95762527D01*
X150356932Y-95792456D01*
X150393863Y-95851768D01*
X150392865Y-95921631D01*
X150354255Y-95979863D01*
X150293797Y-96007473D01*
X150197758Y-96022684D01*
X150023966Y-96079153D01*
X149861155Y-96162109D01*
X149713321Y-96269517D01*
X149584117Y-96398721D01*
X149476709Y-96546555D01*
X149393753Y-96709366D01*
X149337284Y-96883158D01*
X149308700Y-97063629D01*
X149308700Y-97246370D01*
X149333825Y-97405000D01*
X149337285Y-97426845D01*
X149393690Y-97600441D01*
X149393753Y-97600633D01*
X149476711Y-97763448D01*
X149496772Y-97791059D01*
X149520253Y-97856865D01*
X149504428Y-97924919D01*
X149484136Y-97951626D01*
X147916486Y-99519278D01*
X147804682Y-99631081D01*
X147804678Y-99631087D01*
X147757130Y-99713443D01*
X147725624Y-99768012D01*
X147725623Y-99768013D01*
X147711645Y-99820179D01*
X147684699Y-99920743D01*
X147684699Y-99920745D01*
X147684699Y-100088846D01*
X147684700Y-100088859D01*
X147684700Y-106717500D01*
X147665015Y-106784539D01*
X147612211Y-106830294D01*
X147560700Y-106841500D01*
X145828462Y-106841500D01*
X145761423Y-106821815D01*
X145715668Y-106769011D01*
X145708689Y-106749601D01*
X145691377Y-106684991D01*
X145652734Y-106618058D01*
X145612324Y-106548065D01*
X145612318Y-106548057D01*
X144937342Y-105873081D01*
X144937337Y-105873077D01*
X144933713Y-105870985D01*
X144931265Y-105868418D01*
X144930890Y-105868130D01*
X144930934Y-105868071D01*
X144885497Y-105820418D01*
X144872274Y-105751811D01*
X144898242Y-105686946D01*
X144922828Y-105663280D01*
X144926676Y-105660485D01*
X145055885Y-105531276D01*
X145163291Y-105383444D01*
X145246248Y-105220631D01*
X145302715Y-105046845D01*
X145315419Y-104966631D01*
X145331300Y-104866370D01*
X145331300Y-104683629D01*
X145308535Y-104539903D01*
X145302715Y-104503155D01*
X145246248Y-104329369D01*
X145163291Y-104166556D01*
X145055885Y-104018724D01*
X144926676Y-103889515D01*
X144778844Y-103782109D01*
X144616031Y-103699152D01*
X144442245Y-103642685D01*
X144442243Y-103642684D01*
X144442241Y-103642684D01*
X144346202Y-103627473D01*
X144283067Y-103597544D01*
X144246136Y-103538232D01*
X144247134Y-103468370D01*
X144285744Y-103410137D01*
X144346202Y-103382527D01*
X144383501Y-103376619D01*
X144442245Y-103367315D01*
X144616031Y-103310848D01*
X144778844Y-103227891D01*
X144926676Y-103120485D01*
X145055885Y-102991276D01*
X145163291Y-102843444D01*
X145246248Y-102680631D01*
X145302715Y-102506845D01*
X145317851Y-102411279D01*
X145331300Y-102326370D01*
X145331300Y-102143629D01*
X145305666Y-101981787D01*
X145302715Y-101963155D01*
X145246248Y-101789369D01*
X145163291Y-101626556D01*
X145055885Y-101478724D01*
X144926676Y-101349515D01*
X144778844Y-101242109D01*
X144616031Y-101159152D01*
X144442245Y-101102685D01*
X144442243Y-101102684D01*
X144442241Y-101102684D01*
X144346202Y-101087473D01*
X144283067Y-101057544D01*
X144246136Y-100998232D01*
X144247134Y-100928370D01*
X144285744Y-100870137D01*
X144346202Y-100842527D01*
X144383501Y-100836619D01*
X144442245Y-100827315D01*
X144616031Y-100770848D01*
X144778844Y-100687891D01*
X144926676Y-100580485D01*
X145055885Y-100451276D01*
X145163291Y-100303444D01*
X145246248Y-100140631D01*
X145302715Y-99966845D01*
X145315419Y-99886631D01*
X145331300Y-99786370D01*
X145331300Y-99603629D01*
X145302715Y-99423158D01*
X145302715Y-99423155D01*
X145246248Y-99249369D01*
X145163291Y-99086556D01*
X145055885Y-98938724D01*
X144926676Y-98809515D01*
X144778844Y-98702109D01*
X144616031Y-98619152D01*
X144442245Y-98562685D01*
X144442243Y-98562684D01*
X144344603Y-98547219D01*
X144281468Y-98517289D01*
X144244538Y-98457977D01*
X144245536Y-98388115D01*
X144284147Y-98329882D01*
X144344605Y-98302273D01*
X144442127Y-98286827D01*
X144442128Y-98286827D01*
X144615843Y-98230383D01*
X144778582Y-98147462D01*
X144926351Y-98040100D01*
X144926352Y-98040100D01*
X145055500Y-97910952D01*
X145055500Y-97910951D01*
X145162862Y-97763182D01*
X145245783Y-97600441D01*
X145302227Y-97426728D01*
X145305668Y-97405000D01*
X143834737Y-97405000D01*
X143835201Y-97404536D01*
X143888705Y-97311865D01*
X143916400Y-97208504D01*
X143916400Y-97101496D01*
X143888705Y-96998135D01*
X143835201Y-96905464D01*
X143834737Y-96905000D01*
X145305668Y-96905000D01*
X145305668Y-96904999D01*
X145302227Y-96883271D01*
X145245783Y-96709558D01*
X145162862Y-96546817D01*
X145055500Y-96399048D01*
X145055500Y-96399047D01*
X144926352Y-96269899D01*
X144778582Y-96162537D01*
X144615843Y-96079616D01*
X144442129Y-96023173D01*
X144344603Y-96007726D01*
X144281469Y-95977796D01*
X144244538Y-95918485D01*
X144245536Y-95848622D01*
X144284146Y-95790390D01*
X144344604Y-95762780D01*
X144376399Y-95757743D01*
X144442245Y-95747315D01*
X144616031Y-95690848D01*
X144778844Y-95607891D01*
X144926676Y-95500485D01*
X145055885Y-95371276D01*
X145163291Y-95223444D01*
X145246248Y-95060631D01*
X145302715Y-94886845D01*
X145315419Y-94806631D01*
X145331300Y-94706370D01*
X145331300Y-94523629D01*
X145302715Y-94343158D01*
X145302715Y-94343155D01*
X145246248Y-94169369D01*
X145163291Y-94006556D01*
X145143223Y-93978934D01*
X145119745Y-93913130D01*
X145135571Y-93845076D01*
X145155858Y-93818375D01*
X146643416Y-92330819D01*
X146704739Y-92297334D01*
X146731097Y-92294500D01*
X147375234Y-92294500D01*
X147442273Y-92314185D01*
X147444125Y-92315398D01*
X147575814Y-92403390D01*
X147575827Y-92403397D01*
X147721498Y-92463735D01*
X147721503Y-92463737D01*
X147876153Y-92494499D01*
X147876156Y-92494500D01*
X147876158Y-92494500D01*
X148033844Y-92494500D01*
X148033845Y-92494499D01*
X148188497Y-92463737D01*
X148334179Y-92403394D01*
X148465289Y-92315789D01*
X148576789Y-92204289D01*
X148664394Y-92073179D01*
X148669138Y-92061726D01*
X148712978Y-92007321D01*
X148779272Y-91985255D01*
X148846971Y-92002533D01*
G37*
%TD.AperFunction*%
%TA.AperFunction,Conductor*%
G36*
X172995931Y-78294424D02*
G01*
X173023656Y-78299222D01*
X173029012Y-78304137D01*
X173035984Y-78306185D01*
X173054401Y-78327439D01*
X173075132Y-78346466D01*
X173076980Y-78353496D01*
X173081739Y-78358989D01*
X173085742Y-78386834D01*
X173092894Y-78414041D01*
X173091124Y-78424264D01*
X173091683Y-78428147D01*
X173086876Y-78448818D01*
X173053753Y-78550759D01*
X173020500Y-78760713D01*
X173020500Y-78973287D01*
X173053754Y-79183243D01*
X173119147Y-79384502D01*
X173119444Y-79385414D01*
X173215951Y-79574820D01*
X173340890Y-79746786D01*
X173491213Y-79897109D01*
X173663179Y-80022048D01*
X173663181Y-80022049D01*
X173663184Y-80022051D01*
X173852588Y-80118557D01*
X174054757Y-80184246D01*
X174264713Y-80217500D01*
X174264714Y-80217500D01*
X174477286Y-80217500D01*
X174477287Y-80217500D01*
X174687243Y-80184246D01*
X174889412Y-80118557D01*
X175078816Y-80022051D01*
X175164476Y-79959816D01*
X175250786Y-79897109D01*
X175250788Y-79897106D01*
X175250792Y-79897104D01*
X175401104Y-79746792D01*
X175401106Y-79746788D01*
X175401109Y-79746786D01*
X175526048Y-79574820D01*
X175526047Y-79574820D01*
X175526051Y-79574816D01*
X175561015Y-79506194D01*
X175608990Y-79455399D01*
X175676811Y-79438604D01*
X175742945Y-79461141D01*
X175781985Y-79506195D01*
X175816951Y-79574820D01*
X175941890Y-79746786D01*
X176092213Y-79897109D01*
X176264182Y-80022050D01*
X176272946Y-80026516D01*
X176323742Y-80074491D01*
X176340536Y-80142312D01*
X176317998Y-80208447D01*
X176272946Y-80247484D01*
X176264182Y-80251949D01*
X176092213Y-80376890D01*
X175941890Y-80527213D01*
X175816951Y-80699179D01*
X175720444Y-80888585D01*
X175654753Y-81090760D01*
X175639000Y-81190223D01*
X175621500Y-81300713D01*
X175621500Y-81513287D01*
X175654754Y-81723243D01*
X175713633Y-81904454D01*
X175720444Y-81925414D01*
X175816951Y-82114820D01*
X175941890Y-82286786D01*
X176092213Y-82437109D01*
X176264179Y-82562048D01*
X176264181Y-82562049D01*
X176264184Y-82562051D01*
X176453588Y-82658557D01*
X176655757Y-82724246D01*
X176865713Y-82757500D01*
X176865714Y-82757500D01*
X177078286Y-82757500D01*
X177078287Y-82757500D01*
X177288243Y-82724246D01*
X177330523Y-82710507D01*
X177400362Y-82708511D01*
X177456522Y-82740757D01*
X179703181Y-84987416D01*
X179736666Y-85048739D01*
X179739500Y-85075097D01*
X179739500Y-86415234D01*
X179719815Y-86482273D01*
X179718602Y-86484125D01*
X179630609Y-86615814D01*
X179630602Y-86615827D01*
X179570264Y-86761498D01*
X179570261Y-86761510D01*
X179539501Y-86916146D01*
X179539354Y-86917646D01*
X179539057Y-86918381D01*
X179538311Y-86922132D01*
X179537599Y-86921990D01*
X179513197Y-86982435D01*
X179456165Y-87022798D01*
X179415950Y-87029500D01*
X168881645Y-87029500D01*
X168881629Y-87029499D01*
X168874033Y-87029499D01*
X168715918Y-87029499D01*
X168639554Y-87049961D01*
X168563189Y-87070423D01*
X168563184Y-87070426D01*
X168426265Y-87149475D01*
X168426257Y-87149481D01*
X166807681Y-88768057D01*
X166807679Y-88768060D01*
X166798816Y-88783412D01*
X166774456Y-88825606D01*
X166757561Y-88854869D01*
X166757559Y-88854871D01*
X166728625Y-88904984D01*
X166728624Y-88904985D01*
X166722844Y-88926556D01*
X166687699Y-89057718D01*
X166687699Y-89057720D01*
X166687699Y-89225821D01*
X166687700Y-89225834D01*
X166687700Y-92906530D01*
X166687699Y-92906548D01*
X166687699Y-93072254D01*
X166687698Y-93072254D01*
X166687699Y-93072257D01*
X166728623Y-93224985D01*
X166728624Y-93224987D01*
X166728623Y-93224987D01*
X166734925Y-93235901D01*
X166734926Y-93235902D01*
X166807677Y-93361912D01*
X166807681Y-93361917D01*
X166926549Y-93480785D01*
X166926555Y-93480790D01*
X167264136Y-93818372D01*
X167297621Y-93879695D01*
X167292637Y-93949387D01*
X167276776Y-93978935D01*
X167256709Y-94006555D01*
X167173753Y-94169366D01*
X167117284Y-94343158D01*
X167088700Y-94523629D01*
X167088700Y-94706370D01*
X167114013Y-94866186D01*
X167117285Y-94886845D01*
X167173752Y-95060631D01*
X167256709Y-95223444D01*
X167364115Y-95371276D01*
X167493324Y-95500485D01*
X167641156Y-95607891D01*
X167803969Y-95690848D01*
X167977755Y-95747315D01*
X168021812Y-95754293D01*
X168073797Y-95762527D01*
X168136932Y-95792456D01*
X168173863Y-95851768D01*
X168172865Y-95921631D01*
X168134255Y-95979863D01*
X168073797Y-96007473D01*
X167977758Y-96022684D01*
X167803966Y-96079153D01*
X167641155Y-96162109D01*
X167493321Y-96269517D01*
X167364117Y-96398721D01*
X167256709Y-96546555D01*
X167173753Y-96709366D01*
X167117284Y-96883158D01*
X167088700Y-97063629D01*
X167088700Y-97246370D01*
X167113825Y-97405000D01*
X167117285Y-97426845D01*
X167173690Y-97600441D01*
X167173753Y-97600633D01*
X167256711Y-97763448D01*
X167276772Y-97791059D01*
X167300253Y-97856865D01*
X167284428Y-97924919D01*
X167264136Y-97951626D01*
X163267461Y-101948302D01*
X163206138Y-101981787D01*
X163136446Y-101976803D01*
X163080513Y-101934931D01*
X163061851Y-101898942D01*
X163026248Y-101789369D01*
X162943291Y-101626556D01*
X162835885Y-101478724D01*
X162706676Y-101349515D01*
X162558844Y-101242109D01*
X162396031Y-101159152D01*
X162222245Y-101102685D01*
X162222243Y-101102684D01*
X162222241Y-101102684D01*
X162126202Y-101087473D01*
X162063067Y-101057544D01*
X162026136Y-100998232D01*
X162027134Y-100928370D01*
X162065744Y-100870137D01*
X162126202Y-100842527D01*
X162163501Y-100836619D01*
X162222245Y-100827315D01*
X162396031Y-100770848D01*
X162558844Y-100687891D01*
X162706676Y-100580485D01*
X162835885Y-100451276D01*
X162943291Y-100303444D01*
X163026248Y-100140631D01*
X163082715Y-99966845D01*
X163095419Y-99886631D01*
X163111300Y-99786370D01*
X163111300Y-99603629D01*
X163082715Y-99423158D01*
X163082715Y-99423155D01*
X163026248Y-99249369D01*
X162943291Y-99086556D01*
X162835885Y-98938724D01*
X162706676Y-98809515D01*
X162558844Y-98702109D01*
X162396031Y-98619152D01*
X162222245Y-98562685D01*
X162222243Y-98562684D01*
X162124603Y-98547219D01*
X162061468Y-98517289D01*
X162024538Y-98457977D01*
X162025536Y-98388115D01*
X162064147Y-98329882D01*
X162124605Y-98302273D01*
X162222127Y-98286827D01*
X162222128Y-98286827D01*
X162395843Y-98230383D01*
X162558582Y-98147462D01*
X162706351Y-98040100D01*
X162706352Y-98040100D01*
X162835500Y-97910952D01*
X162835500Y-97910951D01*
X162942862Y-97763182D01*
X163025783Y-97600441D01*
X163082227Y-97426728D01*
X163085668Y-97405000D01*
X161614737Y-97405000D01*
X161615201Y-97404536D01*
X161668705Y-97311865D01*
X161696400Y-97208504D01*
X161696400Y-97101496D01*
X161668705Y-96998135D01*
X161615201Y-96905464D01*
X161614737Y-96905000D01*
X163085668Y-96905000D01*
X163085668Y-96904999D01*
X163082227Y-96883271D01*
X163025783Y-96709558D01*
X162942862Y-96546817D01*
X162835500Y-96399048D01*
X162835500Y-96399047D01*
X162706352Y-96269899D01*
X162558582Y-96162537D01*
X162395843Y-96079616D01*
X162222129Y-96023173D01*
X162124603Y-96007726D01*
X162061469Y-95977796D01*
X162024538Y-95918485D01*
X162025536Y-95848622D01*
X162064146Y-95790390D01*
X162124604Y-95762780D01*
X162156399Y-95757743D01*
X162222245Y-95747315D01*
X162396031Y-95690848D01*
X162558844Y-95607891D01*
X162706676Y-95500485D01*
X162835885Y-95371276D01*
X162943291Y-95223444D01*
X163026248Y-95060631D01*
X163082715Y-94886845D01*
X163095419Y-94806631D01*
X163111300Y-94706370D01*
X163111300Y-94523629D01*
X163082715Y-94343158D01*
X163082715Y-94343155D01*
X163026248Y-94169369D01*
X162943291Y-94006556D01*
X162835885Y-93858724D01*
X162706676Y-93729515D01*
X162558844Y-93622109D01*
X162396033Y-93539153D01*
X162396032Y-93539152D01*
X162396031Y-93539152D01*
X162222245Y-93482685D01*
X162222243Y-93482684D01*
X162222241Y-93482684D01*
X162126202Y-93467473D01*
X162063067Y-93437544D01*
X162026136Y-93378232D01*
X162027134Y-93308370D01*
X162065744Y-93250137D01*
X162126202Y-93222527D01*
X162163501Y-93216619D01*
X162222245Y-93207315D01*
X162396031Y-93150848D01*
X162558844Y-93067891D01*
X162706676Y-92960485D01*
X162835885Y-92831276D01*
X162943291Y-92683444D01*
X163026248Y-92520631D01*
X163082715Y-92346845D01*
X163105293Y-92204292D01*
X163111300Y-92166370D01*
X163111300Y-91983629D01*
X163082715Y-91803158D01*
X163082715Y-91803155D01*
X163026248Y-91629369D01*
X162943291Y-91466556D01*
X162835885Y-91318724D01*
X162706676Y-91189515D01*
X162558844Y-91082109D01*
X162396031Y-90999152D01*
X162222245Y-90942685D01*
X162222243Y-90942684D01*
X162222241Y-90942684D01*
X162126202Y-90927473D01*
X162063067Y-90897544D01*
X162026136Y-90838232D01*
X162027134Y-90768370D01*
X162065744Y-90710137D01*
X162126202Y-90682527D01*
X162163501Y-90676619D01*
X162222245Y-90667315D01*
X162396031Y-90610848D01*
X162558844Y-90527891D01*
X162706676Y-90420485D01*
X162835885Y-90291276D01*
X162943291Y-90143444D01*
X163026248Y-89980631D01*
X163082715Y-89806845D01*
X163104452Y-89669605D01*
X163111300Y-89626370D01*
X163111300Y-89443629D01*
X163087479Y-89293235D01*
X163082715Y-89263155D01*
X163026248Y-89089369D01*
X162943291Y-88926556D01*
X162835885Y-88778724D01*
X162706676Y-88649515D01*
X162558844Y-88542109D01*
X162396031Y-88459152D01*
X162222245Y-88402685D01*
X162222243Y-88402684D01*
X162222241Y-88402684D01*
X162041770Y-88374100D01*
X162041765Y-88374100D01*
X160538235Y-88374100D01*
X160538230Y-88374100D01*
X160357758Y-88402684D01*
X160183966Y-88459153D01*
X160021155Y-88542109D01*
X159873321Y-88649517D01*
X159744117Y-88778721D01*
X159636709Y-88926555D01*
X159553753Y-89089366D01*
X159497284Y-89263158D01*
X159468700Y-89443629D01*
X159468700Y-89626370D01*
X159495212Y-89793757D01*
X159497285Y-89806845D01*
X159553752Y-89980631D01*
X159636709Y-90143444D01*
X159744115Y-90291276D01*
X159873324Y-90420485D01*
X160021156Y-90527891D01*
X160183969Y-90610848D01*
X160357755Y-90667315D01*
X160401812Y-90674293D01*
X160453797Y-90682527D01*
X160516932Y-90712456D01*
X160553863Y-90771768D01*
X160552865Y-90841631D01*
X160514255Y-90899863D01*
X160453797Y-90927473D01*
X160357758Y-90942684D01*
X160183966Y-90999153D01*
X160021155Y-91082109D01*
X159873321Y-91189517D01*
X159744117Y-91318721D01*
X159636709Y-91466555D01*
X159553753Y-91629366D01*
X159497284Y-91803158D01*
X159468700Y-91983629D01*
X159468700Y-92166370D01*
X159497284Y-92346841D01*
X159497285Y-92346845D01*
X159545261Y-92494500D01*
X159553753Y-92520633D01*
X159560578Y-92534027D01*
X159636709Y-92683444D01*
X159744115Y-92831276D01*
X159873324Y-92960485D01*
X160021156Y-93067891D01*
X160183969Y-93150848D01*
X160357755Y-93207315D01*
X160401812Y-93214293D01*
X160453797Y-93222527D01*
X160516932Y-93252456D01*
X160553863Y-93311768D01*
X160552865Y-93381631D01*
X160514255Y-93439863D01*
X160453797Y-93467473D01*
X160357758Y-93482684D01*
X160183966Y-93539153D01*
X160021155Y-93622109D01*
X159873321Y-93729517D01*
X159744117Y-93858721D01*
X159636709Y-94006555D01*
X159553753Y-94169366D01*
X159497284Y-94343158D01*
X159468700Y-94523629D01*
X159468700Y-94706370D01*
X159494013Y-94866186D01*
X159497285Y-94886845D01*
X159553752Y-95060631D01*
X159636709Y-95223444D01*
X159744115Y-95371276D01*
X159873324Y-95500485D01*
X160021156Y-95607891D01*
X160183969Y-95690848D01*
X160357755Y-95747315D01*
X160407139Y-95755136D01*
X160455395Y-95762780D01*
X160518530Y-95792709D01*
X160555461Y-95852021D01*
X160554463Y-95921883D01*
X160515853Y-95980116D01*
X160455396Y-96007726D01*
X160357870Y-96023173D01*
X160184156Y-96079616D01*
X160021417Y-96162537D01*
X159873648Y-96269899D01*
X159873647Y-96269899D01*
X159744499Y-96399047D01*
X159744499Y-96399048D01*
X159637137Y-96546817D01*
X159554216Y-96709558D01*
X159497772Y-96883271D01*
X159494331Y-96904999D01*
X159494332Y-96905000D01*
X160965263Y-96905000D01*
X160964799Y-96905464D01*
X160911295Y-96998135D01*
X160883600Y-97101496D01*
X160883600Y-97208504D01*
X160911295Y-97311865D01*
X160964799Y-97404536D01*
X160965263Y-97405000D01*
X159494332Y-97405000D01*
X159497772Y-97426728D01*
X159554216Y-97600441D01*
X159637137Y-97763182D01*
X159744499Y-97910951D01*
X159744499Y-97910952D01*
X159873647Y-98040100D01*
X160021417Y-98147462D01*
X160184156Y-98230383D01*
X160357870Y-98286826D01*
X160455395Y-98302273D01*
X160518529Y-98332202D01*
X160555461Y-98391513D01*
X160554463Y-98461376D01*
X160515854Y-98519609D01*
X160455396Y-98547219D01*
X160357757Y-98562684D01*
X160183966Y-98619153D01*
X160021155Y-98702109D01*
X159873321Y-98809517D01*
X159744117Y-98938721D01*
X159636709Y-99086555D01*
X159553753Y-99249366D01*
X159497284Y-99423158D01*
X159468700Y-99603629D01*
X159468700Y-99786370D01*
X159494757Y-99950884D01*
X159497285Y-99966845D01*
X159553752Y-100140631D01*
X159636709Y-100303444D01*
X159744115Y-100451276D01*
X159873324Y-100580485D01*
X160021156Y-100687891D01*
X160183969Y-100770848D01*
X160357755Y-100827315D01*
X160401812Y-100834293D01*
X160453797Y-100842527D01*
X160516932Y-100872456D01*
X160553863Y-100931768D01*
X160552865Y-101001631D01*
X160514255Y-101059863D01*
X160453797Y-101087473D01*
X160357758Y-101102684D01*
X160183966Y-101159153D01*
X160021155Y-101242109D01*
X159873321Y-101349517D01*
X159744117Y-101478721D01*
X159636709Y-101626555D01*
X159553753Y-101789366D01*
X159497284Y-101963158D01*
X159468700Y-102143629D01*
X159468700Y-102326370D01*
X159494013Y-102486186D01*
X159497285Y-102506845D01*
X159548477Y-102664397D01*
X159553753Y-102680633D01*
X159601930Y-102775187D01*
X159636709Y-102843444D01*
X159744115Y-102991276D01*
X159873324Y-103120485D01*
X160021156Y-103227891D01*
X160183969Y-103310848D01*
X160357755Y-103367315D01*
X160401812Y-103374293D01*
X160453797Y-103382527D01*
X160516932Y-103412456D01*
X160553863Y-103471768D01*
X160552865Y-103541631D01*
X160514255Y-103599863D01*
X160453797Y-103627473D01*
X160357758Y-103642684D01*
X160183966Y-103699153D01*
X160021155Y-103782109D01*
X159873321Y-103889517D01*
X159744117Y-104018721D01*
X159636709Y-104166555D01*
X159553753Y-104329366D01*
X159497284Y-104503158D01*
X159468700Y-104683629D01*
X159468700Y-104866370D01*
X159497284Y-105046841D01*
X159497284Y-105046842D01*
X159515980Y-105104382D01*
X159516783Y-105132501D01*
X159520787Y-105160347D01*
X159517767Y-105166958D01*
X159517975Y-105174224D01*
X159503448Y-105198312D01*
X159491762Y-105223903D01*
X159485646Y-105227833D01*
X159481894Y-105234056D01*
X159456651Y-105246466D01*
X159432984Y-105261677D01*
X159422711Y-105263153D01*
X159419193Y-105264884D01*
X159398049Y-105266700D01*
X159202498Y-105266700D01*
X159135459Y-105247015D01*
X159114817Y-105230381D01*
X156567419Y-102682983D01*
X156533934Y-102621660D01*
X156531100Y-102595302D01*
X156531100Y-99368585D01*
X156550785Y-99301546D01*
X156603589Y-99255791D01*
X156616089Y-99250881D01*
X156724934Y-99214814D01*
X156874256Y-99122712D01*
X156998312Y-98998656D01*
X157090414Y-98849334D01*
X157145599Y-98682797D01*
X157156100Y-98580009D01*
X157156099Y-97804992D01*
X157145599Y-97702203D01*
X157090414Y-97535666D01*
X156998312Y-97386344D01*
X156874256Y-97262288D01*
X156871419Y-97260538D01*
X156869883Y-97258830D01*
X156868589Y-97257807D01*
X156868763Y-97257585D01*
X156824696Y-97208594D01*
X156813472Y-97139632D01*
X156841313Y-97075549D01*
X156871417Y-97049462D01*
X156874256Y-97047712D01*
X156998312Y-96923656D01*
X157090414Y-96774334D01*
X157145599Y-96607797D01*
X157156100Y-96505009D01*
X157156099Y-95729992D01*
X157152100Y-95690848D01*
X157145599Y-95627203D01*
X157145598Y-95627200D01*
X157112220Y-95526473D01*
X157090414Y-95460666D01*
X156998312Y-95311344D01*
X156874256Y-95187288D01*
X156741393Y-95105338D01*
X156724936Y-95095187D01*
X156724931Y-95095185D01*
X156723462Y-95094698D01*
X156558397Y-95040001D01*
X156558395Y-95040000D01*
X156455616Y-95029500D01*
X156455609Y-95029500D01*
X156229697Y-95029500D01*
X156162658Y-95009815D01*
X156142016Y-94993181D01*
X155469774Y-94320939D01*
X155436289Y-94259616D01*
X155435838Y-94257449D01*
X155404938Y-94102110D01*
X155404937Y-94102103D01*
X155365362Y-94006559D01*
X155344597Y-93956427D01*
X155344590Y-93956414D01*
X155256989Y-93825311D01*
X155256986Y-93825307D01*
X155145492Y-93713813D01*
X155145488Y-93713810D01*
X155014385Y-93626209D01*
X155014372Y-93626202D01*
X154868701Y-93565864D01*
X154868689Y-93565861D01*
X154714045Y-93535100D01*
X154714042Y-93535100D01*
X154556358Y-93535100D01*
X154556355Y-93535100D01*
X154401710Y-93565861D01*
X154401698Y-93565864D01*
X154256027Y-93626202D01*
X154256014Y-93626209D01*
X154124911Y-93713810D01*
X154124907Y-93713813D01*
X154013413Y-93825307D01*
X154013410Y-93825311D01*
X153925809Y-93956414D01*
X153925802Y-93956427D01*
X153865464Y-94102098D01*
X153865461Y-94102110D01*
X153834700Y-94256753D01*
X153834700Y-94414446D01*
X153865461Y-94569089D01*
X153865464Y-94569101D01*
X153925802Y-94714772D01*
X153925809Y-94714785D01*
X154013410Y-94845888D01*
X154013413Y-94845892D01*
X154124907Y-94957386D01*
X154124911Y-94957389D01*
X154256014Y-95044990D01*
X154256027Y-95044997D01*
X154401698Y-95105335D01*
X154401703Y-95105337D01*
X154466347Y-95118195D01*
X154557049Y-95136238D01*
X154573805Y-95145002D01*
X154592285Y-95149023D01*
X154617323Y-95167767D01*
X154618960Y-95168623D01*
X154620539Y-95170174D01*
X154754959Y-95304594D01*
X154788444Y-95365917D01*
X154783460Y-95435609D01*
X154772821Y-95457365D01*
X154770787Y-95460661D01*
X154742277Y-95546701D01*
X154715601Y-95627203D01*
X154715601Y-95627204D01*
X154715600Y-95627204D01*
X154705100Y-95729983D01*
X154705100Y-96505001D01*
X154705101Y-96505019D01*
X154715600Y-96607796D01*
X154715601Y-96607799D01*
X154770785Y-96774331D01*
X154770787Y-96774336D01*
X154772372Y-96776905D01*
X154862887Y-96923655D01*
X154862889Y-96923657D01*
X154986946Y-97047714D01*
X154989782Y-97049463D01*
X154991317Y-97051170D01*
X154992611Y-97052193D01*
X154992436Y-97052414D01*
X155036505Y-97101411D01*
X155047726Y-97170374D01*
X155019882Y-97234456D01*
X154989782Y-97260537D01*
X154986946Y-97262285D01*
X154862889Y-97386342D01*
X154770787Y-97535663D01*
X154770785Y-97535668D01*
X154759860Y-97568638D01*
X154715601Y-97702203D01*
X154715601Y-97702204D01*
X154715600Y-97702204D01*
X154705100Y-97804983D01*
X154705100Y-98580001D01*
X154705101Y-98580019D01*
X154715600Y-98682796D01*
X154715601Y-98682799D01*
X154770785Y-98849331D01*
X154770787Y-98849336D01*
X154801033Y-98898372D01*
X154862888Y-98998656D01*
X154986944Y-99122712D01*
X155136266Y-99214814D01*
X155245105Y-99250879D01*
X155302549Y-99290652D01*
X155329372Y-99355167D01*
X155330100Y-99368585D01*
X155330100Y-102746503D01*
X155310415Y-102813542D01*
X155257611Y-102859297D01*
X155188453Y-102869241D01*
X155124897Y-102840216D01*
X155118419Y-102834184D01*
X152775862Y-100491627D01*
X152742377Y-100430304D01*
X152747361Y-100360612D01*
X152763225Y-100331062D01*
X152783291Y-100303444D01*
X152866248Y-100140631D01*
X152922715Y-99966845D01*
X152935419Y-99886631D01*
X152951300Y-99786370D01*
X152951300Y-99603629D01*
X152922715Y-99423158D01*
X152922715Y-99423155D01*
X152866248Y-99249369D01*
X152783291Y-99086556D01*
X152675885Y-98938724D01*
X152546676Y-98809515D01*
X152398844Y-98702109D01*
X152236031Y-98619152D01*
X152062245Y-98562685D01*
X152062243Y-98562684D01*
X152062241Y-98562684D01*
X151966202Y-98547473D01*
X151903067Y-98517544D01*
X151866136Y-98458232D01*
X151867134Y-98388370D01*
X151905744Y-98330137D01*
X151966202Y-98302527D01*
X152005654Y-98296278D01*
X152062245Y-98287315D01*
X152236031Y-98230848D01*
X152398844Y-98147891D01*
X152546676Y-98040485D01*
X152675885Y-97911276D01*
X152783291Y-97763444D01*
X152866248Y-97600631D01*
X152922715Y-97426845D01*
X152948778Y-97262290D01*
X152951300Y-97246370D01*
X152951300Y-97063629D01*
X152929130Y-96923656D01*
X152922715Y-96883155D01*
X152866248Y-96709369D01*
X152783291Y-96546556D01*
X152675885Y-96398724D01*
X152546676Y-96269515D01*
X152398844Y-96162109D01*
X152300087Y-96111790D01*
X152236033Y-96079153D01*
X152236032Y-96079152D01*
X152236031Y-96079152D01*
X152062245Y-96022685D01*
X152062243Y-96022684D01*
X152062241Y-96022684D01*
X151966202Y-96007473D01*
X151903067Y-95977544D01*
X151866136Y-95918232D01*
X151867134Y-95848370D01*
X151905744Y-95790137D01*
X151966202Y-95762527D01*
X152003501Y-95756619D01*
X152062245Y-95747315D01*
X152236031Y-95690848D01*
X152398844Y-95607891D01*
X152546676Y-95500485D01*
X152675885Y-95371276D01*
X152783291Y-95223444D01*
X152866248Y-95060631D01*
X152922715Y-94886845D01*
X152935419Y-94806631D01*
X152951300Y-94706370D01*
X152951300Y-94523629D01*
X152922715Y-94343158D01*
X152922715Y-94343155D01*
X152866248Y-94169369D01*
X152783291Y-94006556D01*
X152675885Y-93858724D01*
X152546676Y-93729515D01*
X152398844Y-93622109D01*
X152236033Y-93539153D01*
X152236032Y-93539152D01*
X152236031Y-93539152D01*
X152062245Y-93482685D01*
X152062243Y-93482684D01*
X152062241Y-93482684D01*
X151966202Y-93467473D01*
X151903067Y-93437544D01*
X151866136Y-93378232D01*
X151867134Y-93308370D01*
X151905744Y-93250137D01*
X151966202Y-93222527D01*
X152003501Y-93216619D01*
X152062245Y-93207315D01*
X152236031Y-93150848D01*
X152398844Y-93067891D01*
X152546676Y-92960485D01*
X152675885Y-92831276D01*
X152783291Y-92683444D01*
X152866248Y-92520631D01*
X152922715Y-92346845D01*
X152945293Y-92204292D01*
X152951300Y-92166370D01*
X152951300Y-91983629D01*
X152922715Y-91803158D01*
X152922715Y-91803155D01*
X152866248Y-91629369D01*
X152783291Y-91466556D01*
X152763223Y-91438934D01*
X152739745Y-91373130D01*
X152755571Y-91305076D01*
X152775858Y-91278375D01*
X160679506Y-83374728D01*
X160679511Y-83374724D01*
X160689714Y-83364520D01*
X160689716Y-83364520D01*
X160801520Y-83252716D01*
X160852451Y-83164500D01*
X160880577Y-83115785D01*
X160921501Y-82963057D01*
X160921501Y-82818802D01*
X160941186Y-82751763D01*
X160993990Y-82706008D01*
X161063148Y-82696064D01*
X161083807Y-82700868D01*
X161155757Y-82724246D01*
X161365713Y-82757500D01*
X161365714Y-82757500D01*
X161578286Y-82757500D01*
X161578287Y-82757500D01*
X161788243Y-82724246D01*
X161830523Y-82710507D01*
X161900362Y-82708511D01*
X161956522Y-82740757D01*
X163193181Y-83977416D01*
X163226666Y-84038739D01*
X163229500Y-84065097D01*
X163229500Y-87050234D01*
X163209815Y-87117273D01*
X163208602Y-87119125D01*
X163120609Y-87250814D01*
X163120602Y-87250827D01*
X163060264Y-87396498D01*
X163060261Y-87396510D01*
X163029500Y-87551153D01*
X163029500Y-87708846D01*
X163060261Y-87863489D01*
X163060264Y-87863501D01*
X163120602Y-88009172D01*
X163120609Y-88009185D01*
X163208210Y-88140288D01*
X163208213Y-88140292D01*
X163319707Y-88251786D01*
X163319711Y-88251789D01*
X163450814Y-88339390D01*
X163450827Y-88339397D01*
X163576880Y-88391609D01*
X163596503Y-88399737D01*
X163736081Y-88427501D01*
X163751153Y-88430499D01*
X163751156Y-88430500D01*
X163751158Y-88430500D01*
X163908844Y-88430500D01*
X163908845Y-88430499D01*
X164063497Y-88399737D01*
X164209179Y-88339394D01*
X164340289Y-88251789D01*
X164451789Y-88140289D01*
X164539394Y-88009179D01*
X164599737Y-87863497D01*
X164630500Y-87708842D01*
X164630500Y-87551158D01*
X164630500Y-87551155D01*
X164630499Y-87551153D01*
X164616644Y-87481500D01*
X164599737Y-87396503D01*
X164595061Y-87385213D01*
X164539397Y-87250827D01*
X164539390Y-87250814D01*
X164451398Y-87119125D01*
X164430520Y-87052447D01*
X164430500Y-87050234D01*
X164430500Y-83854060D01*
X164430501Y-83854047D01*
X164430501Y-83685944D01*
X164430501Y-83685943D01*
X164389577Y-83533216D01*
X164355685Y-83474513D01*
X164310524Y-83396290D01*
X164310518Y-83396282D01*
X163860107Y-82945871D01*
X163826622Y-82884548D01*
X163831606Y-82814856D01*
X163873478Y-82758923D01*
X163938942Y-82734506D01*
X163967179Y-82735716D01*
X164104713Y-82757500D01*
X164104714Y-82757500D01*
X164317286Y-82757500D01*
X164317287Y-82757500D01*
X164527243Y-82724246D01*
X164729412Y-82658557D01*
X164918816Y-82562051D01*
X165024347Y-82485379D01*
X165090786Y-82437109D01*
X165090788Y-82437106D01*
X165090792Y-82437104D01*
X165241104Y-82286792D01*
X165241106Y-82286788D01*
X165241109Y-82286786D01*
X165366048Y-82114820D01*
X165366049Y-82114819D01*
X165366051Y-82114816D01*
X165462557Y-81925412D01*
X165528246Y-81723243D01*
X165561500Y-81513287D01*
X165561500Y-81300713D01*
X165528246Y-81090757D01*
X165462557Y-80888588D01*
X165366051Y-80699184D01*
X165366046Y-80699177D01*
X165352032Y-80679887D01*
X165328553Y-80614081D01*
X165344380Y-80546027D01*
X165364666Y-80519327D01*
X165720506Y-80163488D01*
X165720511Y-80163484D01*
X165730714Y-80153280D01*
X165730716Y-80153280D01*
X165842520Y-80041476D01*
X165867543Y-79998133D01*
X165918108Y-79949919D01*
X165986715Y-79936695D01*
X166047815Y-79959816D01*
X166087691Y-79988786D01*
X166092184Y-79992051D01*
X166281588Y-80088557D01*
X166483757Y-80154246D01*
X166693713Y-80187500D01*
X166693714Y-80187500D01*
X166906286Y-80187500D01*
X166906287Y-80187500D01*
X167116243Y-80154246D01*
X167318412Y-80088557D01*
X167507816Y-79992051D01*
X167552184Y-79959816D01*
X167679786Y-79867109D01*
X167679788Y-79867106D01*
X167679792Y-79867104D01*
X167830104Y-79716792D01*
X167830106Y-79716788D01*
X167830109Y-79716786D01*
X167955048Y-79544820D01*
X167955050Y-79544817D01*
X167955051Y-79544816D01*
X168051557Y-79355412D01*
X168117246Y-79153243D01*
X168150500Y-78943287D01*
X168150500Y-78730713D01*
X168117246Y-78520757D01*
X168093870Y-78448816D01*
X168091876Y-78378977D01*
X168127956Y-78319144D01*
X168190657Y-78288316D01*
X168211802Y-78286500D01*
X172968945Y-78286500D01*
X172995931Y-78294424D01*
G37*
%TD.AperFunction*%
%TA.AperFunction,Conductor*%
G36*
X141653244Y-91733785D02*
G01*
X141698999Y-91786589D01*
X141708943Y-91855747D01*
X141708678Y-91857499D01*
X141688700Y-91983630D01*
X141688700Y-92166370D01*
X141717284Y-92346841D01*
X141717285Y-92346845D01*
X141765261Y-92494500D01*
X141773753Y-92520633D01*
X141780578Y-92534027D01*
X141856709Y-92683444D01*
X141964115Y-92831276D01*
X142093324Y-92960485D01*
X142241156Y-93067891D01*
X142403969Y-93150848D01*
X142577755Y-93207315D01*
X142621812Y-93214293D01*
X142673797Y-93222527D01*
X142736932Y-93252456D01*
X142773863Y-93311768D01*
X142772865Y-93381631D01*
X142734255Y-93439863D01*
X142673797Y-93467473D01*
X142577758Y-93482684D01*
X142403966Y-93539153D01*
X142241155Y-93622109D01*
X142093321Y-93729517D01*
X141964117Y-93858721D01*
X141856709Y-94006555D01*
X141773753Y-94169366D01*
X141717284Y-94343158D01*
X141688700Y-94523629D01*
X141688700Y-94706370D01*
X141714013Y-94866186D01*
X141717285Y-94886845D01*
X141773752Y-95060631D01*
X141856709Y-95223444D01*
X141964115Y-95371276D01*
X142093324Y-95500485D01*
X142241156Y-95607891D01*
X142403969Y-95690848D01*
X142577755Y-95747315D01*
X142627139Y-95755136D01*
X142675395Y-95762780D01*
X142738530Y-95792709D01*
X142775461Y-95852021D01*
X142774463Y-95921883D01*
X142735853Y-95980116D01*
X142675396Y-96007726D01*
X142577870Y-96023173D01*
X142404156Y-96079616D01*
X142241417Y-96162537D01*
X142093648Y-96269899D01*
X142093647Y-96269899D01*
X141964499Y-96399047D01*
X141964499Y-96399048D01*
X141857137Y-96546817D01*
X141774216Y-96709558D01*
X141717772Y-96883271D01*
X141714331Y-96904999D01*
X141714332Y-96905000D01*
X143185263Y-96905000D01*
X143184799Y-96905464D01*
X143131295Y-96998135D01*
X143103600Y-97101496D01*
X143103600Y-97208504D01*
X143131295Y-97311865D01*
X143184799Y-97404536D01*
X143185263Y-97405000D01*
X141714332Y-97405000D01*
X141717772Y-97426728D01*
X141774216Y-97600441D01*
X141857137Y-97763182D01*
X141964499Y-97910951D01*
X141964499Y-97910952D01*
X142093647Y-98040100D01*
X142241417Y-98147462D01*
X142404156Y-98230383D01*
X142577870Y-98286826D01*
X142675395Y-98302273D01*
X142738529Y-98332202D01*
X142775461Y-98391513D01*
X142774463Y-98461376D01*
X142735854Y-98519609D01*
X142675396Y-98547219D01*
X142577757Y-98562684D01*
X142403966Y-98619153D01*
X142241155Y-98702109D01*
X142093321Y-98809517D01*
X141964117Y-98938721D01*
X141856709Y-99086555D01*
X141773753Y-99249366D01*
X141717284Y-99423158D01*
X141688700Y-99603629D01*
X141688700Y-99786370D01*
X141714757Y-99950884D01*
X141717285Y-99966845D01*
X141773752Y-100140631D01*
X141856709Y-100303444D01*
X141964115Y-100451276D01*
X142093324Y-100580485D01*
X142241156Y-100687891D01*
X142403969Y-100770848D01*
X142577755Y-100827315D01*
X142621812Y-100834293D01*
X142673797Y-100842527D01*
X142736932Y-100872456D01*
X142773863Y-100931768D01*
X142772865Y-101001631D01*
X142734255Y-101059863D01*
X142673797Y-101087473D01*
X142577758Y-101102684D01*
X142403966Y-101159153D01*
X142241155Y-101242109D01*
X142093321Y-101349517D01*
X141964117Y-101478721D01*
X141856709Y-101626555D01*
X141773753Y-101789366D01*
X141717284Y-101963158D01*
X141688700Y-102143629D01*
X141688700Y-102326370D01*
X141714013Y-102486186D01*
X141717285Y-102506845D01*
X141768477Y-102664397D01*
X141773753Y-102680633D01*
X141821930Y-102775187D01*
X141856709Y-102843444D01*
X141964115Y-102991276D01*
X142093324Y-103120485D01*
X142241156Y-103227891D01*
X142403969Y-103310848D01*
X142577755Y-103367315D01*
X142621812Y-103374293D01*
X142673797Y-103382527D01*
X142736932Y-103412456D01*
X142773863Y-103471768D01*
X142772865Y-103541631D01*
X142734255Y-103599863D01*
X142673797Y-103627473D01*
X142577758Y-103642684D01*
X142403966Y-103699153D01*
X142241155Y-103782109D01*
X142093321Y-103889517D01*
X141964117Y-104018721D01*
X141856709Y-104166555D01*
X141773753Y-104329366D01*
X141717282Y-104503163D01*
X141717252Y-104503291D01*
X141717227Y-104503334D01*
X141715780Y-104507788D01*
X141714843Y-104507483D01*
X141682445Y-104563874D01*
X141620411Y-104596022D01*
X141550844Y-104589528D01*
X141509004Y-104561994D01*
X139066819Y-102119809D01*
X139033334Y-102058486D01*
X139030500Y-102032128D01*
X139030500Y-99368585D01*
X139050185Y-99301546D01*
X139102989Y-99255791D01*
X139115489Y-99250881D01*
X139224334Y-99214814D01*
X139373656Y-99122712D01*
X139497712Y-98998656D01*
X139589814Y-98849334D01*
X139644999Y-98682797D01*
X139655500Y-98580009D01*
X139655499Y-97804992D01*
X139644999Y-97702203D01*
X139589814Y-97535666D01*
X139497712Y-97386344D01*
X139373656Y-97262288D01*
X139370819Y-97260538D01*
X139369283Y-97258830D01*
X139367989Y-97257807D01*
X139368163Y-97257585D01*
X139324096Y-97208594D01*
X139312872Y-97139632D01*
X139340713Y-97075549D01*
X139370817Y-97049462D01*
X139373656Y-97047712D01*
X139497712Y-96923656D01*
X139588228Y-96776904D01*
X139640176Y-96730180D01*
X139693767Y-96718001D01*
X139775154Y-96718001D01*
X139775157Y-96718001D01*
X139927885Y-96677077D01*
X139988461Y-96642103D01*
X140064816Y-96598020D01*
X140176620Y-96486216D01*
X140176620Y-96486214D01*
X140186821Y-96476014D01*
X140186824Y-96476009D01*
X140423617Y-96239216D01*
X140484939Y-96205734D01*
X140511297Y-96202900D01*
X140591644Y-96202900D01*
X140591645Y-96202899D01*
X140746297Y-96172137D01*
X140891979Y-96111794D01*
X141023089Y-96024189D01*
X141134589Y-95912689D01*
X141222194Y-95781579D01*
X141282537Y-95635897D01*
X141313300Y-95481242D01*
X141313300Y-95323558D01*
X141313300Y-95323555D01*
X141313299Y-95323553D01*
X141286194Y-95187288D01*
X141282537Y-95168903D01*
X141282421Y-95168623D01*
X141222197Y-95023227D01*
X141222190Y-95023214D01*
X141134589Y-94892111D01*
X141134586Y-94892107D01*
X141023092Y-94780613D01*
X141023088Y-94780610D01*
X140891985Y-94693009D01*
X140891972Y-94693002D01*
X140746301Y-94632664D01*
X140746289Y-94632661D01*
X140591645Y-94601900D01*
X140591642Y-94601900D01*
X140433958Y-94601900D01*
X140433955Y-94601900D01*
X140279310Y-94632661D01*
X140279298Y-94632664D01*
X140133627Y-94693002D01*
X140133614Y-94693009D01*
X140002511Y-94780610D01*
X140002507Y-94780613D01*
X139891013Y-94892107D01*
X139891010Y-94892111D01*
X139803409Y-95023214D01*
X139803402Y-95023227D01*
X139743064Y-95168898D01*
X139743061Y-95168908D01*
X139737390Y-95197420D01*
X139728625Y-95214175D01*
X139724606Y-95232654D01*
X139705861Y-95257692D01*
X139705005Y-95259331D01*
X139703455Y-95260908D01*
X139663048Y-95301316D01*
X139601726Y-95334802D01*
X139532034Y-95329818D01*
X139487685Y-95301317D01*
X139373657Y-95187289D01*
X139373656Y-95187288D01*
X139240793Y-95105338D01*
X139224336Y-95095187D01*
X139224331Y-95095185D01*
X139222862Y-95094698D01*
X139057797Y-95040001D01*
X139057795Y-95040000D01*
X138955010Y-95029500D01*
X137904998Y-95029500D01*
X137904980Y-95029501D01*
X137802203Y-95040000D01*
X137802200Y-95040001D01*
X137635668Y-95095185D01*
X137635663Y-95095187D01*
X137486342Y-95187289D01*
X137362289Y-95311342D01*
X137270187Y-95460663D01*
X137270185Y-95460668D01*
X137264770Y-95477009D01*
X137215001Y-95627203D01*
X137215001Y-95627204D01*
X137215000Y-95627204D01*
X137204500Y-95729983D01*
X137204500Y-96505001D01*
X137204501Y-96505019D01*
X137215000Y-96607796D01*
X137215001Y-96607799D01*
X137270185Y-96774331D01*
X137270187Y-96774336D01*
X137271772Y-96776905D01*
X137362287Y-96923655D01*
X137362289Y-96923657D01*
X137486346Y-97047714D01*
X137489182Y-97049463D01*
X137490717Y-97051170D01*
X137492011Y-97052193D01*
X137491836Y-97052414D01*
X137535905Y-97101411D01*
X137547126Y-97170374D01*
X137519282Y-97234456D01*
X137489182Y-97260537D01*
X137486346Y-97262285D01*
X137362289Y-97386342D01*
X137270187Y-97535663D01*
X137270185Y-97535668D01*
X137259260Y-97568638D01*
X137215001Y-97702203D01*
X137215001Y-97702204D01*
X137215000Y-97702204D01*
X137204500Y-97804983D01*
X137204500Y-98580001D01*
X137204501Y-98580019D01*
X137215000Y-98682796D01*
X137215001Y-98682799D01*
X137270185Y-98849331D01*
X137270187Y-98849336D01*
X137300433Y-98898372D01*
X137362288Y-98998656D01*
X137486344Y-99122712D01*
X137635666Y-99214814D01*
X137744505Y-99250879D01*
X137801949Y-99290652D01*
X137828772Y-99355167D01*
X137829500Y-99368585D01*
X137829500Y-102245555D01*
X137829499Y-102245573D01*
X137829499Y-102411279D01*
X137829498Y-102411279D01*
X137870423Y-102564011D01*
X137870424Y-102564012D01*
X137870737Y-102564554D01*
X137870861Y-102565068D01*
X137873534Y-102571520D01*
X137872527Y-102571936D01*
X137887207Y-102632455D01*
X137864353Y-102698481D01*
X137809431Y-102741670D01*
X137739877Y-102748309D01*
X137677775Y-102716291D01*
X137675667Y-102714232D01*
X135453062Y-100491627D01*
X135419577Y-100430304D01*
X135424561Y-100360612D01*
X135440425Y-100331062D01*
X135460491Y-100303444D01*
X135543448Y-100140631D01*
X135599915Y-99966845D01*
X135612619Y-99886631D01*
X135628500Y-99786370D01*
X135628500Y-99603629D01*
X135599915Y-99423158D01*
X135599915Y-99423155D01*
X135543448Y-99249369D01*
X135460491Y-99086556D01*
X135353085Y-98938724D01*
X135223876Y-98809515D01*
X135076044Y-98702109D01*
X134913231Y-98619152D01*
X134739445Y-98562685D01*
X134739443Y-98562684D01*
X134739441Y-98562684D01*
X134643402Y-98547473D01*
X134580267Y-98517544D01*
X134543336Y-98458232D01*
X134544334Y-98388370D01*
X134582944Y-98330137D01*
X134643402Y-98302527D01*
X134682854Y-98296278D01*
X134739445Y-98287315D01*
X134913231Y-98230848D01*
X135076044Y-98147891D01*
X135223876Y-98040485D01*
X135353085Y-97911276D01*
X135460491Y-97763444D01*
X135543448Y-97600631D01*
X135599915Y-97426845D01*
X135625978Y-97262290D01*
X135628500Y-97246370D01*
X135628500Y-97063629D01*
X135606330Y-96923656D01*
X135599915Y-96883155D01*
X135543448Y-96709369D01*
X135460491Y-96546556D01*
X135353085Y-96398724D01*
X135223876Y-96269515D01*
X135076044Y-96162109D01*
X134977287Y-96111790D01*
X134913233Y-96079153D01*
X134913232Y-96079152D01*
X134913231Y-96079152D01*
X134739445Y-96022685D01*
X134739443Y-96022684D01*
X134739441Y-96022684D01*
X134643402Y-96007473D01*
X134580267Y-95977544D01*
X134543336Y-95918232D01*
X134544334Y-95848370D01*
X134582944Y-95790137D01*
X134643402Y-95762527D01*
X134680701Y-95756619D01*
X134739445Y-95747315D01*
X134913231Y-95690848D01*
X135076044Y-95607891D01*
X135223876Y-95500485D01*
X135353085Y-95371276D01*
X135460491Y-95223444D01*
X135543448Y-95060631D01*
X135599915Y-94886845D01*
X135612619Y-94806631D01*
X135628500Y-94706370D01*
X135628500Y-94523629D01*
X135599915Y-94343158D01*
X135599915Y-94343155D01*
X135543448Y-94169369D01*
X135460491Y-94006556D01*
X135353085Y-93858724D01*
X135223876Y-93729515D01*
X135076044Y-93622109D01*
X134913233Y-93539153D01*
X134913232Y-93539152D01*
X134913231Y-93539152D01*
X134739445Y-93482685D01*
X134739443Y-93482684D01*
X134739441Y-93482684D01*
X134643402Y-93467473D01*
X134580267Y-93437544D01*
X134543336Y-93378232D01*
X134544334Y-93308370D01*
X134582944Y-93250137D01*
X134643402Y-93222527D01*
X134680701Y-93216619D01*
X134739445Y-93207315D01*
X134913231Y-93150848D01*
X135076044Y-93067891D01*
X135223876Y-92960485D01*
X135353085Y-92831276D01*
X135460491Y-92683444D01*
X135543448Y-92520631D01*
X135599915Y-92346845D01*
X135622493Y-92204292D01*
X135628500Y-92166370D01*
X135628500Y-91983630D01*
X135608522Y-91857499D01*
X135617476Y-91788205D01*
X135662472Y-91734753D01*
X135729224Y-91714113D01*
X135730995Y-91714100D01*
X141586205Y-91714100D01*
X141653244Y-91733785D01*
G37*
%TD.AperFunction*%
%TA.AperFunction,Conductor*%
G36*
X144460457Y-81987531D02*
G01*
X144516390Y-82029403D01*
X144527608Y-82047418D01*
X144561951Y-82114819D01*
X144686890Y-82286786D01*
X144837213Y-82437109D01*
X145009179Y-82562048D01*
X145009181Y-82562049D01*
X145009184Y-82562051D01*
X145198588Y-82658557D01*
X145400757Y-82724246D01*
X145610713Y-82757500D01*
X145610714Y-82757500D01*
X145823286Y-82757500D01*
X145823287Y-82757500D01*
X146033243Y-82724246D01*
X146075523Y-82710507D01*
X146145362Y-82708511D01*
X146201522Y-82740757D01*
X146683181Y-83222416D01*
X146716666Y-83283739D01*
X146719500Y-83310097D01*
X146719500Y-88320234D01*
X146699815Y-88387273D01*
X146698602Y-88389125D01*
X146610609Y-88520814D01*
X146610602Y-88520827D01*
X146550264Y-88666498D01*
X146550261Y-88666510D01*
X146519500Y-88821153D01*
X146519500Y-88978846D01*
X146550261Y-89133489D01*
X146550264Y-89133501D01*
X146610602Y-89279172D01*
X146610609Y-89279185D01*
X146698210Y-89410288D01*
X146698213Y-89410292D01*
X146809707Y-89521786D01*
X146809711Y-89521789D01*
X146938423Y-89607792D01*
X146983228Y-89661404D01*
X146991935Y-89730729D01*
X146961781Y-89793757D01*
X146957213Y-89798575D01*
X146279009Y-90476781D01*
X146217686Y-90510266D01*
X146191328Y-90513100D01*
X145133423Y-90513100D01*
X145066384Y-90493415D01*
X145020629Y-90440611D01*
X145010685Y-90371453D01*
X145039710Y-90307897D01*
X145045742Y-90301419D01*
X145055885Y-90291276D01*
X145163291Y-90143444D01*
X145246248Y-89980631D01*
X145302715Y-89806845D01*
X145324452Y-89669605D01*
X145331300Y-89626370D01*
X145331300Y-89443629D01*
X145307479Y-89293235D01*
X145302715Y-89263155D01*
X145246248Y-89089369D01*
X145163291Y-88926556D01*
X145055885Y-88778724D01*
X144926676Y-88649515D01*
X144778844Y-88542109D01*
X144616031Y-88459152D01*
X144442245Y-88402685D01*
X144442243Y-88402684D01*
X144442241Y-88402684D01*
X144261770Y-88374100D01*
X144261765Y-88374100D01*
X142758235Y-88374100D01*
X142758230Y-88374100D01*
X142577758Y-88402684D01*
X142403966Y-88459153D01*
X142241155Y-88542109D01*
X142093321Y-88649517D01*
X141964117Y-88778721D01*
X141856709Y-88926555D01*
X141773753Y-89089366D01*
X141717284Y-89263158D01*
X141688700Y-89443629D01*
X141688700Y-89626370D01*
X141715212Y-89793757D01*
X141717285Y-89806845D01*
X141773752Y-89980631D01*
X141856709Y-90143444D01*
X141964115Y-90291276D01*
X141964117Y-90291278D01*
X141974258Y-90301419D01*
X142007743Y-90362742D01*
X142002759Y-90432434D01*
X141960887Y-90488367D01*
X141895423Y-90512784D01*
X141886577Y-90513100D01*
X136131737Y-90513100D01*
X136064698Y-90493415D01*
X136018943Y-90440611D01*
X136008999Y-90371453D01*
X136038024Y-90307897D01*
X136044056Y-90301419D01*
X140110187Y-86235288D01*
X144329444Y-82016030D01*
X144390765Y-81982547D01*
X144460457Y-81987531D01*
G37*
%TD.AperFunction*%
%TD*%
M02*
